G04*
G04 #@! TF.GenerationSoftware,Altium Limited,Altium Designer,21.3.2 (30)*
G04*
G04 Layer_Color=65535*
%FSLAX25Y25*%
%MOIN*%
G70*
G04*
G04 #@! TF.SameCoordinates,7ABE349C-8111-4F2D-99A8-EBCD4980564F*
G04*
G04*
G04 #@! TF.FilePolarity,Positive*
G04*
G01*
G75*
%ADD10C,0.00394*%
%ADD11C,0.00984*%
%ADD12C,0.00787*%
G36*
X133241Y49979D02*
X133300Y49972D01*
X133372Y49966D01*
X133444Y49953D01*
X133530Y49940D01*
X133707Y49894D01*
X133805Y49861D01*
X133897Y49822D01*
X133989Y49776D01*
X134074Y49730D01*
X134159Y49664D01*
X134238Y49599D01*
X134245Y49592D01*
X134258Y49579D01*
X134277Y49559D01*
X134304Y49526D01*
X134330Y49487D01*
X134369Y49441D01*
X134402Y49382D01*
X134441Y49316D01*
X134481Y49244D01*
X134520Y49159D01*
X134553Y49067D01*
X134586Y48969D01*
X134619Y48864D01*
X134638Y48752D01*
X134658Y48628D01*
X134664Y48496D01*
X133844Y48450D01*
Y48457D01*
Y48470D01*
X133838Y48490D01*
X133831Y48516D01*
X133818Y48582D01*
X133792Y48667D01*
X133759Y48759D01*
X133720Y48851D01*
X133667Y48936D01*
X133608Y49002D01*
X133602Y49008D01*
X133576Y49028D01*
X133536Y49054D01*
X133477Y49080D01*
X133405Y49106D01*
X133320Y49133D01*
X133221Y49152D01*
X133103Y49159D01*
X133051D01*
X132992Y49152D01*
X132920Y49139D01*
X132834Y49126D01*
X132749Y49100D01*
X132670Y49067D01*
X132598Y49021D01*
X132592Y49015D01*
X132572Y48995D01*
X132539Y48969D01*
X132513Y48929D01*
X132480Y48877D01*
X132447Y48818D01*
X132428Y48746D01*
X132421Y48674D01*
Y48667D01*
Y48641D01*
X132428Y48601D01*
X132441Y48555D01*
X132460Y48503D01*
X132487Y48450D01*
X132526Y48392D01*
X132579Y48339D01*
X132585Y48333D01*
X132611Y48313D01*
X132657Y48287D01*
X132690Y48267D01*
X132729Y48247D01*
X132775Y48228D01*
X132828Y48201D01*
X132887Y48175D01*
X132959Y48149D01*
X133038Y48123D01*
X133123Y48096D01*
X133215Y48063D01*
X133320Y48031D01*
X133326D01*
X133346Y48024D01*
X133379Y48011D01*
X133418Y47998D01*
X133471Y47985D01*
X133530Y47965D01*
X133661Y47919D01*
X133805Y47860D01*
X133956Y47801D01*
X134087Y47729D01*
X134153Y47696D01*
X134205Y47657D01*
X134219Y47650D01*
X134251Y47624D01*
X134297Y47578D01*
X134363Y47519D01*
X134428Y47447D01*
X134501Y47355D01*
X134566Y47257D01*
X134625Y47145D01*
Y47139D01*
X134632Y47132D01*
X134638Y47112D01*
X134651Y47093D01*
X134671Y47027D01*
X134704Y46935D01*
X134730Y46830D01*
X134750Y46699D01*
X134769Y46555D01*
X134776Y46397D01*
Y46391D01*
Y46371D01*
Y46338D01*
X134769Y46292D01*
X134763Y46233D01*
X134756Y46168D01*
X134743Y46102D01*
X134724Y46023D01*
X134678Y45853D01*
X134645Y45761D01*
X134606Y45669D01*
X134560Y45577D01*
X134507Y45485D01*
X134448Y45400D01*
X134376Y45315D01*
X134369Y45308D01*
X134356Y45295D01*
X134336Y45276D01*
X134304Y45249D01*
X134258Y45216D01*
X134205Y45177D01*
X134146Y45138D01*
X134074Y45098D01*
X133995Y45059D01*
X133904Y45020D01*
X133799Y44980D01*
X133687Y44947D01*
X133569Y44921D01*
X133438Y44902D01*
X133293Y44888D01*
X133143Y44882D01*
X133103D01*
X133077Y44888D01*
X133044D01*
X133005Y44895D01*
X132906Y44908D01*
X132795Y44934D01*
X132664Y44974D01*
X132526Y45026D01*
X132382Y45092D01*
X132237Y45184D01*
X132087Y45295D01*
X132021Y45361D01*
X131949Y45433D01*
X131883Y45512D01*
X131824Y45597D01*
X131765Y45689D01*
X131706Y45787D01*
X131660Y45899D01*
X131614Y46017D01*
X131575Y46141D01*
X131542Y46279D01*
X131516Y46424D01*
X131496Y46574D01*
X132290Y46666D01*
Y46653D01*
X132296Y46627D01*
X132309Y46581D01*
X132323Y46522D01*
X132342Y46450D01*
X132369Y46364D01*
X132408Y46279D01*
X132447Y46194D01*
X132500Y46109D01*
X132565Y46023D01*
X132631Y45938D01*
X132716Y45872D01*
X132808Y45807D01*
X132920Y45761D01*
X133038Y45735D01*
X133169Y45722D01*
X133228D01*
X133293Y45735D01*
X133379Y45748D01*
X133471Y45768D01*
X133569Y45800D01*
X133661Y45846D01*
X133746Y45912D01*
X133753Y45918D01*
X133779Y45945D01*
X133812Y45990D01*
X133858Y46043D01*
X133897Y46115D01*
X133930Y46194D01*
X133956Y46286D01*
X133963Y46391D01*
Y46397D01*
Y46417D01*
X133956Y46450D01*
Y46489D01*
X133930Y46587D01*
X133910Y46633D01*
X133884Y46679D01*
Y46686D01*
X133871Y46699D01*
X133851Y46719D01*
X133831Y46745D01*
X133799Y46778D01*
X133759Y46810D01*
X133713Y46843D01*
X133661Y46870D01*
X133654Y46876D01*
X133628Y46883D01*
X133582Y46902D01*
X133549Y46916D01*
X133510Y46929D01*
X133471Y46948D01*
X133418Y46968D01*
X133352Y46988D01*
X133287Y47014D01*
X133208Y47034D01*
X133123Y47066D01*
X133031Y47093D01*
X132926Y47125D01*
X132920D01*
X132906Y47132D01*
X132874Y47139D01*
X132841Y47152D01*
X132801Y47165D01*
X132749Y47184D01*
X132638Y47230D01*
X132513Y47276D01*
X132388Y47335D01*
X132270Y47401D01*
X132165Y47466D01*
X132152Y47473D01*
X132126Y47499D01*
X132080Y47545D01*
X132027Y47598D01*
X131962Y47670D01*
X131903Y47749D01*
X131837Y47847D01*
X131778Y47952D01*
Y47958D01*
X131772Y47965D01*
X131758Y48004D01*
X131732Y48063D01*
X131712Y48149D01*
X131686Y48241D01*
X131660Y48352D01*
X131647Y48477D01*
X131640Y48601D01*
Y48608D01*
Y48621D01*
Y48641D01*
Y48667D01*
X131647Y48706D01*
Y48746D01*
X131660Y48844D01*
X131686Y48956D01*
X131712Y49080D01*
X131758Y49205D01*
X131817Y49330D01*
Y49336D01*
X131824Y49343D01*
X131850Y49382D01*
X131890Y49441D01*
X131949Y49513D01*
X132021Y49592D01*
X132106Y49671D01*
X132211Y49749D01*
X132323Y49815D01*
X132329D01*
X132336Y49822D01*
X132355Y49828D01*
X132382Y49841D01*
X132414Y49854D01*
X132454Y49867D01*
X132546Y49900D01*
X132664Y49933D01*
X132801Y49959D01*
X132952Y49979D01*
X133123Y49986D01*
X133188D01*
X133241Y49979D01*
D02*
G37*
G36*
X143120Y44967D02*
X142359D01*
Y48851D01*
X141559Y44967D01*
X140772D01*
X139978Y48851D01*
Y44967D01*
X139217D01*
Y49900D01*
X140437D01*
X141165Y46528D01*
X141887Y49900D01*
X143120D01*
Y44967D01*
D02*
G37*
G36*
X137374D02*
X136488D01*
X135052Y49900D01*
X135931D01*
X136954Y46246D01*
X137938Y49900D01*
X138817D01*
X137374Y44967D01*
D02*
G37*
G36*
X148887D02*
X148112D01*
Y48536D01*
X148106Y48529D01*
X148093Y48516D01*
X148067Y48490D01*
X148034Y48457D01*
X147994Y48418D01*
X147942Y48372D01*
X147889Y48319D01*
X147824Y48260D01*
X147752Y48201D01*
X147673Y48142D01*
X147503Y48024D01*
X147312Y47913D01*
X147109Y47821D01*
Y48680D01*
X147115D01*
X147122Y48687D01*
X147142Y48693D01*
X147168Y48706D01*
X147227Y48739D01*
X147312Y48785D01*
X147411Y48844D01*
X147529Y48929D01*
X147647Y49021D01*
X147778Y49139D01*
X147784Y49146D01*
X147791Y49152D01*
X147811Y49172D01*
X147837Y49198D01*
X147896Y49270D01*
X147968Y49362D01*
X148047Y49474D01*
X148126Y49605D01*
X148198Y49756D01*
X148257Y49913D01*
X148887D01*
Y44967D01*
D02*
G37*
G36*
X146033Y46791D02*
X146532D01*
Y45958D01*
X146033D01*
Y44967D01*
X145285D01*
Y45958D01*
X143625D01*
Y46784D01*
X145377Y49913D01*
X146033D01*
Y46791D01*
D02*
G37*
G36*
X120669Y55398D02*
X120713Y55393D01*
X120768Y55388D01*
X120822Y55378D01*
X120886Y55368D01*
X121019Y55334D01*
X121092Y55309D01*
X121161Y55280D01*
X121230Y55245D01*
X121294Y55211D01*
X121358Y55161D01*
X121417Y55112D01*
X121422Y55107D01*
X121432Y55098D01*
X121447Y55083D01*
X121466Y55058D01*
X121486Y55029D01*
X121515Y54994D01*
X121540Y54950D01*
X121570Y54901D01*
X121599Y54847D01*
X121629Y54783D01*
X121653Y54714D01*
X121678Y54640D01*
X121702Y54561D01*
X121717Y54478D01*
X121732Y54384D01*
X121737Y54286D01*
X121122Y54251D01*
Y54256D01*
Y54266D01*
X121117Y54281D01*
X121112Y54300D01*
X121102Y54350D01*
X121082Y54414D01*
X121058Y54483D01*
X121028Y54551D01*
X120989Y54615D01*
X120945Y54665D01*
X120940Y54669D01*
X120920Y54684D01*
X120891Y54704D01*
X120846Y54724D01*
X120792Y54743D01*
X120728Y54763D01*
X120654Y54778D01*
X120566Y54783D01*
X120527D01*
X120482Y54778D01*
X120428Y54768D01*
X120364Y54758D01*
X120300Y54738D01*
X120241Y54714D01*
X120187Y54679D01*
X120182Y54674D01*
X120167Y54660D01*
X120143Y54640D01*
X120123Y54611D01*
X120098Y54571D01*
X120074Y54527D01*
X120059Y54473D01*
X120054Y54419D01*
Y54414D01*
Y54394D01*
X120059Y54364D01*
X120069Y54330D01*
X120084Y54291D01*
X120103Y54251D01*
X120133Y54207D01*
X120172Y54168D01*
X120177Y54163D01*
X120197Y54148D01*
X120231Y54128D01*
X120256Y54114D01*
X120285Y54099D01*
X120320Y54084D01*
X120359Y54064D01*
X120404Y54045D01*
X120458Y54025D01*
X120517Y54005D01*
X120581Y53986D01*
X120650Y53961D01*
X120728Y53936D01*
X120733D01*
X120748Y53931D01*
X120773Y53922D01*
X120802Y53912D01*
X120841Y53902D01*
X120886Y53887D01*
X120984Y53853D01*
X121092Y53808D01*
X121205Y53764D01*
X121304Y53710D01*
X121353Y53685D01*
X121392Y53656D01*
X121402Y53651D01*
X121427Y53631D01*
X121461Y53597D01*
X121511Y53553D01*
X121560Y53499D01*
X121614Y53430D01*
X121663Y53356D01*
X121707Y53272D01*
Y53267D01*
X121712Y53262D01*
X121717Y53248D01*
X121727Y53233D01*
X121742Y53184D01*
X121766Y53115D01*
X121786Y53036D01*
X121801Y52938D01*
X121816Y52829D01*
X121820Y52711D01*
Y52706D01*
Y52692D01*
Y52667D01*
X121816Y52633D01*
X121811Y52588D01*
X121806Y52539D01*
X121796Y52490D01*
X121781Y52431D01*
X121747Y52303D01*
X121722Y52234D01*
X121693Y52165D01*
X121658Y52096D01*
X121619Y52027D01*
X121574Y51964D01*
X121520Y51899D01*
X121515Y51895D01*
X121506Y51885D01*
X121491Y51870D01*
X121466Y51850D01*
X121432Y51826D01*
X121392Y51796D01*
X121348Y51767D01*
X121294Y51737D01*
X121235Y51708D01*
X121166Y51678D01*
X121087Y51649D01*
X121004Y51624D01*
X120915Y51604D01*
X120817Y51590D01*
X120709Y51580D01*
X120595Y51575D01*
X120566D01*
X120546Y51580D01*
X120522D01*
X120492Y51585D01*
X120418Y51595D01*
X120335Y51614D01*
X120236Y51644D01*
X120133Y51683D01*
X120025Y51732D01*
X119916Y51801D01*
X119803Y51885D01*
X119754Y51934D01*
X119700Y51988D01*
X119651Y52047D01*
X119606Y52111D01*
X119562Y52180D01*
X119518Y52254D01*
X119483Y52337D01*
X119449Y52426D01*
X119420Y52519D01*
X119395Y52623D01*
X119375Y52731D01*
X119360Y52844D01*
X119956Y52913D01*
Y52903D01*
X119961Y52883D01*
X119971Y52849D01*
X119980Y52805D01*
X119995Y52751D01*
X120015Y52687D01*
X120044Y52623D01*
X120074Y52559D01*
X120113Y52495D01*
X120162Y52431D01*
X120212Y52367D01*
X120276Y52318D01*
X120344Y52268D01*
X120428Y52234D01*
X120517Y52214D01*
X120615Y52205D01*
X120659D01*
X120709Y52214D01*
X120773Y52224D01*
X120841Y52239D01*
X120915Y52264D01*
X120984Y52298D01*
X121048Y52347D01*
X121053Y52352D01*
X121073Y52372D01*
X121097Y52406D01*
X121132Y52446D01*
X121161Y52500D01*
X121186Y52559D01*
X121205Y52628D01*
X121210Y52706D01*
Y52711D01*
Y52726D01*
X121205Y52751D01*
Y52780D01*
X121186Y52854D01*
X121171Y52889D01*
X121151Y52923D01*
Y52928D01*
X121142Y52938D01*
X121127Y52952D01*
X121112Y52972D01*
X121087Y52997D01*
X121058Y53021D01*
X121023Y53046D01*
X120984Y53066D01*
X120979Y53070D01*
X120959Y53075D01*
X120925Y53090D01*
X120900Y53100D01*
X120871Y53110D01*
X120841Y53125D01*
X120802Y53139D01*
X120753Y53154D01*
X120704Y53174D01*
X120645Y53189D01*
X120581Y53213D01*
X120512Y53233D01*
X120433Y53257D01*
X120428D01*
X120418Y53262D01*
X120394Y53267D01*
X120369Y53277D01*
X120340Y53287D01*
X120300Y53302D01*
X120217Y53336D01*
X120123Y53371D01*
X120030Y53415D01*
X119941Y53464D01*
X119862Y53513D01*
X119852Y53518D01*
X119833Y53538D01*
X119798Y53572D01*
X119759Y53612D01*
X119710Y53666D01*
X119666Y53725D01*
X119616Y53799D01*
X119572Y53877D01*
Y53882D01*
X119567Y53887D01*
X119557Y53917D01*
X119538Y53961D01*
X119523Y54025D01*
X119503Y54094D01*
X119483Y54177D01*
X119474Y54271D01*
X119469Y54364D01*
Y54369D01*
Y54379D01*
Y54394D01*
Y54414D01*
X119474Y54443D01*
Y54473D01*
X119483Y54546D01*
X119503Y54630D01*
X119523Y54724D01*
X119557Y54817D01*
X119602Y54911D01*
Y54915D01*
X119606Y54920D01*
X119626Y54950D01*
X119656Y54994D01*
X119700Y55048D01*
X119754Y55107D01*
X119818Y55166D01*
X119897Y55225D01*
X119980Y55275D01*
X119985D01*
X119990Y55280D01*
X120005Y55285D01*
X120025Y55294D01*
X120049Y55304D01*
X120079Y55314D01*
X120148Y55339D01*
X120236Y55363D01*
X120340Y55383D01*
X120453Y55398D01*
X120581Y55403D01*
X120630D01*
X120669Y55398D01*
D02*
G37*
G36*
X89619Y55398D02*
X89663Y55393D01*
X89718Y55383D01*
X89772Y55373D01*
X89836Y55358D01*
X89899Y55339D01*
X89968Y55319D01*
X90042Y55289D01*
X90111Y55255D01*
X90185Y55216D01*
X90254Y55166D01*
X90328Y55117D01*
X90391Y55053D01*
X90396Y55048D01*
X90401Y55043D01*
X90416Y55029D01*
X90431Y55009D01*
X90451Y54979D01*
X90475Y54950D01*
X90500Y54911D01*
X90529Y54866D01*
X90554Y54817D01*
X90583Y54763D01*
X90613Y54704D01*
X90647Y54640D01*
X90672Y54566D01*
X90702Y54492D01*
X90726Y54409D01*
X90751Y54320D01*
X90145Y54143D01*
Y54148D01*
X90141Y54158D01*
Y54173D01*
X90136Y54192D01*
X90116Y54246D01*
X90096Y54310D01*
X90062Y54384D01*
X90022Y54463D01*
X89968Y54537D01*
X89909Y54601D01*
X89899Y54606D01*
X89880Y54625D01*
X89841Y54650D01*
X89796Y54684D01*
X89732Y54714D01*
X89663Y54738D01*
X89585Y54758D01*
X89501Y54763D01*
X89467D01*
X89447Y54758D01*
X89417Y54753D01*
X89383Y54748D01*
X89309Y54729D01*
X89220Y54689D01*
X89176Y54669D01*
X89132Y54640D01*
X89083Y54606D01*
X89038Y54566D01*
X88994Y54522D01*
X88955Y54468D01*
Y54463D01*
X88945Y54453D01*
X88935Y54438D01*
X88920Y54414D01*
X88906Y54379D01*
X88886Y54340D01*
X88871Y54296D01*
X88851Y54237D01*
X88832Y54177D01*
X88812Y54104D01*
X88793Y54025D01*
X88778Y53936D01*
X88763Y53843D01*
X88753Y53740D01*
X88748Y53626D01*
X88743Y53503D01*
Y53494D01*
Y53474D01*
Y53439D01*
X88748Y53390D01*
Y53331D01*
X88753Y53267D01*
X88763Y53193D01*
X88768Y53120D01*
X88793Y52952D01*
X88832Y52790D01*
X88857Y52711D01*
X88881Y52637D01*
X88915Y52569D01*
X88950Y52510D01*
X88955Y52505D01*
X88960Y52495D01*
X88970Y52480D01*
X88989Y52465D01*
X89034Y52416D01*
X89093Y52362D01*
X89171Y52308D01*
X89265Y52259D01*
X89314Y52244D01*
X89368Y52229D01*
X89427Y52219D01*
X89486Y52214D01*
X89496D01*
X89526Y52219D01*
X89570Y52224D01*
X89629Y52239D01*
X89693Y52259D01*
X89767Y52293D01*
X89836Y52337D01*
X89904Y52401D01*
X89914Y52411D01*
X89934Y52436D01*
X89964Y52480D01*
X90003Y52544D01*
X90047Y52628D01*
X90067Y52677D01*
X90087Y52731D01*
X90106Y52790D01*
X90126Y52854D01*
X90145Y52923D01*
X90160Y52997D01*
X90756Y52765D01*
Y52760D01*
X90751Y52741D01*
X90741Y52706D01*
X90726Y52662D01*
X90711Y52613D01*
X90692Y52554D01*
X90672Y52490D01*
X90642Y52421D01*
X90579Y52273D01*
X90500Y52121D01*
X90451Y52052D01*
X90401Y51983D01*
X90347Y51919D01*
X90288Y51860D01*
X90283Y51855D01*
X90273Y51850D01*
X90254Y51836D01*
X90229Y51816D01*
X90200Y51796D01*
X90160Y51772D01*
X90121Y51742D01*
X90072Y51718D01*
X90013Y51693D01*
X89954Y51663D01*
X89890Y51639D01*
X89821Y51619D01*
X89747Y51599D01*
X89668Y51590D01*
X89585Y51580D01*
X89496Y51575D01*
X89472D01*
X89437Y51580D01*
X89398D01*
X89349Y51590D01*
X89289Y51599D01*
X89226Y51614D01*
X89157Y51634D01*
X89078Y51653D01*
X89004Y51683D01*
X88920Y51722D01*
X88842Y51767D01*
X88763Y51816D01*
X88684Y51880D01*
X88611Y51949D01*
X88537Y52027D01*
X88532Y52032D01*
X88517Y52052D01*
X88497Y52082D01*
X88473Y52126D01*
X88438Y52180D01*
X88404Y52244D01*
X88364Y52318D01*
X88325Y52406D01*
X88286Y52500D01*
X88246Y52608D01*
X88212Y52726D01*
X88178Y52854D01*
X88153Y52992D01*
X88133Y53134D01*
X88118Y53292D01*
X88113Y53454D01*
Y53459D01*
Y53464D01*
Y53479D01*
Y53494D01*
X88118Y53543D01*
Y53612D01*
X88128Y53690D01*
X88138Y53784D01*
X88148Y53882D01*
X88168Y53995D01*
X88187Y54109D01*
X88217Y54232D01*
X88251Y54355D01*
X88291Y54478D01*
X88340Y54601D01*
X88399Y54719D01*
X88463Y54832D01*
X88537Y54935D01*
X88542Y54940D01*
X88556Y54955D01*
X88576Y54979D01*
X88605Y55009D01*
X88645Y55043D01*
X88689Y55083D01*
X88743Y55127D01*
X88802Y55171D01*
X88871Y55211D01*
X88945Y55255D01*
X89029Y55294D01*
X89117Y55329D01*
X89211Y55358D01*
X89314Y55383D01*
X89422Y55398D01*
X89535Y55403D01*
X89585D01*
X89619Y55398D01*
D02*
G37*
G36*
X143173Y51639D02*
X142632D01*
Y52027D01*
X142627Y52018D01*
X142607Y51988D01*
X142578Y51949D01*
X142539Y51899D01*
X142494Y51845D01*
X142440Y51791D01*
X142376Y51737D01*
X142312Y51688D01*
X142302Y51683D01*
X142283Y51668D01*
X142248Y51653D01*
X142199Y51634D01*
X142145Y51609D01*
X142081Y51595D01*
X142012Y51580D01*
X141943Y51575D01*
X141929D01*
X141909Y51580D01*
X141879D01*
X141850Y51585D01*
X141810Y51595D01*
X141727Y51619D01*
X141678Y51639D01*
X141623Y51663D01*
X141569Y51693D01*
X141515Y51727D01*
X141461Y51772D01*
X141407Y51821D01*
X141353Y51875D01*
X141299Y51939D01*
X141294Y51944D01*
X141289Y51959D01*
X141274Y51978D01*
X141254Y52008D01*
X141235Y52047D01*
X141215Y52091D01*
X141191Y52145D01*
X141166Y52210D01*
X141136Y52278D01*
X141112Y52357D01*
X141092Y52446D01*
X141072Y52539D01*
X141053Y52642D01*
X141038Y52751D01*
X141033Y52869D01*
X141028Y52992D01*
Y53002D01*
Y53021D01*
Y53056D01*
X141033Y53105D01*
X141038Y53159D01*
X141043Y53228D01*
X141053Y53302D01*
X141063Y53376D01*
X141092Y53543D01*
X141141Y53715D01*
X141171Y53799D01*
X141205Y53882D01*
X141250Y53956D01*
X141294Y54025D01*
X141299Y54030D01*
X141309Y54040D01*
X141323Y54059D01*
X141343Y54079D01*
X141368Y54109D01*
X141397Y54138D01*
X141437Y54168D01*
X141476Y54202D01*
X141569Y54266D01*
X141683Y54325D01*
X141746Y54345D01*
X141810Y54364D01*
X141879Y54374D01*
X141953Y54379D01*
X141983D01*
X142017Y54374D01*
X142066Y54369D01*
X142115Y54355D01*
X142174Y54340D01*
X142234Y54315D01*
X142293Y54286D01*
X142302Y54281D01*
X142322Y54266D01*
X142352Y54246D01*
X142391Y54217D01*
X142435Y54177D01*
X142489Y54128D01*
X142539Y54069D01*
X142593Y54005D01*
Y55339D01*
X143173D01*
Y51639D01*
D02*
G37*
G36*
X133309Y54374D02*
X133358Y54364D01*
X133417Y54345D01*
X133481Y54320D01*
X133550Y54286D01*
X133619Y54241D01*
X133437Y53626D01*
X133432Y53631D01*
X133412Y53646D01*
X133382Y53666D01*
X133348Y53685D01*
X133304Y53705D01*
X133259Y53725D01*
X133210Y53740D01*
X133161Y53745D01*
X133141D01*
X133117Y53740D01*
X133087Y53735D01*
X133053Y53720D01*
X133018Y53705D01*
X132979Y53681D01*
X132945Y53651D01*
X132940Y53646D01*
X132930Y53631D01*
X132915Y53612D01*
X132895Y53577D01*
X132876Y53533D01*
X132851Y53479D01*
X132831Y53410D01*
X132817Y53326D01*
Y53321D01*
Y53316D01*
X132812Y53302D01*
Y53282D01*
X132807Y53253D01*
Y53218D01*
X132802Y53179D01*
X132797Y53135D01*
X132792Y53075D01*
Y53016D01*
X132787Y52943D01*
X132782Y52864D01*
Y52780D01*
X132777Y52682D01*
Y52579D01*
Y52465D01*
Y51639D01*
X132197D01*
Y54315D01*
X132738D01*
Y53936D01*
X132743Y53941D01*
X132753Y53956D01*
X132763Y53976D01*
X132787Y54020D01*
X132822Y54074D01*
X132861Y54133D01*
X132900Y54192D01*
X132945Y54246D01*
X132984Y54286D01*
X132989Y54291D01*
X133004Y54300D01*
X133028Y54315D01*
X133058Y54335D01*
X133092Y54350D01*
X133136Y54364D01*
X133186Y54374D01*
X133235Y54379D01*
X133269D01*
X133309Y54374D01*
D02*
G37*
G36*
X126027D02*
X126086Y54364D01*
X126155Y54345D01*
X126229Y54325D01*
X126298Y54291D01*
X126366Y54246D01*
X126376Y54241D01*
X126396Y54222D01*
X126426Y54192D01*
X126465Y54153D01*
X126504Y54104D01*
X126544Y54045D01*
X126583Y53976D01*
X126612Y53902D01*
X126618Y53892D01*
X126622Y53863D01*
X126632Y53818D01*
X126647Y53750D01*
X126662Y53666D01*
X126672Y53562D01*
X126676Y53439D01*
X126681Y53302D01*
Y51639D01*
X126101D01*
Y53007D01*
Y53012D01*
Y53026D01*
Y53046D01*
Y53070D01*
Y53105D01*
Y53144D01*
X126096Y53228D01*
X126091Y53321D01*
X126086Y53410D01*
X126076Y53489D01*
X126071Y53523D01*
X126066Y53553D01*
Y53558D01*
X126061Y53577D01*
X126052Y53602D01*
X126037Y53631D01*
X126003Y53700D01*
X125973Y53735D01*
X125943Y53764D01*
X125938Y53769D01*
X125929Y53774D01*
X125909Y53789D01*
X125884Y53804D01*
X125855Y53813D01*
X125820Y53828D01*
X125781Y53833D01*
X125737Y53838D01*
X125712D01*
X125683Y53833D01*
X125648Y53828D01*
X125609Y53813D01*
X125565Y53799D01*
X125515Y53774D01*
X125471Y53740D01*
X125466Y53735D01*
X125451Y53725D01*
X125432Y53700D01*
X125407Y53671D01*
X125378Y53636D01*
X125353Y53592D01*
X125323Y53538D01*
X125304Y53479D01*
Y53469D01*
X125299Y53444D01*
X125294Y53425D01*
X125289Y53400D01*
X125284Y53371D01*
Y53336D01*
X125279Y53297D01*
X125274Y53253D01*
X125269Y53198D01*
X125265Y53144D01*
Y53080D01*
X125259Y53012D01*
Y52933D01*
Y52849D01*
Y51639D01*
X124679D01*
Y54315D01*
X125215D01*
Y53927D01*
X125220Y53931D01*
X125240Y53961D01*
X125269Y54000D01*
X125309Y54050D01*
X125358Y54104D01*
X125412Y54163D01*
X125471Y54212D01*
X125535Y54261D01*
X125545Y54266D01*
X125569Y54281D01*
X125604Y54300D01*
X125653Y54320D01*
X125712Y54340D01*
X125781Y54360D01*
X125860Y54374D01*
X125938Y54379D01*
X125983D01*
X126027Y54374D01*
D02*
G37*
G36*
X115119Y51639D02*
X114509D01*
Y53257D01*
X113304D01*
Y51639D01*
X112694D01*
Y55339D01*
X113304D01*
Y53882D01*
X114509D01*
Y55339D01*
X115119D01*
Y51639D01*
D02*
G37*
G36*
X103651Y53031D02*
X104463Y51639D01*
X103749D01*
X103297Y52416D01*
X102849Y51639D01*
X102170D01*
X102957Y53002D01*
X102199Y54315D01*
X102908D01*
X103311Y53617D01*
X103715Y54315D01*
X104399D01*
X103651Y53031D01*
D02*
G37*
G36*
X128148Y54374D02*
X128187D01*
X128226Y54369D01*
X128325Y54360D01*
X128428Y54335D01*
X128536Y54305D01*
X128640Y54266D01*
X128689Y54237D01*
X128733Y54207D01*
X128738D01*
X128743Y54197D01*
X128772Y54177D01*
X128812Y54133D01*
X128856Y54079D01*
X128910Y54000D01*
X128964Y53907D01*
X129014Y53799D01*
X129053Y53666D01*
X128507Y53543D01*
Y53548D01*
X128502Y53558D01*
X128497Y53572D01*
X128492Y53592D01*
X128467Y53646D01*
X128428Y53705D01*
X128374Y53764D01*
X128340Y53794D01*
X128300Y53818D01*
X128256Y53838D01*
X128207Y53853D01*
X128153Y53863D01*
X128088Y53868D01*
X128054D01*
X128015Y53863D01*
X127971Y53858D01*
X127872Y53843D01*
X127823Y53823D01*
X127784Y53804D01*
X127779Y53799D01*
X127769Y53794D01*
X127754Y53779D01*
X127739Y53759D01*
X127710Y53710D01*
X127700Y53681D01*
X127695Y53646D01*
Y53641D01*
Y53631D01*
X127700Y53617D01*
X127705Y53597D01*
X127715Y53572D01*
X127729Y53548D01*
X127749Y53523D01*
X127774Y53499D01*
X127779Y53494D01*
X127793Y53489D01*
X127823Y53474D01*
X127842Y53464D01*
X127872Y53454D01*
X127902Y53439D01*
X127936Y53430D01*
X127980Y53415D01*
X128030Y53395D01*
X128084Y53380D01*
X128143Y53361D01*
X128211Y53341D01*
X128290Y53316D01*
X128295D01*
X128310Y53312D01*
X128334Y53302D01*
X128369Y53292D01*
X128408Y53277D01*
X128453Y53262D01*
X128556Y53223D01*
X128664Y53174D01*
X128777Y53120D01*
X128826Y53090D01*
X128876Y53056D01*
X128920Y53021D01*
X128955Y52987D01*
X128964Y52977D01*
X128984Y52952D01*
X129009Y52908D01*
X129043Y52849D01*
X129072Y52775D01*
X129102Y52682D01*
X129122Y52583D01*
X129127Y52465D01*
Y52460D01*
Y52451D01*
Y52426D01*
X129122Y52401D01*
X129117Y52367D01*
X129112Y52328D01*
X129092Y52239D01*
X129063Y52141D01*
X129014Y52032D01*
X128984Y51978D01*
X128945Y51924D01*
X128905Y51875D01*
X128856Y51826D01*
X128851Y51821D01*
X128846Y51816D01*
X128826Y51801D01*
X128807Y51786D01*
X128782Y51767D01*
X128748Y51747D01*
X128709Y51722D01*
X128664Y51703D01*
X128615Y51678D01*
X128561Y51653D01*
X128502Y51634D01*
X128433Y51614D01*
X128364Y51599D01*
X128290Y51585D01*
X128207Y51580D01*
X128123Y51575D01*
X128084D01*
X128054Y51580D01*
X128015D01*
X127975Y51585D01*
X127877Y51599D01*
X127769Y51624D01*
X127651Y51663D01*
X127538Y51713D01*
X127429Y51781D01*
X127424Y51786D01*
X127419Y51791D01*
X127405Y51806D01*
X127385Y51821D01*
X127341Y51870D01*
X127282Y51939D01*
X127223Y52022D01*
X127164Y52131D01*
X127114Y52254D01*
X127075Y52397D01*
X127656Y52510D01*
Y52505D01*
X127661Y52490D01*
X127665Y52470D01*
X127675Y52446D01*
X127685Y52411D01*
X127700Y52377D01*
X127744Y52298D01*
X127769Y52259D01*
X127803Y52219D01*
X127842Y52185D01*
X127882Y52150D01*
X127936Y52126D01*
X127990Y52106D01*
X128054Y52091D01*
X128123Y52087D01*
X128157D01*
X128192Y52091D01*
X128241Y52096D01*
X128290Y52106D01*
X128340Y52121D01*
X128389Y52141D01*
X128433Y52165D01*
X128438Y52170D01*
X128448Y52180D01*
X128467Y52200D01*
X128487Y52219D01*
X128507Y52254D01*
X128526Y52288D01*
X128536Y52328D01*
X128541Y52377D01*
Y52382D01*
Y52391D01*
Y52406D01*
X128536Y52426D01*
X128522Y52470D01*
X128492Y52514D01*
X128482Y52524D01*
X128472Y52534D01*
X128453Y52544D01*
X128428Y52559D01*
X128394Y52574D01*
X128354Y52588D01*
X128305Y52603D01*
X128295D01*
X128276Y52613D01*
X128236Y52623D01*
X128192Y52637D01*
X128133Y52652D01*
X128069Y52672D01*
X127995Y52692D01*
X127921Y52716D01*
X127769Y52775D01*
X127690Y52805D01*
X127616Y52834D01*
X127552Y52864D01*
X127488Y52898D01*
X127439Y52928D01*
X127395Y52962D01*
X127390Y52967D01*
X127385Y52972D01*
X127356Y53002D01*
X127321Y53051D01*
X127277Y53120D01*
X127233Y53203D01*
X127193Y53302D01*
X127164Y53420D01*
X127159Y53484D01*
X127154Y53553D01*
Y53558D01*
Y53567D01*
Y53587D01*
X127159Y53617D01*
Y53646D01*
X127169Y53685D01*
X127183Y53769D01*
X127213Y53863D01*
X127252Y53966D01*
X127311Y54064D01*
X127350Y54109D01*
X127390Y54153D01*
X127395Y54158D01*
X127400Y54163D01*
X127415Y54173D01*
X127434Y54187D01*
X127459Y54207D01*
X127488Y54227D01*
X127523Y54246D01*
X127567Y54266D01*
X127611Y54286D01*
X127661Y54305D01*
X127719Y54325D01*
X127779Y54345D01*
X127848Y54360D01*
X127921Y54369D01*
X127995Y54379D01*
X128118D01*
X128148Y54374D01*
D02*
G37*
G36*
X98519Y51639D02*
X97899D01*
X96684Y54050D01*
Y51639D01*
X96114D01*
Y55339D01*
X96709D01*
X97949Y52864D01*
Y55339D01*
X98519D01*
Y51639D01*
D02*
G37*
G36*
X137968Y51639D02*
X137397D01*
Y54551D01*
X136797Y51639D01*
X136206D01*
X135611Y54551D01*
Y51639D01*
X135040D01*
Y55339D01*
X135956D01*
X136502Y52810D01*
X137043Y55339D01*
X137968D01*
Y51639D01*
D02*
G37*
G36*
X83533Y51639D02*
X82869D01*
X81791Y55339D01*
X82451D01*
X83218Y52598D01*
X83956Y55339D01*
X84615D01*
X83533Y51639D01*
D02*
G37*
G36*
X107178Y53794D02*
X107976D01*
Y53130D01*
X107178D01*
Y52170D01*
X106647D01*
Y53130D01*
X105850D01*
Y53794D01*
X106647D01*
Y54753D01*
X107178D01*
Y53794D01*
D02*
G37*
G36*
X93644D02*
X94441D01*
Y53130D01*
X93644D01*
Y52170D01*
X93112D01*
Y53130D01*
X92315D01*
Y53794D01*
X93112D01*
Y54753D01*
X93644D01*
Y53794D01*
D02*
G37*
G36*
X145737Y51639D02*
X145195D01*
Y52037D01*
X145191Y52027D01*
X145176Y52003D01*
X145146Y51959D01*
X145112Y51909D01*
X145062Y51855D01*
X145008Y51801D01*
X144945Y51742D01*
X144876Y51693D01*
X144866Y51688D01*
X144841Y51673D01*
X144802Y51653D01*
X144753Y51634D01*
X144689Y51614D01*
X144620Y51595D01*
X144546Y51580D01*
X144467Y51575D01*
X144428D01*
X144388Y51580D01*
X144334Y51590D01*
X144275Y51604D01*
X144207Y51624D01*
X144142Y51649D01*
X144074Y51688D01*
X144069Y51693D01*
X144044Y51708D01*
X144015Y51737D01*
X143980Y51772D01*
X143941Y51816D01*
X143896Y51870D01*
X143857Y51934D01*
X143823Y52008D01*
Y52013D01*
X143818Y52018D01*
X143808Y52047D01*
X143798Y52096D01*
X143783Y52165D01*
X143764Y52249D01*
X143754Y52352D01*
X143744Y52475D01*
X143739Y52618D01*
Y54315D01*
X144320D01*
Y53080D01*
Y53075D01*
Y53056D01*
Y53031D01*
Y52997D01*
Y52952D01*
Y52908D01*
X144325Y52800D01*
Y52687D01*
X144330Y52579D01*
X144334Y52524D01*
Y52480D01*
X144339Y52441D01*
X144344Y52411D01*
Y52406D01*
X144349Y52387D01*
X144359Y52362D01*
X144369Y52333D01*
X144384Y52293D01*
X144403Y52259D01*
X144428Y52224D01*
X144457Y52190D01*
X144462Y52185D01*
X144472Y52180D01*
X144492Y52165D01*
X144521Y52155D01*
X144551Y52141D01*
X144590Y52126D01*
X144634Y52121D01*
X144679Y52116D01*
X144703D01*
X144733Y52121D01*
X144767Y52131D01*
X144812Y52141D01*
X144856Y52155D01*
X144900Y52180D01*
X144949Y52214D01*
X144954Y52219D01*
X144969Y52234D01*
X144994Y52254D01*
X145018Y52288D01*
X145048Y52323D01*
X145072Y52367D01*
X145097Y52421D01*
X145117Y52475D01*
Y52485D01*
X145122Y52495D01*
Y52510D01*
X145126Y52529D01*
X145131Y52554D01*
Y52588D01*
X145136Y52623D01*
X145141Y52667D01*
X145146Y52721D01*
Y52775D01*
X145151Y52844D01*
Y52918D01*
X145156Y52997D01*
Y53085D01*
Y53184D01*
Y54315D01*
X145737D01*
Y51639D01*
D02*
G37*
G36*
X146917D02*
X146337D01*
Y55339D01*
X146917D01*
Y51639D01*
D02*
G37*
G36*
X117939Y54714D02*
X117038D01*
Y51639D01*
X116428D01*
Y54714D01*
X115528D01*
Y55339D01*
X117939D01*
Y54714D01*
D02*
G37*
G36*
X111051Y55334D02*
X111095D01*
X111198Y55324D01*
X111316Y55314D01*
X111434Y55294D01*
X111543Y55270D01*
X111587Y55255D01*
X111631Y55235D01*
X111636D01*
X111641Y55230D01*
X111666Y55216D01*
X111705Y55191D01*
X111754Y55157D01*
X111808Y55107D01*
X111867Y55048D01*
X111926Y54975D01*
X111980Y54891D01*
Y54886D01*
X111985Y54881D01*
X111995Y54866D01*
X112000Y54847D01*
X112025Y54797D01*
X112049Y54724D01*
X112074Y54640D01*
X112099Y54537D01*
X112113Y54423D01*
X112118Y54300D01*
Y54296D01*
Y54281D01*
Y54261D01*
X112113Y54227D01*
Y54192D01*
X112108Y54148D01*
X112094Y54050D01*
X112069Y53941D01*
X112030Y53823D01*
X111976Y53710D01*
X111946Y53656D01*
X111907Y53602D01*
Y53597D01*
X111897Y53592D01*
X111867Y53558D01*
X111823Y53513D01*
X111754Y53459D01*
X111670Y53405D01*
X111572Y53351D01*
X111454Y53302D01*
X111316Y53267D01*
X111326Y53262D01*
X111351Y53243D01*
X111385Y53213D01*
X111429Y53179D01*
X111484Y53130D01*
X111538Y53080D01*
X111592Y53021D01*
X111641Y52957D01*
X111646Y52947D01*
X111666Y52923D01*
X111695Y52883D01*
X111710Y52854D01*
X111734Y52820D01*
X111754Y52780D01*
X111784Y52736D01*
X111813Y52687D01*
X111843Y52633D01*
X111877Y52574D01*
X111912Y52510D01*
X111951Y52436D01*
X111990Y52357D01*
X112359Y51639D01*
X111621D01*
X111183Y52441D01*
X111179Y52446D01*
X111174Y52460D01*
X111159Y52480D01*
X111144Y52510D01*
X111124Y52544D01*
X111105Y52583D01*
X111056Y52672D01*
X111001Y52765D01*
X110947Y52854D01*
X110923Y52898D01*
X110898Y52933D01*
X110878Y52962D01*
X110859Y52987D01*
X110854Y52992D01*
X110844Y53007D01*
X110829Y53026D01*
X110805Y53051D01*
X110746Y53100D01*
X110711Y53120D01*
X110677Y53139D01*
X110672D01*
X110657Y53144D01*
X110637Y53154D01*
X110603Y53164D01*
X110564Y53169D01*
X110509Y53179D01*
X110445Y53184D01*
X110249Y53184D01*
Y51639D01*
X109639D01*
Y55339D01*
X111006Y55339D01*
X111051Y55334D01*
D02*
G37*
G36*
X148428Y54374D02*
X148467Y54369D01*
X148512Y54360D01*
X148566Y54350D01*
X148620Y54335D01*
X148679Y54315D01*
X148738Y54296D01*
X148797Y54266D01*
X148861Y54232D01*
X148920Y54192D01*
X148979Y54143D01*
X149033Y54094D01*
X149087Y54030D01*
X149092Y54025D01*
X149102Y54010D01*
X149117Y53991D01*
X149136Y53956D01*
X149161Y53912D01*
X149186Y53863D01*
X149215Y53804D01*
X149244Y53735D01*
X149269Y53656D01*
X149299Y53567D01*
X149323Y53469D01*
X149348Y53366D01*
X149367Y53253D01*
X149382Y53130D01*
X149392Y52997D01*
X149397Y52854D01*
Y52775D01*
X147941D01*
Y52770D01*
Y52760D01*
Y52746D01*
X147946Y52721D01*
X147951Y52667D01*
X147960Y52593D01*
X147980Y52514D01*
X148005Y52431D01*
X148039Y52352D01*
X148083Y52278D01*
X148088Y52273D01*
X148108Y52254D01*
X148137Y52224D01*
X148177Y52195D01*
X148226Y52160D01*
X148280Y52136D01*
X148344Y52116D01*
X148413Y52106D01*
X148428D01*
X148438Y52111D01*
X148457D01*
X148506Y52126D01*
X148566Y52155D01*
X148595Y52175D01*
X148629Y52200D01*
X148659Y52229D01*
X148694Y52268D01*
X148718Y52313D01*
X148748Y52362D01*
X148772Y52421D01*
X148792Y52490D01*
X149367Y52372D01*
Y52367D01*
X149363Y52352D01*
X149353Y52333D01*
X149348Y52303D01*
X149333Y52273D01*
X149318Y52234D01*
X149279Y52145D01*
X149225Y52047D01*
X149166Y51944D01*
X149092Y51850D01*
X149048Y51806D01*
X149004Y51767D01*
X148998D01*
X148994Y51757D01*
X148979Y51747D01*
X148959Y51737D01*
X148935Y51722D01*
X148905Y51708D01*
X148836Y51673D01*
X148752Y51634D01*
X148649Y51604D01*
X148536Y51585D01*
X148408Y51575D01*
X148364D01*
X148329Y51580D01*
X148285Y51585D01*
X148241Y51595D01*
X148187Y51604D01*
X148133Y51614D01*
X148010Y51653D01*
X147946Y51678D01*
X147887Y51713D01*
X147823Y51747D01*
X147764Y51791D01*
X147710Y51841D01*
X147655Y51899D01*
X147651Y51904D01*
X147641Y51919D01*
X147626Y51939D01*
X147606Y51968D01*
X147582Y52008D01*
X147557Y52057D01*
X147528Y52111D01*
X147503Y52175D01*
X147473Y52244D01*
X147444Y52323D01*
X147419Y52411D01*
X147395Y52505D01*
X147375Y52608D01*
X147360Y52716D01*
X147350Y52834D01*
X147345Y52957D01*
Y52967D01*
Y52987D01*
Y53021D01*
X147350Y53070D01*
X147355Y53125D01*
X147360Y53193D01*
X147370Y53267D01*
X147385Y53346D01*
X147424Y53518D01*
X147449Y53607D01*
X147478Y53695D01*
X147513Y53784D01*
X147557Y53873D01*
X147606Y53956D01*
X147660Y54035D01*
X147665Y54040D01*
X147675Y54050D01*
X147690Y54064D01*
X147710Y54089D01*
X147734Y54114D01*
X147768Y54143D01*
X147803Y54177D01*
X147847Y54207D01*
X147891Y54241D01*
X147946Y54271D01*
X148064Y54325D01*
X148128Y54350D01*
X148197Y54364D01*
X148270Y54374D01*
X148349Y54379D01*
X148393D01*
X148428Y54374D01*
D02*
G37*
G36*
X139611D02*
X139650D01*
X139695Y54364D01*
X139744Y54360D01*
X139803Y54345D01*
X139862Y54325D01*
X139931Y54305D01*
X139995Y54276D01*
X140064Y54241D01*
X140133Y54202D01*
X140202Y54153D01*
X140270Y54099D01*
X140334Y54035D01*
X140393Y53961D01*
X140398Y53956D01*
X140408Y53941D01*
X140423Y53922D01*
X140443Y53887D01*
X140462Y53848D01*
X140492Y53799D01*
X140516Y53745D01*
X140546Y53685D01*
X140576Y53617D01*
X140600Y53543D01*
X140630Y53464D01*
X140649Y53376D01*
X140669Y53287D01*
X140684Y53193D01*
X140694Y53095D01*
X140699Y52992D01*
Y52987D01*
Y52972D01*
Y52952D01*
Y52923D01*
X140694Y52883D01*
X140689Y52844D01*
X140684Y52795D01*
X140679Y52741D01*
X140659Y52623D01*
X140630Y52500D01*
X140590Y52367D01*
X140536Y52239D01*
Y52234D01*
X140531Y52224D01*
X140521Y52210D01*
X140507Y52185D01*
X140472Y52126D01*
X140428Y52052D01*
X140364Y51973D01*
X140295Y51890D01*
X140216Y51811D01*
X140123Y51742D01*
X140118D01*
X140113Y51737D01*
X140098Y51727D01*
X140079Y51718D01*
X140024Y51688D01*
X139956Y51658D01*
X139872Y51629D01*
X139778Y51599D01*
X139675Y51580D01*
X139562Y51575D01*
X139542D01*
X139513Y51580D01*
X139483D01*
X139439Y51585D01*
X139390Y51595D01*
X139336Y51604D01*
X139277Y51624D01*
X139218Y51644D01*
X139149Y51668D01*
X139085Y51698D01*
X139016Y51732D01*
X138947Y51776D01*
X138878Y51826D01*
X138814Y51885D01*
X138750Y51949D01*
X138745Y51954D01*
X138735Y51968D01*
X138721Y51988D01*
X138701Y52018D01*
X138676Y52057D01*
X138647Y52101D01*
X138622Y52160D01*
X138593Y52224D01*
X138558Y52293D01*
X138534Y52372D01*
X138504Y52460D01*
X138480Y52554D01*
X138460Y52657D01*
X138445Y52770D01*
X138435Y52889D01*
X138430Y53012D01*
Y53016D01*
Y53031D01*
Y53051D01*
X138435Y53080D01*
Y53115D01*
X138440Y53154D01*
X138445Y53198D01*
X138450Y53248D01*
X138470Y53361D01*
X138494Y53479D01*
X138534Y53607D01*
X138583Y53730D01*
Y53735D01*
X138593Y53745D01*
X138598Y53759D01*
X138612Y53784D01*
X138647Y53843D01*
X138691Y53912D01*
X138750Y53991D01*
X138824Y54074D01*
X138903Y54148D01*
X138991Y54217D01*
X138996D01*
X139001Y54222D01*
X139016Y54232D01*
X139035Y54241D01*
X139090Y54266D01*
X139158Y54300D01*
X139242Y54330D01*
X139341Y54355D01*
X139449Y54374D01*
X139562Y54379D01*
X139587D01*
X139611Y54374D01*
D02*
G37*
G36*
X130672D02*
X130711D01*
X130755Y54364D01*
X130804Y54360D01*
X130863Y54345D01*
X130922Y54325D01*
X130991Y54305D01*
X131055Y54276D01*
X131124Y54241D01*
X131193Y54202D01*
X131262Y54153D01*
X131331Y54099D01*
X131395Y54035D01*
X131454Y53961D01*
X131459Y53956D01*
X131469Y53941D01*
X131483Y53922D01*
X131503Y53887D01*
X131523Y53848D01*
X131552Y53799D01*
X131577Y53745D01*
X131606Y53685D01*
X131636Y53617D01*
X131660Y53543D01*
X131690Y53464D01*
X131710Y53376D01*
X131729Y53287D01*
X131744Y53193D01*
X131754Y53095D01*
X131759Y52992D01*
Y52987D01*
Y52972D01*
Y52952D01*
Y52923D01*
X131754Y52883D01*
X131749Y52844D01*
X131744Y52795D01*
X131739Y52741D01*
X131720Y52623D01*
X131690Y52500D01*
X131651Y52367D01*
X131597Y52239D01*
Y52234D01*
X131592Y52224D01*
X131582Y52210D01*
X131567Y52185D01*
X131533Y52126D01*
X131488Y52052D01*
X131424Y51973D01*
X131355Y51890D01*
X131277Y51811D01*
X131183Y51742D01*
X131178D01*
X131173Y51737D01*
X131159Y51727D01*
X131139Y51718D01*
X131085Y51688D01*
X131016Y51658D01*
X130932Y51629D01*
X130839Y51599D01*
X130736Y51580D01*
X130622Y51575D01*
X130603D01*
X130573Y51580D01*
X130544D01*
X130499Y51585D01*
X130450Y51595D01*
X130396Y51604D01*
X130337Y51624D01*
X130278Y51644D01*
X130209Y51668D01*
X130145Y51698D01*
X130076Y51732D01*
X130007Y51776D01*
X129938Y51826D01*
X129875Y51885D01*
X129811Y51949D01*
X129806Y51954D01*
X129796Y51968D01*
X129781Y51988D01*
X129761Y52018D01*
X129737Y52057D01*
X129707Y52101D01*
X129683Y52160D01*
X129653Y52224D01*
X129619Y52293D01*
X129594Y52372D01*
X129564Y52460D01*
X129540Y52554D01*
X129520Y52657D01*
X129506Y52770D01*
X129496Y52889D01*
X129491Y53012D01*
Y53016D01*
Y53031D01*
Y53051D01*
X129496Y53080D01*
Y53115D01*
X129501Y53154D01*
X129506Y53198D01*
X129510Y53248D01*
X129530Y53361D01*
X129555Y53479D01*
X129594Y53607D01*
X129643Y53730D01*
Y53735D01*
X129653Y53745D01*
X129658Y53759D01*
X129673Y53784D01*
X129707Y53843D01*
X129752Y53912D01*
X129811Y53991D01*
X129884Y54074D01*
X129963Y54148D01*
X130052Y54217D01*
X130057D01*
X130061Y54222D01*
X130076Y54232D01*
X130096Y54241D01*
X130150Y54266D01*
X130219Y54300D01*
X130303Y54330D01*
X130401Y54355D01*
X130509Y54374D01*
X130622Y54379D01*
X130647D01*
X130672Y54374D01*
D02*
G37*
G36*
X123247D02*
X123287Y54369D01*
X123331Y54360D01*
X123385Y54350D01*
X123439Y54335D01*
X123498Y54315D01*
X123557Y54296D01*
X123616Y54266D01*
X123680Y54232D01*
X123739Y54192D01*
X123798Y54143D01*
X123852Y54094D01*
X123907Y54030D01*
X123911Y54025D01*
X123921Y54010D01*
X123936Y53991D01*
X123956Y53956D01*
X123980Y53912D01*
X124005Y53863D01*
X124035Y53804D01*
X124064Y53735D01*
X124089Y53656D01*
X124118Y53567D01*
X124143Y53469D01*
X124167Y53366D01*
X124187Y53253D01*
X124202Y53130D01*
X124212Y52997D01*
X124216Y52854D01*
Y52775D01*
X122760D01*
Y52770D01*
Y52760D01*
Y52746D01*
X122765Y52721D01*
X122770Y52667D01*
X122780Y52593D01*
X122800Y52514D01*
X122824Y52431D01*
X122859Y52352D01*
X122903Y52278D01*
X122908Y52273D01*
X122927Y52254D01*
X122957Y52224D01*
X122996Y52195D01*
X123046Y52160D01*
X123100Y52136D01*
X123164Y52116D01*
X123232Y52106D01*
X123247D01*
X123257Y52111D01*
X123277D01*
X123326Y52126D01*
X123385Y52155D01*
X123415Y52175D01*
X123449Y52200D01*
X123478Y52229D01*
X123513Y52268D01*
X123538Y52313D01*
X123567Y52362D01*
X123592Y52421D01*
X123611Y52490D01*
X124187Y52372D01*
Y52367D01*
X124182Y52352D01*
X124172Y52333D01*
X124167Y52303D01*
X124153Y52273D01*
X124138Y52234D01*
X124098Y52145D01*
X124044Y52047D01*
X123985Y51944D01*
X123911Y51850D01*
X123867Y51806D01*
X123823Y51767D01*
X123818D01*
X123813Y51757D01*
X123798Y51747D01*
X123779Y51737D01*
X123754Y51722D01*
X123724Y51708D01*
X123656Y51673D01*
X123572Y51634D01*
X123469Y51604D01*
X123355Y51585D01*
X123228Y51575D01*
X123183D01*
X123149Y51580D01*
X123105Y51585D01*
X123060Y51595D01*
X123006Y51604D01*
X122952Y51614D01*
X122829Y51653D01*
X122765Y51678D01*
X122706Y51713D01*
X122642Y51747D01*
X122583Y51791D01*
X122529Y51841D01*
X122475Y51899D01*
X122470Y51904D01*
X122460Y51919D01*
X122445Y51939D01*
X122426Y51968D01*
X122401Y52008D01*
X122376Y52057D01*
X122347Y52111D01*
X122322Y52175D01*
X122293Y52244D01*
X122263Y52323D01*
X122239Y52411D01*
X122214Y52505D01*
X122194Y52608D01*
X122180Y52716D01*
X122170Y52834D01*
X122165Y52957D01*
Y52967D01*
Y52987D01*
Y53021D01*
X122170Y53070D01*
X122175Y53125D01*
X122180Y53193D01*
X122189Y53267D01*
X122204Y53346D01*
X122244Y53518D01*
X122268Y53607D01*
X122298Y53695D01*
X122332Y53784D01*
X122376Y53873D01*
X122426Y53956D01*
X122480Y54035D01*
X122485Y54040D01*
X122494Y54050D01*
X122509Y54064D01*
X122529Y54089D01*
X122554Y54114D01*
X122588Y54143D01*
X122622Y54177D01*
X122667Y54207D01*
X122711Y54241D01*
X122765Y54271D01*
X122883Y54325D01*
X122947Y54350D01*
X123016Y54364D01*
X123090Y54374D01*
X123169Y54379D01*
X123213D01*
X123247Y54374D01*
D02*
G37*
G36*
X100566Y55398D02*
X100610Y55393D01*
X100664Y55388D01*
X100728Y55378D01*
X100802Y55358D01*
X100876Y55339D01*
X100960Y55314D01*
X101048Y55280D01*
X101132Y55240D01*
X101220Y55191D01*
X101309Y55132D01*
X101398Y55068D01*
X101481Y54989D01*
X101560Y54901D01*
X101565Y54896D01*
X101580Y54876D01*
X101599Y54847D01*
X101624Y54807D01*
X101658Y54758D01*
X101693Y54694D01*
X101727Y54620D01*
X101767Y54537D01*
X101806Y54443D01*
X101840Y54340D01*
X101880Y54222D01*
X101909Y54094D01*
X101934Y53961D01*
X101953Y53813D01*
X101968Y53656D01*
X101973Y53489D01*
Y53484D01*
Y53479D01*
Y53464D01*
Y53449D01*
X101968Y53400D01*
Y53336D01*
X101958Y53257D01*
X101949Y53169D01*
X101939Y53066D01*
X101919Y52957D01*
X101894Y52844D01*
X101865Y52726D01*
X101830Y52603D01*
X101786Y52480D01*
X101737Y52362D01*
X101678Y52244D01*
X101614Y52136D01*
X101535Y52032D01*
X101530Y52027D01*
X101516Y52013D01*
X101496Y51988D01*
X101466Y51964D01*
X101427Y51924D01*
X101383Y51890D01*
X101329Y51845D01*
X101265Y51806D01*
X101196Y51762D01*
X101117Y51718D01*
X101033Y51683D01*
X100940Y51649D01*
X100842Y51619D01*
X100733Y51595D01*
X100620Y51580D01*
X100502Y51575D01*
X100473D01*
X100438Y51580D01*
X100394D01*
X100340Y51590D01*
X100276Y51599D01*
X100202Y51614D01*
X100123Y51634D01*
X100045Y51653D01*
X99961Y51683D01*
X99872Y51722D01*
X99784Y51767D01*
X99700Y51816D01*
X99616Y51880D01*
X99538Y51949D01*
X99464Y52027D01*
X99459Y52032D01*
X99444Y52052D01*
X99425Y52082D01*
X99395Y52126D01*
X99366Y52175D01*
X99326Y52244D01*
X99287Y52318D01*
X99247Y52406D01*
X99208Y52500D01*
X99169Y52608D01*
X99129Y52726D01*
X99100Y52854D01*
X99070Y52992D01*
X99051Y53139D01*
X99036Y53297D01*
X99031Y53464D01*
Y53474D01*
Y53494D01*
Y53528D01*
X99036Y53572D01*
Y53631D01*
X99041Y53695D01*
X99046Y53769D01*
X99056Y53848D01*
X99066Y53931D01*
X99080Y54020D01*
X99110Y54202D01*
X99159Y54384D01*
X99189Y54468D01*
X99223Y54551D01*
Y54556D01*
X99233Y54571D01*
X99243Y54591D01*
X99257Y54620D01*
X99277Y54660D01*
X99302Y54699D01*
X99361Y54792D01*
X99435Y54896D01*
X99523Y55004D01*
X99621Y55102D01*
X99676Y55147D01*
X99735Y55191D01*
X99739Y55196D01*
X99749Y55201D01*
X99769Y55211D01*
X99789Y55225D01*
X99823Y55240D01*
X99858Y55260D01*
X99902Y55280D01*
X99951Y55299D01*
X100000Y55319D01*
X100059Y55334D01*
X100192Y55368D01*
X100340Y55393D01*
X100418Y55403D01*
X100532D01*
X100566Y55398D01*
D02*
G37*
G36*
X86332D02*
X86377Y55393D01*
X86431Y55388D01*
X86495Y55378D01*
X86569Y55358D01*
X86642Y55339D01*
X86726Y55314D01*
X86815Y55280D01*
X86898Y55240D01*
X86987Y55191D01*
X87075Y55132D01*
X87164Y55068D01*
X87248Y54989D01*
X87326Y54901D01*
X87331Y54896D01*
X87346Y54876D01*
X87366Y54847D01*
X87390Y54807D01*
X87425Y54758D01*
X87459Y54694D01*
X87494Y54620D01*
X87533Y54537D01*
X87572Y54443D01*
X87607Y54340D01*
X87646Y54222D01*
X87676Y54094D01*
X87700Y53961D01*
X87720Y53813D01*
X87735Y53656D01*
X87740Y53489D01*
Y53484D01*
Y53479D01*
Y53464D01*
Y53449D01*
X87735Y53400D01*
Y53336D01*
X87725Y53257D01*
X87715Y53169D01*
X87705Y53066D01*
X87686Y52957D01*
X87661Y52844D01*
X87631Y52726D01*
X87597Y52603D01*
X87553Y52480D01*
X87503Y52362D01*
X87444Y52244D01*
X87380Y52136D01*
X87302Y52032D01*
X87297Y52027D01*
X87282Y52013D01*
X87262Y51988D01*
X87233Y51964D01*
X87194Y51924D01*
X87149Y51890D01*
X87095Y51845D01*
X87031Y51806D01*
X86962Y51762D01*
X86883Y51718D01*
X86800Y51683D01*
X86706Y51649D01*
X86608Y51619D01*
X86500Y51595D01*
X86387Y51580D01*
X86269Y51575D01*
X86239D01*
X86205Y51580D01*
X86160D01*
X86106Y51590D01*
X86042Y51599D01*
X85968Y51614D01*
X85890Y51634D01*
X85811Y51653D01*
X85727Y51683D01*
X85639Y51722D01*
X85550Y51767D01*
X85467Y51816D01*
X85383Y51880D01*
X85304Y51949D01*
X85230Y52027D01*
X85225Y52032D01*
X85211Y52052D01*
X85191Y52082D01*
X85162Y52126D01*
X85132Y52175D01*
X85093Y52244D01*
X85053Y52318D01*
X85014Y52406D01*
X84975Y52500D01*
X84935Y52608D01*
X84896Y52726D01*
X84866Y52854D01*
X84837Y52992D01*
X84817Y53139D01*
X84802Y53297D01*
X84798Y53464D01*
Y53474D01*
Y53494D01*
Y53528D01*
X84802Y53572D01*
Y53631D01*
X84807Y53695D01*
X84812Y53769D01*
X84822Y53848D01*
X84832Y53931D01*
X84847Y54020D01*
X84876Y54202D01*
X84925Y54384D01*
X84955Y54468D01*
X84989Y54551D01*
Y54556D01*
X84999Y54571D01*
X85009Y54591D01*
X85024Y54620D01*
X85044Y54660D01*
X85068Y54699D01*
X85127Y54792D01*
X85201Y54896D01*
X85290Y55004D01*
X85388Y55102D01*
X85442Y55147D01*
X85501Y55191D01*
X85506Y55196D01*
X85516Y55201D01*
X85536Y55211D01*
X85555Y55225D01*
X85590Y55240D01*
X85624Y55260D01*
X85668Y55280D01*
X85717Y55299D01*
X85767Y55319D01*
X85826Y55334D01*
X85959Y55368D01*
X86106Y55393D01*
X86185Y55403D01*
X86298D01*
X86332Y55398D01*
D02*
G37*
G36*
X53883Y54741D02*
X53921Y54737D01*
X53968Y54732D01*
X54015Y54724D01*
X54070Y54715D01*
X54185Y54685D01*
X54249Y54664D01*
X54309Y54639D01*
X54368Y54609D01*
X54424Y54579D01*
X54479Y54536D01*
X54530Y54494D01*
X54535Y54489D01*
X54543Y54481D01*
X54556Y54468D01*
X54573Y54447D01*
X54590Y54421D01*
X54615Y54391D01*
X54637Y54353D01*
X54662Y54311D01*
X54688Y54264D01*
X54713Y54208D01*
X54735Y54149D01*
X54756Y54085D01*
X54777Y54017D01*
X54790Y53944D01*
X54803Y53863D01*
X54807Y53778D01*
X54275Y53748D01*
Y53752D01*
Y53761D01*
X54270Y53774D01*
X54266Y53791D01*
X54258Y53834D01*
X54241Y53889D01*
X54219Y53948D01*
X54194Y54008D01*
X54160Y54063D01*
X54121Y54106D01*
X54117Y54110D01*
X54100Y54123D01*
X54074Y54140D01*
X54036Y54157D01*
X53989Y54174D01*
X53934Y54191D01*
X53870Y54204D01*
X53793Y54208D01*
X53759D01*
X53721Y54204D01*
X53674Y54196D01*
X53619Y54187D01*
X53563Y54170D01*
X53512Y54149D01*
X53465Y54119D01*
X53461Y54115D01*
X53448Y54102D01*
X53427Y54085D01*
X53410Y54059D01*
X53389Y54025D01*
X53367Y53987D01*
X53355Y53940D01*
X53350Y53893D01*
Y53889D01*
Y53872D01*
X53355Y53846D01*
X53363Y53816D01*
X53376Y53782D01*
X53393Y53748D01*
X53418Y53710D01*
X53452Y53676D01*
X53457Y53672D01*
X53474Y53659D01*
X53504Y53642D01*
X53525Y53629D01*
X53550Y53616D01*
X53580Y53603D01*
X53614Y53586D01*
X53653Y53569D01*
X53699Y53552D01*
X53751Y53535D01*
X53806Y53518D01*
X53866Y53497D01*
X53934Y53476D01*
X53938D01*
X53951Y53471D01*
X53972Y53463D01*
X53998Y53454D01*
X54032Y53446D01*
X54070Y53433D01*
X54155Y53403D01*
X54249Y53365D01*
X54347Y53326D01*
X54432Y53280D01*
X54475Y53258D01*
X54509Y53233D01*
X54517Y53228D01*
X54539Y53211D01*
X54569Y53182D01*
X54611Y53143D01*
X54654Y53096D01*
X54701Y53037D01*
X54743Y52973D01*
X54782Y52900D01*
Y52896D01*
X54786Y52892D01*
X54790Y52879D01*
X54799Y52866D01*
X54811Y52824D01*
X54833Y52764D01*
X54850Y52696D01*
X54862Y52611D01*
X54875Y52517D01*
X54879Y52415D01*
Y52411D01*
Y52398D01*
Y52377D01*
X54875Y52347D01*
X54871Y52308D01*
X54867Y52266D01*
X54858Y52223D01*
X54845Y52172D01*
X54816Y52061D01*
X54794Y52002D01*
X54769Y51942D01*
X54739Y51882D01*
X54705Y51823D01*
X54667Y51767D01*
X54620Y51712D01*
X54615Y51708D01*
X54607Y51699D01*
X54594Y51686D01*
X54573Y51669D01*
X54543Y51648D01*
X54509Y51622D01*
X54471Y51597D01*
X54424Y51571D01*
X54373Y51546D01*
X54313Y51520D01*
X54245Y51495D01*
X54172Y51473D01*
X54096Y51456D01*
X54010Y51444D01*
X53917Y51435D01*
X53819Y51431D01*
X53793D01*
X53776Y51435D01*
X53755D01*
X53729Y51439D01*
X53665Y51448D01*
X53593Y51465D01*
X53508Y51490D01*
X53418Y51525D01*
X53325Y51567D01*
X53231Y51627D01*
X53133Y51699D01*
X53090Y51742D01*
X53044Y51789D01*
X53001Y51840D01*
X52962Y51895D01*
X52924Y51955D01*
X52886Y52019D01*
X52856Y52091D01*
X52826Y52168D01*
X52801Y52249D01*
X52779Y52338D01*
X52762Y52432D01*
X52750Y52530D01*
X53265Y52589D01*
Y52581D01*
X53269Y52564D01*
X53278Y52534D01*
X53286Y52496D01*
X53299Y52449D01*
X53316Y52394D01*
X53342Y52338D01*
X53367Y52283D01*
X53401Y52227D01*
X53444Y52172D01*
X53487Y52117D01*
X53542Y52074D01*
X53601Y52031D01*
X53674Y52002D01*
X53751Y51985D01*
X53836Y51976D01*
X53874D01*
X53917Y51985D01*
X53972Y51993D01*
X54032Y52006D01*
X54096Y52027D01*
X54155Y52057D01*
X54211Y52100D01*
X54215Y52104D01*
X54232Y52121D01*
X54253Y52151D01*
X54283Y52185D01*
X54309Y52232D01*
X54330Y52283D01*
X54347Y52342D01*
X54351Y52411D01*
Y52415D01*
Y52428D01*
X54347Y52449D01*
Y52474D01*
X54330Y52538D01*
X54317Y52568D01*
X54300Y52598D01*
Y52602D01*
X54292Y52611D01*
X54279Y52624D01*
X54266Y52641D01*
X54245Y52662D01*
X54219Y52683D01*
X54189Y52705D01*
X54155Y52722D01*
X54151Y52726D01*
X54134Y52730D01*
X54104Y52743D01*
X54083Y52751D01*
X54057Y52760D01*
X54032Y52773D01*
X53998Y52785D01*
X53955Y52798D01*
X53913Y52815D01*
X53861Y52828D01*
X53806Y52849D01*
X53746Y52866D01*
X53678Y52888D01*
X53674D01*
X53665Y52892D01*
X53644Y52896D01*
X53623Y52905D01*
X53597Y52913D01*
X53563Y52926D01*
X53491Y52956D01*
X53410Y52986D01*
X53329Y53024D01*
X53252Y53067D01*
X53184Y53109D01*
X53175Y53114D01*
X53158Y53131D01*
X53129Y53160D01*
X53095Y53194D01*
X53052Y53241D01*
X53014Y53292D01*
X52971Y53356D01*
X52933Y53425D01*
Y53429D01*
X52929Y53433D01*
X52920Y53459D01*
X52903Y53497D01*
X52890Y53552D01*
X52873Y53612D01*
X52856Y53684D01*
X52847Y53765D01*
X52843Y53846D01*
Y53851D01*
Y53859D01*
Y53872D01*
Y53889D01*
X52847Y53914D01*
Y53940D01*
X52856Y54004D01*
X52873Y54076D01*
X52890Y54157D01*
X52920Y54238D01*
X52958Y54319D01*
Y54323D01*
X52962Y54328D01*
X52980Y54353D01*
X53005Y54391D01*
X53044Y54438D01*
X53090Y54489D01*
X53146Y54541D01*
X53214Y54592D01*
X53286Y54634D01*
X53291D01*
X53295Y54639D01*
X53308Y54643D01*
X53325Y54651D01*
X53346Y54660D01*
X53372Y54668D01*
X53431Y54690D01*
X53508Y54711D01*
X53597Y54728D01*
X53695Y54741D01*
X53806Y54745D01*
X53849D01*
X53883Y54741D01*
D02*
G37*
G36*
X56618D02*
X56660Y54737D01*
X56703Y54732D01*
X56754Y54724D01*
X56809Y54715D01*
X56929Y54685D01*
X56993Y54668D01*
X57056Y54643D01*
X57116Y54613D01*
X57180Y54583D01*
X57235Y54545D01*
X57291Y54502D01*
X57295Y54498D01*
X57304Y54489D01*
X57316Y54477D01*
X57338Y54460D01*
X57359Y54434D01*
X57384Y54404D01*
X57414Y54366D01*
X57444Y54328D01*
X57474Y54281D01*
X57504Y54225D01*
X57538Y54170D01*
X57568Y54106D01*
X57593Y54038D01*
X57619Y53966D01*
X57640Y53889D01*
X57657Y53804D01*
X57133Y53684D01*
Y53689D01*
X57129Y53697D01*
X57125Y53706D01*
X57120Y53723D01*
X57108Y53770D01*
X57082Y53821D01*
X57052Y53885D01*
X57018Y53944D01*
X56971Y54004D01*
X56916Y54059D01*
X56907Y54063D01*
X56886Y54081D01*
X56856Y54102D01*
X56809Y54127D01*
X56754Y54149D01*
X56690Y54170D01*
X56618Y54187D01*
X56537Y54191D01*
X56503D01*
X56481Y54187D01*
X56451Y54183D01*
X56417Y54179D01*
X56341Y54157D01*
X56256Y54127D01*
X56209Y54106D01*
X56166Y54081D01*
X56119Y54051D01*
X56077Y54012D01*
X56034Y53974D01*
X55991Y53927D01*
X55987Y53923D01*
X55983Y53914D01*
X55974Y53897D01*
X55957Y53876D01*
X55945Y53851D01*
X55927Y53816D01*
X55906Y53774D01*
X55889Y53727D01*
X55868Y53676D01*
X55851Y53616D01*
X55830Y53548D01*
X55817Y53476D01*
X55804Y53399D01*
X55791Y53314D01*
X55787Y53220D01*
X55783Y53122D01*
Y53114D01*
Y53096D01*
Y53067D01*
X55787Y53028D01*
X55791Y52977D01*
X55795Y52922D01*
X55800Y52862D01*
X55813Y52794D01*
X55838Y52653D01*
X55876Y52509D01*
X55902Y52436D01*
X55936Y52368D01*
X55970Y52304D01*
X56008Y52245D01*
X56013Y52240D01*
X56017Y52232D01*
X56030Y52219D01*
X56042Y52206D01*
X56085Y52163D01*
X56145Y52117D01*
X56221Y52066D01*
X56311Y52027D01*
X56362Y52010D01*
X56413Y51997D01*
X56473Y51989D01*
X56532Y51985D01*
X56558D01*
X56588Y51989D01*
X56630Y51993D01*
X56677Y52002D01*
X56733Y52014D01*
X56792Y52031D01*
X56852Y52057D01*
X56860Y52061D01*
X56882Y52070D01*
X56912Y52087D01*
X56954Y52108D01*
X57001Y52138D01*
X57052Y52172D01*
X57103Y52210D01*
X57154Y52253D01*
Y52662D01*
X56550D01*
Y53203D01*
X57691D01*
Y51925D01*
Y51921D01*
X57683Y51916D01*
X57657Y51891D01*
X57619Y51853D01*
X57563Y51806D01*
X57495Y51750D01*
X57410Y51691D01*
X57312Y51631D01*
X57197Y51576D01*
X57193D01*
X57184Y51571D01*
X57167Y51563D01*
X57142Y51554D01*
X57116Y51542D01*
X57082Y51529D01*
X57044Y51516D01*
X57001Y51503D01*
X56903Y51478D01*
X56796Y51452D01*
X56686Y51435D01*
X56567Y51431D01*
X56528D01*
X56503Y51435D01*
X56468D01*
X56426Y51439D01*
X56383Y51448D01*
X56332Y51456D01*
X56226Y51478D01*
X56111Y51512D01*
X55991Y51559D01*
X55932Y51584D01*
X55876Y51618D01*
X55872Y51622D01*
X55864Y51627D01*
X55847Y51640D01*
X55830Y51652D01*
X55804Y51674D01*
X55774Y51699D01*
X55744Y51729D01*
X55706Y51763D01*
X55672Y51801D01*
X55634Y51844D01*
X55595Y51891D01*
X55557Y51942D01*
X55514Y51997D01*
X55480Y52057D01*
X55442Y52121D01*
X55408Y52189D01*
Y52193D01*
X55399Y52206D01*
X55391Y52227D01*
X55382Y52257D01*
X55369Y52296D01*
X55352Y52338D01*
X55340Y52389D01*
X55323Y52445D01*
X55305Y52509D01*
X55293Y52577D01*
X55276Y52653D01*
X55263Y52730D01*
X55254Y52815D01*
X55246Y52905D01*
X55237Y53092D01*
Y53096D01*
Y53118D01*
Y53143D01*
X55242Y53182D01*
Y53224D01*
X55246Y53280D01*
X55250Y53339D01*
X55259Y53403D01*
X55267Y53471D01*
X55280Y53544D01*
X55310Y53697D01*
X55352Y53851D01*
X55412Y53995D01*
X55416Y54000D01*
X55421Y54012D01*
X55429Y54029D01*
X55442Y54055D01*
X55463Y54089D01*
X55480Y54123D01*
X55536Y54208D01*
X55599Y54298D01*
X55676Y54391D01*
X55766Y54481D01*
X55817Y54519D01*
X55868Y54558D01*
X55872Y54562D01*
X55881Y54566D01*
X55898Y54575D01*
X55919Y54588D01*
X55945Y54600D01*
X55979Y54617D01*
X56017Y54634D01*
X56060Y54651D01*
X56106Y54668D01*
X56157Y54685D01*
X56273Y54715D01*
X56400Y54737D01*
X56468Y54745D01*
X56588D01*
X56618Y54741D01*
D02*
G37*
G36*
X63843Y51486D02*
X63340D01*
Y53804D01*
X63336Y53799D01*
X63327Y53791D01*
X63310Y53774D01*
X63289Y53752D01*
X63263Y53727D01*
X63229Y53697D01*
X63195Y53663D01*
X63152Y53625D01*
X63106Y53586D01*
X63055Y53548D01*
X62944Y53471D01*
X62820Y53399D01*
X62688Y53339D01*
Y53897D01*
X62692D01*
X62697Y53902D01*
X62709Y53906D01*
X62726Y53914D01*
X62765Y53936D01*
X62820Y53966D01*
X62884Y54004D01*
X62961Y54059D01*
X63037Y54119D01*
X63123Y54196D01*
X63127Y54200D01*
X63131Y54204D01*
X63144Y54217D01*
X63161Y54234D01*
X63199Y54281D01*
X63246Y54340D01*
X63297Y54413D01*
X63348Y54498D01*
X63395Y54596D01*
X63434Y54698D01*
X63843D01*
Y51486D01*
D02*
G37*
G36*
X61989Y52671D02*
X62313D01*
Y52130D01*
X61989D01*
Y51486D01*
X61504D01*
Y52130D01*
X60426D01*
Y52666D01*
X61563Y54698D01*
X61989D01*
Y52671D01*
D02*
G37*
G36*
X59186Y54685D02*
X59284D01*
X59391Y54677D01*
X59493Y54668D01*
X59540Y54664D01*
X59583Y54660D01*
X59621Y54651D01*
X59651Y54643D01*
X59655D01*
X59659Y54639D01*
X59672Y54634D01*
X59689Y54626D01*
X59732Y54605D01*
X59787Y54575D01*
X59847Y54532D01*
X59915Y54477D01*
X59979Y54409D01*
X60038Y54323D01*
Y54319D01*
X60047Y54311D01*
X60051Y54298D01*
X60064Y54281D01*
X60072Y54255D01*
X60085Y54230D01*
X60102Y54196D01*
X60115Y54157D01*
X60128Y54115D01*
X60145Y54068D01*
X60166Y53961D01*
X60183Y53838D01*
X60192Y53701D01*
Y53697D01*
Y53684D01*
Y53667D01*
Y53642D01*
X60188Y53612D01*
X60183Y53578D01*
X60175Y53497D01*
X60158Y53408D01*
X60136Y53310D01*
X60102Y53211D01*
X60060Y53118D01*
Y53114D01*
X60055Y53109D01*
X60047Y53096D01*
X60034Y53079D01*
X60009Y53037D01*
X59970Y52990D01*
X59923Y52935D01*
X59864Y52879D01*
X59804Y52832D01*
X59732Y52790D01*
X59727D01*
X59723Y52785D01*
X59710Y52781D01*
X59693Y52777D01*
X59672Y52768D01*
X59646Y52760D01*
X59612Y52751D01*
X59574Y52743D01*
X59531Y52734D01*
X59480Y52726D01*
X59425Y52717D01*
X59365Y52709D01*
X59297Y52705D01*
X59220Y52700D01*
X59140Y52696D01*
X58709D01*
Y51486D01*
X58181D01*
Y54690D01*
X59144D01*
X59186Y54685D01*
D02*
G37*
G36*
X150978Y29141D02*
X151050Y29136D01*
X151135Y29132D01*
X151229Y29124D01*
X151327Y29115D01*
X151535Y29085D01*
X151642Y29068D01*
X151749Y29043D01*
X151847Y29017D01*
X151940Y28987D01*
X152025Y28949D01*
X152098Y28907D01*
X152102Y28902D01*
X152115Y28894D01*
X152132Y28881D01*
X152153Y28864D01*
X152183Y28843D01*
X152213Y28813D01*
X152247Y28779D01*
X152277Y28740D01*
X152311Y28702D01*
X152345Y28655D01*
X152405Y28549D01*
X152426Y28489D01*
X152443Y28429D01*
X152456Y28361D01*
X152460Y28293D01*
Y28276D01*
X152456Y28255D01*
Y28229D01*
X152447Y28195D01*
X152443Y28161D01*
X152430Y28118D01*
X152413Y28071D01*
X152396Y28025D01*
X152371Y27973D01*
X152345Y27922D01*
X152311Y27871D01*
X152268Y27820D01*
X152221Y27769D01*
X152166Y27722D01*
X152102Y27675D01*
X152098Y27671D01*
X152085Y27667D01*
X152064Y27654D01*
X152030Y27637D01*
X151991Y27620D01*
X151940Y27603D01*
X151876Y27582D01*
X151808Y27560D01*
X151723Y27535D01*
X151629Y27514D01*
X151527Y27496D01*
X151412Y27479D01*
X151280Y27462D01*
X151144Y27450D01*
X150990Y27445D01*
X150824Y27441D01*
X150820D01*
X150816D01*
X150803D01*
X150786D01*
X150739D01*
X150679Y27445D01*
X150603Y27450D01*
X150517Y27454D01*
X150428Y27462D01*
X150326Y27471D01*
X150117Y27496D01*
X149908Y27539D01*
X149810Y27569D01*
X149716Y27599D01*
X149631Y27633D01*
X149559Y27675D01*
X149555Y27680D01*
X149542Y27688D01*
X149525Y27701D01*
X149504Y27718D01*
X149474Y27744D01*
X149444Y27769D01*
X149410Y27803D01*
X149376Y27841D01*
X149342Y27884D01*
X149308Y27927D01*
X149278Y27978D01*
X149248Y28033D01*
X149227Y28093D01*
X149210Y28152D01*
X149197Y28221D01*
X149193Y28289D01*
Y28306D01*
X149197Y28327D01*
Y28353D01*
X149205Y28387D01*
X149214Y28421D01*
X149222Y28463D01*
X149239Y28510D01*
X149256Y28557D01*
X149282Y28608D01*
X149312Y28659D01*
X149346Y28710D01*
X149389Y28762D01*
X149440Y28813D01*
X149495Y28860D01*
X149559Y28907D01*
X149563Y28911D01*
X149576Y28915D01*
X149597Y28928D01*
X149631Y28945D01*
X149670Y28962D01*
X149721Y28983D01*
X149780Y29004D01*
X149853Y29026D01*
X149934Y29047D01*
X150028Y29068D01*
X150130Y29090D01*
X150249Y29107D01*
X150373Y29124D01*
X150513Y29136D01*
X150666Y29141D01*
X150828Y29145D01*
X150833D01*
X150837D01*
X150850D01*
X150867D01*
X150914D01*
X150978Y29141D01*
D02*
G37*
G36*
X151761Y26879D02*
X152405D01*
Y26393D01*
X151761D01*
Y25315D01*
X151225D01*
X149193Y26453D01*
Y26879D01*
X151220D01*
Y27202D01*
X151761D01*
Y26879D01*
D02*
G37*
G36*
X149742Y24391D02*
X152405D01*
Y23863D01*
X149742D01*
Y23083D01*
X149201D01*
Y25170D01*
X149742D01*
Y24391D01*
D02*
G37*
G36*
X152405Y22201D02*
X151003D01*
Y21158D01*
X152405D01*
Y20629D01*
X149201D01*
Y21158D01*
X150462D01*
Y22201D01*
X149201D01*
Y22729D01*
X152405D01*
Y22201D01*
D02*
G37*
G36*
X151544Y20178D02*
X151582Y20174D01*
X151625Y20169D01*
X151668Y20161D01*
X151719Y20148D01*
X151830Y20118D01*
X151889Y20097D01*
X151949Y20071D01*
X152008Y20041D01*
X152068Y20007D01*
X152123Y19969D01*
X152179Y19922D01*
X152183Y19918D01*
X152192Y19909D01*
X152204Y19897D01*
X152221Y19875D01*
X152243Y19846D01*
X152268Y19811D01*
X152294Y19773D01*
X152319Y19726D01*
X152345Y19675D01*
X152371Y19615D01*
X152396Y19547D01*
X152417Y19475D01*
X152434Y19398D01*
X152447Y19313D01*
X152456Y19219D01*
X152460Y19121D01*
Y19096D01*
X152456Y19079D01*
Y19057D01*
X152451Y19032D01*
X152443Y18968D01*
X152426Y18895D01*
X152400Y18810D01*
X152366Y18721D01*
X152324Y18627D01*
X152264Y18533D01*
X152192Y18435D01*
X152149Y18393D01*
X152102Y18346D01*
X152051Y18303D01*
X151996Y18265D01*
X151936Y18227D01*
X151872Y18188D01*
X151800Y18158D01*
X151723Y18129D01*
X151642Y18103D01*
X151553Y18082D01*
X151459Y18065D01*
X151361Y18052D01*
X151301Y18567D01*
X151310D01*
X151327Y18572D01*
X151357Y18580D01*
X151395Y18589D01*
X151442Y18601D01*
X151497Y18619D01*
X151553Y18644D01*
X151608Y18670D01*
X151663Y18704D01*
X151719Y18746D01*
X151774Y18789D01*
X151817Y18844D01*
X151859Y18904D01*
X151889Y18976D01*
X151906Y19053D01*
X151915Y19138D01*
Y19177D01*
X151906Y19219D01*
X151898Y19275D01*
X151885Y19334D01*
X151864Y19398D01*
X151834Y19458D01*
X151791Y19513D01*
X151787Y19517D01*
X151770Y19534D01*
X151740Y19556D01*
X151706Y19586D01*
X151659Y19611D01*
X151608Y19633D01*
X151548Y19649D01*
X151480Y19654D01*
X151476D01*
X151463D01*
X151442Y19649D01*
X151416D01*
X151352Y19633D01*
X151322Y19620D01*
X151293Y19603D01*
X151288D01*
X151280Y19594D01*
X151267Y19581D01*
X151250Y19569D01*
X151229Y19547D01*
X151207Y19522D01*
X151186Y19492D01*
X151169Y19458D01*
X151165Y19454D01*
X151161Y19436D01*
X151148Y19407D01*
X151139Y19385D01*
X151131Y19360D01*
X151118Y19334D01*
X151105Y19300D01*
X151093Y19258D01*
X151075Y19215D01*
X151063Y19164D01*
X151041Y19108D01*
X151024Y19049D01*
X151003Y18981D01*
Y18976D01*
X150999Y18968D01*
X150995Y18947D01*
X150986Y18925D01*
X150978Y18900D01*
X150965Y18866D01*
X150935Y18793D01*
X150905Y18712D01*
X150867Y18631D01*
X150824Y18555D01*
X150782Y18486D01*
X150777Y18478D01*
X150760Y18461D01*
X150730Y18431D01*
X150696Y18397D01*
X150649Y18354D01*
X150598Y18316D01*
X150534Y18273D01*
X150466Y18235D01*
X150462D01*
X150458Y18231D01*
X150432Y18222D01*
X150394Y18205D01*
X150338Y18193D01*
X150279Y18176D01*
X150206Y18158D01*
X150126Y18150D01*
X150045Y18146D01*
X150040D01*
X150032D01*
X150019D01*
X150002D01*
X149976Y18150D01*
X149951D01*
X149887Y18158D01*
X149814Y18176D01*
X149733Y18193D01*
X149653Y18222D01*
X149572Y18261D01*
X149567D01*
X149563Y18265D01*
X149538Y18282D01*
X149499Y18308D01*
X149452Y18346D01*
X149401Y18393D01*
X149350Y18448D01*
X149299Y18516D01*
X149256Y18589D01*
Y18593D01*
X149252Y18597D01*
X149248Y18610D01*
X149239Y18627D01*
X149231Y18648D01*
X149222Y18674D01*
X149201Y18734D01*
X149180Y18810D01*
X149163Y18900D01*
X149150Y18998D01*
X149146Y19108D01*
Y19151D01*
X149150Y19185D01*
X149154Y19223D01*
X149158Y19270D01*
X149167Y19317D01*
X149176Y19373D01*
X149205Y19488D01*
X149227Y19552D01*
X149252Y19611D01*
X149282Y19671D01*
X149312Y19726D01*
X149354Y19782D01*
X149397Y19833D01*
X149401Y19837D01*
X149410Y19846D01*
X149423Y19858D01*
X149444Y19875D01*
X149469Y19892D01*
X149499Y19918D01*
X149538Y19939D01*
X149580Y19965D01*
X149627Y19990D01*
X149682Y20016D01*
X149742Y20037D01*
X149806Y20058D01*
X149874Y20080D01*
X149946Y20092D01*
X150028Y20105D01*
X150113Y20110D01*
X150143Y19577D01*
X150138D01*
X150130D01*
X150117Y19573D01*
X150100Y19569D01*
X150057Y19560D01*
X150002Y19543D01*
X149942Y19522D01*
X149883Y19496D01*
X149827Y19462D01*
X149785Y19424D01*
X149780Y19420D01*
X149768Y19402D01*
X149751Y19377D01*
X149733Y19339D01*
X149716Y19292D01*
X149699Y19236D01*
X149687Y19172D01*
X149682Y19096D01*
Y19062D01*
X149687Y19023D01*
X149695Y18976D01*
X149704Y18921D01*
X149721Y18866D01*
X149742Y18814D01*
X149772Y18768D01*
X149776Y18763D01*
X149789Y18751D01*
X149806Y18729D01*
X149831Y18712D01*
X149866Y18691D01*
X149904Y18670D01*
X149951Y18657D01*
X149998Y18653D01*
X150002D01*
X150019D01*
X150045Y18657D01*
X150074Y18665D01*
X150108Y18678D01*
X150143Y18695D01*
X150181Y18721D01*
X150215Y18755D01*
X150219Y18759D01*
X150232Y18776D01*
X150249Y18806D01*
X150262Y18827D01*
X150275Y18853D01*
X150287Y18883D01*
X150304Y18917D01*
X150321Y18955D01*
X150338Y19002D01*
X150356Y19053D01*
X150373Y19108D01*
X150394Y19168D01*
X150415Y19236D01*
Y19241D01*
X150419Y19253D01*
X150428Y19275D01*
X150436Y19300D01*
X150445Y19334D01*
X150458Y19373D01*
X150488Y19458D01*
X150526Y19552D01*
X150564Y19649D01*
X150611Y19735D01*
X150632Y19777D01*
X150658Y19811D01*
X150662Y19820D01*
X150679Y19841D01*
X150709Y19871D01*
X150747Y19914D01*
X150794Y19956D01*
X150854Y20003D01*
X150918Y20046D01*
X150990Y20084D01*
X150995D01*
X150999Y20088D01*
X151012Y20092D01*
X151024Y20101D01*
X151067Y20114D01*
X151127Y20135D01*
X151195Y20152D01*
X151280Y20165D01*
X151374Y20178D01*
X151476Y20182D01*
X151480D01*
X151493D01*
X151514D01*
X151544Y20178D01*
D02*
G37*
%LPC*%
G36*
X145285Y48470D02*
X144354Y46791D01*
X145285D01*
Y48470D01*
D02*
G37*
G36*
X142106Y53838D02*
X142096D01*
X142071Y53833D01*
X142037Y53828D01*
X141988Y53813D01*
X141933Y53789D01*
X141874Y53754D01*
X141815Y53705D01*
X141761Y53636D01*
X141756Y53626D01*
X141742Y53597D01*
X141717Y53553D01*
X141692Y53484D01*
X141668Y53400D01*
X141643Y53297D01*
X141628Y53179D01*
X141623Y53036D01*
Y53031D01*
Y53021D01*
Y53002D01*
Y52977D01*
Y52947D01*
X141628Y52913D01*
X141633Y52829D01*
X141638Y52741D01*
X141648Y52652D01*
X141663Y52564D01*
X141683Y52490D01*
X141687Y52480D01*
X141692Y52460D01*
X141707Y52431D01*
X141727Y52391D01*
X141756Y52347D01*
X141786Y52303D01*
X141820Y52264D01*
X141860Y52224D01*
X141865Y52219D01*
X141879Y52210D01*
X141904Y52195D01*
X141933Y52180D01*
X141973Y52165D01*
X142017Y52150D01*
X142066Y52141D01*
X142120Y52136D01*
X142130D01*
X142155Y52141D01*
X142189Y52145D01*
X142234Y52160D01*
X142288Y52185D01*
X142342Y52224D01*
X142396Y52273D01*
X142450Y52342D01*
X142455Y52352D01*
X142475Y52382D01*
X142494Y52431D01*
X142524Y52500D01*
X142548Y52583D01*
X142558Y52637D01*
X142573Y52692D01*
X142578Y52756D01*
X142588Y52820D01*
X142593Y52893D01*
Y52967D01*
Y52972D01*
Y52987D01*
Y53012D01*
Y53041D01*
X142588Y53080D01*
Y53125D01*
X142578Y53223D01*
X142558Y53331D01*
X142534Y53444D01*
X142499Y53543D01*
X142480Y53592D01*
X142455Y53631D01*
X142450Y53641D01*
X142430Y53666D01*
X142401Y53695D01*
X142361Y53735D01*
X142307Y53774D01*
X142248Y53804D01*
X142179Y53828D01*
X142106Y53838D01*
D02*
G37*
G36*
X110864Y54714D02*
X110249Y54714D01*
Y53774D01*
X110839Y53774D01*
X110923Y53779D01*
X111016Y53784D01*
X111100Y53789D01*
X111144Y53794D01*
X111179Y53799D01*
X111208Y53804D01*
X111233Y53808D01*
X111238D01*
X111252Y53813D01*
X111272Y53823D01*
X111297Y53838D01*
X111326Y53858D01*
X111356Y53887D01*
X111385Y53917D01*
X111415Y53956D01*
X111420Y53961D01*
X111425Y53976D01*
X111439Y54000D01*
X111454Y54035D01*
X111464Y54079D01*
X111479Y54128D01*
X111484Y54187D01*
X111488Y54251D01*
Y54261D01*
Y54281D01*
X111484Y54315D01*
X111479Y54355D01*
X111469Y54399D01*
X111459Y54448D01*
X111439Y54492D01*
X111415Y54537D01*
X111410Y54542D01*
X111400Y54556D01*
X111385Y54571D01*
X111365Y54596D01*
X111336Y54620D01*
X111306Y54645D01*
X111267Y54665D01*
X111223Y54684D01*
X111218D01*
X111203Y54689D01*
X111174Y54694D01*
X111129Y54699D01*
X111100Y54704D01*
X111065D01*
X111026Y54709D01*
X110928D01*
X110864Y54714D01*
D02*
G37*
G36*
X148383Y53838D02*
X148354D01*
X148320Y53828D01*
X148275Y53818D01*
X148226Y53799D01*
X148177Y53769D01*
X148123Y53725D01*
X148074Y53671D01*
X148069Y53661D01*
X148054Y53641D01*
X148034Y53602D01*
X148010Y53553D01*
X147990Y53484D01*
X147970Y53405D01*
X147956Y53312D01*
X147951Y53208D01*
X148821D01*
Y53213D01*
Y53223D01*
Y53238D01*
X148817Y53257D01*
X148812Y53316D01*
X148802Y53385D01*
X148782Y53459D01*
X148758Y53538D01*
X148728Y53612D01*
X148684Y53676D01*
X148679Y53681D01*
X148664Y53700D01*
X148635Y53725D01*
X148600Y53759D01*
X148556Y53789D01*
X148506Y53813D01*
X148448Y53833D01*
X148383Y53838D01*
D02*
G37*
G36*
X139596Y53804D02*
X139547D01*
X139523Y53799D01*
X139478Y53794D01*
X139429Y53779D01*
X139370Y53754D01*
X139306Y53715D01*
X139242Y53661D01*
X139213Y53631D01*
X139183Y53592D01*
X139178Y53582D01*
X139158Y53553D01*
X139134Y53503D01*
X139104Y53435D01*
X139075Y53351D01*
X139050Y53243D01*
X139031Y53120D01*
X139026Y52977D01*
Y52972D01*
Y52957D01*
Y52938D01*
X139031Y52908D01*
Y52874D01*
X139035Y52839D01*
X139045Y52746D01*
X139065Y52647D01*
X139095Y52544D01*
X139129Y52446D01*
X139183Y52357D01*
X139188Y52347D01*
X139213Y52323D01*
X139247Y52293D01*
X139291Y52254D01*
X139346Y52214D01*
X139409Y52185D01*
X139483Y52160D01*
X139567Y52150D01*
X139577D01*
X139606Y52155D01*
X139646Y52160D01*
X139700Y52175D01*
X139759Y52200D01*
X139823Y52239D01*
X139887Y52288D01*
X139946Y52357D01*
Y52362D01*
X139951Y52367D01*
X139961Y52382D01*
X139970Y52397D01*
X139995Y52446D01*
X140024Y52514D01*
X140054Y52603D01*
X140079Y52711D01*
X140098Y52834D01*
X140103Y52982D01*
Y52987D01*
Y53002D01*
Y53021D01*
Y53046D01*
X140098Y53080D01*
X140093Y53120D01*
X140084Y53208D01*
X140064Y53307D01*
X140034Y53410D01*
X139995Y53503D01*
X139941Y53592D01*
Y53597D01*
X139936Y53602D01*
X139911Y53626D01*
X139877Y53661D01*
X139833Y53700D01*
X139778Y53735D01*
X139715Y53769D01*
X139641Y53794D01*
X139596Y53804D01*
D02*
G37*
G36*
X130657D02*
X130608D01*
X130583Y53799D01*
X130539Y53794D01*
X130490Y53779D01*
X130430Y53754D01*
X130367Y53715D01*
X130303Y53661D01*
X130273Y53631D01*
X130244Y53592D01*
X130239Y53582D01*
X130219Y53553D01*
X130194Y53503D01*
X130165Y53435D01*
X130135Y53351D01*
X130111Y53243D01*
X130091Y53120D01*
X130086Y52977D01*
Y52972D01*
Y52957D01*
Y52938D01*
X130091Y52908D01*
Y52874D01*
X130096Y52839D01*
X130106Y52746D01*
X130125Y52647D01*
X130155Y52544D01*
X130189Y52446D01*
X130244Y52357D01*
X130248Y52347D01*
X130273Y52323D01*
X130307Y52293D01*
X130352Y52254D01*
X130406Y52214D01*
X130470Y52185D01*
X130544Y52160D01*
X130627Y52150D01*
X130637D01*
X130667Y52155D01*
X130706Y52160D01*
X130760Y52175D01*
X130819Y52200D01*
X130883Y52239D01*
X130947Y52288D01*
X131006Y52357D01*
Y52362D01*
X131011Y52367D01*
X131021Y52382D01*
X131031Y52397D01*
X131055Y52446D01*
X131085Y52514D01*
X131114Y52603D01*
X131139Y52711D01*
X131159Y52834D01*
X131164Y52982D01*
Y52987D01*
Y53002D01*
Y53021D01*
Y53046D01*
X131159Y53080D01*
X131154Y53120D01*
X131144Y53208D01*
X131124Y53307D01*
X131095Y53410D01*
X131055Y53503D01*
X131001Y53592D01*
Y53597D01*
X130996Y53602D01*
X130972Y53626D01*
X130937Y53661D01*
X130893Y53700D01*
X130839Y53735D01*
X130775Y53769D01*
X130701Y53794D01*
X130657Y53804D01*
D02*
G37*
G36*
X123203Y53838D02*
X123173D01*
X123139Y53828D01*
X123095Y53818D01*
X123046Y53799D01*
X122996Y53769D01*
X122942Y53725D01*
X122893Y53671D01*
X122888Y53661D01*
X122873Y53641D01*
X122854Y53602D01*
X122829Y53553D01*
X122809Y53484D01*
X122790Y53405D01*
X122775Y53312D01*
X122770Y53208D01*
X123641D01*
Y53213D01*
Y53223D01*
Y53238D01*
X123636Y53257D01*
X123631Y53316D01*
X123621Y53385D01*
X123601Y53459D01*
X123577Y53538D01*
X123547Y53612D01*
X123503Y53676D01*
X123498Y53681D01*
X123483Y53700D01*
X123454Y53725D01*
X123419Y53759D01*
X123375Y53789D01*
X123326Y53813D01*
X123267Y53833D01*
X123203Y53838D01*
D02*
G37*
G36*
X100502Y54763D02*
X100468D01*
X100438Y54758D01*
X100409Y54753D01*
X100369Y54748D01*
X100286Y54724D01*
X100187Y54684D01*
X100138Y54660D01*
X100089Y54630D01*
X100035Y54596D01*
X99985Y54551D01*
X99936Y54502D01*
X99892Y54448D01*
Y54443D01*
X99882Y54433D01*
X99872Y54414D01*
X99858Y54389D01*
X99838Y54355D01*
X99818Y54315D01*
X99799Y54266D01*
X99779Y54212D01*
X99754Y54148D01*
X99735Y54079D01*
X99715Y54000D01*
X99695Y53912D01*
X99681Y53818D01*
X99671Y53715D01*
X99666Y53607D01*
X99661Y53489D01*
Y53484D01*
Y53459D01*
Y53430D01*
X99666Y53385D01*
X99671Y53331D01*
X99676Y53267D01*
X99681Y53203D01*
X99690Y53130D01*
X99720Y52972D01*
X99764Y52815D01*
X99789Y52736D01*
X99823Y52662D01*
X99858Y52593D01*
X99902Y52529D01*
X99907Y52524D01*
X99912Y52514D01*
X99927Y52500D01*
X99946Y52480D01*
X99971Y52456D01*
X99995Y52431D01*
X100069Y52372D01*
X100153Y52313D01*
X100256Y52264D01*
X100315Y52244D01*
X100374Y52229D01*
X100438Y52219D01*
X100502Y52214D01*
X100537D01*
X100561Y52219D01*
X100596Y52224D01*
X100630Y52229D01*
X100714Y52254D01*
X100807Y52293D01*
X100856Y52318D01*
X100910Y52347D01*
X100960Y52382D01*
X101009Y52426D01*
X101058Y52475D01*
X101102Y52529D01*
X101107Y52534D01*
X101112Y52544D01*
X101127Y52564D01*
X101142Y52588D01*
X101156Y52623D01*
X101181Y52662D01*
X101201Y52711D01*
X101225Y52770D01*
X101245Y52834D01*
X101270Y52903D01*
X101289Y52987D01*
X101304Y53075D01*
X101324Y53169D01*
X101334Y53272D01*
X101339Y53385D01*
X101343Y53503D01*
Y53513D01*
Y53533D01*
Y53562D01*
X101339Y53607D01*
Y53661D01*
X101334Y53720D01*
X101324Y53789D01*
X101314Y53863D01*
X101284Y54015D01*
X101245Y54173D01*
X101186Y54325D01*
X101147Y54389D01*
X101107Y54453D01*
X101102Y54458D01*
X101097Y54468D01*
X101083Y54483D01*
X101068Y54502D01*
X101014Y54551D01*
X100945Y54610D01*
X100856Y54665D01*
X100753Y54714D01*
X100699Y54733D01*
X100635Y54748D01*
X100571Y54758D01*
X100502Y54763D01*
D02*
G37*
G36*
X86269D02*
X86234D01*
X86205Y54758D01*
X86175Y54753D01*
X86136Y54748D01*
X86052Y54724D01*
X85954Y54684D01*
X85905Y54660D01*
X85855Y54630D01*
X85801Y54596D01*
X85752Y54551D01*
X85703Y54502D01*
X85659Y54448D01*
Y54443D01*
X85649Y54433D01*
X85639Y54414D01*
X85624Y54389D01*
X85604Y54355D01*
X85585Y54315D01*
X85565Y54266D01*
X85545Y54212D01*
X85521Y54148D01*
X85501Y54079D01*
X85481Y54000D01*
X85462Y53912D01*
X85447Y53818D01*
X85437Y53715D01*
X85432Y53607D01*
X85427Y53489D01*
Y53484D01*
Y53459D01*
Y53430D01*
X85432Y53385D01*
X85437Y53331D01*
X85442Y53267D01*
X85447Y53203D01*
X85457Y53130D01*
X85486Y52972D01*
X85531Y52815D01*
X85555Y52736D01*
X85590Y52662D01*
X85624Y52593D01*
X85668Y52529D01*
X85673Y52524D01*
X85678Y52514D01*
X85693Y52500D01*
X85713Y52480D01*
X85737Y52456D01*
X85762Y52431D01*
X85836Y52372D01*
X85919Y52313D01*
X86023Y52264D01*
X86082Y52244D01*
X86141Y52229D01*
X86205Y52219D01*
X86269Y52214D01*
X86303D01*
X86328Y52219D01*
X86362Y52224D01*
X86396Y52229D01*
X86480Y52254D01*
X86574Y52293D01*
X86623Y52318D01*
X86677Y52347D01*
X86726Y52382D01*
X86775Y52426D01*
X86825Y52475D01*
X86869Y52529D01*
X86874Y52534D01*
X86879Y52544D01*
X86893Y52564D01*
X86908Y52588D01*
X86923Y52623D01*
X86948Y52662D01*
X86967Y52711D01*
X86992Y52770D01*
X87011Y52834D01*
X87036Y52903D01*
X87056Y52987D01*
X87071Y53075D01*
X87090Y53169D01*
X87100Y53272D01*
X87105Y53385D01*
X87110Y53503D01*
Y53513D01*
Y53533D01*
Y53562D01*
X87105Y53607D01*
Y53661D01*
X87100Y53720D01*
X87090Y53789D01*
X87080Y53863D01*
X87051Y54015D01*
X87011Y54173D01*
X86952Y54325D01*
X86913Y54389D01*
X86874Y54453D01*
X86869Y54458D01*
X86864Y54468D01*
X86849Y54483D01*
X86834Y54502D01*
X86780Y54551D01*
X86711Y54610D01*
X86623Y54665D01*
X86519Y54714D01*
X86465Y54733D01*
X86401Y54748D01*
X86337Y54758D01*
X86269Y54763D01*
D02*
G37*
G36*
X61504Y53761D02*
X60899Y52671D01*
X61504D01*
Y53761D01*
D02*
G37*
G36*
X59080Y54149D02*
X58709D01*
Y53237D01*
X59046D01*
X59097Y53241D01*
X59161D01*
X59229Y53246D01*
X59297Y53254D01*
X59357Y53263D01*
X59382Y53267D01*
X59404Y53275D01*
X59408Y53280D01*
X59421Y53284D01*
X59442Y53297D01*
X59468Y53310D01*
X59493Y53331D01*
X59523Y53356D01*
X59553Y53386D01*
X59578Y53425D01*
X59583Y53429D01*
X59591Y53446D01*
X59600Y53467D01*
X59612Y53501D01*
X59625Y53540D01*
X59638Y53586D01*
X59642Y53637D01*
X59646Y53693D01*
Y53701D01*
Y53718D01*
X59642Y53748D01*
X59638Y53787D01*
X59629Y53829D01*
X59617Y53876D01*
X59600Y53919D01*
X59574Y53961D01*
X59570Y53966D01*
X59561Y53978D01*
X59548Y54000D01*
X59527Y54021D01*
X59502Y54046D01*
X59472Y54072D01*
X59438Y54093D01*
X59399Y54110D01*
X59395D01*
X59378Y54115D01*
X59348Y54123D01*
X59306Y54132D01*
X59280D01*
X59250Y54136D01*
X59212Y54140D01*
X59174Y54144D01*
X59127D01*
X59080Y54149D01*
D02*
G37*
G36*
X150960Y28617D02*
X150828D01*
X150824D01*
X150820D01*
X150794D01*
X150760D01*
X150709D01*
X150654Y28613D01*
X150585D01*
X150513Y28608D01*
X150436Y28604D01*
X150279Y28596D01*
X150202Y28587D01*
X150126Y28578D01*
X150057Y28570D01*
X149998Y28557D01*
X149942Y28544D01*
X149900Y28527D01*
X149895D01*
X149891Y28523D01*
X149870Y28510D01*
X149836Y28493D01*
X149797Y28468D01*
X149763Y28434D01*
X149729Y28391D01*
X149708Y28344D01*
X149699Y28319D01*
Y28284D01*
X149704Y28267D01*
X149708Y28242D01*
X149725Y28208D01*
X149746Y28170D01*
X149785Y28131D01*
X149831Y28089D01*
X149866Y28071D01*
X149900Y28054D01*
X149904D01*
X149908Y28050D01*
X149921Y28046D01*
X149942Y28042D01*
X149968Y28033D01*
X150002Y28029D01*
X150040Y28020D01*
X150087Y28012D01*
X150147Y28003D01*
X150211Y27995D01*
X150287Y27991D01*
X150373Y27982D01*
X150470Y27978D01*
X150577Y27973D01*
X150696Y27969D01*
X150828D01*
X150837D01*
X150858D01*
X150897D01*
X150948D01*
X151003Y27973D01*
X151071D01*
X151144Y27978D01*
X151220Y27982D01*
X151378Y27991D01*
X151459Y27999D01*
X151531Y28003D01*
X151604Y28016D01*
X151663Y28025D01*
X151719Y28042D01*
X151761Y28054D01*
X151770Y28059D01*
X151791Y28071D01*
X151821Y28093D01*
X151855Y28118D01*
X151893Y28152D01*
X151923Y28195D01*
X151944Y28242D01*
X151949Y28267D01*
X151953Y28293D01*
Y28302D01*
X151949Y28319D01*
X151944Y28344D01*
X151927Y28378D01*
X151906Y28417D01*
X151872Y28455D01*
X151821Y28493D01*
X151791Y28510D01*
X151757Y28527D01*
X151753D01*
X151749Y28532D01*
X151736Y28536D01*
X151714Y28540D01*
X151689Y28549D01*
X151655Y28557D01*
X151617Y28566D01*
X151565Y28574D01*
X151510Y28578D01*
X151446Y28587D01*
X151369Y28596D01*
X151284Y28604D01*
X151186Y28608D01*
X151080Y28613D01*
X150960Y28617D01*
D02*
G37*
G36*
X151220Y26393D02*
X150130D01*
X151220Y25788D01*
Y26393D01*
D02*
G37*
%LPD*%
D10*
X64760Y40913D02*
G03*
X64760Y40913I-197J0D01*
G01*
X140450Y19390D02*
G03*
X140450Y19390I-194J0D01*
G01*
X53638Y41110D02*
X54779D01*
X62142D02*
X63283D01*
X134252Y26772D02*
X140551Y26772D01*
X134252Y20472D02*
X140551Y20472D01*
X58839Y19488D02*
Y24803D01*
X65138D01*
X95453D02*
X101752D01*
Y19488D02*
Y24803D01*
X4429Y27559D02*
Y42126D01*
X31201Y27559D02*
Y42126D01*
X4429Y27559D02*
X31201D01*
X4429Y42126D02*
X31201D01*
X6638Y6457D02*
X11362D01*
X6638Y13543D02*
X11362D01*
X51575Y8661D02*
Y13386D01*
X44488Y8661D02*
Y13386D01*
D11*
X64055Y26181D02*
G03*
X64055Y26181I-492J0D01*
G01*
X32776Y49213D02*
G03*
X32776Y49213I-492J0D01*
G01*
D12*
X13331Y6063D02*
G03*
X13331Y6063I-394J0D01*
G01*
X52362Y14961D02*
G03*
X52362Y14961I-394J0D01*
G01*
M02*
