G04*
G04 #@! TF.GenerationSoftware,Altium Limited,Altium Designer,21.3.2 (30)*
G04*
G04 Layer_Color=24703*
%FSLAX25Y25*%
%MOIN*%
G70*
G04*
G04 #@! TF.SameCoordinates,7ABE349C-8111-4F2D-99A8-EBCD4980564F*
G04*
G04*
G04 #@! TF.FilePolarity,Positive*
G04*
G01*
G75*
%ADD52R,0.06650X0.00949*%
%ADD53R,0.01902X0.00949*%
%ADD54R,0.03799X0.00949*%
%ADD55R,0.02850X0.00949*%
%ADD56R,0.00949X0.00949*%
%ADD57R,0.01902X0.00949*%
%ADD58R,0.03803X0.00949*%
%ADD59R,0.02850X0.00953*%
%ADD60R,0.03803X0.00949*%
%ADD61R,0.06653X0.00949*%
%ADD62R,0.04752X0.00953*%
%ADD63R,0.00953X0.00953*%
%ADD64R,0.01902X0.00953*%
%ADD65R,0.07602X0.00953*%
%ADD66R,0.00953X0.00949*%
%ADD67R,0.03803X0.00953*%
%ADD68R,0.00953X0.00953*%
%ADD69R,0.00949X0.00953*%
%ADD70R,0.00949X0.00953*%
%ADD71R,0.01898X0.00953*%
%ADD72R,0.00953X0.00949*%
%ADD73R,0.04752X0.00949*%
%ADD74R,0.02850X0.00949*%
%ADD75R,0.00949X0.00949*%
%ADD76R,0.00953X0.00949*%
%ADD77R,0.00953X0.00953*%
%ADD78R,0.04752X0.00949*%
%ADD79R,0.01902X0.00953*%
%ADD80R,0.01898X0.00953*%
%ADD81R,0.01898X0.00949*%
%ADD82R,0.01902X0.00953*%
%ADD83R,0.00949X0.00953*%
%ADD84R,0.01898X0.00953*%
%ADD85R,0.00949X0.00949*%
%ADD86R,0.02850X0.00953*%
%ADD87R,0.02850X0.00949*%
%ADD88R,0.02850X0.00953*%
G36*
X5090Y17596D02*
Y17506D01*
Y17416D01*
Y17325D01*
Y17235D01*
Y17145D01*
Y17055D01*
Y16965D01*
Y16875D01*
Y16785D01*
Y16695D01*
Y16605D01*
Y16515D01*
Y16425D01*
Y16335D01*
Y16245D01*
Y16155D01*
Y16065D01*
Y15975D01*
Y15885D01*
Y15795D01*
Y15705D01*
Y15614D01*
Y15524D01*
Y15434D01*
Y15344D01*
Y15254D01*
Y15164D01*
Y15074D01*
Y14984D01*
Y14894D01*
Y14804D01*
Y14714D01*
Y14624D01*
Y14534D01*
Y14444D01*
Y14354D01*
Y14264D01*
Y14174D01*
Y14083D01*
Y13993D01*
Y13903D01*
Y13813D01*
Y13723D01*
Y13633D01*
Y13543D01*
X6441D01*
Y13633D01*
X6531D01*
Y13723D01*
X6621D01*
Y13813D01*
X6711D01*
Y13903D01*
Y13993D01*
X6801D01*
Y14083D01*
X6891D01*
Y14174D01*
X6981D01*
Y14264D01*
Y14354D01*
X7071D01*
Y14444D01*
X7161D01*
Y14534D01*
X7252D01*
Y14624D01*
Y14714D01*
X7342D01*
Y14804D01*
X7432D01*
Y14894D01*
X7522D01*
Y14984D01*
Y15074D01*
X7612D01*
Y15164D01*
X7702D01*
Y15254D01*
X7792D01*
Y15344D01*
Y15434D01*
X7882D01*
Y15524D01*
X7972D01*
Y15614D01*
X8062D01*
Y15705D01*
Y15795D01*
X8152D01*
Y15885D01*
X8242D01*
Y15975D01*
X8332D01*
Y16065D01*
X8422D01*
Y16155D01*
Y16245D01*
X8512D01*
Y16335D01*
X8602D01*
Y16425D01*
X8692D01*
Y16515D01*
Y16605D01*
X8783D01*
Y16515D01*
Y16425D01*
Y16335D01*
Y16245D01*
Y16155D01*
Y16065D01*
Y15975D01*
Y15885D01*
Y15795D01*
Y15705D01*
Y15614D01*
Y15524D01*
Y15434D01*
Y15344D01*
Y15254D01*
Y15164D01*
Y15074D01*
Y14984D01*
Y14894D01*
Y14804D01*
Y14714D01*
Y14624D01*
Y14534D01*
Y14444D01*
Y14354D01*
Y14264D01*
Y14174D01*
Y14083D01*
Y13993D01*
Y13903D01*
Y13813D01*
Y13723D01*
Y13633D01*
Y13543D01*
X9953D01*
Y13633D01*
Y13723D01*
Y13813D01*
Y13903D01*
Y13993D01*
Y14083D01*
Y14174D01*
Y14264D01*
Y14354D01*
Y14444D01*
Y14534D01*
Y14624D01*
Y14714D01*
Y14804D01*
Y14894D01*
Y14984D01*
Y15074D01*
Y15164D01*
Y15254D01*
Y15344D01*
Y15434D01*
Y15524D01*
Y15614D01*
Y15705D01*
Y15795D01*
Y15885D01*
Y15975D01*
Y16065D01*
Y16155D01*
Y16245D01*
Y16335D01*
Y16425D01*
Y16515D01*
Y16605D01*
Y16695D01*
Y16785D01*
Y16875D01*
Y16965D01*
Y17055D01*
Y17145D01*
Y17235D01*
Y17325D01*
Y17416D01*
Y17506D01*
Y17596D01*
Y17686D01*
X8422D01*
Y17596D01*
Y17506D01*
X8332D01*
Y17416D01*
X8242D01*
Y17325D01*
X8152D01*
Y17235D01*
Y17145D01*
X8062D01*
Y17055D01*
X7972D01*
Y16965D01*
X7882D01*
Y16875D01*
X7792D01*
Y16785D01*
Y16695D01*
X7702D01*
Y16605D01*
X7612D01*
Y16515D01*
X7522D01*
Y16425D01*
Y16335D01*
X7432D01*
Y16245D01*
X7342D01*
Y16155D01*
X7252D01*
Y16065D01*
Y15975D01*
X7161D01*
Y15885D01*
X7071D01*
Y15795D01*
X6981D01*
Y15705D01*
Y15614D01*
X6891D01*
Y15524D01*
X6801D01*
Y15434D01*
X6711D01*
Y15344D01*
Y15254D01*
X6621D01*
Y15164D01*
X6531D01*
Y15074D01*
X6441D01*
Y14984D01*
Y14894D01*
X6351D01*
Y14804D01*
X6171D01*
Y14894D01*
Y14984D01*
Y15074D01*
Y15164D01*
Y15254D01*
Y15344D01*
Y15434D01*
Y15524D01*
Y15614D01*
Y15705D01*
Y15795D01*
Y15885D01*
Y15975D01*
Y16065D01*
Y16155D01*
Y16245D01*
Y16335D01*
Y16425D01*
Y16515D01*
Y16605D01*
Y16695D01*
Y16785D01*
Y16875D01*
Y16965D01*
Y17055D01*
Y17145D01*
Y17235D01*
Y17325D01*
Y17416D01*
Y17506D01*
Y17596D01*
Y17686D01*
X5090D01*
Y17596D01*
D02*
G37*
G36*
X13195Y17686D02*
X12385D01*
Y17596D01*
X12025D01*
Y17506D01*
X11844D01*
Y17416D01*
X11664D01*
Y17325D01*
X11484D01*
Y17235D01*
X11394D01*
Y17145D01*
X11304D01*
Y17055D01*
X11214D01*
Y16965D01*
X11124D01*
Y16875D01*
X11034D01*
Y16785D01*
Y16695D01*
X10944D01*
Y16605D01*
Y16515D01*
X10854D01*
Y16425D01*
Y16335D01*
Y16245D01*
Y16155D01*
X10764D01*
Y16065D01*
Y15975D01*
Y15885D01*
Y15795D01*
Y15705D01*
Y15614D01*
Y15524D01*
Y15434D01*
Y15344D01*
Y15254D01*
Y15164D01*
Y15074D01*
Y14984D01*
X10854D01*
Y14894D01*
Y14804D01*
Y14714D01*
X10944D01*
Y14624D01*
Y14534D01*
X11034D01*
Y14444D01*
Y14354D01*
X11124D01*
Y14264D01*
Y14174D01*
X11214D01*
Y14083D01*
X11304D01*
Y13993D01*
X11484D01*
Y13903D01*
X11574D01*
Y13813D01*
X11754D01*
Y13723D01*
X11935D01*
Y13633D01*
X12205D01*
Y13543D01*
X12655D01*
Y13453D01*
X14366D01*
Y13543D01*
X14816D01*
Y13633D01*
X15087D01*
Y13723D01*
X15267D01*
Y13813D01*
X15447D01*
Y13903D01*
X15537D01*
Y13993D01*
X15717D01*
Y14083D01*
X15807D01*
Y14174D01*
X15897D01*
Y14264D01*
Y14354D01*
X15987D01*
Y14444D01*
X16077D01*
Y14534D01*
Y14624D01*
Y14714D01*
X16167D01*
Y14804D01*
Y14894D01*
Y14984D01*
Y15074D01*
X16257D01*
Y15164D01*
Y15254D01*
Y15344D01*
Y15434D01*
Y15524D01*
Y15614D01*
Y15705D01*
Y15795D01*
Y15885D01*
Y15975D01*
Y16065D01*
Y16155D01*
X16167D01*
Y16245D01*
Y16335D01*
Y16425D01*
Y16515D01*
X16077D01*
Y16605D01*
Y16695D01*
X15987D01*
Y16785D01*
Y16875D01*
X15897D01*
Y16965D01*
X15807D01*
Y17055D01*
X15717D01*
Y17145D01*
X15627D01*
Y17235D01*
X15537D01*
Y17325D01*
X15357D01*
Y17416D01*
X15177D01*
Y17506D01*
X14997D01*
Y17596D01*
X14636D01*
Y17686D01*
X13826D01*
Y17776D01*
X13195D01*
Y17686D01*
D02*
G37*
G36*
X17068Y17596D02*
Y17506D01*
Y17416D01*
Y17325D01*
Y17235D01*
Y17145D01*
Y17055D01*
Y16965D01*
Y16875D01*
Y16785D01*
Y16695D01*
Y16605D01*
Y16515D01*
Y16425D01*
Y16335D01*
Y16245D01*
Y16155D01*
Y16065D01*
Y15975D01*
Y15885D01*
Y15795D01*
Y15705D01*
Y15614D01*
Y15524D01*
Y15434D01*
Y15344D01*
Y15254D01*
Y15164D01*
Y15074D01*
Y14984D01*
Y14894D01*
Y14804D01*
Y14714D01*
Y14624D01*
Y14534D01*
Y14444D01*
Y14354D01*
Y14264D01*
Y14174D01*
Y14083D01*
Y13993D01*
Y13903D01*
Y13813D01*
Y13723D01*
Y13633D01*
Y13543D01*
X18239D01*
Y13633D01*
Y13723D01*
Y13813D01*
Y13903D01*
Y13993D01*
Y14083D01*
Y14174D01*
Y14264D01*
Y14354D01*
Y14444D01*
Y14534D01*
Y14624D01*
Y14714D01*
Y14804D01*
Y14894D01*
Y14984D01*
Y15074D01*
Y15164D01*
Y15254D01*
Y15344D01*
Y15434D01*
Y15524D01*
Y15614D01*
Y15705D01*
Y15795D01*
Y15885D01*
Y15975D01*
Y16065D01*
Y16155D01*
Y16245D01*
Y16335D01*
Y16425D01*
Y16515D01*
Y16605D01*
Y16695D01*
Y16785D01*
Y16875D01*
Y16965D01*
Y17055D01*
Y17145D01*
Y17235D01*
Y17325D01*
Y17416D01*
Y17506D01*
Y17596D01*
Y17686D01*
X17068D01*
Y17596D01*
D02*
G37*
G36*
X20760D02*
X20220D01*
Y17506D01*
X19950D01*
Y17416D01*
X19770D01*
Y17325D01*
X19589D01*
Y17235D01*
X19499D01*
Y17145D01*
Y17055D01*
X19409D01*
Y16965D01*
Y16875D01*
X19319D01*
Y16785D01*
Y16695D01*
Y16605D01*
Y16515D01*
Y16425D01*
Y16335D01*
Y16245D01*
Y16155D01*
Y16065D01*
Y15975D01*
X19409D01*
Y15885D01*
Y15795D01*
X19499D01*
Y15705D01*
X19589D01*
Y15614D01*
X19680D01*
Y15524D01*
X19770D01*
Y15434D01*
X19950D01*
Y15344D01*
X20220D01*
Y15254D01*
X20400D01*
Y15164D01*
X20310D01*
Y15074D01*
X20220D01*
Y14984D01*
X20130D01*
Y14894D01*
X20040D01*
Y14804D01*
Y14714D01*
X19950D01*
Y14624D01*
X19860D01*
Y14534D01*
X19770D01*
Y14444D01*
Y14354D01*
X19680D01*
Y14264D01*
X19589D01*
Y14174D01*
X19499D01*
Y14083D01*
X19409D01*
Y13993D01*
Y13903D01*
X19319D01*
Y13813D01*
X19229D01*
Y13723D01*
X19139D01*
Y13633D01*
X19049D01*
Y13543D01*
X20400D01*
Y13633D01*
X20490D01*
Y13723D01*
Y13813D01*
X20580D01*
Y13903D01*
X20670D01*
Y13993D01*
X20760D01*
Y14083D01*
Y14174D01*
X20850D01*
Y14264D01*
X20940D01*
Y14354D01*
X21030D01*
Y14444D01*
Y14534D01*
X21120D01*
Y14624D01*
X21211D01*
Y14714D01*
Y14804D01*
X21301D01*
Y14894D01*
X21391D01*
Y14984D01*
X21481D01*
Y15074D01*
Y15164D01*
X22922D01*
Y15074D01*
Y14984D01*
Y14894D01*
Y14804D01*
Y14714D01*
Y14624D01*
Y14534D01*
Y14444D01*
Y14354D01*
Y14264D01*
Y14174D01*
Y14083D01*
Y13993D01*
Y13903D01*
Y13813D01*
Y13723D01*
Y13633D01*
Y13543D01*
X24092D01*
Y13633D01*
Y13723D01*
Y13813D01*
Y13903D01*
Y13993D01*
Y14083D01*
Y14174D01*
Y14264D01*
Y14354D01*
Y14444D01*
Y14534D01*
Y14624D01*
Y14714D01*
Y14804D01*
Y14894D01*
Y14984D01*
Y15074D01*
Y15164D01*
Y15254D01*
Y15344D01*
Y15434D01*
Y15524D01*
Y15614D01*
Y15705D01*
Y15795D01*
Y15885D01*
Y15975D01*
Y16065D01*
Y16155D01*
Y16245D01*
Y16335D01*
Y16425D01*
Y16515D01*
Y16605D01*
Y16695D01*
Y16785D01*
Y16875D01*
Y16965D01*
Y17055D01*
Y17145D01*
Y17235D01*
Y17325D01*
Y17416D01*
Y17506D01*
Y17596D01*
Y17686D01*
X20760D01*
Y17596D01*
D02*
G37*
G36*
X25263D02*
Y17506D01*
Y17416D01*
Y17325D01*
Y17235D01*
Y17145D01*
Y17055D01*
Y16965D01*
Y16875D01*
Y16785D01*
Y16695D01*
Y16605D01*
Y16515D01*
Y16425D01*
Y16335D01*
Y16245D01*
Y16155D01*
Y16065D01*
Y15975D01*
Y15885D01*
Y15795D01*
Y15705D01*
Y15614D01*
Y15524D01*
Y15434D01*
Y15344D01*
Y15254D01*
Y15164D01*
Y15074D01*
Y14984D01*
Y14894D01*
Y14804D01*
Y14714D01*
Y14624D01*
Y14534D01*
Y14444D01*
Y14354D01*
Y14264D01*
Y14174D01*
Y14083D01*
Y13993D01*
Y13903D01*
Y13813D01*
Y13723D01*
Y13633D01*
Y13543D01*
X26434D01*
Y13633D01*
Y13723D01*
Y13813D01*
Y13903D01*
Y13993D01*
Y14083D01*
Y14174D01*
Y14264D01*
Y14354D01*
Y14444D01*
Y14534D01*
Y14624D01*
Y14714D01*
Y14804D01*
Y14894D01*
Y14984D01*
Y15074D01*
Y15164D01*
Y15254D01*
Y15344D01*
Y15434D01*
Y15524D01*
Y15614D01*
Y15705D01*
Y15795D01*
Y15885D01*
Y15975D01*
Y16065D01*
Y16155D01*
Y16245D01*
Y16335D01*
Y16425D01*
Y16515D01*
Y16605D01*
Y16695D01*
Y16785D01*
Y16875D01*
Y16965D01*
Y17055D01*
Y17145D01*
Y17235D01*
Y17325D01*
Y17416D01*
Y17506D01*
Y17596D01*
Y17686D01*
X25263D01*
Y17596D01*
D02*
G37*
G36*
X27605D02*
Y17506D01*
Y17416D01*
Y17325D01*
Y17235D01*
Y17145D01*
Y17055D01*
Y16965D01*
X30847D01*
Y16875D01*
X31117D01*
Y16785D01*
X31297D01*
Y16695D01*
Y16605D01*
X31387D01*
Y16515D01*
Y16425D01*
Y16335D01*
Y16245D01*
Y16155D01*
X31297D01*
Y16065D01*
X31207D01*
Y15975D01*
X30847D01*
Y15885D01*
X28235D01*
Y15795D01*
X27965D01*
Y15705D01*
X27785D01*
Y15614D01*
X27605D01*
Y15524D01*
X27514D01*
Y15434D01*
Y15344D01*
X27424D01*
Y15254D01*
Y15164D01*
Y15074D01*
Y14984D01*
X27334D01*
Y14894D01*
Y14804D01*
Y14714D01*
Y14624D01*
Y14534D01*
X27424D01*
Y14444D01*
Y14354D01*
Y14264D01*
Y14174D01*
X27514D01*
Y14083D01*
X27605D01*
Y13993D01*
X27695D01*
Y13903D01*
X27785D01*
Y13813D01*
X27965D01*
Y13723D01*
X28145D01*
Y13633D01*
X28505D01*
Y13543D01*
X32378D01*
Y13633D01*
Y13723D01*
Y13813D01*
Y13903D01*
Y13993D01*
Y14083D01*
Y14174D01*
Y14264D01*
X28865D01*
Y14354D01*
X28685D01*
Y14444D01*
X28595D01*
Y14534D01*
Y14624D01*
Y14714D01*
Y14804D01*
Y14894D01*
Y14984D01*
X28685D01*
Y15074D01*
X28775D01*
Y15164D01*
X29046D01*
Y15254D01*
X31657D01*
Y15344D01*
X31927D01*
Y15434D01*
X32107D01*
Y15524D01*
X32288D01*
Y15614D01*
X32378D01*
Y15705D01*
X32468D01*
Y15795D01*
Y15885D01*
X32558D01*
Y15975D01*
Y16065D01*
Y16155D01*
Y16245D01*
Y16335D01*
Y16425D01*
Y16515D01*
Y16605D01*
Y16695D01*
Y16785D01*
Y16875D01*
Y16965D01*
X32468D01*
Y17055D01*
Y17145D01*
X32378D01*
Y17235D01*
X32288D01*
Y17325D01*
X32107D01*
Y17416D01*
X31927D01*
Y17506D01*
X31747D01*
Y17596D01*
X31297D01*
Y17686D01*
X31207D01*
Y17596D01*
X31117D01*
Y17686D01*
X27605D01*
Y17596D01*
D02*
G37*
G36*
X33458D02*
Y17506D01*
Y17416D01*
Y17325D01*
Y17235D01*
Y17145D01*
Y17055D01*
Y16965D01*
Y16875D01*
Y16785D01*
Y16695D01*
Y16605D01*
Y16515D01*
Y16425D01*
Y16335D01*
Y16245D01*
Y16155D01*
Y16065D01*
Y15975D01*
Y15885D01*
Y15795D01*
Y15705D01*
Y15614D01*
Y15524D01*
Y15434D01*
Y15344D01*
Y15254D01*
Y15164D01*
Y15074D01*
Y14984D01*
Y14894D01*
Y14804D01*
Y14714D01*
Y14624D01*
Y14534D01*
Y14444D01*
Y14354D01*
Y14264D01*
Y14174D01*
Y14083D01*
Y13993D01*
Y13903D01*
Y13813D01*
Y13723D01*
Y13633D01*
Y13543D01*
X34809D01*
Y13633D01*
X34899D01*
Y13723D01*
X34989D01*
Y13813D01*
X35079D01*
Y13903D01*
Y13993D01*
X35170D01*
Y14083D01*
X35260D01*
Y14174D01*
X35350D01*
Y14264D01*
Y14354D01*
X35440D01*
Y14444D01*
X35530D01*
Y14534D01*
X35620D01*
Y14624D01*
Y14714D01*
X35710D01*
Y14804D01*
X35800D01*
Y14894D01*
X35890D01*
Y14984D01*
Y15074D01*
X35980D01*
Y15164D01*
X36070D01*
Y15254D01*
X36160D01*
Y15344D01*
Y15434D01*
X36250D01*
Y15524D01*
X36340D01*
Y15614D01*
X36430D01*
Y15705D01*
X36520D01*
Y15795D01*
Y15885D01*
X36610D01*
Y15975D01*
X36700D01*
Y16065D01*
X36790D01*
Y16155D01*
Y16245D01*
X36881D01*
Y16335D01*
X36971D01*
Y16425D01*
X37061D01*
Y16515D01*
Y16605D01*
X37241D01*
Y16515D01*
Y16425D01*
Y16335D01*
Y16245D01*
Y16155D01*
Y16065D01*
Y15975D01*
Y15885D01*
Y15795D01*
Y15705D01*
Y15614D01*
Y15524D01*
Y15434D01*
Y15344D01*
Y15254D01*
Y15164D01*
Y15074D01*
Y14984D01*
Y14894D01*
Y14804D01*
Y14714D01*
Y14624D01*
Y14534D01*
Y14444D01*
Y14354D01*
Y14264D01*
Y14174D01*
Y14083D01*
Y13993D01*
Y13903D01*
Y13813D01*
Y13723D01*
Y13633D01*
Y13543D01*
X38322D01*
Y13633D01*
Y13723D01*
Y13813D01*
Y13903D01*
Y13993D01*
Y14083D01*
Y14174D01*
Y14264D01*
Y14354D01*
Y14444D01*
Y14534D01*
Y14624D01*
Y14714D01*
Y14804D01*
Y14894D01*
Y14984D01*
Y15074D01*
Y15164D01*
Y15254D01*
Y15344D01*
Y15434D01*
Y15524D01*
Y15614D01*
Y15705D01*
Y15795D01*
Y15885D01*
Y15975D01*
Y16065D01*
Y16155D01*
Y16245D01*
Y16335D01*
Y16425D01*
Y16515D01*
Y16605D01*
Y16695D01*
Y16785D01*
Y16875D01*
Y16965D01*
Y17055D01*
Y17145D01*
Y17235D01*
Y17325D01*
Y17416D01*
Y17506D01*
Y17596D01*
Y17686D01*
X36790D01*
Y17596D01*
Y17506D01*
X36700D01*
Y17416D01*
X36610D01*
Y17325D01*
X36520D01*
Y17235D01*
Y17145D01*
X36430D01*
Y17055D01*
X36340D01*
Y16965D01*
X36250D01*
Y16875D01*
Y16785D01*
X36160D01*
Y16695D01*
X36070D01*
Y16605D01*
X35980D01*
Y16515D01*
X35890D01*
Y16425D01*
Y16335D01*
X35800D01*
Y16245D01*
X35710D01*
Y16155D01*
X35620D01*
Y16065D01*
Y15975D01*
X35530D01*
Y15885D01*
X35440D01*
Y15795D01*
X35350D01*
Y15705D01*
Y15614D01*
X35260D01*
Y15524D01*
X35170D01*
Y15434D01*
X35079D01*
Y15344D01*
Y15254D01*
X34989D01*
Y15164D01*
X34899D01*
Y15074D01*
X34809D01*
Y14984D01*
Y14894D01*
X34719D01*
Y14804D01*
X34629D01*
Y14714D01*
X34539D01*
Y14804D01*
Y14894D01*
Y14984D01*
Y15074D01*
Y15164D01*
Y15254D01*
Y15344D01*
Y15434D01*
Y15524D01*
Y15614D01*
Y15705D01*
Y15795D01*
Y15885D01*
Y15975D01*
Y16065D01*
Y16155D01*
Y16245D01*
Y16335D01*
Y16425D01*
Y16515D01*
Y16605D01*
Y16695D01*
Y16785D01*
Y16875D01*
Y16965D01*
Y17055D01*
Y17145D01*
Y17235D01*
Y17325D01*
Y17416D01*
Y17506D01*
Y17596D01*
Y17686D01*
X33458D01*
Y17596D01*
D02*
G37*
G36*
X39402D02*
Y17506D01*
Y17416D01*
Y17325D01*
Y17235D01*
Y17145D01*
Y17055D01*
Y16965D01*
X41744D01*
Y16875D01*
X42014D01*
Y16785D01*
X42194D01*
Y16695D01*
X42284D01*
Y16605D01*
X42374D01*
Y16515D01*
X42464D01*
Y16425D01*
Y16335D01*
X42554D01*
Y16245D01*
Y16155D01*
Y16065D01*
Y15975D01*
X39402D01*
Y15885D01*
Y15795D01*
Y15705D01*
Y15614D01*
Y15524D01*
Y15434D01*
Y15344D01*
Y15254D01*
X42554D01*
Y15164D01*
Y15074D01*
Y14984D01*
Y14894D01*
Y14804D01*
X42464D01*
Y14714D01*
Y14624D01*
X42374D01*
Y14534D01*
X42284D01*
Y14444D01*
X42194D01*
Y14354D01*
X41924D01*
Y14264D01*
X41293D01*
Y14174D01*
X39402D01*
Y14083D01*
Y13993D01*
Y13903D01*
Y13813D01*
Y13723D01*
Y13633D01*
Y13543D01*
X42194D01*
Y13633D01*
X42554D01*
Y13723D01*
X42824D01*
Y13813D01*
X43005D01*
Y13903D01*
X43095D01*
Y13993D01*
X43275D01*
Y14083D01*
X43365D01*
Y14174D01*
X43455D01*
Y14264D01*
X43545D01*
Y14354D01*
Y14444D01*
X43635D01*
Y14534D01*
X43725D01*
Y14624D01*
Y14714D01*
Y14804D01*
X43815D01*
Y14894D01*
Y14984D01*
Y15074D01*
Y15164D01*
Y15254D01*
X43905D01*
Y15344D01*
Y15434D01*
Y15524D01*
Y15614D01*
Y15705D01*
Y15795D01*
X43815D01*
Y15885D01*
Y15975D01*
Y16065D01*
Y16155D01*
Y16245D01*
Y16335D01*
X43725D01*
Y16425D01*
Y16515D01*
Y16605D01*
X43635D01*
Y16695D01*
Y16785D01*
X43545D01*
Y16875D01*
X43455D01*
Y16965D01*
X43365D01*
Y17055D01*
X43275D01*
Y17145D01*
X43185D01*
Y17235D01*
X43095D01*
Y17325D01*
X42914D01*
Y17416D01*
X42644D01*
Y17506D01*
X42374D01*
Y17596D01*
X41744D01*
Y17686D01*
X39402D01*
Y17596D01*
D02*
G37*
G36*
X44716D02*
Y17506D01*
Y17416D01*
Y17325D01*
Y17235D01*
Y17145D01*
Y17055D01*
Y16965D01*
X47958D01*
Y16875D01*
X48228D01*
Y16785D01*
X48318D01*
Y16695D01*
X48408D01*
Y16605D01*
Y16515D01*
X48498D01*
Y16425D01*
Y16335D01*
Y16245D01*
X48408D01*
Y16155D01*
X48318D01*
Y16065D01*
X48228D01*
Y15975D01*
X47958D01*
Y15885D01*
X45256D01*
Y15795D01*
X44986D01*
Y15705D01*
X44806D01*
Y15614D01*
X44716D01*
Y15524D01*
X44625D01*
Y15434D01*
X44535D01*
Y15344D01*
Y15254D01*
X44445D01*
Y15164D01*
Y15074D01*
Y14984D01*
Y14894D01*
Y14804D01*
Y14714D01*
Y14624D01*
Y14534D01*
Y14444D01*
Y14354D01*
X44535D01*
Y14264D01*
Y14174D01*
X44625D01*
Y14083D01*
Y13993D01*
X44716D01*
Y13903D01*
X44806D01*
Y13813D01*
X44986D01*
Y13723D01*
X45166D01*
Y13633D01*
X45616D01*
Y13543D01*
X49399D01*
Y13633D01*
Y13723D01*
Y13813D01*
Y13903D01*
Y13993D01*
Y14083D01*
Y14174D01*
Y14264D01*
X45976D01*
Y14354D01*
X45796D01*
Y14444D01*
X45706D01*
Y14534D01*
X45616D01*
Y14624D01*
Y14714D01*
Y14804D01*
Y14894D01*
X45706D01*
Y14984D01*
Y15074D01*
X45886D01*
Y15164D01*
X46156D01*
Y15254D01*
X48678D01*
Y15344D01*
X49038D01*
Y15434D01*
X49218D01*
Y15524D01*
X49309D01*
Y15614D01*
X49399D01*
Y15705D01*
X49489D01*
Y15795D01*
X49579D01*
Y15885D01*
Y15975D01*
X49669D01*
Y16065D01*
Y16155D01*
Y16245D01*
Y16335D01*
Y16425D01*
Y16515D01*
Y16605D01*
Y16695D01*
Y16785D01*
X49579D01*
Y16875D01*
Y16965D01*
Y17055D01*
X49489D01*
Y17145D01*
X49399D01*
Y17235D01*
X49309D01*
Y17325D01*
X49218D01*
Y17416D01*
X49038D01*
Y17506D01*
X48768D01*
Y17596D01*
X48228D01*
Y17686D01*
X44716D01*
Y17596D01*
D02*
G37*
G36*
X54316Y9732D02*
X53620D01*
Y10516D01*
X54316D01*
Y9732D01*
D02*
G37*
G36*
X50929D02*
X50233Y9732D01*
Y10516D01*
X50929Y10516D01*
Y9732D01*
D02*
G37*
G36*
X34646Y9366D02*
X34728Y9354D01*
X34805Y9330D01*
X34870Y9307D01*
X34929Y9283D01*
X34970Y9260D01*
X34994Y9248D01*
X35005Y9242D01*
X35076Y9189D01*
X35147Y9124D01*
X35212Y9059D01*
X35265Y9000D01*
X35312Y8941D01*
X35348Y8894D01*
X35371Y8864D01*
X35377Y8858D01*
Y9295D01*
X36026D01*
Y6085D01*
X35330D01*
Y7643D01*
Y7726D01*
Y7808D01*
X35324Y7879D01*
Y7950D01*
X35318Y8009D01*
X35312Y8062D01*
X35300Y8156D01*
X35294Y8227D01*
X35283Y8274D01*
X35277Y8304D01*
Y8316D01*
X35253Y8386D01*
X35224Y8445D01*
X35188Y8499D01*
X35159Y8540D01*
X35129Y8575D01*
X35112Y8599D01*
X35094Y8611D01*
X35088Y8617D01*
X35041Y8652D01*
X34988Y8676D01*
X34940Y8699D01*
X34893Y8711D01*
X34858Y8717D01*
X34828Y8723D01*
X34799D01*
X34722Y8717D01*
X34651Y8693D01*
X34598Y8658D01*
X34557Y8622D01*
X34528Y8587D01*
X34510Y8552D01*
X34498Y8528D01*
X34492Y8522D01*
X34480Y8487D01*
X34474Y8451D01*
X34463Y8404D01*
X34457Y8351D01*
X34445Y8239D01*
X34439Y8127D01*
X34433Y8021D01*
Y7967D01*
Y7926D01*
Y7891D01*
Y7867D01*
Y7850D01*
Y7844D01*
Y6085D01*
X33737D01*
Y7625D01*
Y7743D01*
X33731Y7850D01*
X33725Y7950D01*
X33713Y8038D01*
X33702Y8115D01*
X33690Y8186D01*
X33678Y8251D01*
X33666Y8304D01*
X33654Y8351D01*
X33643Y8392D01*
X33631Y8428D01*
X33619Y8451D01*
X33607Y8475D01*
X33601Y8487D01*
X33595Y8499D01*
X33536Y8575D01*
X33477Y8628D01*
X33412Y8670D01*
X33353Y8693D01*
X33300Y8711D01*
X33259Y8717D01*
X33230Y8723D01*
X33218D01*
X33147Y8717D01*
X33088Y8699D01*
X33041Y8670D01*
X32999Y8646D01*
X32970Y8617D01*
X32946Y8587D01*
X32934Y8569D01*
X32929Y8563D01*
X32911Y8528D01*
X32899Y8493D01*
X32875Y8398D01*
X32864Y8292D01*
X32852Y8180D01*
X32846Y8080D01*
X32840Y8038D01*
Y7997D01*
Y7967D01*
Y7944D01*
Y7926D01*
Y7920D01*
Y6085D01*
X32144D01*
Y8139D01*
Y8227D01*
X32150Y8310D01*
X32156Y8392D01*
X32162Y8463D01*
X32168Y8528D01*
X32179Y8587D01*
X32197Y8693D01*
X32215Y8770D01*
X32232Y8823D01*
X32244Y8858D01*
X32250Y8870D01*
X32291Y8959D01*
X32339Y9030D01*
X32386Y9094D01*
X32433Y9148D01*
X32480Y9189D01*
X32516Y9218D01*
X32539Y9236D01*
X32545Y9242D01*
X32622Y9283D01*
X32699Y9319D01*
X32775Y9342D01*
X32852Y9354D01*
X32917Y9366D01*
X32964Y9372D01*
X33011D01*
X33094Y9366D01*
X33171Y9354D01*
X33241Y9330D01*
X33306Y9307D01*
X33359Y9283D01*
X33401Y9260D01*
X33424Y9248D01*
X33436Y9242D01*
X33507Y9189D01*
X33578Y9130D01*
X33643Y9065D01*
X33702Y9000D01*
X33749Y8947D01*
X33784Y8900D01*
X33808Y8870D01*
X33814Y8864D01*
Y8858D01*
X33861Y8947D01*
X33914Y9024D01*
X33961Y9088D01*
X34008Y9148D01*
X34056Y9189D01*
X34091Y9218D01*
X34115Y9236D01*
X34120Y9242D01*
X34191Y9283D01*
X34268Y9319D01*
X34339Y9342D01*
X34409Y9354D01*
X34468Y9366D01*
X34516Y9372D01*
X34557D01*
X34646Y9366D01*
D02*
G37*
G36*
X28722D02*
X28804Y9354D01*
X28881Y9330D01*
X28946Y9307D01*
X29005Y9283D01*
X29046Y9260D01*
X29070Y9248D01*
X29082Y9242D01*
X29153Y9189D01*
X29223Y9124D01*
X29288Y9059D01*
X29341Y9000D01*
X29389Y8941D01*
X29424Y8894D01*
X29448Y8864D01*
X29454Y8858D01*
Y9295D01*
X30103D01*
Y6085D01*
X29406D01*
Y7643D01*
Y7726D01*
Y7808D01*
X29400Y7879D01*
Y7950D01*
X29395Y8009D01*
X29389Y8062D01*
X29377Y8156D01*
X29371Y8227D01*
X29359Y8274D01*
X29353Y8304D01*
Y8316D01*
X29330Y8386D01*
X29300Y8445D01*
X29265Y8499D01*
X29235Y8540D01*
X29206Y8575D01*
X29188Y8599D01*
X29170Y8611D01*
X29164Y8617D01*
X29117Y8652D01*
X29064Y8676D01*
X29017Y8699D01*
X28970Y8711D01*
X28934Y8717D01*
X28905Y8723D01*
X28875D01*
X28799Y8717D01*
X28728Y8693D01*
X28675Y8658D01*
X28633Y8622D01*
X28604Y8587D01*
X28586Y8552D01*
X28574Y8528D01*
X28569Y8522D01*
X28557Y8487D01*
X28551Y8451D01*
X28539Y8404D01*
X28533Y8351D01*
X28521Y8239D01*
X28515Y8127D01*
X28510Y8021D01*
Y7967D01*
Y7926D01*
Y7891D01*
Y7867D01*
Y7850D01*
Y7844D01*
Y6085D01*
X27813D01*
Y7625D01*
Y7743D01*
X27807Y7850D01*
X27801Y7950D01*
X27790Y8038D01*
X27778Y8115D01*
X27766Y8186D01*
X27754Y8251D01*
X27742Y8304D01*
X27731Y8351D01*
X27719Y8392D01*
X27707Y8428D01*
X27695Y8451D01*
X27683Y8475D01*
X27678Y8487D01*
X27672Y8499D01*
X27613Y8575D01*
X27554Y8628D01*
X27489Y8670D01*
X27430Y8693D01*
X27377Y8711D01*
X27335Y8717D01*
X27306Y8723D01*
X27294D01*
X27223Y8717D01*
X27164Y8699D01*
X27117Y8670D01*
X27076Y8646D01*
X27046Y8617D01*
X27023Y8587D01*
X27011Y8569D01*
X27005Y8563D01*
X26987Y8528D01*
X26976Y8493D01*
X26952Y8398D01*
X26940Y8292D01*
X26928Y8180D01*
X26922Y8080D01*
X26917Y8038D01*
Y7997D01*
Y7967D01*
Y7944D01*
Y7926D01*
Y7920D01*
Y6085D01*
X26220D01*
Y8139D01*
Y8227D01*
X26226Y8310D01*
X26232Y8392D01*
X26238Y8463D01*
X26244Y8528D01*
X26256Y8587D01*
X26273Y8693D01*
X26291Y8770D01*
X26309Y8823D01*
X26321Y8858D01*
X26327Y8870D01*
X26368Y8959D01*
X26415Y9030D01*
X26462Y9094D01*
X26509Y9148D01*
X26557Y9189D01*
X26592Y9218D01*
X26616Y9236D01*
X26621Y9242D01*
X26698Y9283D01*
X26775Y9319D01*
X26852Y9342D01*
X26928Y9354D01*
X26993Y9366D01*
X27040Y9372D01*
X27088D01*
X27170Y9366D01*
X27247Y9354D01*
X27318Y9330D01*
X27383Y9307D01*
X27436Y9283D01*
X27477Y9260D01*
X27501Y9248D01*
X27512Y9242D01*
X27583Y9189D01*
X27654Y9130D01*
X27719Y9065D01*
X27778Y9000D01*
X27825Y8947D01*
X27861Y8900D01*
X27884Y8870D01*
X27890Y8864D01*
Y8858D01*
X27937Y8947D01*
X27990Y9024D01*
X28038Y9088D01*
X28085Y9148D01*
X28132Y9189D01*
X28167Y9218D01*
X28191Y9236D01*
X28197Y9242D01*
X28268Y9283D01*
X28344Y9319D01*
X28415Y9342D01*
X28486Y9354D01*
X28545Y9366D01*
X28592Y9372D01*
X28633D01*
X28722Y9366D01*
D02*
G37*
G36*
X17323D02*
X17406Y9354D01*
X17482Y9330D01*
X17559Y9307D01*
X17689Y9236D01*
X17807Y9159D01*
X17854Y9118D01*
X17895Y9083D01*
X17937Y9047D01*
X17966Y9012D01*
X17990Y8988D01*
X18008Y8965D01*
X18019Y8953D01*
X18025Y8947D01*
X18084Y8864D01*
X18131Y8776D01*
X18173Y8676D01*
X18214Y8575D01*
X18273Y8369D01*
X18308Y8168D01*
X18320Y8080D01*
X18332Y7991D01*
X18338Y7908D01*
X18344Y7844D01*
X18350Y7785D01*
Y7743D01*
Y7720D01*
Y7708D01*
X18344Y7566D01*
X18332Y7431D01*
X18320Y7307D01*
X18297Y7189D01*
X18273Y7083D01*
X18244Y6982D01*
X18208Y6888D01*
X18179Y6805D01*
X18149Y6729D01*
X18114Y6664D01*
X18084Y6611D01*
X18061Y6563D01*
X18037Y6528D01*
X18019Y6504D01*
X18013Y6487D01*
X18008Y6481D01*
X17948Y6410D01*
X17889Y6351D01*
X17825Y6298D01*
X17766Y6251D01*
X17701Y6215D01*
X17642Y6180D01*
X17524Y6133D01*
X17423Y6109D01*
X17382Y6097D01*
X17341Y6091D01*
X17311Y6085D01*
X17270D01*
X17181Y6091D01*
X17099Y6103D01*
X17028Y6127D01*
X16963Y6150D01*
X16910Y6174D01*
X16869Y6197D01*
X16839Y6209D01*
X16833Y6215D01*
X16763Y6268D01*
X16692Y6333D01*
X16633Y6398D01*
X16580Y6457D01*
X16533Y6516D01*
X16503Y6563D01*
X16479Y6593D01*
X16474Y6605D01*
Y6138D01*
Y6032D01*
X16485Y5938D01*
X16491Y5861D01*
X16503Y5802D01*
X16515Y5755D01*
X16521Y5725D01*
X16533Y5708D01*
Y5702D01*
X16556Y5655D01*
X16580Y5619D01*
X16603Y5584D01*
X16627Y5560D01*
X16650Y5537D01*
X16668Y5525D01*
X16680Y5519D01*
X16686Y5513D01*
X16745Y5489D01*
X16804Y5472D01*
X16869Y5454D01*
X16928Y5448D01*
X16981Y5442D01*
X17022Y5436D01*
X17063D01*
X17134Y5442D01*
X17193Y5448D01*
X17246Y5460D01*
X17288Y5478D01*
X17317Y5489D01*
X17341Y5501D01*
X17353Y5507D01*
X17358Y5513D01*
X17388Y5548D01*
X17412Y5584D01*
X17447Y5666D01*
X17453Y5702D01*
X17459Y5731D01*
X17465Y5755D01*
Y5761D01*
X18261Y5879D01*
Y5779D01*
X18255Y5672D01*
X18238Y5566D01*
X18220Y5478D01*
X18190Y5401D01*
X18167Y5336D01*
X18149Y5289D01*
X18131Y5259D01*
X18125Y5248D01*
X18067Y5165D01*
X18008Y5100D01*
X17943Y5041D01*
X17878Y4988D01*
X17819Y4953D01*
X17772Y4929D01*
X17742Y4911D01*
X17730Y4905D01*
X17624Y4864D01*
X17512Y4835D01*
X17394Y4817D01*
X17282Y4805D01*
X17181Y4793D01*
X17140D01*
X17105Y4787D01*
X17034D01*
X16869Y4793D01*
X16721Y4811D01*
X16597Y4840D01*
X16491Y4870D01*
X16409Y4894D01*
X16350Y4923D01*
X16332Y4935D01*
X16314Y4941D01*
X16302Y4947D01*
X16208Y5012D01*
X16131Y5088D01*
X16060Y5165D01*
X16007Y5242D01*
X15960Y5313D01*
X15931Y5366D01*
X15919Y5389D01*
X15913Y5407D01*
X15907Y5413D01*
Y5419D01*
X15883Y5484D01*
X15866Y5554D01*
X15830Y5708D01*
X15807Y5873D01*
X15795Y6032D01*
X15789Y6109D01*
X15783Y6186D01*
Y6251D01*
X15777Y6304D01*
Y6351D01*
Y6386D01*
Y6410D01*
Y6416D01*
Y9295D01*
X16432D01*
Y8841D01*
X16491Y8935D01*
X16556Y9012D01*
X16615Y9083D01*
X16674Y9136D01*
X16721Y9183D01*
X16757Y9212D01*
X16780Y9230D01*
X16792Y9236D01*
X16869Y9283D01*
X16946Y9313D01*
X17022Y9336D01*
X17093Y9354D01*
X17152Y9366D01*
X17199Y9372D01*
X17241D01*
X17323Y9366D01*
D02*
G37*
G36*
X7488Y6085D02*
X6792D01*
Y7112D01*
X6473Y7525D01*
X5800Y6085D01*
X5057D01*
X6025Y8115D01*
X5122Y9295D01*
X5983D01*
X6792Y8174D01*
Y10522D01*
X7488D01*
Y6085D01*
D02*
G37*
G36*
X22916Y7265D02*
X21542D01*
Y8115D01*
X22916D01*
Y7265D01*
D02*
G37*
G36*
X12190D02*
X10815D01*
Y8115D01*
X12190D01*
Y7265D01*
D02*
G37*
G36*
X78677Y6085D02*
X78005D01*
X77556Y8145D01*
X77096Y6085D01*
X76435D01*
X75580Y9295D01*
X76270D01*
X76777Y7189D01*
X77220Y9295D01*
X77887D01*
X78341Y7189D01*
X78837Y9295D01*
X79509D01*
X78677Y6085D01*
D02*
G37*
G36*
X74724D02*
X74052D01*
X73603Y8145D01*
X73143Y6085D01*
X72482D01*
X71627Y9295D01*
X72317D01*
X72824Y7189D01*
X73267Y9295D01*
X73934D01*
X74388Y7189D01*
X74884Y9295D01*
X75556D01*
X74724Y6085D01*
D02*
G37*
G36*
X70771D02*
X70099D01*
X69650Y8145D01*
X69190Y6085D01*
X68529D01*
X67674Y9295D01*
X68364D01*
X68871Y7189D01*
X69314Y9295D01*
X69981D01*
X70435Y7189D01*
X70930Y9295D01*
X71603D01*
X70771Y6085D01*
D02*
G37*
G36*
X24869Y6074D02*
X24905Y5956D01*
X24934Y5855D01*
X24975Y5773D01*
X25005Y5708D01*
X25034Y5661D01*
X25058Y5625D01*
X25076Y5607D01*
X25082Y5602D01*
X25129Y5554D01*
X25182Y5525D01*
X25241Y5501D01*
X25288Y5484D01*
X25335Y5472D01*
X25371Y5466D01*
X25406D01*
X25506Y5472D01*
X25554Y5478D01*
X25601Y5489D01*
X25636Y5495D01*
X25666Y5501D01*
X25689Y5507D01*
X25695D01*
X25636Y4840D01*
X25495Y4811D01*
X25430Y4799D01*
X25365Y4793D01*
X25318D01*
X25276Y4787D01*
X25241D01*
X25146Y4793D01*
X25064Y4799D01*
X24987Y4817D01*
X24922Y4835D01*
X24875Y4846D01*
X24834Y4864D01*
X24810Y4870D01*
X24804Y4876D01*
X24739Y4911D01*
X24680Y4947D01*
X24627Y4988D01*
X24586Y5029D01*
X24551Y5065D01*
X24527Y5094D01*
X24509Y5112D01*
X24503Y5118D01*
X24462Y5183D01*
X24415Y5259D01*
X24379Y5342D01*
X24338Y5419D01*
X24309Y5495D01*
X24285Y5554D01*
X24279Y5578D01*
X24273Y5596D01*
X24267Y5602D01*
Y5607D01*
X24090Y6203D01*
X23158Y9295D01*
X23890D01*
X24503Y7006D01*
X25123Y9295D01*
X25866D01*
X24869Y6074D01*
D02*
G37*
G36*
X40888Y9366D02*
X40988Y9354D01*
X41076Y9330D01*
X41165Y9301D01*
X41248Y9271D01*
X41324Y9236D01*
X41395Y9195D01*
X41460Y9153D01*
X41513Y9112D01*
X41566Y9071D01*
X41607Y9035D01*
X41643Y9006D01*
X41672Y8976D01*
X41690Y8953D01*
X41702Y8941D01*
X41708Y8935D01*
X41767Y8852D01*
X41820Y8758D01*
X41867Y8658D01*
X41908Y8557D01*
X41944Y8451D01*
X41973Y8351D01*
X42015Y8145D01*
X42026Y8050D01*
X42038Y7962D01*
X42044Y7885D01*
X42050Y7814D01*
X42056Y7755D01*
Y7714D01*
Y7690D01*
Y7678D01*
X42050Y7554D01*
X42044Y7431D01*
X42026Y7313D01*
X42009Y7201D01*
X41985Y7100D01*
X41962Y7000D01*
X41932Y6911D01*
X41903Y6829D01*
X41873Y6758D01*
X41844Y6687D01*
X41820Y6634D01*
X41796Y6587D01*
X41779Y6546D01*
X41761Y6522D01*
X41755Y6504D01*
X41749Y6498D01*
X41684Y6410D01*
X41619Y6339D01*
X41543Y6274D01*
X41466Y6215D01*
X41389Y6168D01*
X41307Y6127D01*
X41230Y6097D01*
X41153Y6068D01*
X41082Y6050D01*
X41012Y6032D01*
X40953Y6026D01*
X40900Y6015D01*
X40852D01*
X40823Y6009D01*
X40793D01*
X40699Y6015D01*
X40610Y6021D01*
X40528Y6038D01*
X40451Y6056D01*
X40304Y6115D01*
X40174Y6192D01*
X40062Y6280D01*
X39961Y6374D01*
X39879Y6481D01*
X39802Y6593D01*
X39743Y6699D01*
X39690Y6805D01*
X39655Y6900D01*
X39619Y6988D01*
X39596Y7065D01*
X39584Y7124D01*
X39578Y7141D01*
X39572Y7159D01*
Y7165D01*
Y7171D01*
X40256Y7313D01*
X40280Y7195D01*
X40310Y7088D01*
X40339Y7006D01*
X40374Y6941D01*
X40398Y6888D01*
X40422Y6858D01*
X40439Y6835D01*
X40445Y6829D01*
X40492Y6787D01*
X40545Y6752D01*
X40599Y6729D01*
X40652Y6717D01*
X40693Y6705D01*
X40728Y6699D01*
X40764D01*
X40858Y6711D01*
X40941Y6734D01*
X41017Y6776D01*
X41076Y6817D01*
X41124Y6858D01*
X41159Y6900D01*
X41183Y6923D01*
X41189Y6935D01*
X41218Y6982D01*
X41242Y7035D01*
X41277Y7159D01*
X41307Y7295D01*
X41324Y7431D01*
X41336Y7549D01*
Y7602D01*
X41342Y7649D01*
Y7690D01*
Y7720D01*
Y7737D01*
Y7743D01*
Y7838D01*
X41336Y7926D01*
X41330Y8003D01*
X41318Y8080D01*
X41307Y8145D01*
X41295Y8203D01*
X41277Y8257D01*
X41265Y8310D01*
X41254Y8351D01*
X41236Y8386D01*
X41212Y8439D01*
X41194Y8469D01*
X41189Y8481D01*
X41124Y8557D01*
X41053Y8611D01*
X40988Y8652D01*
X40917Y8676D01*
X40858Y8693D01*
X40811Y8699D01*
X40782Y8705D01*
X40770D01*
X40699Y8699D01*
X40634Y8681D01*
X40575Y8658D01*
X40528Y8628D01*
X40481Y8587D01*
X40439Y8546D01*
X40380Y8451D01*
X40339Y8357D01*
X40321Y8316D01*
X40310Y8274D01*
X40304Y8245D01*
X40298Y8221D01*
X40292Y8203D01*
Y8198D01*
X39607Y8351D01*
X39631Y8445D01*
X39661Y8540D01*
X39696Y8622D01*
X39725Y8693D01*
X39761Y8764D01*
X39796Y8829D01*
X39832Y8888D01*
X39867Y8935D01*
X39902Y8982D01*
X39932Y9018D01*
X39961Y9053D01*
X39985Y9077D01*
X40003Y9100D01*
X40020Y9112D01*
X40026Y9124D01*
X40032D01*
X40144Y9206D01*
X40268Y9266D01*
X40398Y9313D01*
X40516Y9342D01*
X40622Y9360D01*
X40663Y9366D01*
X40705D01*
X40734Y9372D01*
X40782D01*
X40888Y9366D01*
D02*
G37*
G36*
X62163Y9366D02*
X62252Y9354D01*
X62334Y9336D01*
X62411Y9307D01*
X62552Y9242D01*
X62617Y9206D01*
X62670Y9165D01*
X62724Y9130D01*
X62765Y9088D01*
X62806Y9053D01*
X62836Y9024D01*
X62859Y8994D01*
X62877Y8976D01*
X62889Y8965D01*
X62895Y8959D01*
X62960Y8864D01*
X63019Y8764D01*
X63072Y8658D01*
X63113Y8552D01*
X63148Y8445D01*
X63178Y8339D01*
X63225Y8133D01*
X63243Y8038D01*
X63255Y7950D01*
X63261Y7867D01*
X63266Y7802D01*
X63272Y7743D01*
Y7702D01*
Y7678D01*
Y7667D01*
X63266Y7519D01*
X63255Y7378D01*
X63237Y7248D01*
X63213Y7124D01*
X63184Y7012D01*
X63154Y6905D01*
X63119Y6811D01*
X63083Y6729D01*
X63054Y6652D01*
X63019Y6587D01*
X62989Y6528D01*
X62960Y6481D01*
X62936Y6445D01*
X62918Y6422D01*
X62906Y6404D01*
X62901Y6398D01*
X62836Y6327D01*
X62771Y6268D01*
X62700Y6215D01*
X62623Y6174D01*
X62552Y6133D01*
X62476Y6103D01*
X62328Y6056D01*
X62263Y6044D01*
X62199Y6032D01*
X62145Y6021D01*
X62092Y6015D01*
X62051Y6009D01*
X61998D01*
X61844Y6021D01*
X61709Y6044D01*
X61585Y6080D01*
X61485Y6127D01*
X61402Y6168D01*
X61367Y6186D01*
X61337Y6203D01*
X61313Y6215D01*
X61296Y6227D01*
X61290Y6239D01*
X61284D01*
X61231Y6286D01*
X61178Y6339D01*
X61089Y6451D01*
X61019Y6575D01*
X60954Y6693D01*
X60906Y6799D01*
X60889Y6847D01*
X60871Y6882D01*
X60865Y6917D01*
X60853Y6941D01*
X60847Y6959D01*
Y6965D01*
X61538Y7106D01*
X61561Y7023D01*
X61591Y6953D01*
X61626Y6894D01*
X61656Y6841D01*
X61697Y6793D01*
X61732Y6758D01*
X61774Y6729D01*
X61809Y6705D01*
X61880Y6669D01*
X61939Y6652D01*
X61962D01*
X61974Y6646D01*
X61992D01*
X62075Y6658D01*
X62151Y6681D01*
X62216Y6711D01*
X62275Y6752D01*
X62322Y6787D01*
X62358Y6823D01*
X62381Y6847D01*
X62387Y6852D01*
X62440Y6941D01*
X62482Y7035D01*
X62511Y7136D01*
X62535Y7230D01*
X62547Y7318D01*
X62552Y7383D01*
X62558Y7413D01*
Y7431D01*
Y7442D01*
Y7448D01*
X60812D01*
Y7543D01*
X60818Y7714D01*
X60830Y7873D01*
X60847Y8021D01*
X60871Y8156D01*
X60900Y8280D01*
X60930Y8398D01*
X60965Y8504D01*
X60995Y8599D01*
X61030Y8681D01*
X61066Y8752D01*
X61095Y8811D01*
X61125Y8864D01*
X61148Y8906D01*
X61166Y8929D01*
X61178Y8947D01*
X61184Y8953D01*
X61249Y9030D01*
X61313Y9088D01*
X61384Y9148D01*
X61455Y9195D01*
X61532Y9236D01*
X61603Y9271D01*
X61673Y9295D01*
X61744Y9319D01*
X61809Y9336D01*
X61874Y9348D01*
X61927Y9360D01*
X61974Y9366D01*
X62016Y9372D01*
X62069D01*
X62163Y9366D01*
D02*
G37*
G36*
X9382Y9366D02*
X9470Y9354D01*
X9553Y9336D01*
X9629Y9307D01*
X9771Y9242D01*
X9836Y9206D01*
X9889Y9165D01*
X9942Y9130D01*
X9984Y9088D01*
X10025Y9053D01*
X10054Y9024D01*
X10078Y8994D01*
X10096Y8976D01*
X10107Y8965D01*
X10113Y8959D01*
X10178Y8864D01*
X10237Y8764D01*
X10290Y8658D01*
X10332Y8552D01*
X10367Y8445D01*
X10396Y8339D01*
X10444Y8133D01*
X10461Y8038D01*
X10473Y7950D01*
X10479Y7867D01*
X10485Y7802D01*
X10491Y7743D01*
Y7702D01*
Y7678D01*
Y7667D01*
X10485Y7519D01*
X10473Y7378D01*
X10456Y7248D01*
X10432Y7124D01*
X10402Y7012D01*
X10373Y6905D01*
X10338Y6811D01*
X10302Y6729D01*
X10273Y6652D01*
X10237Y6587D01*
X10208Y6528D01*
X10178Y6481D01*
X10155Y6445D01*
X10137Y6422D01*
X10125Y6404D01*
X10119Y6398D01*
X10054Y6327D01*
X9989Y6268D01*
X9919Y6215D01*
X9842Y6174D01*
X9771Y6133D01*
X9694Y6103D01*
X9547Y6056D01*
X9482Y6044D01*
X9417Y6032D01*
X9364Y6021D01*
X9311Y6015D01*
X9270Y6009D01*
X9217D01*
X9063Y6021D01*
X8927Y6044D01*
X8804Y6080D01*
X8703Y6127D01*
X8621Y6168D01*
X8585Y6186D01*
X8556Y6203D01*
X8532Y6215D01*
X8514Y6227D01*
X8508Y6239D01*
X8503D01*
X8450Y6286D01*
X8396Y6339D01*
X8308Y6451D01*
X8237Y6575D01*
X8172Y6693D01*
X8125Y6799D01*
X8107Y6847D01*
X8090Y6882D01*
X8084Y6917D01*
X8072Y6941D01*
X8066Y6959D01*
Y6965D01*
X8756Y7106D01*
X8780Y7023D01*
X8809Y6953D01*
X8845Y6894D01*
X8874Y6841D01*
X8916Y6793D01*
X8951Y6758D01*
X8992Y6729D01*
X9028Y6705D01*
X9099Y6669D01*
X9157Y6652D01*
X9181D01*
X9193Y6646D01*
X9211D01*
X9293Y6658D01*
X9370Y6681D01*
X9435Y6711D01*
X9494Y6752D01*
X9541Y6787D01*
X9576Y6823D01*
X9600Y6847D01*
X9606Y6852D01*
X9659Y6941D01*
X9700Y7035D01*
X9730Y7136D01*
X9753Y7230D01*
X9765Y7318D01*
X9771Y7383D01*
X9777Y7413D01*
Y7431D01*
Y7442D01*
Y7448D01*
X8031D01*
Y7543D01*
X8037Y7714D01*
X8048Y7873D01*
X8066Y8021D01*
X8090Y8156D01*
X8119Y8280D01*
X8149Y8398D01*
X8184Y8504D01*
X8213Y8599D01*
X8249Y8681D01*
X8284Y8752D01*
X8314Y8811D01*
X8343Y8864D01*
X8367Y8906D01*
X8385Y8929D01*
X8396Y8947D01*
X8402Y8953D01*
X8467Y9030D01*
X8532Y9088D01*
X8603Y9148D01*
X8674Y9195D01*
X8750Y9236D01*
X8821Y9271D01*
X8892Y9295D01*
X8963Y9319D01*
X9028Y9336D01*
X9093Y9348D01*
X9146Y9360D01*
X9193Y9366D01*
X9234Y9372D01*
X9287D01*
X9382Y9366D01*
D02*
G37*
G36*
X67314Y6085D02*
X66618D01*
Y6935D01*
X67314D01*
Y6085D01*
D02*
G37*
G36*
X58841Y9366D02*
X58936Y9348D01*
X59018Y9324D01*
X59089Y9301D01*
X59148Y9277D01*
X59189Y9254D01*
X59219Y9236D01*
X59231Y9230D01*
X59307Y9171D01*
X59378Y9112D01*
X59443Y9041D01*
X59502Y8976D01*
X59549Y8917D01*
X59585Y8870D01*
X59608Y8835D01*
X59614Y8829D01*
Y9295D01*
X60257D01*
Y6085D01*
X59561D01*
Y7537D01*
Y7637D01*
Y7732D01*
X59555Y7814D01*
Y7891D01*
X59549Y7956D01*
X59544Y8021D01*
X59538Y8074D01*
X59532Y8121D01*
Y8162D01*
X59526Y8198D01*
X59520Y8227D01*
X59514Y8251D01*
X59508Y8280D01*
Y8292D01*
X59484Y8363D01*
X59449Y8428D01*
X59420Y8481D01*
X59384Y8522D01*
X59355Y8557D01*
X59331Y8587D01*
X59313Y8599D01*
X59307Y8605D01*
X59254Y8646D01*
X59195Y8676D01*
X59142Y8693D01*
X59095Y8711D01*
X59054Y8717D01*
X59018Y8723D01*
X58989D01*
X58936Y8717D01*
X58889Y8711D01*
X58847Y8693D01*
X58812Y8681D01*
X58782Y8664D01*
X58759Y8646D01*
X58747Y8640D01*
X58741Y8634D01*
X58706Y8599D01*
X58670Y8557D01*
X58629Y8475D01*
X58611Y8439D01*
X58600Y8410D01*
X58594Y8386D01*
Y8381D01*
X58588Y8345D01*
X58582Y8304D01*
X58570Y8209D01*
X58564Y8103D01*
X58558Y7991D01*
X58552Y7891D01*
Y7844D01*
Y7802D01*
Y7773D01*
Y7749D01*
Y7732D01*
Y7726D01*
Y6085D01*
X57856D01*
Y8080D01*
X57862Y8245D01*
X57868Y8392D01*
X57880Y8516D01*
X57897Y8617D01*
X57915Y8699D01*
X57927Y8752D01*
X57933Y8788D01*
X57939Y8799D01*
X57974Y8888D01*
X58021Y8970D01*
X58069Y9041D01*
X58116Y9100D01*
X58163Y9148D01*
X58198Y9183D01*
X58222Y9206D01*
X58234Y9212D01*
X58316Y9266D01*
X58399Y9307D01*
X58487Y9330D01*
X58570Y9354D01*
X58641Y9366D01*
X58694Y9372D01*
X58747D01*
X58841Y9366D01*
D02*
G37*
G36*
X54316Y6085D02*
X53620D01*
Y9295D01*
X54316D01*
Y6085D01*
D02*
G37*
G36*
X51750Y9366D02*
X51809Y9354D01*
X51862Y9336D01*
X51903Y9319D01*
X51938Y9295D01*
X51968Y9277D01*
X51986Y9266D01*
X51991Y9260D01*
X52039Y9212D01*
X52092Y9148D01*
X52139Y9077D01*
X52186Y9006D01*
X52227Y8941D01*
X52257Y8888D01*
X52269Y8864D01*
X52281Y8847D01*
X52286Y8841D01*
Y9295D01*
X52935D01*
Y6085D01*
X52239D01*
Y7077D01*
Y7212D01*
Y7336D01*
X52233Y7454D01*
Y7554D01*
X52227Y7649D01*
X52222Y7737D01*
Y7808D01*
X52216Y7879D01*
X52210Y7932D01*
X52204Y7979D01*
Y8021D01*
X52198Y8056D01*
Y8080D01*
X52192Y8097D01*
Y8103D01*
Y8109D01*
X52174Y8209D01*
X52151Y8292D01*
X52121Y8357D01*
X52098Y8410D01*
X52074Y8451D01*
X52056Y8475D01*
X52045Y8493D01*
X52039Y8499D01*
X51997Y8534D01*
X51950Y8563D01*
X51909Y8581D01*
X51868Y8599D01*
X51832Y8605D01*
X51803Y8611D01*
X51779D01*
X51720Y8605D01*
X51661Y8587D01*
X51608Y8563D01*
X51555Y8540D01*
X51514Y8516D01*
X51478Y8493D01*
X51455Y8475D01*
X51449Y8469D01*
X51230Y9206D01*
X51313Y9260D01*
X51396Y9301D01*
X51472Y9330D01*
X51543Y9354D01*
X51602Y9366D01*
X51649Y9372D01*
X51691D01*
X51750Y9366D01*
D02*
G37*
G36*
X50929Y6085D02*
X50233Y6085D01*
Y9295D01*
X50929Y9295D01*
Y6085D01*
D02*
G37*
G36*
X45012Y9366D02*
X45106Y9348D01*
X45189Y9324D01*
X45260Y9301D01*
X45319Y9277D01*
X45360Y9254D01*
X45389Y9236D01*
X45401Y9230D01*
X45478Y9171D01*
X45549Y9112D01*
X45614Y9041D01*
X45673Y8976D01*
X45720Y8917D01*
X45755Y8870D01*
X45779Y8835D01*
X45785Y8829D01*
Y9295D01*
X46428D01*
Y6085D01*
X45732D01*
Y7537D01*
Y7637D01*
Y7732D01*
X45726Y7814D01*
Y7891D01*
X45720Y7956D01*
X45714Y8021D01*
X45708Y8074D01*
X45702Y8121D01*
Y8162D01*
X45696Y8198D01*
X45690Y8227D01*
X45684Y8251D01*
X45678Y8280D01*
Y8292D01*
X45655Y8363D01*
X45619Y8428D01*
X45590Y8481D01*
X45555Y8522D01*
X45525Y8557D01*
X45502Y8587D01*
X45484Y8599D01*
X45478Y8605D01*
X45425Y8646D01*
X45366Y8676D01*
X45313Y8693D01*
X45265Y8711D01*
X45224Y8717D01*
X45189Y8723D01*
X45159D01*
X45106Y8717D01*
X45059Y8711D01*
X45018Y8693D01*
X44982Y8681D01*
X44953Y8664D01*
X44929Y8646D01*
X44917Y8640D01*
X44912Y8634D01*
X44876Y8599D01*
X44841Y8557D01*
X44799Y8475D01*
X44782Y8439D01*
X44770Y8410D01*
X44764Y8386D01*
Y8381D01*
X44758Y8345D01*
X44752Y8304D01*
X44740Y8209D01*
X44734Y8103D01*
X44729Y7991D01*
X44723Y7891D01*
Y7844D01*
Y7802D01*
Y7773D01*
Y7749D01*
Y7732D01*
Y7726D01*
Y6085D01*
X44026D01*
Y8080D01*
X44032Y8245D01*
X44038Y8392D01*
X44050Y8516D01*
X44068Y8617D01*
X44085Y8699D01*
X44097Y8752D01*
X44103Y8788D01*
X44109Y8799D01*
X44144Y8888D01*
X44192Y8970D01*
X44239Y9041D01*
X44286Y9100D01*
X44333Y9148D01*
X44369Y9183D01*
X44392Y9206D01*
X44404Y9212D01*
X44487Y9266D01*
X44569Y9307D01*
X44658Y9330D01*
X44740Y9354D01*
X44811Y9366D01*
X44864Y9372D01*
X44917D01*
X45012Y9366D01*
D02*
G37*
G36*
X43319Y6085D02*
X42622D01*
Y6935D01*
X43319D01*
Y6085D01*
D02*
G37*
G36*
X65125Y9360D02*
X65213Y9348D01*
X65296Y9330D01*
X65367Y9307D01*
X65438Y9283D01*
X65497Y9260D01*
X65550Y9236D01*
X65603Y9212D01*
X65644Y9189D01*
X65680Y9165D01*
X65709Y9142D01*
X65733Y9124D01*
X65750Y9112D01*
X65756Y9106D01*
X65762Y9100D01*
X65809Y9047D01*
X65856Y8994D01*
X65927Y8876D01*
X65974Y8752D01*
X66010Y8640D01*
X66028Y8540D01*
X66039Y8493D01*
Y8457D01*
X66045Y8422D01*
Y8398D01*
Y8386D01*
Y8381D01*
X66039Y8298D01*
X66034Y8221D01*
X65998Y8080D01*
X65951Y7962D01*
X65898Y7861D01*
X65845Y7779D01*
X65803Y7720D01*
X65768Y7684D01*
X65762Y7678D01*
X65756Y7672D01*
X65703Y7631D01*
X65644Y7596D01*
X65567Y7554D01*
X65491Y7519D01*
X65402Y7484D01*
X65308Y7448D01*
X65125Y7378D01*
X65036Y7348D01*
X64948Y7324D01*
X64871Y7301D01*
X64800Y7283D01*
X64747Y7265D01*
X64700Y7254D01*
X64676Y7242D01*
X64665D01*
X64606Y7224D01*
X64559Y7206D01*
X64517Y7189D01*
X64488Y7171D01*
X64464Y7159D01*
X64452Y7147D01*
X64441Y7136D01*
X64405Y7083D01*
X64387Y7029D01*
X64381Y7006D01*
Y6988D01*
Y6976D01*
Y6970D01*
X64387Y6911D01*
X64399Y6864D01*
X64423Y6823D01*
X64446Y6782D01*
X64470Y6758D01*
X64494Y6734D01*
X64505Y6723D01*
X64511Y6717D01*
X64564Y6687D01*
X64623Y6664D01*
X64682Y6646D01*
X64741Y6634D01*
X64800Y6628D01*
X64842Y6622D01*
X64883D01*
X64966Y6628D01*
X65042Y6646D01*
X65107Y6669D01*
X65172Y6699D01*
X65219Y6740D01*
X65267Y6782D01*
X65308Y6829D01*
X65337Y6876D01*
X65390Y6970D01*
X65408Y7012D01*
X65420Y7053D01*
X65432Y7083D01*
X65438Y7106D01*
X65443Y7124D01*
Y7130D01*
X66140Y6994D01*
X66092Y6823D01*
X66034Y6675D01*
X65963Y6546D01*
X65892Y6445D01*
X65821Y6363D01*
X65768Y6304D01*
X65744Y6286D01*
X65727Y6268D01*
X65721Y6262D01*
X65715Y6256D01*
X65585Y6174D01*
X65449Y6115D01*
X65308Y6068D01*
X65178Y6038D01*
X65060Y6021D01*
X65013Y6015D01*
X64966D01*
X64930Y6009D01*
X64883D01*
X64783Y6015D01*
X64682Y6021D01*
X64594Y6038D01*
X64511Y6056D01*
X64429Y6080D01*
X64358Y6103D01*
X64293Y6133D01*
X64234Y6162D01*
X64181Y6186D01*
X64134Y6215D01*
X64092Y6239D01*
X64063Y6262D01*
X64039Y6280D01*
X64016Y6298D01*
X64010Y6304D01*
X64004Y6310D01*
X63945Y6369D01*
X63898Y6428D01*
X63850Y6493D01*
X63815Y6557D01*
X63756Y6687D01*
X63721Y6805D01*
X63697Y6911D01*
X63691Y6959D01*
X63685Y7000D01*
X63679Y7029D01*
Y7059D01*
Y7071D01*
Y7077D01*
X63685Y7218D01*
X63709Y7336D01*
X63744Y7448D01*
X63780Y7537D01*
X63821Y7608D01*
X63850Y7661D01*
X63874Y7690D01*
X63886Y7702D01*
X63927Y7743D01*
X63980Y7785D01*
X64039Y7826D01*
X64098Y7861D01*
X64234Y7926D01*
X64364Y7985D01*
X64488Y8032D01*
X64541Y8050D01*
X64588Y8068D01*
X64629Y8080D01*
X64659Y8091D01*
X64676Y8097D01*
X64682D01*
X64777Y8127D01*
X64859Y8150D01*
X64930Y8174D01*
X64995Y8192D01*
X65054Y8215D01*
X65107Y8233D01*
X65149Y8245D01*
X65184Y8263D01*
X65219Y8274D01*
X65243Y8286D01*
X65278Y8304D01*
X65296Y8310D01*
X65302Y8316D01*
X65331Y8345D01*
X65355Y8375D01*
X65373Y8404D01*
X65385Y8434D01*
X65390Y8457D01*
X65396Y8475D01*
Y8487D01*
Y8493D01*
X65390Y8534D01*
X65379Y8569D01*
X65343Y8628D01*
X65325Y8652D01*
X65308Y8670D01*
X65296Y8676D01*
X65290Y8681D01*
X65243Y8705D01*
X65184Y8729D01*
X65066Y8746D01*
X65013Y8752D01*
X64966Y8758D01*
X64924D01*
X64848Y8752D01*
X64783Y8740D01*
X64724Y8723D01*
X64671Y8699D01*
X64623Y8670D01*
X64582Y8634D01*
X64517Y8563D01*
X64470Y8493D01*
X64441Y8428D01*
X64435Y8404D01*
X64429Y8386D01*
X64423Y8375D01*
Y8369D01*
X63768Y8516D01*
X63815Y8676D01*
X63874Y8805D01*
X63939Y8917D01*
X64004Y9012D01*
X64057Y9077D01*
X64104Y9130D01*
X64140Y9153D01*
X64145Y9165D01*
X64151D01*
X64205Y9201D01*
X64263Y9236D01*
X64387Y9283D01*
X64517Y9319D01*
X64641Y9348D01*
X64759Y9360D01*
X64806Y9366D01*
X64854D01*
X64889Y9372D01*
X65036D01*
X65125Y9360D01*
D02*
G37*
G36*
X56369D02*
X56458Y9348D01*
X56540Y9330D01*
X56611Y9307D01*
X56682Y9283D01*
X56741Y9260D01*
X56794Y9236D01*
X56847Y9212D01*
X56889Y9189D01*
X56924Y9165D01*
X56953Y9142D01*
X56977Y9124D01*
X56995Y9112D01*
X57001Y9106D01*
X57007Y9100D01*
X57054Y9047D01*
X57101Y8994D01*
X57172Y8876D01*
X57219Y8752D01*
X57254Y8640D01*
X57272Y8540D01*
X57284Y8493D01*
Y8457D01*
X57290Y8422D01*
Y8398D01*
Y8386D01*
Y8381D01*
X57284Y8298D01*
X57278Y8221D01*
X57243Y8080D01*
X57195Y7962D01*
X57142Y7861D01*
X57089Y7779D01*
X57048Y7720D01*
X57012Y7684D01*
X57007Y7678D01*
X57001Y7672D01*
X56947Y7631D01*
X56889Y7596D01*
X56812Y7554D01*
X56735Y7519D01*
X56647Y7484D01*
X56552Y7448D01*
X56369Y7378D01*
X56281Y7348D01*
X56192Y7324D01*
X56116Y7301D01*
X56045Y7283D01*
X55992Y7265D01*
X55945Y7254D01*
X55921Y7242D01*
X55909D01*
X55850Y7224D01*
X55803Y7206D01*
X55762Y7189D01*
X55732Y7171D01*
X55708Y7159D01*
X55697Y7147D01*
X55685Y7136D01*
X55650Y7083D01*
X55632Y7029D01*
X55626Y7006D01*
Y6988D01*
Y6976D01*
Y6970D01*
X55632Y6911D01*
X55644Y6864D01*
X55667Y6823D01*
X55691Y6782D01*
X55714Y6758D01*
X55738Y6734D01*
X55750Y6723D01*
X55756Y6717D01*
X55809Y6687D01*
X55868Y6664D01*
X55927Y6646D01*
X55986Y6634D01*
X56045Y6628D01*
X56086Y6622D01*
X56127D01*
X56210Y6628D01*
X56287Y6646D01*
X56352Y6669D01*
X56416Y6699D01*
X56464Y6740D01*
X56511Y6782D01*
X56552Y6829D01*
X56582Y6876D01*
X56635Y6970D01*
X56652Y7012D01*
X56664Y7053D01*
X56676Y7083D01*
X56682Y7106D01*
X56688Y7124D01*
Y7130D01*
X57384Y6994D01*
X57337Y6823D01*
X57278Y6675D01*
X57207Y6546D01*
X57136Y6445D01*
X57065Y6363D01*
X57012Y6304D01*
X56989Y6286D01*
X56971Y6268D01*
X56965Y6262D01*
X56959Y6256D01*
X56830Y6174D01*
X56694Y6115D01*
X56552Y6068D01*
X56422Y6038D01*
X56304Y6021D01*
X56257Y6015D01*
X56210D01*
X56175Y6009D01*
X56127D01*
X56027Y6015D01*
X55927Y6021D01*
X55838Y6038D01*
X55756Y6056D01*
X55673Y6080D01*
X55602Y6103D01*
X55537Y6133D01*
X55478Y6162D01*
X55425Y6186D01*
X55378Y6215D01*
X55337Y6239D01*
X55307Y6262D01*
X55284Y6280D01*
X55260Y6298D01*
X55254Y6304D01*
X55248Y6310D01*
X55189Y6369D01*
X55142Y6428D01*
X55095Y6493D01*
X55059Y6557D01*
X55001Y6687D01*
X54965Y6805D01*
X54941Y6911D01*
X54936Y6959D01*
X54930Y7000D01*
X54924Y7029D01*
Y7059D01*
Y7071D01*
Y7077D01*
X54930Y7218D01*
X54953Y7336D01*
X54989Y7448D01*
X55024Y7537D01*
X55065Y7608D01*
X55095Y7661D01*
X55119Y7690D01*
X55130Y7702D01*
X55172Y7743D01*
X55225Y7785D01*
X55284Y7826D01*
X55343Y7861D01*
X55478Y7926D01*
X55608Y7985D01*
X55732Y8032D01*
X55785Y8050D01*
X55832Y8068D01*
X55874Y8080D01*
X55903Y8091D01*
X55921Y8097D01*
X55927D01*
X56021Y8127D01*
X56104Y8150D01*
X56175Y8174D01*
X56239Y8192D01*
X56299Y8215D01*
X56352Y8233D01*
X56393Y8245D01*
X56428Y8263D01*
X56464Y8274D01*
X56487Y8286D01*
X56523Y8304D01*
X56540Y8310D01*
X56546Y8316D01*
X56576Y8345D01*
X56599Y8375D01*
X56617Y8404D01*
X56629Y8434D01*
X56635Y8457D01*
X56641Y8475D01*
Y8487D01*
Y8493D01*
X56635Y8534D01*
X56623Y8569D01*
X56588Y8628D01*
X56570Y8652D01*
X56552Y8670D01*
X56540Y8676D01*
X56534Y8681D01*
X56487Y8705D01*
X56428Y8729D01*
X56310Y8746D01*
X56257Y8752D01*
X56210Y8758D01*
X56169D01*
X56092Y8752D01*
X56027Y8740D01*
X55968Y8723D01*
X55915Y8699D01*
X55868Y8670D01*
X55826Y8634D01*
X55762Y8563D01*
X55714Y8493D01*
X55685Y8428D01*
X55679Y8404D01*
X55673Y8386D01*
X55667Y8375D01*
Y8369D01*
X55012Y8516D01*
X55059Y8676D01*
X55119Y8805D01*
X55183Y8917D01*
X55248Y9012D01*
X55301Y9077D01*
X55349Y9130D01*
X55384Y9153D01*
X55390Y9165D01*
X55396D01*
X55449Y9201D01*
X55508Y9236D01*
X55632Y9283D01*
X55762Y9319D01*
X55885Y9348D01*
X56003Y9360D01*
X56051Y9366D01*
X56098D01*
X56133Y9372D01*
X56281D01*
X56369Y9360D01*
D02*
G37*
G36*
X48469Y9366D02*
X48599Y9342D01*
X48717Y9313D01*
X48817Y9277D01*
X48900Y9236D01*
X48965Y9206D01*
X48988Y9195D01*
X49006Y9183D01*
X49012Y9177D01*
X49018D01*
X49124Y9094D01*
X49218Y9006D01*
X49307Y8906D01*
X49378Y8811D01*
X49431Y8729D01*
X49472Y8658D01*
X49490Y8628D01*
X49496Y8611D01*
X49508Y8599D01*
Y8593D01*
X49567Y8445D01*
X49614Y8292D01*
X49643Y8150D01*
X49667Y8015D01*
X49673Y7956D01*
X49679Y7903D01*
X49685Y7855D01*
Y7814D01*
X49690Y7779D01*
Y7755D01*
Y7737D01*
Y7732D01*
X49685Y7584D01*
X49673Y7442D01*
X49655Y7307D01*
X49632Y7183D01*
X49602Y7071D01*
X49567Y6965D01*
X49537Y6870D01*
X49496Y6787D01*
X49460Y6711D01*
X49431Y6640D01*
X49395Y6587D01*
X49366Y6540D01*
X49342Y6504D01*
X49325Y6481D01*
X49313Y6463D01*
X49307Y6457D01*
X49230Y6380D01*
X49154Y6310D01*
X49071Y6251D01*
X48988Y6197D01*
X48906Y6156D01*
X48829Y6121D01*
X48746Y6091D01*
X48676Y6068D01*
X48605Y6044D01*
X48540Y6032D01*
X48481Y6021D01*
X48428Y6015D01*
X48393D01*
X48357Y6009D01*
X48333D01*
X48198Y6015D01*
X48074Y6038D01*
X47962Y6074D01*
X47861Y6109D01*
X47779Y6144D01*
X47714Y6180D01*
X47690Y6192D01*
X47673Y6203D01*
X47667Y6209D01*
X47661D01*
X47549Y6292D01*
X47454Y6386D01*
X47372Y6487D01*
X47295Y6581D01*
X47242Y6669D01*
X47201Y6740D01*
X47183Y6770D01*
X47171Y6787D01*
X47165Y6799D01*
Y6805D01*
X47100Y6959D01*
X47053Y7118D01*
X47018Y7265D01*
X46994Y7407D01*
X46988Y7472D01*
X46982Y7531D01*
X46977Y7578D01*
X46971Y7625D01*
Y7661D01*
Y7684D01*
Y7702D01*
Y7708D01*
X46977Y7832D01*
X46988Y7950D01*
X47006Y8062D01*
X47030Y8168D01*
X47053Y8274D01*
X47089Y8369D01*
X47118Y8457D01*
X47153Y8540D01*
X47189Y8611D01*
X47218Y8676D01*
X47254Y8734D01*
X47277Y8782D01*
X47301Y8823D01*
X47319Y8847D01*
X47330Y8864D01*
X47336Y8870D01*
X47407Y8959D01*
X47484Y9035D01*
X47567Y9100D01*
X47649Y9159D01*
X47732Y9206D01*
X47814Y9248D01*
X47891Y9283D01*
X47974Y9307D01*
X48044Y9330D01*
X48115Y9348D01*
X48174Y9354D01*
X48227Y9366D01*
X48274D01*
X48304Y9372D01*
X48333D01*
X48469Y9366D01*
D02*
G37*
G36*
X38026D02*
X38156Y9342D01*
X38274Y9313D01*
X38374Y9277D01*
X38457Y9236D01*
X38522Y9206D01*
X38545Y9195D01*
X38563Y9183D01*
X38569Y9177D01*
X38575D01*
X38681Y9094D01*
X38776Y9006D01*
X38864Y8906D01*
X38935Y8811D01*
X38988Y8729D01*
X39029Y8658D01*
X39047Y8628D01*
X39053Y8611D01*
X39065Y8599D01*
Y8593D01*
X39124Y8445D01*
X39171Y8292D01*
X39200Y8150D01*
X39224Y8015D01*
X39230Y7956D01*
X39236Y7903D01*
X39242Y7855D01*
Y7814D01*
X39248Y7779D01*
Y7755D01*
Y7737D01*
Y7732D01*
X39242Y7584D01*
X39230Y7442D01*
X39212Y7307D01*
X39189Y7183D01*
X39159Y7071D01*
X39124Y6965D01*
X39094Y6870D01*
X39053Y6787D01*
X39017Y6711D01*
X38988Y6640D01*
X38952Y6587D01*
X38923Y6540D01*
X38899Y6504D01*
X38882Y6481D01*
X38870Y6463D01*
X38864Y6457D01*
X38787Y6380D01*
X38711Y6310D01*
X38628Y6251D01*
X38545Y6197D01*
X38463Y6156D01*
X38386Y6121D01*
X38304Y6091D01*
X38233Y6068D01*
X38162Y6044D01*
X38097Y6032D01*
X38038Y6021D01*
X37985Y6015D01*
X37949D01*
X37914Y6009D01*
X37890D01*
X37755Y6015D01*
X37631Y6038D01*
X37519Y6074D01*
X37418Y6109D01*
X37336Y6144D01*
X37271Y6180D01*
X37247Y6192D01*
X37230Y6203D01*
X37224Y6209D01*
X37218D01*
X37106Y6292D01*
X37011Y6386D01*
X36929Y6487D01*
X36852Y6581D01*
X36799Y6669D01*
X36758Y6740D01*
X36740Y6770D01*
X36728Y6787D01*
X36722Y6799D01*
Y6805D01*
X36657Y6959D01*
X36610Y7118D01*
X36575Y7265D01*
X36551Y7407D01*
X36545Y7472D01*
X36539Y7531D01*
X36533Y7578D01*
X36528Y7625D01*
Y7661D01*
Y7684D01*
Y7702D01*
Y7708D01*
X36533Y7832D01*
X36545Y7950D01*
X36563Y8062D01*
X36587Y8168D01*
X36610Y8274D01*
X36646Y8369D01*
X36675Y8457D01*
X36711Y8540D01*
X36746Y8611D01*
X36775Y8676D01*
X36811Y8734D01*
X36834Y8782D01*
X36858Y8823D01*
X36876Y8847D01*
X36887Y8864D01*
X36893Y8870D01*
X36964Y8959D01*
X37041Y9035D01*
X37124Y9100D01*
X37206Y9159D01*
X37289Y9206D01*
X37371Y9248D01*
X37448Y9283D01*
X37531Y9307D01*
X37601Y9330D01*
X37672Y9348D01*
X37731Y9354D01*
X37784Y9366D01*
X37832D01*
X37861Y9372D01*
X37890D01*
X38026Y9366D01*
D02*
G37*
G36*
X31831Y6009D02*
X31318D01*
X30409Y10599D01*
X30934D01*
X31831Y6009D01*
D02*
G37*
G36*
X20244Y9360D02*
X20332Y9348D01*
X20415Y9330D01*
X20485Y9307D01*
X20556Y9283D01*
X20615Y9260D01*
X20668Y9236D01*
X20721Y9212D01*
X20763Y9189D01*
X20798Y9165D01*
X20828Y9142D01*
X20851Y9124D01*
X20869Y9112D01*
X20875Y9106D01*
X20881Y9100D01*
X20928Y9047D01*
X20975Y8994D01*
X21046Y8876D01*
X21093Y8752D01*
X21129Y8640D01*
X21146Y8540D01*
X21158Y8493D01*
Y8457D01*
X21164Y8422D01*
Y8398D01*
Y8386D01*
Y8381D01*
X21158Y8298D01*
X21152Y8221D01*
X21117Y8080D01*
X21070Y7962D01*
X21016Y7861D01*
X20963Y7779D01*
X20922Y7720D01*
X20887Y7684D01*
X20881Y7678D01*
X20875Y7672D01*
X20822Y7631D01*
X20763Y7596D01*
X20686Y7554D01*
X20609Y7519D01*
X20521Y7484D01*
X20426Y7448D01*
X20244Y7378D01*
X20155Y7348D01*
X20067Y7324D01*
X19990Y7301D01*
X19919Y7283D01*
X19866Y7265D01*
X19819Y7254D01*
X19795Y7242D01*
X19783D01*
X19724Y7224D01*
X19677Y7206D01*
X19636Y7189D01*
X19606Y7171D01*
X19583Y7159D01*
X19571Y7147D01*
X19559Y7136D01*
X19524Y7083D01*
X19506Y7029D01*
X19500Y7006D01*
Y6988D01*
Y6976D01*
Y6970D01*
X19506Y6911D01*
X19518Y6864D01*
X19542Y6823D01*
X19565Y6782D01*
X19589Y6758D01*
X19612Y6734D01*
X19624Y6723D01*
X19630Y6717D01*
X19683Y6687D01*
X19742Y6664D01*
X19801Y6646D01*
X19860Y6634D01*
X19919Y6628D01*
X19960Y6622D01*
X20002D01*
X20084Y6628D01*
X20161Y6646D01*
X20226Y6669D01*
X20291Y6699D01*
X20338Y6740D01*
X20385Y6782D01*
X20426Y6829D01*
X20456Y6876D01*
X20509Y6970D01*
X20527Y7012D01*
X20539Y7053D01*
X20550Y7083D01*
X20556Y7106D01*
X20562Y7124D01*
Y7130D01*
X21258Y6994D01*
X21211Y6823D01*
X21152Y6675D01*
X21081Y6546D01*
X21011Y6445D01*
X20940Y6363D01*
X20887Y6304D01*
X20863Y6286D01*
X20845Y6268D01*
X20840Y6262D01*
X20834Y6256D01*
X20704Y6174D01*
X20568Y6115D01*
X20426Y6068D01*
X20297Y6038D01*
X20179Y6021D01*
X20132Y6015D01*
X20084D01*
X20049Y6009D01*
X20002D01*
X19901Y6015D01*
X19801Y6021D01*
X19713Y6038D01*
X19630Y6056D01*
X19547Y6080D01*
X19477Y6103D01*
X19412Y6133D01*
X19353Y6162D01*
X19300Y6186D01*
X19252Y6215D01*
X19211Y6239D01*
X19182Y6262D01*
X19158Y6280D01*
X19134Y6298D01*
X19128Y6304D01*
X19123Y6310D01*
X19064Y6369D01*
X19016Y6428D01*
X18969Y6493D01*
X18934Y6557D01*
X18875Y6687D01*
X18839Y6805D01*
X18816Y6911D01*
X18810Y6959D01*
X18804Y7000D01*
X18798Y7029D01*
Y7059D01*
Y7071D01*
Y7077D01*
X18804Y7218D01*
X18828Y7336D01*
X18863Y7448D01*
X18898Y7537D01*
X18940Y7608D01*
X18969Y7661D01*
X18993Y7690D01*
X19005Y7702D01*
X19046Y7743D01*
X19099Y7785D01*
X19158Y7826D01*
X19217Y7861D01*
X19353Y7926D01*
X19482Y7985D01*
X19606Y8032D01*
X19659Y8050D01*
X19707Y8068D01*
X19748Y8080D01*
X19778Y8091D01*
X19795Y8097D01*
X19801D01*
X19895Y8127D01*
X19978Y8150D01*
X20049Y8174D01*
X20114Y8192D01*
X20173Y8215D01*
X20226Y8233D01*
X20267Y8245D01*
X20303Y8263D01*
X20338Y8274D01*
X20362Y8286D01*
X20397Y8304D01*
X20415Y8310D01*
X20421Y8316D01*
X20450Y8345D01*
X20474Y8375D01*
X20491Y8404D01*
X20503Y8434D01*
X20509Y8457D01*
X20515Y8475D01*
Y8487D01*
Y8493D01*
X20509Y8534D01*
X20497Y8569D01*
X20462Y8628D01*
X20444Y8652D01*
X20426Y8670D01*
X20415Y8676D01*
X20409Y8681D01*
X20362Y8705D01*
X20303Y8729D01*
X20185Y8746D01*
X20132Y8752D01*
X20084Y8758D01*
X20043D01*
X19966Y8752D01*
X19901Y8740D01*
X19842Y8723D01*
X19789Y8699D01*
X19742Y8670D01*
X19701Y8634D01*
X19636Y8563D01*
X19589Y8493D01*
X19559Y8428D01*
X19553Y8404D01*
X19547Y8386D01*
X19542Y8375D01*
Y8369D01*
X18887Y8516D01*
X18934Y8676D01*
X18993Y8805D01*
X19058Y8917D01*
X19123Y9012D01*
X19176Y9077D01*
X19223Y9130D01*
X19258Y9153D01*
X19264Y9165D01*
X19270D01*
X19323Y9201D01*
X19382Y9236D01*
X19506Y9283D01*
X19636Y9319D01*
X19760Y9348D01*
X19878Y9360D01*
X19925Y9366D01*
X19972D01*
X20008Y9372D01*
X20155D01*
X20244Y9360D01*
D02*
G37*
G36*
X13736Y9366D02*
X13824Y9348D01*
X13901Y9324D01*
X13972Y9301D01*
X14031Y9271D01*
X14078Y9248D01*
X14102Y9230D01*
X14114Y9224D01*
X14190Y9165D01*
X14261Y9100D01*
X14320Y9035D01*
X14367Y8970D01*
X14409Y8912D01*
X14438Y8864D01*
X14456Y8835D01*
X14462Y8829D01*
Y9295D01*
X15111D01*
Y4864D01*
X14414D01*
Y6475D01*
X14344Y6380D01*
X14273Y6304D01*
X14208Y6245D01*
X14155Y6192D01*
X14108Y6156D01*
X14066Y6127D01*
X14043Y6115D01*
X14037Y6109D01*
X13966Y6074D01*
X13901Y6050D01*
X13830Y6032D01*
X13771Y6021D01*
X13724Y6015D01*
X13683Y6009D01*
X13647D01*
X13565Y6015D01*
X13482Y6026D01*
X13406Y6050D01*
X13335Y6080D01*
X13199Y6144D01*
X13087Y6227D01*
X12992Y6310D01*
X12957Y6345D01*
X12928Y6374D01*
X12904Y6404D01*
X12880Y6428D01*
X12875Y6439D01*
X12869Y6445D01*
X12810Y6534D01*
X12756Y6628D01*
X12715Y6729D01*
X12680Y6829D01*
X12621Y7041D01*
X12580Y7248D01*
X12568Y7342D01*
X12556Y7431D01*
X12550Y7513D01*
X12544Y7584D01*
X12538Y7643D01*
Y7684D01*
Y7708D01*
Y7720D01*
X12544Y7861D01*
X12550Y7997D01*
X12568Y8127D01*
X12591Y8245D01*
X12615Y8351D01*
X12644Y8451D01*
X12674Y8546D01*
X12703Y8628D01*
X12733Y8699D01*
X12762Y8764D01*
X12792Y8817D01*
X12815Y8864D01*
X12839Y8894D01*
X12857Y8923D01*
X12863Y8935D01*
X12869Y8941D01*
X12934Y9018D01*
X12992Y9083D01*
X13057Y9142D01*
X13128Y9189D01*
X13193Y9230D01*
X13258Y9266D01*
X13317Y9295D01*
X13376Y9319D01*
X13482Y9348D01*
X13529Y9360D01*
X13565Y9366D01*
X13600Y9372D01*
X13642D01*
X13736Y9366D01*
D02*
G37*
%LPC*%
G36*
X13015Y17055D02*
X14006D01*
Y16965D01*
X14276D01*
Y16875D01*
X14456D01*
Y16785D01*
X14546D01*
Y16695D01*
X14636D01*
Y16605D01*
X14726D01*
Y16515D01*
X14816D01*
Y16425D01*
X14906D01*
Y16335D01*
Y16245D01*
Y16155D01*
X14997D01*
Y16065D01*
Y15975D01*
Y15885D01*
Y15795D01*
Y15705D01*
Y15614D01*
Y15524D01*
Y15434D01*
Y15344D01*
Y15254D01*
Y15164D01*
Y15074D01*
X14906D01*
Y14984D01*
Y14894D01*
Y14804D01*
X14816D01*
Y14714D01*
Y14624D01*
X14726D01*
Y14534D01*
X14636D01*
Y14444D01*
X14546D01*
Y14354D01*
X14366D01*
Y14264D01*
X14186D01*
Y14174D01*
X13646D01*
Y14083D01*
X13375D01*
Y14174D01*
X12835D01*
Y14264D01*
X12655D01*
Y14354D01*
X12475D01*
Y14444D01*
X12385D01*
Y14534D01*
X12295D01*
Y14624D01*
X12205D01*
Y14714D01*
Y14804D01*
X12115D01*
Y14894D01*
Y14984D01*
X12025D01*
Y15074D01*
Y15164D01*
Y15254D01*
Y15344D01*
Y15434D01*
Y15524D01*
Y15614D01*
Y15705D01*
Y15795D01*
Y15885D01*
Y15975D01*
Y16065D01*
Y16155D01*
X12115D01*
Y16245D01*
Y16335D01*
Y16425D01*
X12205D01*
Y16515D01*
X12295D01*
Y16605D01*
Y16695D01*
X12385D01*
Y16785D01*
X12565D01*
Y16875D01*
X12745D01*
Y16965D01*
X13015D01*
Y17055D01*
D02*
G37*
G36*
X20940Y16965D02*
X21030D01*
Y16875D01*
X21120D01*
Y16965D01*
X22922D01*
Y16875D01*
Y16785D01*
Y16695D01*
Y16605D01*
Y16515D01*
Y16425D01*
Y16335D01*
Y16245D01*
Y16155D01*
Y16065D01*
Y15975D01*
Y15885D01*
X20850D01*
Y15975D01*
X20670D01*
Y16065D01*
X20580D01*
Y16155D01*
X20490D01*
Y16245D01*
Y16335D01*
Y16425D01*
Y16515D01*
Y16605D01*
Y16695D01*
X20580D01*
Y16785D01*
X20670D01*
Y16875D01*
X20940D01*
Y16965D01*
D02*
G37*
G36*
X17069Y8723D02*
X17058D01*
X16969Y8711D01*
X16886Y8687D01*
X16816Y8646D01*
X16757Y8605D01*
X16704Y8557D01*
X16668Y8516D01*
X16645Y8493D01*
X16639Y8481D01*
X16609Y8434D01*
X16580Y8381D01*
X16538Y8263D01*
X16509Y8139D01*
X16491Y8021D01*
X16474Y7908D01*
Y7861D01*
X16468Y7820D01*
Y7785D01*
Y7761D01*
Y7743D01*
Y7737D01*
Y7649D01*
X16474Y7566D01*
X16497Y7419D01*
X16521Y7295D01*
X16556Y7189D01*
X16586Y7112D01*
X16615Y7059D01*
X16639Y7023D01*
X16645Y7012D01*
X16715Y6935D01*
X16786Y6876D01*
X16857Y6835D01*
X16928Y6805D01*
X16987Y6787D01*
X17034Y6782D01*
X17063Y6776D01*
X17075D01*
X17158Y6787D01*
X17235Y6811D01*
X17300Y6847D01*
X17358Y6894D01*
X17406Y6935D01*
X17441Y6970D01*
X17465Y6994D01*
X17471Y7006D01*
X17500Y7053D01*
X17524Y7106D01*
X17565Y7224D01*
X17594Y7348D01*
X17612Y7472D01*
X17624Y7584D01*
X17630Y7631D01*
X17636Y7678D01*
Y7714D01*
Y7737D01*
Y7755D01*
Y7761D01*
Y7850D01*
X17630Y7932D01*
X17612Y8080D01*
X17583Y8203D01*
X17553Y8310D01*
X17524Y8386D01*
X17494Y8439D01*
X17477Y8475D01*
X17471Y8487D01*
X17406Y8563D01*
X17335Y8622D01*
X17270Y8664D01*
X17199Y8693D01*
X17146Y8711D01*
X17099Y8717D01*
X17069Y8723D01*
D02*
G37*
G36*
X62063Y8723D02*
X62027D01*
X61951Y8717D01*
X61880Y8693D01*
X61821Y8664D01*
X61768Y8628D01*
X61726Y8587D01*
X61691Y8557D01*
X61673Y8534D01*
X61668Y8528D01*
X61614Y8451D01*
X61579Y8363D01*
X61550Y8268D01*
X61526Y8180D01*
X61514Y8097D01*
X61508Y8027D01*
X61502Y8003D01*
Y7985D01*
Y7973D01*
Y7967D01*
X62547D01*
X62541Y8091D01*
X62523Y8203D01*
X62499Y8298D01*
X62476Y8381D01*
X62446Y8439D01*
X62423Y8487D01*
X62405Y8510D01*
X62399Y8522D01*
X62340Y8587D01*
X62275Y8640D01*
X62216Y8676D01*
X62157Y8699D01*
X62104Y8711D01*
X62063Y8723D01*
D02*
G37*
G36*
X9281Y8723D02*
X9246D01*
X9169Y8717D01*
X9099Y8693D01*
X9040Y8664D01*
X8986Y8628D01*
X8945Y8587D01*
X8910Y8557D01*
X8892Y8534D01*
X8886Y8528D01*
X8833Y8451D01*
X8798Y8363D01*
X8768Y8268D01*
X8744Y8180D01*
X8733Y8097D01*
X8727Y8027D01*
X8721Y8003D01*
Y7985D01*
Y7973D01*
Y7967D01*
X9765D01*
X9759Y8091D01*
X9742Y8203D01*
X9718Y8298D01*
X9694Y8381D01*
X9665Y8439D01*
X9641Y8487D01*
X9624Y8510D01*
X9618Y8522D01*
X9559Y8587D01*
X9494Y8640D01*
X9435Y8676D01*
X9376Y8699D01*
X9323Y8711D01*
X9281Y8723D01*
D02*
G37*
G36*
X48351Y8681D02*
X48292D01*
X48239Y8670D01*
X48151Y8640D01*
X48074Y8599D01*
X48009Y8557D01*
X47956Y8510D01*
X47915Y8469D01*
X47885Y8439D01*
X47879Y8434D01*
Y8428D01*
X47814Y8321D01*
X47767Y8209D01*
X47732Y8085D01*
X47708Y7967D01*
X47696Y7861D01*
X47690Y7814D01*
X47684Y7773D01*
Y7743D01*
Y7720D01*
Y7702D01*
Y7696D01*
X47690Y7519D01*
X47714Y7372D01*
X47743Y7242D01*
X47779Y7136D01*
X47814Y7053D01*
X47844Y6994D01*
X47856Y6976D01*
X47867Y6959D01*
X47873Y6953D01*
Y6947D01*
X47944Y6864D01*
X48021Y6805D01*
X48098Y6758D01*
X48168Y6729D01*
X48233Y6711D01*
X48280Y6705D01*
X48316Y6699D01*
X48328D01*
X48428Y6711D01*
X48516Y6740D01*
X48593Y6776D01*
X48658Y6823D01*
X48711Y6870D01*
X48752Y6905D01*
X48782Y6935D01*
X48788Y6947D01*
X48853Y7053D01*
X48894Y7171D01*
X48929Y7295D01*
X48953Y7413D01*
X48965Y7525D01*
X48971Y7566D01*
Y7608D01*
X48977Y7643D01*
Y7667D01*
Y7684D01*
Y7690D01*
X48971Y7861D01*
X48947Y8009D01*
X48918Y8139D01*
X48882Y8239D01*
X48847Y8321D01*
X48817Y8381D01*
X48794Y8416D01*
X48788Y8428D01*
X48752Y8475D01*
X48717Y8510D01*
X48640Y8575D01*
X48564Y8622D01*
X48493Y8652D01*
X48434Y8670D01*
X48381Y8676D01*
X48351Y8681D01*
D02*
G37*
G36*
X37908D02*
X37849D01*
X37796Y8670D01*
X37708Y8640D01*
X37631Y8599D01*
X37566Y8557D01*
X37513Y8510D01*
X37472Y8469D01*
X37442Y8439D01*
X37436Y8434D01*
Y8428D01*
X37371Y8321D01*
X37324Y8209D01*
X37289Y8085D01*
X37265Y7967D01*
X37253Y7861D01*
X37247Y7814D01*
X37242Y7773D01*
Y7743D01*
Y7720D01*
Y7702D01*
Y7696D01*
X37247Y7519D01*
X37271Y7372D01*
X37301Y7242D01*
X37336Y7136D01*
X37371Y7053D01*
X37401Y6994D01*
X37413Y6976D01*
X37424Y6959D01*
X37430Y6953D01*
Y6947D01*
X37501Y6864D01*
X37578Y6805D01*
X37655Y6758D01*
X37725Y6729D01*
X37790Y6711D01*
X37837Y6705D01*
X37873Y6699D01*
X37885D01*
X37985Y6711D01*
X38073Y6740D01*
X38150Y6776D01*
X38215Y6823D01*
X38268Y6870D01*
X38309Y6905D01*
X38339Y6935D01*
X38345Y6947D01*
X38410Y7053D01*
X38451Y7171D01*
X38486Y7295D01*
X38510Y7413D01*
X38522Y7525D01*
X38528Y7566D01*
Y7608D01*
X38534Y7643D01*
Y7667D01*
Y7684D01*
Y7690D01*
X38528Y7861D01*
X38504Y8009D01*
X38475Y8139D01*
X38439Y8239D01*
X38404Y8321D01*
X38374Y8381D01*
X38351Y8416D01*
X38345Y8428D01*
X38309Y8475D01*
X38274Y8510D01*
X38197Y8575D01*
X38121Y8622D01*
X38050Y8652D01*
X37991Y8670D01*
X37938Y8676D01*
X37908Y8681D01*
D02*
G37*
G36*
X13842Y8699D02*
X13830D01*
X13742Y8687D01*
X13665Y8658D01*
X13594Y8622D01*
X13535Y8575D01*
X13488Y8528D01*
X13453Y8493D01*
X13429Y8463D01*
X13423Y8451D01*
X13394Y8404D01*
X13364Y8351D01*
X13323Y8233D01*
X13293Y8109D01*
X13276Y7985D01*
X13258Y7873D01*
Y7820D01*
X13252Y7779D01*
Y7743D01*
Y7720D01*
Y7702D01*
Y7696D01*
Y7596D01*
X13258Y7507D01*
X13270Y7425D01*
X13276Y7348D01*
X13287Y7277D01*
X13305Y7212D01*
X13317Y7153D01*
X13335Y7106D01*
X13352Y7059D01*
X13364Y7023D01*
X13376Y6988D01*
X13394Y6965D01*
X13400Y6941D01*
X13411Y6929D01*
X13417Y6917D01*
X13482Y6841D01*
X13547Y6782D01*
X13618Y6740D01*
X13677Y6711D01*
X13736Y6693D01*
X13777Y6687D01*
X13807Y6681D01*
X13818D01*
X13866Y6687D01*
X13907Y6693D01*
X13995Y6723D01*
X14066Y6764D01*
X14131Y6811D01*
X14178Y6852D01*
X14220Y6894D01*
X14243Y6923D01*
X14249Y6935D01*
X14279Y6988D01*
X14308Y7047D01*
X14349Y7171D01*
X14385Y7307D01*
X14403Y7436D01*
X14414Y7554D01*
X14420Y7608D01*
Y7655D01*
X14426Y7690D01*
Y7720D01*
Y7737D01*
Y7743D01*
X14420Y7908D01*
X14403Y8056D01*
X14373Y8180D01*
X14344Y8280D01*
X14314Y8357D01*
X14285Y8416D01*
X14267Y8445D01*
X14261Y8457D01*
X14196Y8540D01*
X14119Y8599D01*
X14049Y8640D01*
X13984Y8670D01*
X13919Y8687D01*
X13872Y8693D01*
X13842Y8699D01*
D02*
G37*
%LPD*%
D52*
X9163Y40348D02*
D03*
X26270D02*
D03*
X9163Y46049D02*
D03*
X26270D02*
D03*
Y28943D02*
D03*
Y23242D02*
D03*
D53*
X6789Y32746D02*
D03*
Y25144D02*
D03*
X13439D02*
D03*
X17242Y43199D02*
D03*
X21041Y23242D02*
D03*
X25793Y36545D02*
D03*
Y38447D02*
D03*
D54*
X15340Y32746D02*
D03*
X7738Y26092D02*
D03*
D55*
X22468Y32746D02*
D03*
X14866Y33695D02*
D03*
X9165Y43199D02*
D03*
Y44148D02*
D03*
X28169Y33695D02*
D03*
D56*
X23419Y25144D02*
D03*
Y43199D02*
D03*
Y44148D02*
D03*
Y41297D02*
D03*
Y36545D02*
D03*
Y38447D02*
D03*
Y27994D02*
D03*
Y26092D02*
D03*
X13915Y40348D02*
D03*
X15817D02*
D03*
X19616D02*
D03*
X21518D02*
D03*
X26270Y32746D02*
D03*
X29120Y25144D02*
D03*
X6313Y43199D02*
D03*
Y44148D02*
D03*
Y41297D02*
D03*
Y36545D02*
D03*
Y38447D02*
D03*
Y28943D02*
D03*
Y30845D02*
D03*
Y23242D02*
D03*
X12014Y43199D02*
D03*
Y44148D02*
D03*
X13915Y46049D02*
D03*
X12014Y41297D02*
D03*
X8215Y36545D02*
D03*
X12014Y38447D02*
D03*
X13915D02*
D03*
Y27994D02*
D03*
X12014Y28943D02*
D03*
X13915D02*
D03*
X8215Y30845D02*
D03*
X9163Y23242D02*
D03*
X13915D02*
D03*
X19616Y44148D02*
D03*
X15817Y46049D02*
D03*
X21518D02*
D03*
X15817Y41297D02*
D03*
X19616D02*
D03*
X21518Y36545D02*
D03*
X15817Y38447D02*
D03*
X18667Y33695D02*
D03*
X21518D02*
D03*
X19616Y27994D02*
D03*
X15817Y28943D02*
D03*
Y26092D02*
D03*
X21518D02*
D03*
X18667Y23242D02*
D03*
X29120Y43199D02*
D03*
Y44148D02*
D03*
Y41297D02*
D03*
Y36545D02*
D03*
X24368Y33695D02*
D03*
X29120Y27994D02*
D03*
X27218Y30845D02*
D03*
X29120D02*
D03*
Y26092D02*
D03*
D57*
X14392Y43199D02*
D03*
X9640Y32746D02*
D03*
X10589Y25144D02*
D03*
X28644Y32746D02*
D03*
X9640Y27994D02*
D03*
X18191Y46049D02*
D03*
Y26092D02*
D03*
X28644Y38447D02*
D03*
D58*
X16291Y44148D02*
D03*
X8689Y33695D02*
D03*
X23894Y30845D02*
D03*
X19142Y38447D02*
D03*
D59*
X14866Y34646D02*
D03*
X9165Y42248D02*
D03*
X28169Y34646D02*
D03*
D60*
X14390Y35596D02*
D03*
X21043D02*
D03*
D61*
X12965Y36545D02*
D03*
D62*
X9163Y37496D02*
D03*
X8215Y24193D02*
D03*
X19616D02*
D03*
D63*
X14866Y37496D02*
D03*
X10114Y29894D02*
D03*
X17717Y34646D02*
D03*
X28169Y37496D02*
D03*
D64*
X14392Y39398D02*
D03*
X18191Y27043D02*
D03*
D65*
X12490D02*
D03*
D66*
X7264Y27994D02*
D03*
D67*
X8689Y31795D02*
D03*
D68*
X14866D02*
D03*
D69*
X23419Y45098D02*
D03*
Y27043D02*
D03*
X6313Y45098D02*
D03*
X12014D02*
D03*
X13915D02*
D03*
X21518Y39398D02*
D03*
X29120Y45098D02*
D03*
Y27043D02*
D03*
Y31795D02*
D03*
D70*
X23419Y42248D02*
D03*
Y24193D02*
D03*
X6313Y42248D02*
D03*
Y34646D02*
D03*
X12014Y42248D02*
D03*
X13915D02*
D03*
X9163Y34646D02*
D03*
X8215Y29894D02*
D03*
X13915D02*
D03*
X18667Y42248D02*
D03*
X15817Y29894D02*
D03*
Y24193D02*
D03*
X29120Y42248D02*
D03*
X24368Y37496D02*
D03*
X26270D02*
D03*
X29120Y24193D02*
D03*
D71*
X23894Y34646D02*
D03*
X11539D02*
D03*
D72*
X17717Y40348D02*
D03*
X10114Y28943D02*
D03*
X17717Y41297D02*
D03*
D73*
X18667Y25144D02*
D03*
D74*
X26268D02*
D03*
X12016Y26092D02*
D03*
X17717Y30845D02*
D03*
X26268Y43199D02*
D03*
Y44148D02*
D03*
Y26092D02*
D03*
D75*
X8215Y35596D02*
D03*
X29120D02*
D03*
D76*
X10114D02*
D03*
X17717D02*
D03*
D77*
X12965Y37496D02*
D03*
X20567Y42248D02*
D03*
Y34646D02*
D03*
D78*
X12014Y30845D02*
D03*
D79*
X12490Y31795D02*
D03*
X20092Y45098D02*
D03*
X21041Y27043D02*
D03*
X20092Y31795D02*
D03*
D80*
X16291Y42248D02*
D03*
D81*
X19142Y36545D02*
D03*
Y28943D02*
D03*
D82*
X17242Y37496D02*
D03*
X21041D02*
D03*
D83*
X16766Y39398D02*
D03*
D84*
X19142D02*
D03*
D85*
X16766Y27994D02*
D03*
D86*
X20567Y29894D02*
D03*
X26268Y42248D02*
D03*
D87*
X25319Y35596D02*
D03*
D88*
X26268Y27043D02*
D03*
Y31795D02*
D03*
M02*
