G04*
G04 #@! TF.GenerationSoftware,Altium Limited,Altium Designer,21.4.1 (30)*
G04*
G04 Layer_Color=8421504*
%FSLAX25Y25*%
%MOIN*%
G70*
G04*
G04 #@! TF.SameCoordinates,1C4C5B7E-5BD0-495A-B64D-970DC72F7BB0*
G04*
G04*
G04 #@! TF.FilePolarity,Positive*
G04*
G01*
G75*
%ADD10C,0.01000*%
G04:AMPARAMS|DCode=11|XSize=15.75mil|YSize=21.65mil|CornerRadius=0mil|HoleSize=0mil|Usage=FLASHONLY|Rotation=270.000|XOffset=0mil|YOffset=0mil|HoleType=Round|Shape=RoundedRectangle|*
%AMROUNDEDRECTD11*
21,1,0.01575,0.02165,0,0,270.0*
21,1,0.01575,0.02165,0,0,270.0*
1,1,0.00000,-0.01083,-0.00787*
1,1,0.00000,-0.01083,0.00787*
1,1,0.00000,0.01083,0.00787*
1,1,0.00000,0.01083,-0.00787*
%
%ADD11ROUNDEDRECTD11*%
G04:AMPARAMS|DCode=12|XSize=11.81mil|YSize=19.68mil|CornerRadius=1.18mil|HoleSize=0mil|Usage=FLASHONLY|Rotation=270.000|XOffset=0mil|YOffset=0mil|HoleType=Round|Shape=RoundedRectangle|*
%AMROUNDEDRECTD12*
21,1,0.01181,0.01732,0,0,270.0*
21,1,0.00945,0.01968,0,0,270.0*
1,1,0.00236,-0.00866,-0.00472*
1,1,0.00236,-0.00866,0.00472*
1,1,0.00236,0.00866,0.00472*
1,1,0.00236,0.00866,-0.00472*
%
%ADD12ROUNDEDRECTD12*%
%ADD13R,0.01968X0.01181*%
G04:AMPARAMS|DCode=14|XSize=31.5mil|YSize=47.24mil|CornerRadius=3.15mil|HoleSize=0mil|Usage=FLASHONLY|Rotation=0.000|XOffset=0mil|YOffset=0mil|HoleType=Round|Shape=RoundedRectangle|*
%AMROUNDEDRECTD14*
21,1,0.03150,0.04095,0,0,0.0*
21,1,0.02520,0.04724,0,0,0.0*
1,1,0.00630,0.01260,-0.02047*
1,1,0.00630,-0.01260,-0.02047*
1,1,0.00630,-0.01260,0.02047*
1,1,0.00630,0.01260,0.02047*
%
%ADD14ROUNDEDRECTD14*%
%ADD15R,0.03150X0.04724*%
G04:AMPARAMS|DCode=16|XSize=51.18mil|YSize=84.65mil|CornerRadius=5.12mil|HoleSize=0mil|Usage=FLASHONLY|Rotation=0.000|XOffset=0mil|YOffset=0mil|HoleType=Round|Shape=RoundedRectangle|*
%AMROUNDEDRECTD16*
21,1,0.05118,0.07441,0,0,0.0*
21,1,0.04095,0.08465,0,0,0.0*
1,1,0.01024,0.02047,-0.03720*
1,1,0.01024,-0.02047,-0.03720*
1,1,0.01024,-0.02047,0.03720*
1,1,0.01024,0.02047,0.03720*
%
%ADD16ROUNDEDRECTD16*%
G04:AMPARAMS|DCode=17|XSize=21.65mil|YSize=19.68mil|CornerRadius=1.97mil|HoleSize=0mil|Usage=FLASHONLY|Rotation=90.000|XOffset=0mil|YOffset=0mil|HoleType=Round|Shape=RoundedRectangle|*
%AMROUNDEDRECTD17*
21,1,0.02165,0.01575,0,0,90.0*
21,1,0.01772,0.01968,0,0,90.0*
1,1,0.00394,0.00787,0.00886*
1,1,0.00394,0.00787,-0.00886*
1,1,0.00394,-0.00787,-0.00886*
1,1,0.00394,-0.00787,0.00886*
%
%ADD17ROUNDEDRECTD17*%
G04:AMPARAMS|DCode=18|XSize=17.72mil|YSize=55.12mil|CornerRadius=2.66mil|HoleSize=0mil|Usage=FLASHONLY|Rotation=0.000|XOffset=0mil|YOffset=0mil|HoleType=Round|Shape=RoundedRectangle|*
%AMROUNDEDRECTD18*
21,1,0.01772,0.04980,0,0,0.0*
21,1,0.01240,0.05512,0,0,0.0*
1,1,0.00532,0.00620,-0.02490*
1,1,0.00532,-0.00620,-0.02490*
1,1,0.00532,-0.00620,0.02490*
1,1,0.00532,0.00620,0.02490*
%
%ADD18ROUNDEDRECTD18*%
G04:AMPARAMS|DCode=19|XSize=25.2mil|YSize=23.62mil|CornerRadius=2.36mil|HoleSize=0mil|Usage=FLASHONLY|Rotation=180.000|XOffset=0mil|YOffset=0mil|HoleType=Round|Shape=RoundedRectangle|*
%AMROUNDEDRECTD19*
21,1,0.02520,0.01890,0,0,180.0*
21,1,0.02047,0.02362,0,0,180.0*
1,1,0.00472,-0.01024,0.00945*
1,1,0.00472,0.01024,0.00945*
1,1,0.00472,0.01024,-0.00945*
1,1,0.00472,-0.01024,-0.00945*
%
%ADD19ROUNDEDRECTD19*%
%ADD20R,0.02165X0.00984*%
G04:AMPARAMS|DCode=21|XSize=25.2mil|YSize=23.62mil|CornerRadius=2.36mil|HoleSize=0mil|Usage=FLASHONLY|Rotation=270.000|XOffset=0mil|YOffset=0mil|HoleType=Round|Shape=RoundedRectangle|*
%AMROUNDEDRECTD21*
21,1,0.02520,0.01890,0,0,270.0*
21,1,0.02047,0.02362,0,0,270.0*
1,1,0.00472,-0.00945,-0.01024*
1,1,0.00472,-0.00945,0.01024*
1,1,0.00472,0.00945,0.01024*
1,1,0.00472,0.00945,-0.01024*
%
%ADD21ROUNDEDRECTD21*%
G04:AMPARAMS|DCode=22|XSize=37.4mil|YSize=39.37mil|CornerRadius=3.74mil|HoleSize=0mil|Usage=FLASHONLY|Rotation=0.000|XOffset=0mil|YOffset=0mil|HoleType=Round|Shape=RoundedRectangle|*
%AMROUNDEDRECTD22*
21,1,0.03740,0.03189,0,0,0.0*
21,1,0.02992,0.03937,0,0,0.0*
1,1,0.00748,0.01496,-0.01595*
1,1,0.00748,-0.01496,-0.01595*
1,1,0.00748,-0.01496,0.01595*
1,1,0.00748,0.01496,0.01595*
%
%ADD22ROUNDEDRECTD22*%
G04:AMPARAMS|DCode=23|XSize=21.65mil|YSize=19.68mil|CornerRadius=1.97mil|HoleSize=0mil|Usage=FLASHONLY|Rotation=180.000|XOffset=0mil|YOffset=0mil|HoleType=Round|Shape=RoundedRectangle|*
%AMROUNDEDRECTD23*
21,1,0.02165,0.01575,0,0,180.0*
21,1,0.01772,0.01968,0,0,180.0*
1,1,0.00394,-0.00886,0.00787*
1,1,0.00394,0.00886,0.00787*
1,1,0.00394,0.00886,-0.00787*
1,1,0.00394,-0.00886,-0.00787*
%
%ADD23ROUNDEDRECTD23*%
%ADD24R,0.00984X0.02165*%
G36*
X372645Y542421D02*
X374272Y541840D01*
X375776Y540989D01*
X377112Y539893D01*
X378241Y538586D01*
X379130Y537105D01*
X379754Y535493D01*
X379923Y534646D01*
X381696Y524768D01*
X381696Y524768D01*
X381883Y523747D01*
X381896Y521673D01*
X381547Y519627D01*
X380846Y517674D01*
X379816Y515873D01*
X378488Y514280D01*
X376902Y512942D01*
X375108Y511901D01*
X373159Y511188D01*
X371116Y510827D01*
X369041Y510827D01*
X366998Y511188D01*
X365050Y511901D01*
X363255Y512942D01*
X361669Y514280D01*
X360341Y515873D01*
X359311Y517674D01*
X358611Y519627D01*
X358262Y521673D01*
X358274Y523747D01*
X358461Y524768D01*
X360236Y534646D01*
X360234Y534646D01*
X360234Y534646D01*
X360404Y535493D01*
X361027Y537105D01*
X361916Y538586D01*
X363046Y539893D01*
X364382Y540989D01*
X365886Y541840D01*
X367512Y542421D01*
X369215Y542717D01*
X370943Y542717D01*
X372645Y542421D01*
D02*
G37*
G36*
X274220D02*
X275847Y541840D01*
X277350Y540989D01*
X278686Y539893D01*
X279816Y538586D01*
X280705Y537105D01*
X281329Y535493D01*
X281498Y534646D01*
X283271Y524768D01*
X283271Y524768D01*
X283458Y523747D01*
X283471Y521673D01*
X283121Y519627D01*
X282421Y517674D01*
X281391Y515873D01*
X280063Y514280D01*
X278477Y512942D01*
X276682Y511901D01*
X274734Y511188D01*
X272691Y510827D01*
X270616Y510827D01*
X268573Y511188D01*
X266624Y511901D01*
X264830Y512942D01*
X263244Y514280D01*
X261916Y515873D01*
X260886Y517674D01*
X260186Y519627D01*
X259836Y521673D01*
X259849Y523747D01*
X260036Y524768D01*
X261811Y534646D01*
X261809Y534646D01*
X261809Y534646D01*
X261979Y535493D01*
X262602Y537105D01*
X263491Y538586D01*
X264621Y539893D01*
X265957Y540989D01*
X267460Y541840D01*
X269087Y542421D01*
X270790Y542717D01*
X272517Y542717D01*
X274220Y542421D01*
D02*
G37*
G36*
X175795D02*
X177421Y541840D01*
X178925Y540989D01*
X180261Y539893D01*
X181391Y538586D01*
X182280Y537105D01*
X182903Y535493D01*
X183073Y534646D01*
X184846Y524768D01*
X184846Y524768D01*
X185033Y523747D01*
X185046Y521673D01*
X184696Y519627D01*
X183996Y517674D01*
X182966Y515873D01*
X181638Y514280D01*
X180052Y512942D01*
X178257Y511901D01*
X176309Y511188D01*
X174266Y510827D01*
X172191Y510827D01*
X170148Y511188D01*
X168199Y511901D01*
X166405Y512942D01*
X164819Y514280D01*
X163491Y515873D01*
X162461Y517674D01*
X161760Y519627D01*
X161411Y521673D01*
X161424Y523747D01*
X161611Y524768D01*
X163386Y534646D01*
X163384Y534646D01*
X163384Y534646D01*
X163553Y535493D01*
X164177Y537105D01*
X165066Y538586D01*
X166195Y539893D01*
X167532Y540989D01*
X169035Y541840D01*
X170662Y542421D01*
X172364Y542717D01*
X174092Y542717D01*
X175795Y542421D01*
D02*
G37*
G36*
X-21056D02*
X-19429Y541840D01*
X-17925Y540989D01*
X-16589Y539893D01*
X-15460Y538586D01*
X-14570Y537105D01*
X-13947Y535493D01*
X-13778Y534646D01*
X-12005Y524768D01*
X-12005Y524768D01*
X-11818Y523747D01*
X-11805Y521673D01*
X-12154Y519627D01*
X-12854Y517674D01*
X-13884Y515873D01*
X-15213Y514280D01*
X-16798Y512942D01*
X-18593Y511901D01*
X-20542Y511188D01*
X-22585Y510827D01*
X-24659Y510827D01*
X-26702Y511188D01*
X-28651Y511901D01*
X-30446Y512942D01*
X-32031Y514280D01*
X-33360Y515873D01*
X-34390Y517674D01*
X-35090Y519627D01*
X-35439Y521673D01*
X-35427Y523747D01*
X-35239Y524768D01*
X-33465Y534646D01*
X-33467Y534646D01*
X-33467Y534646D01*
X-33297Y535493D01*
X-32674Y537105D01*
X-31784Y538586D01*
X-30655Y539893D01*
X-29319Y540989D01*
X-27815Y541840D01*
X-26188Y542421D01*
X-24486Y542717D01*
X-22758Y542717D01*
X-21056Y542421D01*
D02*
G37*
G36*
X-119481D02*
X-117854Y541840D01*
X-116350Y540989D01*
X-115014Y539893D01*
X-113885Y538586D01*
X-112996Y537105D01*
X-112372Y535493D01*
X-112203Y534646D01*
X-110430Y524768D01*
X-110430Y524768D01*
X-110243Y523747D01*
X-110230Y521673D01*
X-110579Y519627D01*
X-111280Y517674D01*
X-112310Y515873D01*
X-113638Y514280D01*
X-115224Y512942D01*
X-117018Y511901D01*
X-118967Y511188D01*
X-121010Y510827D01*
X-123085Y510827D01*
X-125128Y511188D01*
X-127076Y511901D01*
X-128871Y512942D01*
X-130457Y514280D01*
X-131785Y515873D01*
X-132815Y517674D01*
X-133515Y519627D01*
X-133864Y521673D01*
X-133852Y523747D01*
X-133665Y524768D01*
X-131890Y534646D01*
X-131892Y534646D01*
X-131892Y534646D01*
X-131722Y535493D01*
X-131099Y537105D01*
X-130210Y538586D01*
X-129080Y539893D01*
X-127744Y540989D01*
X-126240Y541840D01*
X-124613Y542421D01*
X-122911Y542717D01*
X-121183Y542717D01*
X-119481Y542421D01*
D02*
G37*
G36*
X-217906D02*
X-216279Y541840D01*
X-214776Y540989D01*
X-213439Y539893D01*
X-212310Y538586D01*
X-211421Y537105D01*
X-210798Y535493D01*
X-210628Y534646D01*
X-208855Y524768D01*
X-208855Y524768D01*
X-208668Y523747D01*
X-208655Y521673D01*
X-209004Y519627D01*
X-209705Y517674D01*
X-210735Y515873D01*
X-212063Y514280D01*
X-213649Y512942D01*
X-215443Y511901D01*
X-217392Y511188D01*
X-219435Y510827D01*
X-221510Y510827D01*
X-223553Y511188D01*
X-225501Y511901D01*
X-227296Y512942D01*
X-228882Y514280D01*
X-230210Y515873D01*
X-231240Y517674D01*
X-231940Y519627D01*
X-232290Y521673D01*
X-232277Y523747D01*
X-232090Y524768D01*
X-230315Y534646D01*
X-230317Y534646D01*
X-230317Y534646D01*
X-230147Y535493D01*
X-229524Y537105D01*
X-228635Y538586D01*
X-227505Y539893D01*
X-226169Y540989D01*
X-224666Y541840D01*
X-223039Y542421D01*
X-221336Y542717D01*
X-219609Y542717D01*
X-217906Y542421D01*
D02*
G37*
G36*
X77369Y542421D02*
X78996Y541840D01*
X80500Y540989D01*
X81836Y539893D01*
X82965Y538586D01*
X83855Y537105D01*
X84478Y535493D01*
X84648Y534646D01*
X86421Y524768D01*
X86421Y524768D01*
X86608Y523747D01*
X86620Y521673D01*
X86271Y519627D01*
X85571Y517674D01*
X84541Y515873D01*
X83213Y514280D01*
X81627Y512942D01*
X79832Y511901D01*
X77883Y511188D01*
X75841Y510827D01*
X73766Y510827D01*
X71723Y511188D01*
X69774Y511901D01*
X67980Y512942D01*
X66394Y514280D01*
X65066Y515873D01*
X64035Y517674D01*
X63335Y519627D01*
X62986Y521673D01*
X62999Y523747D01*
X63186Y524768D01*
X64961Y534646D01*
X64959Y534646D01*
X64959Y534646D01*
X65128Y535493D01*
X65751Y537105D01*
X66641Y538586D01*
X67770Y539893D01*
X69106Y540989D01*
X70610Y541840D01*
X72237Y542421D01*
X73939Y542717D01*
X75667Y542717D01*
X77369Y542421D01*
D02*
G37*
G36*
X-256972Y512614D02*
X-255180Y511872D01*
X-253568Y510795D01*
X-252197Y509424D01*
X-251120Y507812D01*
X-250378Y506020D01*
X-250000Y504119D01*
Y503150D01*
Y502180D01*
X-250378Y500279D01*
X-251120Y498487D01*
X-252197Y496875D01*
X-253568Y495504D01*
X-255180Y494427D01*
X-256972Y493685D01*
X-258873Y493307D01*
X-260812D01*
X-262714Y493685D01*
X-264505Y494427D01*
X-266117Y495504D01*
X-267488Y496875D01*
X-268565Y498487D01*
X-269307Y500279D01*
X-269685Y502180D01*
Y503150D01*
Y504119D01*
X-269307Y506020D01*
X-268565Y507812D01*
X-267488Y509424D01*
X-266117Y510795D01*
X-264505Y511872D01*
X-262714Y512614D01*
X-260812Y512992D01*
X-258873D01*
X-256972Y512614D01*
D02*
G37*
G36*
Y197653D02*
X-255180Y196911D01*
X-253568Y195834D01*
X-252197Y194463D01*
X-251120Y192851D01*
X-250378Y191060D01*
X-250000Y189158D01*
Y188189D01*
Y187220D01*
X-250378Y185318D01*
X-251120Y183527D01*
X-252197Y181915D01*
X-253568Y180544D01*
X-255180Y179467D01*
X-256972Y178725D01*
X-258873Y178347D01*
X-260812D01*
X-262714Y178725D01*
X-264505Y179467D01*
X-266117Y180544D01*
X-267488Y181915D01*
X-268565Y183527D01*
X-269307Y185318D01*
X-269685Y187220D01*
Y188189D01*
Y189158D01*
X-269307Y191060D01*
X-268565Y192851D01*
X-267488Y194463D01*
X-266117Y195834D01*
X-264505Y196911D01*
X-262714Y197653D01*
X-260812Y198031D01*
X-258873D01*
X-256972Y197653D01*
D02*
G37*
G36*
X60527Y44344D02*
X59459Y43276D01*
X56394D01*
X56395Y49180D01*
X60527D01*
X60527Y44344D01*
D02*
G37*
G36*
X407613Y-104206D02*
X407849Y-104232D01*
X408138Y-104259D01*
X408427Y-104311D01*
X408768Y-104390D01*
X409476Y-104574D01*
X409843Y-104705D01*
X410211Y-104862D01*
X410604Y-105046D01*
X410972Y-105282D01*
X411313Y-105518D01*
X411654Y-105807D01*
X411680Y-105833D01*
X411733Y-105886D01*
X411811Y-105964D01*
X411916Y-106096D01*
X412048Y-106253D01*
X412205Y-106437D01*
X412362Y-106647D01*
X412520Y-106909D01*
X412835Y-107460D01*
X413123Y-108116D01*
X413228Y-108483D01*
X413307Y-108851D01*
X413360Y-109244D01*
X413386Y-109664D01*
Y-109874D01*
X413360Y-110005D01*
X413333Y-110189D01*
X413307Y-110399D01*
X413202Y-110897D01*
X413019Y-111448D01*
X412887Y-111763D01*
X412730Y-112052D01*
X412572Y-112367D01*
X412362Y-112655D01*
X412126Y-112944D01*
X411864Y-113233D01*
X411838Y-113259D01*
X411785Y-113285D01*
X411706Y-113364D01*
X411575Y-113469D01*
X411444Y-113574D01*
X411234Y-113705D01*
X411024Y-113836D01*
X410788Y-113968D01*
X410499Y-114125D01*
X410185Y-114256D01*
X409870Y-114387D01*
X409502Y-114518D01*
X409109Y-114650D01*
X408689Y-114728D01*
X408243Y-114807D01*
X407770Y-114860D01*
X407456Y-112865D01*
X407508D01*
X407613Y-112839D01*
X407823Y-112787D01*
X408059Y-112734D01*
X408374Y-112655D01*
X408689Y-112550D01*
X409056Y-112393D01*
X409397Y-112236D01*
X409765Y-112052D01*
X410132Y-111842D01*
X410447Y-111580D01*
X410762Y-111291D01*
X410998Y-110950D01*
X411208Y-110582D01*
X411313Y-110163D01*
X411365Y-109717D01*
Y-109585D01*
X411339Y-109480D01*
X411313Y-109218D01*
X411208Y-108903D01*
X411077Y-108510D01*
X410867Y-108116D01*
X410578Y-107722D01*
X410421Y-107512D01*
X410211Y-107329D01*
X410185D01*
X410158Y-107276D01*
X410001Y-107171D01*
X409738Y-107014D01*
X409397Y-106804D01*
X408978Y-106620D01*
X408453Y-106463D01*
X407875Y-106358D01*
X407219Y-106305D01*
X407193D01*
X407141D01*
X407062D01*
X406931Y-106332D01*
X406773D01*
X406616Y-106358D01*
X406196Y-106410D01*
X405750Y-106542D01*
X405304Y-106699D01*
X404832Y-106935D01*
X404412Y-107250D01*
X404359Y-107302D01*
X404254Y-107407D01*
X404071Y-107617D01*
X403861Y-107880D01*
X403677Y-108195D01*
X403493Y-108588D01*
X403388Y-109034D01*
X403336Y-109507D01*
Y-109612D01*
X403362Y-109743D01*
Y-109900D01*
X403415Y-110110D01*
X403467Y-110346D01*
X403520Y-110609D01*
X403624Y-110924D01*
X401473Y-110687D01*
X401525Y-110373D01*
Y-110241D01*
X401499Y-110136D01*
X401473Y-109848D01*
X401420Y-109507D01*
X401289Y-109139D01*
X401132Y-108746D01*
X400922Y-108326D01*
X400607Y-107958D01*
X400555Y-107906D01*
X400450Y-107801D01*
X400240Y-107670D01*
X399951Y-107486D01*
X399610Y-107302D01*
X399190Y-107171D01*
X398718Y-107066D01*
X398167Y-107014D01*
X398140D01*
X398114D01*
X398035D01*
X397931D01*
X397694Y-107066D01*
X397353Y-107119D01*
X397012Y-107198D01*
X396645Y-107355D01*
X396277Y-107539D01*
X395936Y-107801D01*
X395910Y-107827D01*
X395805Y-107932D01*
X395674Y-108116D01*
X395490Y-108326D01*
X395333Y-108615D01*
X395201Y-108929D01*
X395096Y-109297D01*
X395070Y-109690D01*
Y-109874D01*
X395123Y-110110D01*
X395175Y-110373D01*
X395280Y-110687D01*
X395438Y-111002D01*
X395674Y-111344D01*
X395963Y-111658D01*
X396015Y-111685D01*
X396120Y-111790D01*
X396330Y-111921D01*
X396645Y-112078D01*
X397012Y-112236D01*
X397484Y-112419D01*
X398035Y-112550D01*
X398665Y-112655D01*
X398219Y-114650D01*
X398193D01*
X398114Y-114623D01*
X397983Y-114597D01*
X397799Y-114571D01*
X397589Y-114518D01*
X397353Y-114466D01*
X397065Y-114387D01*
X396776Y-114309D01*
X396146Y-114072D01*
X395516Y-113784D01*
X394913Y-113416D01*
X394624Y-113207D01*
X394362Y-112970D01*
X394336Y-112944D01*
X394309Y-112918D01*
X394231Y-112839D01*
X394152Y-112734D01*
X394047Y-112603D01*
X393942Y-112446D01*
X393706Y-112052D01*
X393470Y-111606D01*
X393260Y-111055D01*
X393102Y-110425D01*
X393076Y-110084D01*
X393050Y-109743D01*
Y-109559D01*
X393076Y-109402D01*
X393102Y-109244D01*
X393128Y-109034D01*
X393233Y-108562D01*
X393417Y-108037D01*
X393680Y-107460D01*
X393837Y-107198D01*
X394021Y-106909D01*
X394257Y-106620D01*
X394519Y-106358D01*
X394546Y-106332D01*
X394598Y-106305D01*
X394677Y-106227D01*
X394782Y-106148D01*
X394939Y-106043D01*
X395096Y-105912D01*
X395306Y-105781D01*
X395543Y-105649D01*
X396067Y-105413D01*
X396697Y-105177D01*
X397432Y-105020D01*
X397799Y-104993D01*
X398219Y-104967D01*
X398245D01*
X398272D01*
X398350D01*
X398455D01*
X398718Y-104993D01*
X399032Y-105046D01*
X399400Y-105125D01*
X399820Y-105230D01*
X400240Y-105361D01*
X400633Y-105571D01*
X400686Y-105597D01*
X400791Y-105676D01*
X401001Y-105807D01*
X401210Y-105991D01*
X401473Y-106227D01*
X401761Y-106489D01*
X402024Y-106830D01*
X402260Y-107198D01*
Y-107145D01*
X402313Y-107040D01*
X402391Y-106856D01*
X402470Y-106620D01*
X402601Y-106384D01*
X402759Y-106122D01*
X402969Y-105833D01*
X403179Y-105597D01*
X403205Y-105571D01*
X403283Y-105492D01*
X403415Y-105387D01*
X403598Y-105230D01*
X403834Y-105072D01*
X404123Y-104888D01*
X404464Y-104731D01*
X404832Y-104574D01*
X404884Y-104547D01*
X405015Y-104521D01*
X405225Y-104442D01*
X405514Y-104364D01*
X405855Y-104311D01*
X406249Y-104232D01*
X406695Y-104206D01*
X407167Y-104180D01*
X407193D01*
X407298D01*
X407429D01*
X407613Y-104206D01*
D02*
G37*
G36*
X400187Y-117457D02*
Y-118691D01*
X396461Y-119189D01*
X393128D01*
Y-116906D01*
X396461D01*
X400187Y-117457D01*
D02*
G37*
G36*
X413045Y-126746D02*
Y-128977D01*
X393128Y-135301D01*
Y-132939D01*
X407613Y-128714D01*
X407639D01*
X407692Y-128688D01*
X407770Y-128662D01*
X407902Y-128636D01*
X408059Y-128583D01*
X408217Y-128531D01*
X408636Y-128426D01*
X409135Y-128295D01*
X409686Y-128137D01*
X410263Y-127980D01*
X410867Y-127848D01*
X410841D01*
X410788Y-127822D01*
X410709Y-127796D01*
X410578Y-127770D01*
X410447Y-127743D01*
X410263Y-127691D01*
X409843Y-127586D01*
X409345Y-127455D01*
X408794Y-127324D01*
X408217Y-127166D01*
X407613Y-126982D01*
X393128Y-122548D01*
Y-120370D01*
X413045Y-126746D01*
D02*
G37*
G36*
X-256972Y-117307D02*
X-255180Y-118049D01*
X-253568Y-119126D01*
X-252197Y-120497D01*
X-251120Y-122109D01*
X-250378Y-123901D01*
X-250000Y-125802D01*
Y-126772D01*
Y-127741D01*
X-250378Y-129643D01*
X-251120Y-131434D01*
X-252197Y-133046D01*
X-253568Y-134417D01*
X-255180Y-135494D01*
X-256972Y-136236D01*
X-258873Y-136614D01*
X-260812D01*
X-262714Y-136236D01*
X-264505Y-135494D01*
X-266117Y-134417D01*
X-267488Y-133046D01*
X-268565Y-131434D01*
X-269307Y-129643D01*
X-269685Y-127741D01*
Y-126772D01*
Y-125802D01*
X-269307Y-123901D01*
X-268565Y-122109D01*
X-267488Y-120497D01*
X-266117Y-119126D01*
X-264505Y-118049D01*
X-262714Y-117307D01*
X-260812Y-116929D01*
X-258873D01*
X-256972Y-117307D01*
D02*
G37*
G36*
X413045Y-153721D02*
X413019D01*
X412992D01*
X412914D01*
X412782D01*
X412651Y-153695D01*
X412494D01*
X412126Y-153642D01*
X411654Y-153537D01*
X411103Y-153380D01*
X410499Y-153170D01*
X409870Y-152881D01*
X409843D01*
X409791Y-152829D01*
X409686Y-152776D01*
X409555Y-152698D01*
X409371Y-152593D01*
X409187Y-152462D01*
X408951Y-152304D01*
X408689Y-152120D01*
X408374Y-151910D01*
X408059Y-151674D01*
X407718Y-151412D01*
X407351Y-151097D01*
X406957Y-150756D01*
X406563Y-150415D01*
X406144Y-149995D01*
X405697Y-149575D01*
X405671Y-149549D01*
X405566Y-149444D01*
X405435Y-149313D01*
X405225Y-149129D01*
X404989Y-148893D01*
X404727Y-148630D01*
X404438Y-148368D01*
X404097Y-148053D01*
X403415Y-147450D01*
X402680Y-146846D01*
X402339Y-146558D01*
X401998Y-146295D01*
X401657Y-146085D01*
X401368Y-145902D01*
X401342D01*
X401289Y-145875D01*
X401210Y-145823D01*
X401105Y-145770D01*
X400817Y-145613D01*
X400450Y-145456D01*
X400003Y-145298D01*
X399531Y-145141D01*
X399006Y-145036D01*
X398508Y-145009D01*
X398481D01*
X398429D01*
X398350D01*
X398245D01*
X397983Y-145062D01*
X397616Y-145114D01*
X397248Y-145219D01*
X396828Y-145377D01*
X396409Y-145613D01*
X396041Y-145902D01*
X395989Y-145954D01*
X395884Y-146059D01*
X395726Y-146243D01*
X395543Y-146505D01*
X395385Y-146820D01*
X395228Y-147187D01*
X395123Y-147607D01*
X395070Y-148080D01*
Y-148211D01*
X395096Y-148316D01*
X395123Y-148578D01*
X395201Y-148893D01*
X395333Y-149234D01*
X395516Y-149628D01*
X395779Y-149995D01*
X396120Y-150362D01*
X396172Y-150389D01*
X396304Y-150494D01*
X396540Y-150651D01*
X396881Y-150808D01*
X397274Y-150966D01*
X397799Y-151123D01*
X398376Y-151228D01*
X399059Y-151254D01*
X398796Y-153328D01*
X398770D01*
X398665D01*
X398534Y-153301D01*
X398324Y-153275D01*
X398088Y-153223D01*
X397826Y-153196D01*
X397511Y-153118D01*
X397196Y-153039D01*
X396514Y-152855D01*
X395805Y-152567D01*
X395123Y-152199D01*
X394808Y-151963D01*
X394519Y-151727D01*
X394493Y-151701D01*
X394467Y-151648D01*
X394388Y-151569D01*
X394283Y-151464D01*
X394178Y-151333D01*
X394047Y-151150D01*
X393916Y-150966D01*
X393784Y-150730D01*
X393653Y-150467D01*
X393522Y-150205D01*
X393286Y-149575D01*
X393102Y-148840D01*
X393076Y-148447D01*
X393050Y-148027D01*
Y-147791D01*
X393076Y-147607D01*
X393102Y-147397D01*
X393128Y-147161D01*
X393260Y-146610D01*
X393470Y-146007D01*
X393601Y-145692D01*
X393758Y-145377D01*
X393968Y-145062D01*
X394204Y-144773D01*
X394467Y-144511D01*
X394755Y-144248D01*
X394782Y-144222D01*
X394834Y-144196D01*
X394913Y-144117D01*
X395044Y-144038D01*
X395201Y-143960D01*
X395411Y-143829D01*
X395621Y-143724D01*
X395858Y-143592D01*
X396435Y-143356D01*
X397091Y-143173D01*
X397799Y-143015D01*
X398193Y-142989D01*
X398587Y-142963D01*
X398613D01*
X398665D01*
X398770D01*
X398901Y-142989D01*
X399085D01*
X399269Y-143015D01*
X399505Y-143041D01*
X399741Y-143094D01*
X400318Y-143199D01*
X400922Y-143383D01*
X401578Y-143645D01*
X402234Y-143986D01*
X402260D01*
X402313Y-144038D01*
X402418Y-144091D01*
X402549Y-144196D01*
X402732Y-144301D01*
X402942Y-144458D01*
X403179Y-144616D01*
X403467Y-144826D01*
X403782Y-145088D01*
X404123Y-145351D01*
X404517Y-145665D01*
X404910Y-146007D01*
X405356Y-146400D01*
X405829Y-146820D01*
X406354Y-147292D01*
X406878Y-147791D01*
X406905Y-147817D01*
X406957Y-147870D01*
X407062Y-147948D01*
X407167Y-148080D01*
X407482Y-148394D01*
X407875Y-148735D01*
X408269Y-149129D01*
X408689Y-149523D01*
X409056Y-149838D01*
X409240Y-149995D01*
X409371Y-150100D01*
X409397Y-150126D01*
X409476Y-150179D01*
X409607Y-150284D01*
X409791Y-150389D01*
X409975Y-150546D01*
X410211Y-150677D01*
X410683Y-150940D01*
Y-142936D01*
X413045D01*
Y-153721D01*
D02*
G37*
G36*
Y-157027D02*
X408584Y-159494D01*
X407377Y-160097D01*
X413045Y-163220D01*
Y-165634D01*
X405540Y-161331D01*
X398613Y-165293D01*
Y-162826D01*
X401998Y-161016D01*
X402050Y-160990D01*
X402155Y-160937D01*
X402339Y-160832D01*
X402549Y-160701D01*
X402811Y-160570D01*
X403074Y-160439D01*
X403336Y-160307D01*
X403598Y-160176D01*
X403546Y-160150D01*
X403441Y-160097D01*
X403283Y-159992D01*
X403074Y-159888D01*
X402837Y-159730D01*
X402575Y-159599D01*
X402050Y-159284D01*
X398613Y-157316D01*
Y-154902D01*
X405409Y-158969D01*
X413045Y-154561D01*
Y-157027D01*
D02*
G37*
G36*
Y-169413D02*
X398613D01*
Y-167418D01*
X413045D01*
Y-169413D01*
D02*
G37*
G36*
X395936D02*
X393128D01*
Y-167418D01*
X395936D01*
Y-169413D01*
D02*
G37*
G36*
X413045Y-174477D02*
X404281D01*
X404254D01*
X404202D01*
X404123D01*
X404018D01*
X403729Y-174503D01*
X403388D01*
X402995Y-174556D01*
X402627Y-174608D01*
X402260Y-174661D01*
X401945Y-174766D01*
X401919D01*
X401814Y-174818D01*
X401683Y-174871D01*
X401525Y-174976D01*
X401342Y-175080D01*
X401158Y-175238D01*
X400974Y-175395D01*
X400817Y-175605D01*
X400791Y-175631D01*
X400738Y-175710D01*
X400686Y-175815D01*
X400607Y-175999D01*
X400528Y-176182D01*
X400450Y-176419D01*
X400423Y-176655D01*
X400397Y-176944D01*
Y-177075D01*
X400423Y-177180D01*
X400450Y-177442D01*
X400528Y-177783D01*
X400659Y-178150D01*
X400843Y-178518D01*
X401105Y-178911D01*
X401473Y-179253D01*
X401525Y-179279D01*
X401578Y-179331D01*
X401683Y-179384D01*
X401814Y-179436D01*
X401945Y-179515D01*
X402129Y-179594D01*
X402339Y-179672D01*
X402575Y-179751D01*
X402837Y-179830D01*
X403152Y-179909D01*
X403493Y-179961D01*
X403861Y-180014D01*
X404254Y-180066D01*
X404700Y-180092D01*
X405173D01*
X413045D01*
Y-182087D01*
X398613D01*
Y-180276D01*
X400633D01*
X400607Y-180250D01*
X400476Y-180171D01*
X400266Y-180014D01*
X400003Y-179830D01*
X399715Y-179620D01*
X399426Y-179358D01*
X399137Y-179043D01*
X398901Y-178702D01*
X398875Y-178649D01*
X398796Y-178544D01*
X398718Y-178334D01*
X398587Y-178072D01*
X398481Y-177757D01*
X398403Y-177390D01*
X398324Y-176970D01*
X398298Y-176524D01*
Y-176366D01*
X398324Y-176182D01*
X398350Y-175946D01*
X398403Y-175684D01*
X398455Y-175395D01*
X398560Y-175080D01*
X398691Y-174792D01*
X398718Y-174766D01*
X398770Y-174661D01*
X398849Y-174503D01*
X398954Y-174320D01*
X399085Y-174110D01*
X399242Y-173900D01*
X399452Y-173690D01*
X399662Y-173480D01*
X399689Y-173454D01*
X399767Y-173401D01*
X399899Y-173296D01*
X400082Y-173191D01*
X400318Y-173086D01*
X400581Y-172955D01*
X400896Y-172850D01*
X401237Y-172745D01*
X401289D01*
X401420Y-172693D01*
X401630Y-172666D01*
X401971Y-172614D01*
X402365Y-172561D01*
X402890Y-172535D01*
X403493Y-172483D01*
X404202D01*
X413045D01*
Y-174477D01*
D02*
G37*
G36*
X383530Y-174661D02*
X381457D01*
X381509Y-174687D01*
X381667Y-174792D01*
X381877Y-174923D01*
X382139Y-175133D01*
X382428Y-175369D01*
X382716Y-175658D01*
X383005Y-175973D01*
X383268Y-176314D01*
X383294Y-176366D01*
X383372Y-176471D01*
X383451Y-176655D01*
X383556Y-176917D01*
X383687Y-177232D01*
X383766Y-177573D01*
X383845Y-177993D01*
X383871Y-178413D01*
Y-178649D01*
X383819Y-178911D01*
X383766Y-179253D01*
X383687Y-179620D01*
X383556Y-180040D01*
X383372Y-180433D01*
X383136Y-180827D01*
X383110Y-180879D01*
X383005Y-180984D01*
X382821Y-181142D01*
X382612Y-181352D01*
X382323Y-181562D01*
X382008Y-181798D01*
X381641Y-181982D01*
X381221Y-182139D01*
X381195D01*
X381168D01*
X381011Y-182192D01*
X380749Y-182244D01*
X380381Y-182296D01*
X379935Y-182349D01*
X379410Y-182401D01*
X378781Y-182428D01*
X378072Y-182454D01*
X369098D01*
Y-180460D01*
X377127D01*
X377154D01*
X377232D01*
X377337D01*
X377495D01*
X377678D01*
X377862D01*
X378334Y-180433D01*
X378833Y-180407D01*
X379332Y-180381D01*
X379778Y-180328D01*
X379961Y-180276D01*
X380119Y-180250D01*
X380145D01*
X380250Y-180197D01*
X380381Y-180145D01*
X380565Y-180066D01*
X380749Y-179935D01*
X380958Y-179804D01*
X381142Y-179620D01*
X381326Y-179410D01*
X381352Y-179384D01*
X381404Y-179305D01*
X381457Y-179174D01*
X381536Y-179016D01*
X381641Y-178806D01*
X381693Y-178570D01*
X381746Y-178334D01*
X381772Y-178046D01*
Y-177914D01*
X381746Y-177809D01*
X381719Y-177547D01*
X381614Y-177206D01*
X381483Y-176839D01*
X381273Y-176445D01*
X380985Y-176051D01*
X380801Y-175868D01*
X380591Y-175684D01*
X380539Y-175658D01*
X380486Y-175605D01*
X380381Y-175553D01*
X380276Y-175500D01*
X380119Y-175422D01*
X379935Y-175343D01*
X379751Y-175264D01*
X379489Y-175212D01*
X379227Y-175133D01*
X378938Y-175054D01*
X378597Y-175002D01*
X378203Y-174949D01*
X377810Y-174897D01*
X377364Y-174871D01*
X376865D01*
X369098D01*
Y-172876D01*
X383530D01*
Y-174661D01*
D02*
G37*
G36*
X406459Y-193370D02*
X406485D01*
X406563D01*
X406695Y-193343D01*
X406852D01*
X407062Y-193317D01*
X407298Y-193291D01*
X407823Y-193186D01*
X408427Y-193055D01*
X409030Y-192871D01*
X409607Y-192609D01*
X409896Y-192451D01*
X410132Y-192268D01*
X410185Y-192215D01*
X410316Y-192084D01*
X410526Y-191874D01*
X410736Y-191585D01*
X410972Y-191218D01*
X411182Y-190798D01*
X411313Y-190326D01*
X411339Y-190090D01*
X411365Y-189827D01*
Y-189722D01*
X411339Y-189617D01*
X411313Y-189460D01*
X411287Y-189276D01*
X411208Y-189066D01*
X411129Y-188830D01*
X410998Y-188594D01*
X410841Y-188332D01*
X410631Y-188069D01*
X410394Y-187807D01*
X410106Y-187544D01*
X409765Y-187308D01*
X409371Y-187072D01*
X408925Y-186862D01*
X408400Y-186679D01*
X408715Y-184606D01*
X408741D01*
X408820Y-184632D01*
X408925Y-184658D01*
X409109Y-184711D01*
X409292Y-184763D01*
X409528Y-184842D01*
X410027Y-185025D01*
X410604Y-185288D01*
X411182Y-185629D01*
X411733Y-186022D01*
X411995Y-186259D01*
X412231Y-186495D01*
Y-186521D01*
X412284Y-186547D01*
X412336Y-186626D01*
X412415Y-186731D01*
X412494Y-186862D01*
X412599Y-187020D01*
X412809Y-187413D01*
X413019Y-187886D01*
X413202Y-188463D01*
X413333Y-189119D01*
X413360Y-189460D01*
X413386Y-189827D01*
Y-189932D01*
X413360Y-190064D01*
Y-190247D01*
X413333Y-190457D01*
X413281Y-190693D01*
X413228Y-190982D01*
X413150Y-191270D01*
X413045Y-191585D01*
X412914Y-191927D01*
X412782Y-192268D01*
X412599Y-192609D01*
X412362Y-192950D01*
X412126Y-193265D01*
X411838Y-193606D01*
X411497Y-193895D01*
X411470Y-193921D01*
X411418Y-193973D01*
X411287Y-194026D01*
X411129Y-194131D01*
X410946Y-194262D01*
X410709Y-194393D01*
X410421Y-194524D01*
X410080Y-194656D01*
X409712Y-194813D01*
X409319Y-194944D01*
X408846Y-195075D01*
X408374Y-195206D01*
X407823Y-195311D01*
X407246Y-195364D01*
X406642Y-195416D01*
X405986Y-195443D01*
X405934D01*
X405829D01*
X405619D01*
X405356Y-195416D01*
X405068Y-195390D01*
X404700Y-195364D01*
X404307Y-195311D01*
X403861Y-195259D01*
X402942Y-195075D01*
X402470Y-194944D01*
X401998Y-194787D01*
X401525Y-194603D01*
X401079Y-194393D01*
X400659Y-194157D01*
X400266Y-193895D01*
X400240Y-193868D01*
X400187Y-193816D01*
X400082Y-193737D01*
X399951Y-193606D01*
X399820Y-193448D01*
X399636Y-193265D01*
X399452Y-193055D01*
X399269Y-192792D01*
X399085Y-192530D01*
X398928Y-192215D01*
X398613Y-191559D01*
X398481Y-191166D01*
X398376Y-190772D01*
X398324Y-190352D01*
X398298Y-189906D01*
Y-189696D01*
X398324Y-189512D01*
X398350Y-189329D01*
X398403Y-189093D01*
X398455Y-188856D01*
X398534Y-188568D01*
X398639Y-188279D01*
X398770Y-187964D01*
X398928Y-187649D01*
X399111Y-187335D01*
X399347Y-187020D01*
X399610Y-186705D01*
X399899Y-186390D01*
X400240Y-186101D01*
X400266Y-186075D01*
X400318Y-186022D01*
X400450Y-185970D01*
X400607Y-185865D01*
X400791Y-185734D01*
X401027Y-185603D01*
X401315Y-185471D01*
X401657Y-185314D01*
X402024Y-185183D01*
X402444Y-185052D01*
X402916Y-184920D01*
X403415Y-184789D01*
X403939Y-184684D01*
X404543Y-184632D01*
X405173Y-184579D01*
X405829Y-184553D01*
X406459D01*
Y-193370D01*
D02*
G37*
G36*
X374530Y-185025D02*
X374950Y-185052D01*
X375422Y-185078D01*
X375973Y-185104D01*
X376524Y-185157D01*
X377127Y-185235D01*
X377757Y-185340D01*
X379017Y-185576D01*
X379646Y-185734D01*
X380224Y-185918D01*
X380775Y-186127D01*
X381300Y-186364D01*
X381326Y-186390D01*
X381404Y-186416D01*
X381536Y-186495D01*
X381693Y-186626D01*
X381903Y-186757D01*
X382113Y-186915D01*
X382349Y-187125D01*
X382585Y-187361D01*
X382821Y-187623D01*
X383058Y-187912D01*
X383268Y-188253D01*
X383477Y-188620D01*
X383635Y-188988D01*
X383766Y-189408D01*
X383845Y-189880D01*
X383871Y-190352D01*
Y-190457D01*
X383845Y-190562D01*
Y-190746D01*
X383792Y-190929D01*
X383740Y-191166D01*
X383687Y-191428D01*
X383582Y-191690D01*
X383477Y-191979D01*
X383320Y-192294D01*
X383136Y-192609D01*
X382926Y-192924D01*
X382664Y-193238D01*
X382349Y-193553D01*
X382008Y-193868D01*
X381614Y-194157D01*
X381588Y-194183D01*
X381509Y-194209D01*
X381378Y-194288D01*
X381168Y-194393D01*
X380906Y-194498D01*
X380591Y-194629D01*
X380224Y-194760D01*
X379778Y-194892D01*
X379253Y-195023D01*
X378676Y-195154D01*
X378046Y-195285D01*
X377311Y-195390D01*
X376524Y-195495D01*
X375658Y-195574D01*
X374740Y-195600D01*
X373716Y-195626D01*
X373690D01*
X373664D01*
X373585D01*
X373506D01*
X373244D01*
X372903Y-195600D01*
X372483Y-195574D01*
X371984Y-195548D01*
X371460Y-195521D01*
X370882Y-195469D01*
X370279Y-195390D01*
X369649Y-195311D01*
X368390Y-195049D01*
X367786Y-194918D01*
X367209Y-194734D01*
X366631Y-194524D01*
X366133Y-194288D01*
X366107Y-194262D01*
X366028Y-194236D01*
X365897Y-194157D01*
X365713Y-194026D01*
X365529Y-193895D01*
X365319Y-193737D01*
X365083Y-193527D01*
X364821Y-193291D01*
X364585Y-193029D01*
X364349Y-192714D01*
X364139Y-192399D01*
X363929Y-192032D01*
X363771Y-191664D01*
X363640Y-191218D01*
X363561Y-190772D01*
X363535Y-190300D01*
Y-190090D01*
X363561Y-189906D01*
X363588Y-189722D01*
X363640Y-189486D01*
X363797Y-188961D01*
X363902Y-188699D01*
X364034Y-188384D01*
X364217Y-188069D01*
X364427Y-187781D01*
X364663Y-187466D01*
X364952Y-187177D01*
X365267Y-186888D01*
X365634Y-186626D01*
X365661Y-186600D01*
X365766Y-186547D01*
X365897Y-186469D01*
X366107Y-186364D01*
X366395Y-186259D01*
X366736Y-186101D01*
X367130Y-185970D01*
X367602Y-185813D01*
X368127Y-185655D01*
X368731Y-185524D01*
X369387Y-185366D01*
X370121Y-185262D01*
X370908Y-185157D01*
X371774Y-185078D01*
X372719Y-185025D01*
X373716Y-184999D01*
X373742D01*
X373769D01*
X373847D01*
X373926D01*
X374188D01*
X374530Y-185025D01*
D02*
G37*
G36*
X406327Y-197148D02*
X406668Y-197175D01*
X407036Y-197201D01*
X407429Y-197253D01*
X407875Y-197306D01*
X408820Y-197516D01*
X409292Y-197621D01*
X409791Y-197778D01*
X410237Y-197962D01*
X410709Y-198172D01*
X411103Y-198408D01*
X411497Y-198696D01*
X411523Y-198723D01*
X411575Y-198775D01*
X411680Y-198854D01*
X411785Y-198985D01*
X411943Y-199116D01*
X412100Y-199300D01*
X412257Y-199536D01*
X412441Y-199772D01*
X412625Y-200035D01*
X412782Y-200350D01*
X412940Y-200664D01*
X413097Y-201032D01*
X413202Y-201399D01*
X413307Y-201793D01*
X413360Y-202213D01*
X413386Y-202659D01*
Y-202764D01*
X413360Y-202895D01*
Y-203052D01*
X413333Y-203262D01*
X413281Y-203498D01*
X413228Y-203761D01*
X413150Y-204049D01*
X413045Y-204364D01*
X412914Y-204679D01*
X412782Y-204994D01*
X412599Y-205335D01*
X412362Y-205676D01*
X412126Y-205991D01*
X411838Y-206306D01*
X411497Y-206621D01*
X411470Y-206647D01*
X411418Y-206700D01*
X411287Y-206778D01*
X411129Y-206857D01*
X410946Y-206988D01*
X410683Y-207119D01*
X410394Y-207251D01*
X410080Y-207408D01*
X409686Y-207566D01*
X409266Y-207697D01*
X408820Y-207828D01*
X408295Y-207959D01*
X407770Y-208038D01*
X407167Y-208117D01*
X406537Y-208169D01*
X405855Y-208195D01*
X405802D01*
X405697D01*
X405488D01*
X405251Y-208169D01*
X404937Y-208143D01*
X404569Y-208117D01*
X404176Y-208064D01*
X403756Y-208012D01*
X402837Y-207828D01*
X402365Y-207697D01*
X401893Y-207539D01*
X401447Y-207356D01*
X401001Y-207146D01*
X400581Y-206910D01*
X400213Y-206647D01*
X400187Y-206621D01*
X400135Y-206568D01*
X400030Y-206490D01*
X399925Y-206359D01*
X399767Y-206201D01*
X399610Y-206017D01*
X399426Y-205807D01*
X399242Y-205545D01*
X399085Y-205283D01*
X398901Y-204968D01*
X398587Y-204312D01*
X398481Y-203918D01*
X398376Y-203525D01*
X398324Y-203105D01*
X398298Y-202659D01*
Y-202422D01*
X398324Y-202265D01*
X398350Y-202055D01*
X398403Y-201845D01*
X398455Y-201583D01*
X398534Y-201294D01*
X398639Y-200979D01*
X398770Y-200664D01*
X398928Y-200350D01*
X399111Y-200008D01*
X399321Y-199667D01*
X399584Y-199352D01*
X399872Y-199038D01*
X400213Y-198723D01*
X400240Y-198696D01*
X400292Y-198644D01*
X400423Y-198565D01*
X400555Y-198460D01*
X400764Y-198355D01*
X401001Y-198224D01*
X401289Y-198067D01*
X401604Y-197909D01*
X401971Y-197778D01*
X402391Y-197621D01*
X402837Y-197489D01*
X403336Y-197358D01*
X403861Y-197280D01*
X404438Y-197201D01*
X405042Y-197148D01*
X405697Y-197122D01*
X405750D01*
X405855D01*
X406065D01*
X406327Y-197148D01*
D02*
G37*
G36*
X374530Y-197699D02*
X374950Y-197726D01*
X375422Y-197752D01*
X375973Y-197778D01*
X376524Y-197830D01*
X377127Y-197909D01*
X377757Y-198014D01*
X379017Y-198250D01*
X379646Y-198408D01*
X380224Y-198591D01*
X380775Y-198801D01*
X381300Y-199038D01*
X381326Y-199064D01*
X381404Y-199090D01*
X381536Y-199169D01*
X381693Y-199300D01*
X381903Y-199431D01*
X382113Y-199589D01*
X382349Y-199799D01*
X382585Y-200035D01*
X382821Y-200297D01*
X383058Y-200586D01*
X383268Y-200927D01*
X383477Y-201294D01*
X383635Y-201662D01*
X383766Y-202081D01*
X383845Y-202554D01*
X383871Y-203026D01*
Y-203131D01*
X383845Y-203236D01*
Y-203420D01*
X383792Y-203603D01*
X383740Y-203839D01*
X383687Y-204102D01*
X383582Y-204364D01*
X383477Y-204653D01*
X383320Y-204968D01*
X383136Y-205283D01*
X382926Y-205598D01*
X382664Y-205912D01*
X382349Y-206227D01*
X382008Y-206542D01*
X381614Y-206831D01*
X381588Y-206857D01*
X381509Y-206883D01*
X381378Y-206962D01*
X381168Y-207067D01*
X380906Y-207172D01*
X380591Y-207303D01*
X380224Y-207434D01*
X379778Y-207566D01*
X379253Y-207697D01*
X378676Y-207828D01*
X378046Y-207959D01*
X377311Y-208064D01*
X376524Y-208169D01*
X375658Y-208248D01*
X374740Y-208274D01*
X373716Y-208300D01*
X373690D01*
X373664D01*
X373585D01*
X373506D01*
X373244D01*
X372903Y-208274D01*
X372483Y-208248D01*
X371984Y-208222D01*
X371460Y-208195D01*
X370882Y-208143D01*
X370279Y-208064D01*
X369649Y-207985D01*
X368390Y-207723D01*
X367786Y-207592D01*
X367209Y-207408D01*
X366631Y-207198D01*
X366133Y-206962D01*
X366107Y-206936D01*
X366028Y-206910D01*
X365897Y-206831D01*
X365713Y-206700D01*
X365529Y-206568D01*
X365319Y-206411D01*
X365083Y-206201D01*
X364821Y-205965D01*
X364585Y-205702D01*
X364349Y-205388D01*
X364139Y-205073D01*
X363929Y-204705D01*
X363771Y-204338D01*
X363640Y-203892D01*
X363561Y-203446D01*
X363535Y-202974D01*
Y-202764D01*
X363561Y-202580D01*
X363588Y-202396D01*
X363640Y-202160D01*
X363797Y-201635D01*
X363902Y-201373D01*
X364034Y-201058D01*
X364217Y-200743D01*
X364427Y-200454D01*
X364663Y-200140D01*
X364952Y-199851D01*
X365267Y-199562D01*
X365634Y-199300D01*
X365661Y-199274D01*
X365766Y-199221D01*
X365897Y-199143D01*
X366107Y-199038D01*
X366395Y-198933D01*
X366736Y-198775D01*
X367130Y-198644D01*
X367602Y-198486D01*
X368127Y-198329D01*
X368731Y-198198D01*
X369387Y-198040D01*
X370121Y-197935D01*
X370908Y-197830D01*
X371774Y-197752D01*
X372719Y-197699D01*
X373716Y-197673D01*
X373742D01*
X373769D01*
X373847D01*
X373926D01*
X374188D01*
X374530Y-197699D01*
D02*
G37*
G36*
X383530Y-215438D02*
X367943D01*
X367970Y-215464D01*
X368075Y-215569D01*
X368258Y-215726D01*
X368468Y-215936D01*
X368731Y-216198D01*
X369019Y-216540D01*
X369334Y-216907D01*
X369649Y-217327D01*
X369675Y-217379D01*
X369780Y-217511D01*
X369938Y-217747D01*
X370121Y-218035D01*
X370331Y-218350D01*
X370541Y-218718D01*
X370725Y-219085D01*
X370908Y-219452D01*
X368547D01*
Y-219426D01*
X368494Y-219374D01*
X368442Y-219295D01*
X368390Y-219164D01*
X368285Y-219032D01*
X368180Y-218875D01*
X367891Y-218455D01*
X367576Y-218009D01*
X367182Y-217537D01*
X366736Y-217038D01*
X366238Y-216540D01*
X366212Y-216513D01*
X366185Y-216487D01*
X366107Y-216408D01*
X366002Y-216330D01*
X365739Y-216094D01*
X365372Y-215831D01*
X364978Y-215543D01*
X364506Y-215254D01*
X364034Y-214965D01*
X363535Y-214755D01*
Y-213443D01*
X383530D01*
Y-215438D01*
D02*
G37*
G36*
X413045Y-212472D02*
X403913D01*
X403887D01*
X403834D01*
X403729D01*
X403598D01*
X403467Y-212499D01*
X403283D01*
X402890Y-212551D01*
X402444Y-212630D01*
X401998Y-212761D01*
X401578Y-212918D01*
X401237Y-213155D01*
X401210Y-213181D01*
X401105Y-213286D01*
X400974Y-213417D01*
X400817Y-213627D01*
X400659Y-213889D01*
X400528Y-214204D01*
X400423Y-214572D01*
X400397Y-214991D01*
Y-215044D01*
X400423Y-215201D01*
X400450Y-215464D01*
X400528Y-215752D01*
X400659Y-216120D01*
X400843Y-216487D01*
X401105Y-216855D01*
X401447Y-217222D01*
X401499Y-217248D01*
X401552Y-217301D01*
X401657Y-217353D01*
X401761Y-217432D01*
X401919Y-217511D01*
X402103Y-217589D01*
X402313Y-217668D01*
X402549Y-217747D01*
X402811Y-217825D01*
X403126Y-217904D01*
X403467Y-217983D01*
X403834Y-218035D01*
X404254Y-218088D01*
X404700Y-218114D01*
X405173D01*
X413045D01*
Y-220108D01*
X393128D01*
Y-218114D01*
X400292D01*
X400240Y-218088D01*
X400135Y-217983D01*
X399951Y-217852D01*
X399741Y-217668D01*
X399479Y-217432D01*
X399242Y-217169D01*
X399006Y-216855D01*
X398796Y-216540D01*
X398770Y-216487D01*
X398718Y-216382D01*
X398639Y-216198D01*
X398534Y-215962D01*
X398455Y-215674D01*
X398376Y-215333D01*
X398324Y-214965D01*
X398298Y-214572D01*
Y-214388D01*
X398324Y-214257D01*
Y-214099D01*
X398350Y-213916D01*
X398455Y-213496D01*
X398587Y-212997D01*
X398796Y-212499D01*
X399111Y-212026D01*
X399295Y-211790D01*
X399505Y-211580D01*
X399531Y-211554D01*
X399557Y-211528D01*
X399636Y-211475D01*
X399741Y-211397D01*
X399872Y-211318D01*
X400056Y-211239D01*
X400266Y-211134D01*
X400502Y-211029D01*
X400791Y-210924D01*
X401105Y-210819D01*
X401473Y-210741D01*
X401866Y-210662D01*
X402313Y-210583D01*
X402811Y-210531D01*
X403336Y-210478D01*
X403913D01*
X413045D01*
Y-212472D01*
D02*
G37*
G36*
X383871Y-232992D02*
Y-234593D01*
X363273Y-229870D01*
Y-228243D01*
X383871Y-232992D01*
D02*
G37*
G36*
X399321Y-222601D02*
X399557Y-222627D01*
X399820Y-222654D01*
X400108Y-222680D01*
X400450Y-222759D01*
X401132Y-222916D01*
X401866Y-223152D01*
X402234Y-223310D01*
X402601Y-223493D01*
X402942Y-223729D01*
X403283Y-223966D01*
X403310Y-223992D01*
X403362Y-224018D01*
X403441Y-224123D01*
X403546Y-224228D01*
X403677Y-224385D01*
X403808Y-224569D01*
X403966Y-224805D01*
X404123Y-225068D01*
X404281Y-225382D01*
X404438Y-225724D01*
X404569Y-226117D01*
X404700Y-226537D01*
X404805Y-227009D01*
X404884Y-227534D01*
X404937Y-228112D01*
X404963Y-228715D01*
Y-232887D01*
X413045D01*
Y-235039D01*
X393129D01*
Y-228374D01*
X393155Y-228164D01*
X393181Y-227692D01*
X393233Y-227167D01*
X393286Y-226616D01*
X393391Y-226117D01*
X393443Y-225907D01*
X393522Y-225697D01*
Y-225671D01*
X393548Y-225645D01*
X393575Y-225566D01*
X393627Y-225461D01*
X393758Y-225199D01*
X393968Y-224884D01*
X394231Y-224517D01*
X394546Y-224149D01*
X394965Y-223782D01*
X395438Y-223441D01*
X395464D01*
X395490Y-223414D01*
X395569Y-223362D01*
X395674Y-223310D01*
X395831Y-223231D01*
X395989Y-223178D01*
X396382Y-222995D01*
X396881Y-222837D01*
X397484Y-222706D01*
X398140Y-222601D01*
X398875Y-222575D01*
X398901D01*
X399006D01*
X399137D01*
X399321Y-222601D01*
D02*
G37*
G36*
X400187Y-244826D02*
Y-246060D01*
X396461Y-246558D01*
X393129D01*
Y-244275D01*
X396461D01*
X400187Y-244826D01*
D02*
G37*
G36*
X376944Y-250757D02*
X376970D01*
X377049D01*
X377180Y-250730D01*
X377337D01*
X377547Y-250704D01*
X377783Y-250678D01*
X378308Y-250573D01*
X378912Y-250442D01*
X379515Y-250258D01*
X380093Y-249996D01*
X380381Y-249838D01*
X380617Y-249655D01*
X380670Y-249602D01*
X380801Y-249471D01*
X381011Y-249261D01*
X381221Y-248972D01*
X381457Y-248605D01*
X381667Y-248185D01*
X381798Y-247713D01*
X381824Y-247477D01*
X381851Y-247214D01*
Y-247109D01*
X381824Y-247004D01*
X381798Y-246847D01*
X381772Y-246663D01*
X381693Y-246453D01*
X381614Y-246217D01*
X381483Y-245981D01*
X381326Y-245719D01*
X381116Y-245456D01*
X380880Y-245194D01*
X380591Y-244931D01*
X380250Y-244695D01*
X379856Y-244459D01*
X379410Y-244249D01*
X378886Y-244065D01*
X379200Y-241992D01*
X379227D01*
X379305Y-242019D01*
X379410Y-242045D01*
X379594Y-242097D01*
X379778Y-242150D01*
X380014Y-242229D01*
X380512Y-242412D01*
X381090Y-242675D01*
X381667Y-243016D01*
X382218Y-243409D01*
X382480Y-243646D01*
X382716Y-243882D01*
Y-243908D01*
X382769Y-243934D01*
X382821Y-244013D01*
X382900Y-244118D01*
X382979Y-244249D01*
X383084Y-244407D01*
X383294Y-244800D01*
X383504Y-245272D01*
X383687Y-245850D01*
X383819Y-246506D01*
X383845Y-246847D01*
X383871Y-247214D01*
Y-247319D01*
X383845Y-247450D01*
Y-247634D01*
X383819Y-247844D01*
X383766Y-248080D01*
X383714Y-248369D01*
X383635Y-248657D01*
X383530Y-248972D01*
X383399Y-249313D01*
X383268Y-249655D01*
X383084Y-249996D01*
X382848Y-250337D01*
X382612Y-250652D01*
X382323Y-250993D01*
X381982Y-251281D01*
X381956Y-251308D01*
X381903Y-251360D01*
X381772Y-251413D01*
X381614Y-251518D01*
X381431Y-251649D01*
X381195Y-251780D01*
X380906Y-251911D01*
X380565Y-252042D01*
X380198Y-252200D01*
X379804Y-252331D01*
X379332Y-252462D01*
X378859Y-252593D01*
X378308Y-252698D01*
X377731Y-252751D01*
X377127Y-252803D01*
X376471Y-252830D01*
X376419D01*
X376314D01*
X376104D01*
X375842Y-252803D01*
X375553Y-252777D01*
X375186Y-252751D01*
X374792Y-252698D01*
X374346Y-252646D01*
X373428Y-252462D01*
X372955Y-252331D01*
X372483Y-252174D01*
X372011Y-251990D01*
X371565Y-251780D01*
X371145Y-251544D01*
X370751Y-251281D01*
X370725Y-251255D01*
X370672Y-251203D01*
X370567Y-251124D01*
X370436Y-250993D01*
X370305Y-250835D01*
X370121Y-250652D01*
X369938Y-250442D01*
X369754Y-250179D01*
X369570Y-249917D01*
X369413Y-249602D01*
X369098Y-248946D01*
X368967Y-248552D01*
X368862Y-248159D01*
X368809Y-247739D01*
X368783Y-247293D01*
Y-247083D01*
X368809Y-246899D01*
X368836Y-246716D01*
X368888Y-246480D01*
X368940Y-246243D01*
X369019Y-245955D01*
X369124Y-245666D01*
X369255Y-245351D01*
X369413Y-245036D01*
X369597Y-244721D01*
X369833Y-244407D01*
X370095Y-244092D01*
X370384Y-243777D01*
X370725Y-243488D01*
X370751Y-243462D01*
X370804Y-243409D01*
X370935Y-243357D01*
X371092Y-243252D01*
X371276Y-243121D01*
X371512Y-242990D01*
X371801Y-242858D01*
X372142Y-242701D01*
X372509Y-242570D01*
X372929Y-242439D01*
X373401Y-242307D01*
X373900Y-242176D01*
X374425Y-242071D01*
X375028Y-242019D01*
X375658Y-241966D01*
X376314Y-241940D01*
X376944D01*
Y-250757D01*
D02*
G37*
G36*
X383504Y-253800D02*
X383530Y-253905D01*
X383556Y-254063D01*
X383609Y-254273D01*
X383635Y-254509D01*
X383687Y-254771D01*
X383714Y-255270D01*
Y-255454D01*
X383687Y-255637D01*
X383661Y-255873D01*
X383609Y-256136D01*
X383556Y-256424D01*
X383451Y-256687D01*
X383320Y-256949D01*
X383294Y-256976D01*
X383241Y-257054D01*
X383136Y-257159D01*
X383031Y-257290D01*
X382848Y-257448D01*
X382664Y-257579D01*
X382454Y-257710D01*
X382192Y-257815D01*
X382166D01*
X382034Y-257841D01*
X381851Y-257894D01*
X381562Y-257920D01*
X381378Y-257946D01*
X381168Y-257973D01*
X380932Y-257999D01*
X380670Y-258025D01*
X380381D01*
X380040Y-258051D01*
X379699D01*
X379305D01*
X370987D01*
Y-259521D01*
X369098D01*
Y-258051D01*
X365529D01*
X364060Y-256057D01*
X369098D01*
Y-254037D01*
X370987D01*
Y-256057D01*
X379436D01*
X379489D01*
X379620D01*
X379830D01*
X380066Y-256031D01*
X380329D01*
X380565Y-255978D01*
X380801Y-255952D01*
X380958Y-255900D01*
X380985Y-255873D01*
X381037Y-255847D01*
X381116Y-255768D01*
X381195Y-255690D01*
X381273Y-255558D01*
X381352Y-255375D01*
X381404Y-255165D01*
X381431Y-254929D01*
Y-254693D01*
X381404Y-254404D01*
X381352Y-254037D01*
X383504Y-253774D01*
Y-253800D01*
D02*
G37*
G36*
X408269Y-250862D02*
X413045D01*
Y-252856D01*
X408269D01*
Y-259941D01*
X406012D01*
X393129Y-252515D01*
Y-250862D01*
X406012D01*
Y-248657D01*
X408269D01*
Y-250862D01*
D02*
G37*
G36*
X379594Y-260885D02*
X379778D01*
X379988Y-260938D01*
X380460Y-261016D01*
X380985Y-261174D01*
X381536Y-261410D01*
X381824Y-261567D01*
X382087Y-261725D01*
X382349Y-261935D01*
X382612Y-262171D01*
X382638Y-262197D01*
X382664Y-262224D01*
X382716Y-262302D01*
X382795Y-262407D01*
X382900Y-262538D01*
X383005Y-262696D01*
X383110Y-262906D01*
X383241Y-263116D01*
X383346Y-263352D01*
X383477Y-263614D01*
X383661Y-264244D01*
X383819Y-264952D01*
X383845Y-265346D01*
X383871Y-265766D01*
Y-265950D01*
X383845Y-266160D01*
X383792Y-266448D01*
X383740Y-266763D01*
X383635Y-267157D01*
X383477Y-267550D01*
X383294Y-267970D01*
X383031Y-268416D01*
X382743Y-268836D01*
X382349Y-269256D01*
X381903Y-269623D01*
X381378Y-269964D01*
X380749Y-270279D01*
X380040Y-270515D01*
X379646Y-270594D01*
X379227Y-270673D01*
X378886Y-268678D01*
X378912D01*
X378964D01*
X379043Y-268652D01*
X379122D01*
X379410Y-268574D01*
X379725Y-268495D01*
X380093Y-268390D01*
X380486Y-268206D01*
X380827Y-267996D01*
X381142Y-267734D01*
X381168Y-267708D01*
X381247Y-267576D01*
X381378Y-267419D01*
X381483Y-267183D01*
X381614Y-266868D01*
X381746Y-266527D01*
X381824Y-266107D01*
X381851Y-265635D01*
Y-265425D01*
X381824Y-265189D01*
X381772Y-264900D01*
X381693Y-264585D01*
X381588Y-264244D01*
X381431Y-263929D01*
X381221Y-263640D01*
X381195Y-263614D01*
X381090Y-263535D01*
X380958Y-263404D01*
X380775Y-263273D01*
X380539Y-263142D01*
X380250Y-263011D01*
X379935Y-262932D01*
X379594Y-262906D01*
X379568D01*
X379463D01*
X379305Y-262932D01*
X379095Y-262984D01*
X378886Y-263063D01*
X378676Y-263168D01*
X378439Y-263326D01*
X378256Y-263535D01*
X378229Y-263562D01*
X378203Y-263614D01*
X378124Y-263745D01*
X378020Y-263955D01*
X377915Y-264218D01*
X377757Y-264559D01*
X377600Y-265005D01*
X377521Y-265267D01*
X377442Y-265556D01*
Y-265582D01*
X377416Y-265661D01*
X377364Y-265766D01*
X377311Y-265923D01*
X377259Y-266133D01*
X377180Y-266343D01*
X377022Y-266815D01*
X376813Y-267340D01*
X376603Y-267865D01*
X376393Y-268311D01*
X376314Y-268521D01*
X376209Y-268678D01*
X376183Y-268705D01*
X376104Y-268810D01*
X375999Y-268941D01*
X375842Y-269125D01*
X375658Y-269335D01*
X375422Y-269518D01*
X375159Y-269728D01*
X374871Y-269912D01*
X374845Y-269938D01*
X374713Y-269964D01*
X374556Y-270043D01*
X374320Y-270122D01*
X374031Y-270200D01*
X373716Y-270253D01*
X373349Y-270305D01*
X372955Y-270332D01*
X372929D01*
X372877D01*
X372772D01*
X372640Y-270305D01*
X372483D01*
X372299Y-270279D01*
X371879Y-270174D01*
X371407Y-270043D01*
X370908Y-269833D01*
X370410Y-269544D01*
X370174Y-269361D01*
X369964Y-269151D01*
X369938Y-269125D01*
X369911Y-269098D01*
X369859Y-269020D01*
X369780Y-268941D01*
X369597Y-268678D01*
X369360Y-268311D01*
X369150Y-267839D01*
X368967Y-267288D01*
X368836Y-266632D01*
X368783Y-266264D01*
Y-265687D01*
X368809Y-265425D01*
X368836Y-265110D01*
X368914Y-264769D01*
X368993Y-264375D01*
X369124Y-263982D01*
X369282Y-263588D01*
X369308Y-263535D01*
X369360Y-263431D01*
X369465Y-263247D01*
X369623Y-263011D01*
X369806Y-262774D01*
X370016Y-262512D01*
X370279Y-262276D01*
X370567Y-262066D01*
X370594Y-262040D01*
X370725Y-261987D01*
X370882Y-261882D01*
X371145Y-261751D01*
X371460Y-261646D01*
X371853Y-261515D01*
X372299Y-261410D01*
X372824Y-261305D01*
X373165Y-263273D01*
X373139D01*
X373060Y-263299D01*
X372955Y-263326D01*
X372798Y-263352D01*
X372614Y-263404D01*
X372404Y-263483D01*
X372194Y-263588D01*
X371984Y-263693D01*
X371774Y-263850D01*
X371538Y-264034D01*
X371355Y-264244D01*
X371171Y-264480D01*
X371013Y-264769D01*
X370908Y-265084D01*
X370830Y-265451D01*
X370804Y-265845D01*
Y-266055D01*
X370830Y-266291D01*
X370856Y-266579D01*
X370935Y-266894D01*
X371013Y-267209D01*
X371145Y-267524D01*
X371328Y-267786D01*
X371355Y-267813D01*
X371433Y-267891D01*
X371538Y-267996D01*
X371696Y-268101D01*
X371879Y-268206D01*
X372116Y-268311D01*
X372378Y-268390D01*
X372667Y-268416D01*
X372693D01*
X372798D01*
X372929Y-268390D01*
X373113Y-268337D01*
X373323Y-268259D01*
X373533Y-268154D01*
X373743Y-268022D01*
X373926Y-267813D01*
Y-267786D01*
X373979Y-267734D01*
X374031Y-267603D01*
X374136Y-267393D01*
X374241Y-267130D01*
X374320Y-266947D01*
X374398Y-266737D01*
X374477Y-266501D01*
X374582Y-266238D01*
X374687Y-265950D01*
X374792Y-265635D01*
Y-265608D01*
X374818Y-265530D01*
X374871Y-265399D01*
X374923Y-265241D01*
X374976Y-265031D01*
X375054Y-264795D01*
X375238Y-264296D01*
X375448Y-263745D01*
X375658Y-263221D01*
X375763Y-262984D01*
X375868Y-262748D01*
X375947Y-262565D01*
X376052Y-262407D01*
X376078Y-262381D01*
X376130Y-262276D01*
X376235Y-262145D01*
X376393Y-261987D01*
X376576Y-261804D01*
X376786Y-261620D01*
X377049Y-261436D01*
X377337Y-261279D01*
X377364Y-261253D01*
X377468Y-261200D01*
X377652Y-261148D01*
X377862Y-261069D01*
X378151Y-260990D01*
X378466Y-260911D01*
X378833Y-260885D01*
X379253Y-260859D01*
X379279D01*
X379332D01*
X379463D01*
X379594Y-260885D01*
D02*
G37*
G36*
X413045Y-272195D02*
X413019D01*
X412992D01*
X412914D01*
X412782D01*
X412651Y-272168D01*
X412494D01*
X412126Y-272116D01*
X411654Y-272011D01*
X411103Y-271854D01*
X410499Y-271644D01*
X409870Y-271355D01*
X409843D01*
X409791Y-271303D01*
X409686Y-271250D01*
X409555Y-271171D01*
X409371Y-271066D01*
X409187Y-270935D01*
X408951Y-270778D01*
X408689Y-270594D01*
X408374Y-270384D01*
X408059Y-270148D01*
X407718Y-269886D01*
X407351Y-269571D01*
X406957Y-269230D01*
X406563Y-268888D01*
X406144Y-268469D01*
X405697Y-268049D01*
X405671Y-268022D01*
X405566Y-267918D01*
X405435Y-267786D01*
X405225Y-267603D01*
X404989Y-267367D01*
X404727Y-267104D01*
X404438Y-266842D01*
X404097Y-266527D01*
X403415Y-265923D01*
X402680Y-265320D01*
X402339Y-265031D01*
X401998Y-264769D01*
X401657Y-264559D01*
X401368Y-264375D01*
X401342D01*
X401289Y-264349D01*
X401210Y-264296D01*
X401105Y-264244D01*
X400817Y-264087D01*
X400450Y-263929D01*
X400003Y-263772D01*
X399531Y-263614D01*
X399006Y-263509D01*
X398508Y-263483D01*
X398481D01*
X398429D01*
X398350D01*
X398245D01*
X397983Y-263535D01*
X397616Y-263588D01*
X397248Y-263693D01*
X396828Y-263850D01*
X396409Y-264087D01*
X396041Y-264375D01*
X395989Y-264428D01*
X395884Y-264533D01*
X395726Y-264716D01*
X395543Y-264979D01*
X395385Y-265294D01*
X395228Y-265661D01*
X395123Y-266081D01*
X395070Y-266553D01*
Y-266684D01*
X395097Y-266789D01*
X395123Y-267052D01*
X395201Y-267367D01*
X395333Y-267708D01*
X395516Y-268101D01*
X395779Y-268469D01*
X396120Y-268836D01*
X396172Y-268862D01*
X396304Y-268967D01*
X396540Y-269125D01*
X396881Y-269282D01*
X397274Y-269440D01*
X397799Y-269597D01*
X398377Y-269702D01*
X399059Y-269728D01*
X398796Y-271801D01*
X398770D01*
X398665D01*
X398534Y-271775D01*
X398324Y-271749D01*
X398088Y-271696D01*
X397826Y-271670D01*
X397511Y-271591D01*
X397196Y-271512D01*
X396514Y-271329D01*
X395805Y-271040D01*
X395123Y-270673D01*
X394808Y-270437D01*
X394519Y-270200D01*
X394493Y-270174D01*
X394467Y-270122D01*
X394388Y-270043D01*
X394283Y-269938D01*
X394178Y-269807D01*
X394047Y-269623D01*
X393916Y-269440D01*
X393785Y-269203D01*
X393653Y-268941D01*
X393522Y-268678D01*
X393286Y-268049D01*
X393102Y-267314D01*
X393076Y-266920D01*
X393050Y-266501D01*
Y-266264D01*
X393076Y-266081D01*
X393102Y-265871D01*
X393129Y-265635D01*
X393260Y-265084D01*
X393470Y-264480D01*
X393601Y-264165D01*
X393758Y-263850D01*
X393968Y-263535D01*
X394204Y-263247D01*
X394467Y-262984D01*
X394755Y-262722D01*
X394782Y-262696D01*
X394834Y-262670D01*
X394913Y-262591D01*
X395044Y-262512D01*
X395201Y-262433D01*
X395411Y-262302D01*
X395621Y-262197D01*
X395858Y-262066D01*
X396435Y-261830D01*
X397091Y-261646D01*
X397799Y-261489D01*
X398193Y-261462D01*
X398587Y-261436D01*
X398613D01*
X398665D01*
X398770D01*
X398901Y-261462D01*
X399085D01*
X399269Y-261489D01*
X399505Y-261515D01*
X399741Y-261567D01*
X400318Y-261672D01*
X400922Y-261856D01*
X401578Y-262119D01*
X402234Y-262460D01*
X402260D01*
X402313Y-262512D01*
X402418Y-262565D01*
X402549Y-262670D01*
X402732Y-262774D01*
X402942Y-262932D01*
X403179Y-263089D01*
X403467Y-263299D01*
X403782Y-263562D01*
X404123Y-263824D01*
X404517Y-264139D01*
X404910Y-264480D01*
X405356Y-264874D01*
X405829Y-265294D01*
X406354Y-265766D01*
X406878Y-266264D01*
X406905Y-266291D01*
X406957Y-266343D01*
X407062Y-266422D01*
X407167Y-266553D01*
X407482Y-266868D01*
X407875Y-267209D01*
X408269Y-267603D01*
X408689Y-267996D01*
X409056Y-268311D01*
X409240Y-268469D01*
X409371Y-268574D01*
X409397Y-268600D01*
X409476Y-268652D01*
X409607Y-268757D01*
X409791Y-268862D01*
X409975Y-269020D01*
X410211Y-269151D01*
X410683Y-269413D01*
Y-261410D01*
X413045D01*
Y-272195D01*
D02*
G37*
G36*
X383530Y-274478D02*
X383504D01*
X383399Y-274530D01*
X383241Y-274583D01*
X383031Y-274635D01*
X382769Y-274714D01*
X382480Y-274766D01*
X382139Y-274819D01*
X381772Y-274871D01*
X381824Y-274924D01*
X381956Y-275055D01*
X382139Y-275265D01*
X382349Y-275527D01*
X382612Y-275842D01*
X382874Y-276209D01*
X383136Y-276577D01*
X383346Y-276997D01*
X383372Y-277049D01*
X383425Y-277180D01*
X383504Y-277390D01*
X383609Y-277679D01*
X383714Y-278020D01*
X383792Y-278387D01*
X383845Y-278807D01*
X383871Y-279227D01*
Y-279411D01*
X383845Y-279542D01*
Y-279699D01*
X383819Y-279883D01*
X383740Y-280303D01*
X383609Y-280775D01*
X383399Y-281274D01*
X383136Y-281746D01*
X382769Y-282192D01*
X382743D01*
X382716Y-282245D01*
X382559Y-282350D01*
X382323Y-282533D01*
X381956Y-282717D01*
X381536Y-282927D01*
X381011Y-283110D01*
X380434Y-283215D01*
X379751Y-283268D01*
X379725D01*
X379699D01*
X379541D01*
X379305Y-283242D01*
X379017Y-283215D01*
X378676Y-283137D01*
X378308Y-283058D01*
X377915Y-282927D01*
X377547Y-282769D01*
X377495Y-282743D01*
X377390Y-282664D01*
X377206Y-282559D01*
X376996Y-282402D01*
X376760Y-282192D01*
X376498Y-281956D01*
X376235Y-281667D01*
X376025Y-281352D01*
X375999Y-281300D01*
X375947Y-281195D01*
X375842Y-280985D01*
X375710Y-280670D01*
X375579Y-280303D01*
X375448Y-279831D01*
X375317Y-279279D01*
X375212Y-278650D01*
Y-278624D01*
X375186Y-278545D01*
Y-278414D01*
X375159Y-278256D01*
X375107Y-278046D01*
X375081Y-277810D01*
X374976Y-277285D01*
X374845Y-276682D01*
X374713Y-276104D01*
X374530Y-275527D01*
X374451Y-275291D01*
X374346Y-275055D01*
X373743Y-275029D01*
X373716D01*
X373690D01*
X373611D01*
X373506D01*
X373244Y-275055D01*
X372929Y-275107D01*
X372588Y-275160D01*
X372247Y-275265D01*
X371932Y-275396D01*
X371670Y-275580D01*
X371643Y-275606D01*
X371538Y-275711D01*
X371407Y-275894D01*
X371223Y-276131D01*
X371066Y-276472D01*
X370935Y-276839D01*
X370830Y-277311D01*
X370804Y-277863D01*
Y-278099D01*
X370830Y-278335D01*
X370882Y-278650D01*
X370961Y-278991D01*
X371066Y-279332D01*
X371197Y-279647D01*
X371407Y-279936D01*
X371433Y-279962D01*
X371512Y-280040D01*
X371670Y-280172D01*
X371879Y-280303D01*
X372194Y-280486D01*
X372562Y-280644D01*
X373008Y-280801D01*
X373559Y-280933D01*
X373218Y-282927D01*
X373191D01*
X373113Y-282901D01*
X373008Y-282874D01*
X372850Y-282848D01*
X372640Y-282796D01*
X372430Y-282717D01*
X371932Y-282559D01*
X371381Y-282323D01*
X370830Y-282035D01*
X370305Y-281667D01*
X370069Y-281484D01*
X369859Y-281247D01*
Y-281221D01*
X369806Y-281195D01*
X369754Y-281116D01*
X369702Y-281011D01*
X369597Y-280880D01*
X369518Y-280723D01*
X369413Y-280513D01*
X369308Y-280303D01*
X369229Y-280067D01*
X369124Y-279778D01*
X369019Y-279463D01*
X368940Y-279148D01*
X368888Y-278781D01*
X368836Y-278387D01*
X368783Y-277994D01*
Y-277233D01*
X368809Y-277102D01*
Y-276918D01*
X368862Y-276498D01*
X368967Y-276026D01*
X369072Y-275553D01*
X369255Y-275081D01*
X369492Y-274661D01*
X369518Y-274609D01*
X369623Y-274478D01*
X369780Y-274294D01*
X369964Y-274084D01*
X370226Y-273848D01*
X370515Y-273638D01*
X370856Y-273428D01*
X371223Y-273297D01*
X371276Y-273271D01*
X371407Y-273244D01*
X371643Y-273192D01*
X371984Y-273139D01*
X372404Y-273087D01*
X372929Y-273061D01*
X373533Y-273008D01*
X374241D01*
X377495D01*
X377521D01*
X377652D01*
X377810D01*
X378046D01*
X378308D01*
X378623D01*
X378964D01*
X379332Y-272982D01*
X380066D01*
X380775Y-272956D01*
X381090D01*
X381378Y-272929D01*
X381641D01*
X381824Y-272903D01*
X381851D01*
X381982Y-272877D01*
X382139Y-272851D01*
X382349Y-272798D01*
X382612Y-272720D01*
X382900Y-272615D01*
X383530Y-272378D01*
Y-274478D01*
D02*
G37*
G36*
X408269Y-276209D02*
X413045D01*
Y-278204D01*
X408269D01*
Y-285288D01*
X406012D01*
X393129Y-277863D01*
Y-276209D01*
X406012D01*
Y-274005D01*
X408269D01*
Y-276209D01*
D02*
G37*
G36*
X413045Y-297543D02*
X413019D01*
X412992D01*
X412914D01*
X412782D01*
X412651Y-297516D01*
X412494D01*
X412126Y-297464D01*
X411654Y-297359D01*
X411103Y-297201D01*
X410499Y-296991D01*
X409870Y-296703D01*
X409843D01*
X409791Y-296650D01*
X409686Y-296598D01*
X409555Y-296519D01*
X409371Y-296414D01*
X409187Y-296283D01*
X408951Y-296126D01*
X408689Y-295942D01*
X408374Y-295732D01*
X408059Y-295496D01*
X407718Y-295233D01*
X407351Y-294918D01*
X406957Y-294577D01*
X406563Y-294236D01*
X406144Y-293816D01*
X405697Y-293397D01*
X405671Y-293370D01*
X405566Y-293265D01*
X405435Y-293134D01*
X405225Y-292951D01*
X404989Y-292714D01*
X404727Y-292452D01*
X404438Y-292190D01*
X404097Y-291875D01*
X403415Y-291271D01*
X402680Y-290668D01*
X402339Y-290379D01*
X401998Y-290117D01*
X401657Y-289907D01*
X401368Y-289723D01*
X401342D01*
X401289Y-289697D01*
X401210Y-289644D01*
X401105Y-289592D01*
X400817Y-289434D01*
X400450Y-289277D01*
X400003Y-289120D01*
X399531Y-288962D01*
X399006Y-288857D01*
X398508Y-288831D01*
X398481D01*
X398429D01*
X398350D01*
X398245D01*
X397983Y-288883D01*
X397616Y-288936D01*
X397248Y-289041D01*
X396828Y-289198D01*
X396409Y-289434D01*
X396041Y-289723D01*
X395989Y-289775D01*
X395884Y-289880D01*
X395726Y-290064D01*
X395543Y-290326D01*
X395385Y-290641D01*
X395228Y-291009D01*
X395123Y-291429D01*
X395070Y-291901D01*
Y-292032D01*
X395097Y-292137D01*
X395123Y-292400D01*
X395201Y-292714D01*
X395333Y-293056D01*
X395516Y-293449D01*
X395779Y-293816D01*
X396120Y-294184D01*
X396172Y-294210D01*
X396304Y-294315D01*
X396540Y-294472D01*
X396881Y-294630D01*
X397274Y-294787D01*
X397799Y-294945D01*
X398377Y-295050D01*
X399059Y-295076D01*
X398796Y-297149D01*
X398770D01*
X398665D01*
X398534Y-297123D01*
X398324Y-297096D01*
X398088Y-297044D01*
X397826Y-297018D01*
X397511Y-296939D01*
X397196Y-296860D01*
X396514Y-296677D01*
X395805Y-296388D01*
X395123Y-296021D01*
X394808Y-295784D01*
X394519Y-295548D01*
X394493Y-295522D01*
X394467Y-295470D01*
X394388Y-295391D01*
X394283Y-295286D01*
X394178Y-295155D01*
X394047Y-294971D01*
X393916Y-294787D01*
X393785Y-294551D01*
X393653Y-294289D01*
X393522Y-294026D01*
X393286Y-293397D01*
X393102Y-292662D01*
X393076Y-292268D01*
X393050Y-291848D01*
Y-291612D01*
X393076Y-291429D01*
X393102Y-291219D01*
X393129Y-290983D01*
X393260Y-290431D01*
X393470Y-289828D01*
X393601Y-289513D01*
X393758Y-289198D01*
X393968Y-288883D01*
X394204Y-288595D01*
X394467Y-288332D01*
X394755Y-288070D01*
X394782Y-288044D01*
X394834Y-288017D01*
X394913Y-287939D01*
X395044Y-287860D01*
X395201Y-287781D01*
X395411Y-287650D01*
X395621Y-287545D01*
X395858Y-287414D01*
X396435Y-287178D01*
X397091Y-286994D01*
X397799Y-286837D01*
X398193Y-286810D01*
X398587Y-286784D01*
X398613D01*
X398665D01*
X398770D01*
X398901Y-286810D01*
X399085D01*
X399269Y-286837D01*
X399505Y-286863D01*
X399741Y-286915D01*
X400318Y-287020D01*
X400922Y-287204D01*
X401578Y-287466D01*
X402234Y-287807D01*
X402260D01*
X402313Y-287860D01*
X402418Y-287912D01*
X402549Y-288017D01*
X402732Y-288122D01*
X402942Y-288280D01*
X403179Y-288437D01*
X403467Y-288647D01*
X403782Y-288910D01*
X404123Y-289172D01*
X404517Y-289487D01*
X404910Y-289828D01*
X405356Y-290222D01*
X405829Y-290641D01*
X406354Y-291114D01*
X406878Y-291612D01*
X406905Y-291638D01*
X406957Y-291691D01*
X407062Y-291770D01*
X407167Y-291901D01*
X407482Y-292216D01*
X407875Y-292557D01*
X408269Y-292951D01*
X408689Y-293344D01*
X409056Y-293659D01*
X409240Y-293816D01*
X409371Y-293921D01*
X409397Y-293948D01*
X409476Y-294000D01*
X409607Y-294105D01*
X409791Y-294210D01*
X409975Y-294368D01*
X410211Y-294499D01*
X410683Y-294761D01*
Y-286758D01*
X413045D01*
Y-297543D01*
D02*
G37*
G36*
X376813Y-285026D02*
X377127Y-285052D01*
X377495Y-285079D01*
X377888Y-285131D01*
X378308Y-285184D01*
X379227Y-285367D01*
X379699Y-285498D01*
X380171Y-285656D01*
X380644Y-285840D01*
X381090Y-286023D01*
X381509Y-286286D01*
X381903Y-286548D01*
X381929Y-286574D01*
X381982Y-286627D01*
X382087Y-286705D01*
X382218Y-286810D01*
X382349Y-286968D01*
X382533Y-287152D01*
X382690Y-287361D01*
X382874Y-287571D01*
X383241Y-288122D01*
X383556Y-288726D01*
X383687Y-289067D01*
X383792Y-289408D01*
X383845Y-289775D01*
X383871Y-290169D01*
Y-290326D01*
X383845Y-290510D01*
X383819Y-290720D01*
X383766Y-290983D01*
X383661Y-291297D01*
X383556Y-291586D01*
X383399Y-291901D01*
X383372Y-291927D01*
X383320Y-292032D01*
X383215Y-292190D01*
X383058Y-292373D01*
X382874Y-292583D01*
X382638Y-292819D01*
X382375Y-293029D01*
X382061Y-293265D01*
X389067D01*
Y-295260D01*
X369098D01*
Y-293423D01*
X370961D01*
X370935Y-293397D01*
X370804Y-293318D01*
X370594Y-293160D01*
X370331Y-293003D01*
X370069Y-292767D01*
X369780Y-292531D01*
X369518Y-292242D01*
X369308Y-291953D01*
X369282Y-291927D01*
X369229Y-291796D01*
X369150Y-291638D01*
X369045Y-291402D01*
X368940Y-291114D01*
X368862Y-290799D01*
X368809Y-290431D01*
X368783Y-290038D01*
Y-289802D01*
X368836Y-289539D01*
X368888Y-289198D01*
X368993Y-288805D01*
X369124Y-288385D01*
X369334Y-287939D01*
X369623Y-287519D01*
Y-287493D01*
X369649Y-287466D01*
X369780Y-287335D01*
X369990Y-287125D01*
X370252Y-286863D01*
X370620Y-286574D01*
X371040Y-286286D01*
X371565Y-285971D01*
X372168Y-285708D01*
X372194D01*
X372247Y-285682D01*
X372325Y-285630D01*
X372457Y-285603D01*
X372640Y-285551D01*
X372824Y-285472D01*
X373060Y-285420D01*
X373296Y-285341D01*
X373585Y-285288D01*
X373900Y-285236D01*
X374582Y-285105D01*
X375369Y-285026D01*
X376209Y-285000D01*
X376261D01*
X376366D01*
X376550D01*
X376813Y-285026D01*
D02*
G37*
G36*
Y-297700D02*
X377127Y-297726D01*
X377495Y-297752D01*
X377888Y-297805D01*
X378308Y-297857D01*
X379227Y-298041D01*
X379699Y-298172D01*
X380171Y-298330D01*
X380644Y-298513D01*
X381090Y-298697D01*
X381509Y-298959D01*
X381903Y-299222D01*
X381929Y-299248D01*
X381982Y-299301D01*
X382087Y-299379D01*
X382218Y-299484D01*
X382349Y-299642D01*
X382533Y-299825D01*
X382690Y-300035D01*
X382874Y-300245D01*
X383241Y-300796D01*
X383556Y-301400D01*
X383687Y-301741D01*
X383792Y-302082D01*
X383845Y-302449D01*
X383871Y-302843D01*
Y-303000D01*
X383845Y-303184D01*
X383819Y-303394D01*
X383766Y-303656D01*
X383661Y-303971D01*
X383556Y-304260D01*
X383399Y-304575D01*
X383372Y-304601D01*
X383320Y-304706D01*
X383215Y-304864D01*
X383058Y-305047D01*
X382874Y-305257D01*
X382638Y-305493D01*
X382375Y-305703D01*
X382061Y-305939D01*
X389067D01*
Y-307934D01*
X369098D01*
Y-306097D01*
X370961D01*
X370935Y-306070D01*
X370804Y-305992D01*
X370594Y-305834D01*
X370331Y-305677D01*
X370069Y-305441D01*
X369780Y-305205D01*
X369518Y-304916D01*
X369308Y-304627D01*
X369282Y-304601D01*
X369229Y-304470D01*
X369150Y-304312D01*
X369045Y-304076D01*
X368940Y-303788D01*
X368862Y-303473D01*
X368809Y-303105D01*
X368783Y-302712D01*
Y-302476D01*
X368836Y-302213D01*
X368888Y-301872D01*
X368993Y-301479D01*
X369124Y-301059D01*
X369334Y-300613D01*
X369623Y-300193D01*
Y-300167D01*
X369649Y-300140D01*
X369780Y-300009D01*
X369990Y-299799D01*
X370252Y-299537D01*
X370620Y-299248D01*
X371040Y-298959D01*
X371565Y-298645D01*
X372168Y-298382D01*
X372194D01*
X372247Y-298356D01*
X372325Y-298304D01*
X372457Y-298277D01*
X372640Y-298225D01*
X372824Y-298146D01*
X373060Y-298094D01*
X373296Y-298015D01*
X373585Y-297962D01*
X373900Y-297910D01*
X374582Y-297779D01*
X375369Y-297700D01*
X376209Y-297674D01*
X376261D01*
X376366D01*
X376550D01*
X376813Y-297700D01*
D02*
G37*
G36*
X408269Y-301557D02*
X413045D01*
Y-303552D01*
X408269D01*
Y-310636D01*
X406012D01*
X393129Y-303210D01*
Y-301557D01*
X406012D01*
Y-299353D01*
X408269D01*
Y-301557D01*
D02*
G37*
G36*
X413045Y-322890D02*
X413019D01*
X412992D01*
X412914D01*
X412782D01*
X412651Y-322864D01*
X412494D01*
X412126Y-322812D01*
X411654Y-322707D01*
X411103Y-322549D01*
X410499Y-322339D01*
X409870Y-322051D01*
X409843D01*
X409791Y-321998D01*
X409686Y-321946D01*
X409555Y-321867D01*
X409371Y-321762D01*
X409187Y-321631D01*
X408951Y-321473D01*
X408689Y-321290D01*
X408374Y-321080D01*
X408059Y-320844D01*
X407718Y-320581D01*
X407351Y-320266D01*
X406957Y-319925D01*
X406563Y-319584D01*
X406144Y-319164D01*
X405697Y-318744D01*
X405671Y-318718D01*
X405566Y-318613D01*
X405435Y-318482D01*
X405225Y-318298D01*
X404989Y-318062D01*
X404727Y-317800D01*
X404438Y-317537D01*
X404097Y-317222D01*
X403415Y-316619D01*
X402680Y-316016D01*
X402339Y-315727D01*
X401998Y-315464D01*
X401657Y-315254D01*
X401368Y-315071D01*
X401342D01*
X401289Y-315045D01*
X401210Y-314992D01*
X401105Y-314940D01*
X400817Y-314782D01*
X400450Y-314625D01*
X400003Y-314467D01*
X399531Y-314310D01*
X399006Y-314205D01*
X398508Y-314179D01*
X398481D01*
X398429D01*
X398350D01*
X398245D01*
X397983Y-314231D01*
X397616Y-314284D01*
X397248Y-314389D01*
X396828Y-314546D01*
X396409Y-314782D01*
X396041Y-315071D01*
X395989Y-315123D01*
X395884Y-315228D01*
X395726Y-315412D01*
X395543Y-315674D01*
X395385Y-315989D01*
X395228Y-316357D01*
X395123Y-316776D01*
X395070Y-317249D01*
Y-317380D01*
X395097Y-317485D01*
X395123Y-317747D01*
X395201Y-318062D01*
X395333Y-318403D01*
X395516Y-318797D01*
X395779Y-319164D01*
X396120Y-319532D01*
X396172Y-319558D01*
X396304Y-319663D01*
X396540Y-319820D01*
X396881Y-319978D01*
X397274Y-320135D01*
X397799Y-320293D01*
X398377Y-320398D01*
X399059Y-320424D01*
X398796Y-322497D01*
X398770D01*
X398665D01*
X398534Y-322470D01*
X398324Y-322444D01*
X398088Y-322392D01*
X397826Y-322366D01*
X397511Y-322287D01*
X397196Y-322208D01*
X396514Y-322024D01*
X395805Y-321736D01*
X395123Y-321368D01*
X394808Y-321132D01*
X394519Y-320896D01*
X394493Y-320870D01*
X394467Y-320817D01*
X394388Y-320739D01*
X394283Y-320634D01*
X394178Y-320502D01*
X394047Y-320319D01*
X393916Y-320135D01*
X393785Y-319899D01*
X393653Y-319637D01*
X393522Y-319374D01*
X393286Y-318744D01*
X393102Y-318010D01*
X393076Y-317616D01*
X393050Y-317196D01*
Y-316960D01*
X393076Y-316776D01*
X393102Y-316566D01*
X393129Y-316330D01*
X393260Y-315779D01*
X393470Y-315176D01*
X393601Y-314861D01*
X393758Y-314546D01*
X393968Y-314231D01*
X394204Y-313943D01*
X394467Y-313680D01*
X394755Y-313418D01*
X394782Y-313391D01*
X394834Y-313365D01*
X394913Y-313286D01*
X395044Y-313208D01*
X395201Y-313129D01*
X395411Y-312998D01*
X395621Y-312893D01*
X395858Y-312762D01*
X396435Y-312526D01*
X397091Y-312342D01*
X397799Y-312184D01*
X398193Y-312158D01*
X398587Y-312132D01*
X398613D01*
X398665D01*
X398770D01*
X398901Y-312158D01*
X399085D01*
X399269Y-312184D01*
X399505Y-312211D01*
X399741Y-312263D01*
X400318Y-312368D01*
X400922Y-312552D01*
X401578Y-312814D01*
X402234Y-313155D01*
X402260D01*
X402313Y-313208D01*
X402418Y-313260D01*
X402549Y-313365D01*
X402732Y-313470D01*
X402942Y-313628D01*
X403179Y-313785D01*
X403467Y-313995D01*
X403782Y-314257D01*
X404123Y-314520D01*
X404517Y-314835D01*
X404910Y-315176D01*
X405356Y-315569D01*
X405829Y-315989D01*
X406354Y-316462D01*
X406878Y-316960D01*
X406905Y-316986D01*
X406957Y-317039D01*
X407062Y-317118D01*
X407167Y-317249D01*
X407482Y-317564D01*
X407875Y-317905D01*
X408269Y-318298D01*
X408689Y-318692D01*
X409056Y-319007D01*
X409240Y-319164D01*
X409371Y-319269D01*
X409397Y-319296D01*
X409476Y-319348D01*
X409607Y-319453D01*
X409791Y-319558D01*
X409975Y-319715D01*
X410211Y-319847D01*
X410683Y-320109D01*
Y-312106D01*
X413045D01*
Y-322890D01*
D02*
G37*
G36*
X376813Y-310321D02*
X377154Y-310348D01*
X377521Y-310374D01*
X377915Y-310426D01*
X378361Y-310479D01*
X379305Y-310689D01*
X379778Y-310794D01*
X380276Y-310951D01*
X380722Y-311135D01*
X381195Y-311345D01*
X381588Y-311581D01*
X381982Y-311870D01*
X382008Y-311896D01*
X382061Y-311948D01*
X382166Y-312027D01*
X382270Y-312158D01*
X382428Y-312289D01*
X382585Y-312473D01*
X382743Y-312709D01*
X382927Y-312945D01*
X383110Y-313208D01*
X383268Y-313523D01*
X383425Y-313838D01*
X383582Y-314205D01*
X383687Y-314572D01*
X383792Y-314966D01*
X383845Y-315386D01*
X383871Y-315832D01*
Y-315937D01*
X383845Y-316068D01*
Y-316225D01*
X383819Y-316435D01*
X383766Y-316671D01*
X383714Y-316934D01*
X383635Y-317222D01*
X383530Y-317537D01*
X383399Y-317852D01*
X383268Y-318167D01*
X383084Y-318508D01*
X382848Y-318849D01*
X382612Y-319164D01*
X382323Y-319479D01*
X381982Y-319794D01*
X381956Y-319820D01*
X381903Y-319873D01*
X381772Y-319952D01*
X381614Y-320030D01*
X381431Y-320161D01*
X381168Y-320293D01*
X380880Y-320424D01*
X380565Y-320581D01*
X380171Y-320739D01*
X379751Y-320870D01*
X379305Y-321001D01*
X378781Y-321132D01*
X378256Y-321211D01*
X377652Y-321290D01*
X377022Y-321342D01*
X376340Y-321368D01*
X376288D01*
X376183D01*
X375973D01*
X375737Y-321342D01*
X375422Y-321316D01*
X375054Y-321290D01*
X374661Y-321237D01*
X374241Y-321185D01*
X373323Y-321001D01*
X372850Y-320870D01*
X372378Y-320712D01*
X371932Y-320529D01*
X371486Y-320319D01*
X371066Y-320083D01*
X370699Y-319820D01*
X370672Y-319794D01*
X370620Y-319742D01*
X370515Y-319663D01*
X370410Y-319532D01*
X370252Y-319374D01*
X370095Y-319191D01*
X369911Y-318981D01*
X369728Y-318718D01*
X369570Y-318456D01*
X369387Y-318141D01*
X369072Y-317485D01*
X368967Y-317091D01*
X368862Y-316698D01*
X368809Y-316278D01*
X368783Y-315832D01*
Y-315596D01*
X368809Y-315438D01*
X368836Y-315228D01*
X368888Y-315018D01*
X368940Y-314756D01*
X369019Y-314467D01*
X369124Y-314152D01*
X369255Y-313838D01*
X369413Y-313523D01*
X369597Y-313182D01*
X369806Y-312840D01*
X370069Y-312526D01*
X370357Y-312211D01*
X370699Y-311896D01*
X370725Y-311870D01*
X370777Y-311817D01*
X370908Y-311738D01*
X371040Y-311633D01*
X371250Y-311528D01*
X371486Y-311397D01*
X371774Y-311240D01*
X372089Y-311082D01*
X372457Y-310951D01*
X372877Y-310794D01*
X373323Y-310663D01*
X373821Y-310531D01*
X374346Y-310453D01*
X374923Y-310374D01*
X375527Y-310321D01*
X376183Y-310295D01*
X376235D01*
X376340D01*
X376550D01*
X376813Y-310321D01*
D02*
G37*
G36*
X407115Y-324675D02*
X407324D01*
X407823Y-324727D01*
X408374Y-324832D01*
X408978Y-324963D01*
X409607Y-325147D01*
X410237Y-325383D01*
X410263D01*
X410316Y-325409D01*
X410394Y-325462D01*
X410499Y-325514D01*
X410788Y-325672D01*
X411155Y-325882D01*
X411523Y-326170D01*
X411943Y-326485D01*
X412310Y-326853D01*
X412625Y-327272D01*
X412651Y-327325D01*
X412730Y-327456D01*
X412861Y-327692D01*
X412992Y-328007D01*
X413150Y-328375D01*
X413255Y-328794D01*
X413360Y-329267D01*
X413386Y-329765D01*
Y-329870D01*
X413360Y-330001D01*
Y-330185D01*
X413307Y-330395D01*
X413281Y-330631D01*
X413202Y-330894D01*
X413097Y-331208D01*
X412992Y-331523D01*
X412835Y-331838D01*
X412677Y-332179D01*
X412467Y-332520D01*
X412205Y-332862D01*
X411916Y-333203D01*
X411575Y-333518D01*
X411182Y-333832D01*
X411155Y-333859D01*
X411077Y-333911D01*
X410946Y-333990D01*
X410762Y-334069D01*
X410499Y-334200D01*
X410211Y-334331D01*
X409843Y-334488D01*
X409424Y-334620D01*
X408925Y-334777D01*
X408374Y-334934D01*
X407770Y-335066D01*
X407088Y-335171D01*
X406354Y-335276D01*
X405540Y-335354D01*
X404674Y-335407D01*
X403729Y-335433D01*
X403703D01*
X403651D01*
X403572D01*
X403467D01*
X403336D01*
X403179D01*
X402785Y-335407D01*
X402313Y-335381D01*
X401761Y-335354D01*
X401184Y-335302D01*
X400528Y-335223D01*
X399872Y-335144D01*
X399190Y-335039D01*
X398508Y-334908D01*
X397826Y-334751D01*
X397169Y-334567D01*
X396566Y-334331D01*
X396015Y-334095D01*
X395516Y-333806D01*
X395490Y-333780D01*
X395411Y-333728D01*
X395280Y-333649D01*
X395123Y-333518D01*
X394939Y-333334D01*
X394729Y-333150D01*
X394519Y-332914D01*
X394283Y-332652D01*
X394047Y-332363D01*
X393837Y-332048D01*
X393627Y-331707D01*
X393443Y-331313D01*
X393286Y-330920D01*
X393155Y-330500D01*
X393076Y-330054D01*
X393050Y-329582D01*
Y-329398D01*
X393076Y-329267D01*
Y-329109D01*
X393129Y-328926D01*
X393207Y-328506D01*
X393365Y-328007D01*
X393601Y-327509D01*
X393732Y-327246D01*
X393916Y-326984D01*
X394099Y-326721D01*
X394336Y-326485D01*
X394362Y-326459D01*
X394388Y-326433D01*
X394467Y-326354D01*
X394572Y-326275D01*
X394703Y-326197D01*
X394860Y-326065D01*
X395044Y-325960D01*
X395254Y-325829D01*
X395516Y-325698D01*
X395779Y-325541D01*
X396067Y-325436D01*
X396409Y-325304D01*
X396750Y-325173D01*
X397143Y-325095D01*
X397537Y-324990D01*
X397983Y-324937D01*
X398167Y-326931D01*
X398140D01*
X398088D01*
X398035Y-326958D01*
X397931Y-326984D01*
X397668Y-327063D01*
X397327Y-327141D01*
X396986Y-327272D01*
X396619Y-327430D01*
X396304Y-327587D01*
X396015Y-327797D01*
X395963Y-327823D01*
X395858Y-327928D01*
X395726Y-328112D01*
X395543Y-328322D01*
X395359Y-328611D01*
X395228Y-328926D01*
X395123Y-329293D01*
X395070Y-329713D01*
Y-329791D01*
X395097Y-329870D01*
Y-330001D01*
X395149Y-330159D01*
X395175Y-330316D01*
X395333Y-330710D01*
X395464Y-330946D01*
X395595Y-331182D01*
X395779Y-331392D01*
X395989Y-331628D01*
X396225Y-331864D01*
X396540Y-332101D01*
X396855Y-332311D01*
X397248Y-332520D01*
X397274D01*
X397327Y-332547D01*
X397458Y-332599D01*
X397589Y-332652D01*
X397799Y-332730D01*
X398035Y-332809D01*
X398324Y-332888D01*
X398639Y-332966D01*
X399006Y-333071D01*
X399426Y-333150D01*
X399872Y-333229D01*
X400371Y-333281D01*
X400922Y-333360D01*
X401499Y-333386D01*
X402129Y-333439D01*
X402759D01*
X402732Y-333413D01*
X402575Y-333308D01*
X402339Y-333176D01*
X402050Y-332966D01*
X401735Y-332704D01*
X401420Y-332416D01*
X401105Y-332074D01*
X400817Y-331707D01*
X400791Y-331655D01*
X400712Y-331523D01*
X400607Y-331313D01*
X400476Y-331025D01*
X400345Y-330710D01*
X400240Y-330343D01*
X400161Y-329923D01*
X400135Y-329503D01*
Y-329319D01*
X400161Y-329188D01*
X400187Y-329004D01*
X400240Y-328821D01*
X400345Y-328348D01*
X400581Y-327823D01*
X400712Y-327535D01*
X400896Y-327246D01*
X401079Y-326958D01*
X401342Y-326669D01*
X401604Y-326380D01*
X401919Y-326118D01*
X401945Y-326092D01*
X401998Y-326065D01*
X402103Y-325987D01*
X402234Y-325882D01*
X402418Y-325777D01*
X402627Y-325646D01*
X402890Y-325514D01*
X403152Y-325383D01*
X403493Y-325252D01*
X403834Y-325121D01*
X404228Y-324990D01*
X404648Y-324885D01*
X405094Y-324780D01*
X405566Y-324701D01*
X406091Y-324675D01*
X406616Y-324648D01*
X406642D01*
X406695D01*
X406800D01*
X406957D01*
X407115Y-324675D01*
D02*
G37*
G36*
X365975Y-327902D02*
X383530D01*
Y-330054D01*
X365975D01*
Y-335433D01*
X363614D01*
Y-322497D01*
X365975D01*
Y-327902D01*
D02*
G37*
G36*
X-256972Y-432268D02*
X-255180Y-433010D01*
X-253568Y-434087D01*
X-252197Y-435458D01*
X-251120Y-437070D01*
X-250378Y-438861D01*
X-250000Y-440763D01*
Y-441732D01*
Y-442702D01*
X-250378Y-444603D01*
X-251120Y-446394D01*
X-252197Y-448006D01*
X-253568Y-449377D01*
X-255180Y-450455D01*
X-256972Y-451197D01*
X-258873Y-451575D01*
X-260812D01*
X-262714Y-451197D01*
X-264505Y-450455D01*
X-266117Y-449377D01*
X-267488Y-448006D01*
X-268565Y-446394D01*
X-269307Y-444603D01*
X-269685Y-442702D01*
Y-441732D01*
Y-440763D01*
X-269307Y-438861D01*
X-268565Y-437070D01*
X-267488Y-435458D01*
X-266117Y-434087D01*
X-264505Y-433010D01*
X-262714Y-432268D01*
X-260812Y-431890D01*
X-258873D01*
X-256972Y-432268D01*
D02*
G37*
G36*
X75841Y-449409D02*
X77883Y-449771D01*
X79832Y-450483D01*
X81627Y-451524D01*
X83213Y-452862D01*
X84541Y-454456D01*
X85571Y-456257D01*
X86271Y-458210D01*
X86620Y-460255D01*
X86608Y-462330D01*
X86421Y-463350D01*
X84646Y-473228D01*
X84648Y-473229D01*
X84478Y-474076D01*
X83855Y-475687D01*
X82965Y-477169D01*
X81836Y-478476D01*
X80500Y-479571D01*
X78996Y-480422D01*
X77369Y-481004D01*
X75667Y-481299D01*
X73939Y-481299D01*
X72237Y-481004D01*
X70610Y-480422D01*
X69106Y-479571D01*
X67770Y-478476D01*
X66641Y-477169D01*
X65751Y-475687D01*
X65128Y-474076D01*
X64959Y-473229D01*
X63186Y-463350D01*
X62999Y-462330D01*
X62986Y-460255D01*
X63335Y-458210D01*
X64035Y-456257D01*
X65066Y-454456D01*
X66394Y-452862D01*
X67980Y-451524D01*
X69774Y-450483D01*
X71723Y-449771D01*
X73766Y-449409D01*
X75841Y-449409D01*
D02*
G37*
G36*
X371116Y-449409D02*
X373159Y-449771D01*
X375108Y-450483D01*
X376902Y-451524D01*
X378488Y-452862D01*
X379816Y-454456D01*
X380846Y-456257D01*
X381547Y-458210D01*
X381896Y-460255D01*
X381883Y-462330D01*
X381696Y-463350D01*
X379921Y-473228D01*
X379923Y-473229D01*
X379754Y-474076D01*
X379130Y-475687D01*
X378241Y-477169D01*
X377112Y-478476D01*
X375776Y-479571D01*
X374272Y-480422D01*
X372645Y-481004D01*
X370943Y-481299D01*
X369215Y-481299D01*
X367512Y-481004D01*
X365886Y-480422D01*
X364382Y-479571D01*
X363046Y-478476D01*
X361916Y-477169D01*
X361027Y-475687D01*
X360404Y-474076D01*
X360234Y-473229D01*
X358461Y-463350D01*
X358274Y-462330D01*
X358262Y-460255D01*
X358611Y-458210D01*
X359311Y-456257D01*
X360341Y-454456D01*
X361669Y-452862D01*
X363255Y-451524D01*
X365050Y-450483D01*
X366998Y-449771D01*
X369041Y-449409D01*
X371116Y-449409D01*
D02*
G37*
G36*
X272691D02*
X274734Y-449771D01*
X276682Y-450483D01*
X278477Y-451524D01*
X280063Y-452862D01*
X281391Y-454456D01*
X282421Y-456257D01*
X283121Y-458210D01*
X283471Y-460255D01*
X283458Y-462330D01*
X283271Y-463350D01*
X281496Y-473228D01*
X281498Y-473229D01*
X281329Y-474076D01*
X280705Y-475687D01*
X279816Y-477169D01*
X278686Y-478476D01*
X277350Y-479571D01*
X275847Y-480422D01*
X274220Y-481004D01*
X272517Y-481299D01*
X270790Y-481299D01*
X269087Y-481004D01*
X267460Y-480422D01*
X265957Y-479571D01*
X264621Y-478476D01*
X263491Y-477169D01*
X262602Y-475687D01*
X261979Y-474076D01*
X261809Y-473229D01*
X260036Y-463350D01*
X259849Y-462330D01*
X259836Y-460255D01*
X260186Y-458210D01*
X260886Y-456257D01*
X261916Y-454456D01*
X263244Y-452862D01*
X264830Y-451524D01*
X266624Y-450483D01*
X268573Y-449771D01*
X270616Y-449409D01*
X272691Y-449409D01*
D02*
G37*
G36*
X174266D02*
X176309Y-449771D01*
X178257Y-450483D01*
X180052Y-451524D01*
X181638Y-452862D01*
X182966Y-454456D01*
X183996Y-456257D01*
X184696Y-458210D01*
X185046Y-460255D01*
X185033Y-462330D01*
X184846Y-463350D01*
X183071Y-473228D01*
X183073Y-473229D01*
X182903Y-474076D01*
X182280Y-475687D01*
X181391Y-477169D01*
X180261Y-478476D01*
X178925Y-479571D01*
X177421Y-480422D01*
X175795Y-481004D01*
X174092Y-481299D01*
X172364Y-481299D01*
X170662Y-481004D01*
X169035Y-480422D01*
X167532Y-479571D01*
X166195Y-478476D01*
X165066Y-477169D01*
X164177Y-475687D01*
X163553Y-474076D01*
X163384Y-473229D01*
X161611Y-463350D01*
X161424Y-462330D01*
X161411Y-460255D01*
X161760Y-458210D01*
X162461Y-456257D01*
X163491Y-454456D01*
X164819Y-452862D01*
X166405Y-451524D01*
X168199Y-450483D01*
X170148Y-449771D01*
X172191Y-449409D01*
X174266Y-449409D01*
D02*
G37*
G36*
X-22585D02*
X-20542Y-449771D01*
X-18593Y-450483D01*
X-16798Y-451524D01*
X-15213Y-452862D01*
X-13884Y-454456D01*
X-12854Y-456257D01*
X-12154Y-458210D01*
X-11805Y-460255D01*
X-11818Y-462330D01*
X-12005Y-463350D01*
X-13780Y-473228D01*
X-13778Y-473229D01*
X-13947Y-474076D01*
X-14570Y-475687D01*
X-15460Y-477169D01*
X-16589Y-478476D01*
X-17925Y-479571D01*
X-19429Y-480422D01*
X-21056Y-481004D01*
X-22758Y-481299D01*
X-24486Y-481299D01*
X-26188Y-481004D01*
X-27815Y-480422D01*
X-29319Y-479571D01*
X-30655Y-478476D01*
X-31784Y-477169D01*
X-32674Y-475687D01*
X-33297Y-474076D01*
X-33467Y-473229D01*
X-35239Y-463350D01*
X-35427Y-462330D01*
X-35439Y-460255D01*
X-35090Y-458210D01*
X-34390Y-456257D01*
X-33360Y-454456D01*
X-32031Y-452862D01*
X-30446Y-451524D01*
X-28651Y-450483D01*
X-26702Y-449771D01*
X-24659Y-449409D01*
X-22585Y-449409D01*
D02*
G37*
G36*
X-121010D02*
X-118967Y-449771D01*
X-117018Y-450483D01*
X-115224Y-451524D01*
X-113638Y-452862D01*
X-112310Y-454456D01*
X-111280Y-456257D01*
X-110579Y-458210D01*
X-110230Y-460255D01*
X-110243Y-462330D01*
X-110430Y-463350D01*
X-112205Y-473228D01*
X-112203Y-473229D01*
X-112372Y-474076D01*
X-112996Y-475687D01*
X-113885Y-477169D01*
X-115014Y-478476D01*
X-116350Y-479571D01*
X-117854Y-480422D01*
X-119481Y-481004D01*
X-121183Y-481299D01*
X-122911Y-481299D01*
X-124613Y-481004D01*
X-126240Y-480422D01*
X-127744Y-479571D01*
X-129080Y-478476D01*
X-130210Y-477169D01*
X-131099Y-475687D01*
X-131722Y-474076D01*
X-131892Y-473229D01*
X-133665Y-463350D01*
X-133852Y-462330D01*
X-133864Y-460255D01*
X-133515Y-458210D01*
X-132815Y-456257D01*
X-131785Y-454456D01*
X-130457Y-452862D01*
X-128871Y-451524D01*
X-127076Y-450483D01*
X-125128Y-449771D01*
X-123085Y-449409D01*
X-121010Y-449409D01*
D02*
G37*
G36*
X-219435D02*
X-217392Y-449771D01*
X-215443Y-450483D01*
X-213649Y-451524D01*
X-212063Y-452862D01*
X-210735Y-454456D01*
X-209705Y-456257D01*
X-209004Y-458210D01*
X-208655Y-460255D01*
X-208668Y-462330D01*
X-208855Y-463350D01*
X-210630Y-473228D01*
X-210628Y-473229D01*
X-210797Y-474076D01*
X-211421Y-475687D01*
X-212310Y-477169D01*
X-213439Y-478476D01*
X-214776Y-479571D01*
X-216279Y-480422D01*
X-217906Y-481004D01*
X-219609Y-481299D01*
X-221336Y-481299D01*
X-223039Y-481004D01*
X-224666Y-480422D01*
X-226169Y-479571D01*
X-227505Y-478476D01*
X-228635Y-477169D01*
X-229524Y-475687D01*
X-230147Y-474076D01*
X-230317Y-473229D01*
X-232090Y-463350D01*
X-232277Y-462330D01*
X-232290Y-460255D01*
X-231940Y-458210D01*
X-231240Y-456257D01*
X-230210Y-454456D01*
X-228882Y-452862D01*
X-227296Y-451524D01*
X-225501Y-450483D01*
X-223553Y-449771D01*
X-221510Y-449409D01*
X-219435Y-449409D01*
D02*
G37*
%LPC*%
G36*
X404438Y-186652D02*
X404412D01*
X404359D01*
X404254Y-186679D01*
X404123D01*
X403966Y-186705D01*
X403808Y-186731D01*
X403388Y-186810D01*
X402942Y-186915D01*
X402470Y-187072D01*
X402050Y-187230D01*
X401657Y-187466D01*
X401630D01*
X401604Y-187518D01*
X401447Y-187649D01*
X401237Y-187859D01*
X400974Y-188148D01*
X400738Y-188489D01*
X400528Y-188909D01*
X400371Y-189408D01*
X400345Y-189670D01*
X400318Y-189932D01*
Y-190064D01*
X400345Y-190142D01*
X400371Y-190405D01*
X400450Y-190719D01*
X400581Y-191087D01*
X400791Y-191454D01*
X401079Y-191848D01*
X401237Y-192032D01*
X401447Y-192215D01*
X401499Y-192268D01*
X401657Y-192373D01*
X401893Y-192530D01*
X402234Y-192687D01*
X402654Y-192897D01*
X403179Y-193055D01*
X403756Y-193186D01*
X404438Y-193265D01*
Y-186652D01*
D02*
G37*
G36*
X374582Y-187046D02*
X373716D01*
X373690D01*
X373664D01*
X373506D01*
X373244D01*
X372929Y-187072D01*
X372535D01*
X372089Y-187098D01*
X371591Y-187125D01*
X371092Y-187151D01*
X369990Y-187282D01*
X369439Y-187361D01*
X368914Y-187440D01*
X368416Y-187544D01*
X367970Y-187676D01*
X367550Y-187833D01*
X367209Y-187990D01*
X367182D01*
X367130Y-188043D01*
X367051Y-188095D01*
X366946Y-188148D01*
X366684Y-188358D01*
X366369Y-188646D01*
X366080Y-188988D01*
X365818Y-189408D01*
X365713Y-189617D01*
X365634Y-189880D01*
X365582Y-190142D01*
X365556Y-190405D01*
Y-190536D01*
X365582Y-190641D01*
X365634Y-190877D01*
X365766Y-191192D01*
X365975Y-191559D01*
X366107Y-191743D01*
X366264Y-191953D01*
X366448Y-192136D01*
X366684Y-192320D01*
X366946Y-192504D01*
X367235Y-192687D01*
X367261D01*
X367314Y-192714D01*
X367419Y-192766D01*
X367576Y-192819D01*
X367760Y-192897D01*
X368022Y-192976D01*
X368311Y-193055D01*
X368678Y-193134D01*
X369098Y-193212D01*
X369544Y-193291D01*
X370095Y-193370D01*
X370672Y-193448D01*
X371328Y-193501D01*
X372063Y-193553D01*
X372850Y-193580D01*
X373716D01*
X373742D01*
X373769D01*
X373926D01*
X374162D01*
X374503Y-193553D01*
X374897D01*
X375343Y-193527D01*
X375815Y-193501D01*
X376340Y-193475D01*
X377442Y-193343D01*
X377993Y-193291D01*
X378518Y-193186D01*
X379017Y-193081D01*
X379463Y-192976D01*
X379883Y-192819D01*
X380224Y-192661D01*
X380250D01*
X380302Y-192609D01*
X380381Y-192556D01*
X380486Y-192504D01*
X380749Y-192294D01*
X381037Y-192005D01*
X381326Y-191664D01*
X381588Y-191270D01*
X381693Y-191034D01*
X381772Y-190798D01*
X381824Y-190536D01*
X381851Y-190273D01*
Y-190142D01*
X381824Y-190037D01*
X381772Y-189801D01*
X381641Y-189486D01*
X381457Y-189119D01*
X381300Y-188935D01*
X381142Y-188725D01*
X380958Y-188542D01*
X380749Y-188358D01*
X380486Y-188174D01*
X380198Y-187990D01*
X380171D01*
X380119Y-187938D01*
X380014Y-187912D01*
X379856Y-187833D01*
X379673Y-187781D01*
X379410Y-187702D01*
X379122Y-187597D01*
X378754Y-187518D01*
X378334Y-187440D01*
X377888Y-187335D01*
X377337Y-187256D01*
X376760Y-187203D01*
X376104Y-187125D01*
X375369Y-187098D01*
X374582Y-187046D01*
D02*
G37*
G36*
X406354Y-199169D02*
X405855D01*
X405829D01*
X405724D01*
X405592D01*
X405409Y-199195D01*
X405173D01*
X404910Y-199221D01*
X404595Y-199248D01*
X404281Y-199300D01*
X403624Y-199405D01*
X402942Y-199589D01*
X402286Y-199851D01*
X401971Y-200008D01*
X401709Y-200192D01*
X401683D01*
X401657Y-200245D01*
X401499Y-200376D01*
X401263Y-200586D01*
X401001Y-200901D01*
X400764Y-201268D01*
X400528Y-201688D01*
X400371Y-202186D01*
X400345Y-202449D01*
X400318Y-202737D01*
Y-202869D01*
X400345Y-202974D01*
X400397Y-203236D01*
X400502Y-203577D01*
X400659Y-203944D01*
X400896Y-204364D01*
X401053Y-204548D01*
X401237Y-204758D01*
X401473Y-204968D01*
X401709Y-205152D01*
X401735D01*
X401761Y-205204D01*
X401840Y-205230D01*
X401971Y-205309D01*
X402103Y-205388D01*
X402286Y-205466D01*
X402496Y-205545D01*
X402732Y-205650D01*
X403021Y-205755D01*
X403310Y-205834D01*
X403651Y-205912D01*
X404044Y-205991D01*
X404438Y-206044D01*
X404884Y-206096D01*
X405356Y-206149D01*
X405855D01*
X405881D01*
X405986D01*
X406117D01*
X406301Y-206122D01*
X406537D01*
X406800Y-206096D01*
X407088Y-206070D01*
X407403Y-206017D01*
X408085Y-205912D01*
X408768Y-205729D01*
X409424Y-205493D01*
X409738Y-205335D01*
X410001Y-205152D01*
X410027D01*
X410053Y-205099D01*
X410211Y-204968D01*
X410421Y-204758D01*
X410683Y-204443D01*
X410946Y-204076D01*
X411155Y-203656D01*
X411313Y-203157D01*
X411339Y-202895D01*
X411365Y-202606D01*
Y-202475D01*
X411339Y-202370D01*
X411287Y-202108D01*
X411182Y-201793D01*
X411024Y-201399D01*
X410788Y-201006D01*
X410631Y-200796D01*
X410447Y-200586D01*
X410237Y-200376D01*
X410001Y-200192D01*
X409975D01*
X409922Y-200140D01*
X409843Y-200087D01*
X409738Y-200035D01*
X409581Y-199956D01*
X409424Y-199877D01*
X409214Y-199772D01*
X408951Y-199667D01*
X408689Y-199589D01*
X408374Y-199484D01*
X408033Y-199405D01*
X407665Y-199326D01*
X407272Y-199274D01*
X406826Y-199221D01*
X406354Y-199169D01*
D02*
G37*
G36*
X374582Y-199720D02*
X373716D01*
X373690D01*
X373664D01*
X373506D01*
X373244D01*
X372929Y-199746D01*
X372535D01*
X372089Y-199772D01*
X371591Y-199799D01*
X371092Y-199825D01*
X369990Y-199956D01*
X369439Y-200035D01*
X368914Y-200113D01*
X368416Y-200218D01*
X367970Y-200350D01*
X367550Y-200507D01*
X367209Y-200664D01*
X367182D01*
X367130Y-200717D01*
X367051Y-200769D01*
X366946Y-200822D01*
X366684Y-201032D01*
X366369Y-201320D01*
X366080Y-201662D01*
X365818Y-202081D01*
X365713Y-202291D01*
X365634Y-202554D01*
X365582Y-202816D01*
X365556Y-203079D01*
Y-203210D01*
X365582Y-203315D01*
X365634Y-203551D01*
X365766Y-203866D01*
X365975Y-204233D01*
X366107Y-204417D01*
X366264Y-204627D01*
X366448Y-204810D01*
X366684Y-204994D01*
X366946Y-205178D01*
X367235Y-205361D01*
X367261D01*
X367314Y-205388D01*
X367419Y-205440D01*
X367576Y-205493D01*
X367760Y-205571D01*
X368022Y-205650D01*
X368311Y-205729D01*
X368678Y-205807D01*
X369098Y-205886D01*
X369544Y-205965D01*
X370095Y-206044D01*
X370672Y-206122D01*
X371328Y-206175D01*
X372063Y-206227D01*
X372850Y-206254D01*
X373716D01*
X373742D01*
X373769D01*
X373926D01*
X374162D01*
X374503Y-206227D01*
X374897D01*
X375343Y-206201D01*
X375815Y-206175D01*
X376340Y-206149D01*
X377442Y-206017D01*
X377993Y-205965D01*
X378518Y-205860D01*
X379017Y-205755D01*
X379463Y-205650D01*
X379883Y-205493D01*
X380224Y-205335D01*
X380250D01*
X380302Y-205283D01*
X380381Y-205230D01*
X380486Y-205178D01*
X380749Y-204968D01*
X381037Y-204679D01*
X381326Y-204338D01*
X381588Y-203944D01*
X381693Y-203708D01*
X381772Y-203472D01*
X381824Y-203210D01*
X381851Y-202947D01*
Y-202816D01*
X381824Y-202711D01*
X381772Y-202475D01*
X381641Y-202160D01*
X381457Y-201793D01*
X381300Y-201609D01*
X381142Y-201399D01*
X380958Y-201216D01*
X380749Y-201032D01*
X380486Y-200848D01*
X380198Y-200664D01*
X380171D01*
X380119Y-200612D01*
X380014Y-200586D01*
X379856Y-200507D01*
X379673Y-200454D01*
X379410Y-200376D01*
X379122Y-200271D01*
X378754Y-200192D01*
X378334Y-200113D01*
X377888Y-200008D01*
X377337Y-199930D01*
X376760Y-199877D01*
X376104Y-199799D01*
X375369Y-199772D01*
X374582Y-199720D01*
D02*
G37*
G36*
X398980Y-224805D02*
X398954D01*
X398928D01*
X398770D01*
X398560Y-224832D01*
X398272Y-224858D01*
X397957Y-224910D01*
X397616Y-225015D01*
X397274Y-225120D01*
X396960Y-225278D01*
X396933Y-225304D01*
X396828Y-225356D01*
X396671Y-225461D01*
X396487Y-225592D01*
X396304Y-225750D01*
X396120Y-225934D01*
X395936Y-226144D01*
X395805Y-226380D01*
X395779Y-226406D01*
X395753Y-226511D01*
X395700Y-226668D01*
X395648Y-226904D01*
X395595Y-227219D01*
X395543Y-227639D01*
X395490Y-228112D01*
Y-232887D01*
X402601D01*
Y-228479D01*
X402575Y-228348D01*
Y-228164D01*
X402549Y-227980D01*
X402496Y-227560D01*
X402391Y-227062D01*
X402234Y-226590D01*
X401998Y-226144D01*
X401709Y-225750D01*
X401657Y-225697D01*
X401552Y-225592D01*
X401342Y-225461D01*
X401027Y-225278D01*
X400659Y-225094D01*
X400187Y-224963D01*
X399636Y-224858D01*
X398980Y-224805D01*
D02*
G37*
G36*
X374923Y-244039D02*
X374897D01*
X374845D01*
X374740Y-244065D01*
X374608D01*
X374451Y-244092D01*
X374293Y-244118D01*
X373874Y-244197D01*
X373428Y-244302D01*
X372955Y-244459D01*
X372535Y-244616D01*
X372142Y-244853D01*
X372116D01*
X372089Y-244905D01*
X371932Y-245036D01*
X371722Y-245246D01*
X371460Y-245535D01*
X371223Y-245876D01*
X371013Y-246296D01*
X370856Y-246794D01*
X370830Y-247057D01*
X370804Y-247319D01*
Y-247450D01*
X370830Y-247529D01*
X370856Y-247792D01*
X370935Y-248106D01*
X371066Y-248474D01*
X371276Y-248841D01*
X371565Y-249235D01*
X371722Y-249418D01*
X371932Y-249602D01*
X371984Y-249655D01*
X372142Y-249760D01*
X372378Y-249917D01*
X372719Y-250074D01*
X373139Y-250284D01*
X373664Y-250442D01*
X374241Y-250573D01*
X374923Y-250652D01*
Y-244039D01*
D02*
G37*
G36*
X406012Y-252856D02*
X397065D01*
X406012Y-257999D01*
Y-252856D01*
D02*
G37*
G36*
X377206Y-275055D02*
X376288D01*
X376314Y-275107D01*
X376366Y-275265D01*
X376471Y-275527D01*
X376603Y-275868D01*
X376760Y-276341D01*
X376918Y-276892D01*
X377049Y-277574D01*
X377206Y-278335D01*
Y-278387D01*
X377259Y-278545D01*
X377285Y-278755D01*
X377364Y-279017D01*
X377521Y-279594D01*
X377626Y-279883D01*
X377731Y-280093D01*
Y-280119D01*
X377783Y-280172D01*
X377836Y-280277D01*
X377915Y-280382D01*
X378177Y-280644D01*
X378518Y-280880D01*
X378544D01*
X378597Y-280933D01*
X378702Y-280959D01*
X378859Y-281011D01*
X379017Y-281064D01*
X379227Y-281090D01*
X379699Y-281142D01*
X379751D01*
X379856D01*
X380066Y-281116D01*
X380276Y-281064D01*
X380539Y-280985D01*
X380827Y-280880D01*
X381090Y-280723D01*
X381352Y-280513D01*
X381378Y-280486D01*
X381457Y-280408D01*
X381536Y-280250D01*
X381641Y-280067D01*
X381772Y-279804D01*
X381851Y-279516D01*
X381929Y-279148D01*
X381956Y-278755D01*
Y-278571D01*
X381929Y-278361D01*
X381877Y-278099D01*
X381824Y-277810D01*
X381719Y-277469D01*
X381588Y-277154D01*
X381404Y-276813D01*
X381378Y-276760D01*
X381300Y-276656D01*
X381168Y-276498D01*
X381011Y-276314D01*
X380801Y-276104D01*
X380539Y-275894D01*
X380250Y-275685D01*
X379935Y-275501D01*
X379883Y-275475D01*
X379751Y-275422D01*
X379541Y-275370D01*
X379227Y-275265D01*
X378859Y-275186D01*
X378387Y-275134D01*
X377836Y-275081D01*
X377206Y-275055D01*
D02*
G37*
G36*
X406012Y-278204D02*
X397065D01*
X406012Y-283347D01*
Y-278204D01*
D02*
G37*
G36*
X376786Y-287047D02*
X376261D01*
X376235D01*
X376130D01*
X375999D01*
X375789Y-287073D01*
X375553D01*
X375291Y-287099D01*
X375002Y-287125D01*
X374661Y-287152D01*
X373979Y-287283D01*
X373296Y-287440D01*
X372640Y-287676D01*
X372325Y-287834D01*
X372063Y-287991D01*
X372037D01*
X372011Y-288044D01*
X371853Y-288149D01*
X371643Y-288358D01*
X371381Y-288621D01*
X371118Y-288962D01*
X370908Y-289356D01*
X370751Y-289802D01*
X370725Y-290038D01*
X370699Y-290274D01*
Y-290326D01*
X370725Y-290484D01*
X370777Y-290720D01*
X370882Y-291009D01*
X371066Y-291350D01*
X371328Y-291717D01*
X371486Y-291901D01*
X371670Y-292085D01*
X371906Y-292295D01*
X372168Y-292478D01*
X372194D01*
X372247Y-292531D01*
X372325Y-292557D01*
X372430Y-292636D01*
X372588Y-292714D01*
X372772Y-292793D01*
X373008Y-292872D01*
X373244Y-292951D01*
X373533Y-293056D01*
X373847Y-293134D01*
X374188Y-293213D01*
X374582Y-293292D01*
X375002Y-293370D01*
X375448Y-293397D01*
X375920Y-293449D01*
X376419D01*
X376445D01*
X376550D01*
X376681D01*
X376865Y-293423D01*
X377101D01*
X377364Y-293397D01*
X377678Y-293370D01*
X377993Y-293344D01*
X378649Y-293213D01*
X379332Y-293056D01*
X379988Y-292846D01*
X380276Y-292688D01*
X380539Y-292531D01*
X380565D01*
X380591Y-292478D01*
X380749Y-292373D01*
X380958Y-292163D01*
X381195Y-291901D01*
X381431Y-291560D01*
X381641Y-291166D01*
X381798Y-290720D01*
X381824Y-290484D01*
X381851Y-290248D01*
Y-290195D01*
X381824Y-290038D01*
X381772Y-289802D01*
X381667Y-289487D01*
X381509Y-289146D01*
X381273Y-288778D01*
X381116Y-288595D01*
X380932Y-288385D01*
X380722Y-288201D01*
X380486Y-288017D01*
X380460D01*
X380434Y-287965D01*
X380329Y-287939D01*
X380224Y-287860D01*
X380093Y-287781D01*
X379909Y-287702D01*
X379699Y-287624D01*
X379436Y-287519D01*
X379174Y-287440D01*
X378859Y-287361D01*
X378518Y-287283D01*
X378124Y-287204D01*
X377705Y-287125D01*
X377259Y-287099D01*
X376786Y-287047D01*
D02*
G37*
G36*
Y-299720D02*
X376261D01*
X376235D01*
X376130D01*
X375999D01*
X375789Y-299747D01*
X375553D01*
X375291Y-299773D01*
X375002Y-299799D01*
X374661Y-299825D01*
X373979Y-299957D01*
X373296Y-300114D01*
X372640Y-300350D01*
X372325Y-300508D01*
X372063Y-300665D01*
X372037D01*
X372011Y-300718D01*
X371853Y-300822D01*
X371643Y-301032D01*
X371381Y-301295D01*
X371118Y-301636D01*
X370908Y-302030D01*
X370751Y-302476D01*
X370725Y-302712D01*
X370699Y-302948D01*
Y-303000D01*
X370725Y-303158D01*
X370777Y-303394D01*
X370882Y-303683D01*
X371066Y-304024D01*
X371328Y-304391D01*
X371486Y-304575D01*
X371670Y-304759D01*
X371906Y-304968D01*
X372168Y-305152D01*
X372194D01*
X372247Y-305205D01*
X372325Y-305231D01*
X372430Y-305310D01*
X372588Y-305388D01*
X372772Y-305467D01*
X373008Y-305546D01*
X373244Y-305624D01*
X373533Y-305729D01*
X373847Y-305808D01*
X374188Y-305887D01*
X374582Y-305966D01*
X375002Y-306044D01*
X375448Y-306070D01*
X375920Y-306123D01*
X376419D01*
X376445D01*
X376550D01*
X376681D01*
X376865Y-306097D01*
X377101D01*
X377364Y-306070D01*
X377678Y-306044D01*
X377993Y-306018D01*
X378649Y-305887D01*
X379332Y-305729D01*
X379988Y-305520D01*
X380276Y-305362D01*
X380539Y-305205D01*
X380565D01*
X380591Y-305152D01*
X380749Y-305047D01*
X380958Y-304837D01*
X381195Y-304575D01*
X381431Y-304234D01*
X381641Y-303840D01*
X381798Y-303394D01*
X381824Y-303158D01*
X381851Y-302922D01*
Y-302869D01*
X381824Y-302712D01*
X381772Y-302476D01*
X381667Y-302161D01*
X381509Y-301820D01*
X381273Y-301452D01*
X381116Y-301269D01*
X380932Y-301059D01*
X380722Y-300875D01*
X380486Y-300691D01*
X380460D01*
X380434Y-300639D01*
X380329Y-300613D01*
X380224Y-300534D01*
X380093Y-300455D01*
X379909Y-300376D01*
X379699Y-300298D01*
X379436Y-300193D01*
X379174Y-300114D01*
X378859Y-300035D01*
X378518Y-299957D01*
X378124Y-299878D01*
X377705Y-299799D01*
X377259Y-299773D01*
X376786Y-299720D01*
D02*
G37*
G36*
X406012Y-303552D02*
X397065D01*
X406012Y-308695D01*
Y-303552D01*
D02*
G37*
G36*
X376839Y-312342D02*
X376340D01*
X376314D01*
X376209D01*
X376078D01*
X375894Y-312368D01*
X375658D01*
X375396Y-312394D01*
X375081Y-312421D01*
X374766Y-312473D01*
X374110Y-312578D01*
X373428Y-312762D01*
X372772Y-313024D01*
X372457Y-313182D01*
X372194Y-313365D01*
X372168D01*
X372142Y-313418D01*
X371984Y-313549D01*
X371748Y-313759D01*
X371486Y-314074D01*
X371250Y-314441D01*
X371013Y-314861D01*
X370856Y-315359D01*
X370830Y-315622D01*
X370804Y-315911D01*
Y-316042D01*
X370830Y-316147D01*
X370882Y-316409D01*
X370987Y-316750D01*
X371145Y-317118D01*
X371381Y-317537D01*
X371538Y-317721D01*
X371722Y-317931D01*
X371958Y-318141D01*
X372194Y-318325D01*
X372220D01*
X372247Y-318377D01*
X372325Y-318403D01*
X372457Y-318482D01*
X372588Y-318561D01*
X372772Y-318639D01*
X372982Y-318718D01*
X373218Y-318823D01*
X373506Y-318928D01*
X373795Y-319007D01*
X374136Y-319086D01*
X374530Y-319164D01*
X374923Y-319217D01*
X375369Y-319269D01*
X375842Y-319322D01*
X376340D01*
X376366D01*
X376471D01*
X376603D01*
X376786Y-319296D01*
X377022D01*
X377285Y-319269D01*
X377573Y-319243D01*
X377888Y-319191D01*
X378571Y-319086D01*
X379253Y-318902D01*
X379909Y-318666D01*
X380224Y-318508D01*
X380486Y-318325D01*
X380512D01*
X380539Y-318272D01*
X380696Y-318141D01*
X380906Y-317931D01*
X381168Y-317616D01*
X381431Y-317249D01*
X381641Y-316829D01*
X381798Y-316330D01*
X381824Y-316068D01*
X381851Y-315779D01*
Y-315648D01*
X381824Y-315543D01*
X381772Y-315281D01*
X381667Y-314966D01*
X381509Y-314572D01*
X381273Y-314179D01*
X381116Y-313969D01*
X380932Y-313759D01*
X380722Y-313549D01*
X380486Y-313365D01*
X380460D01*
X380407Y-313313D01*
X380329Y-313260D01*
X380224Y-313208D01*
X380066Y-313129D01*
X379909Y-313050D01*
X379699Y-312945D01*
X379436Y-312840D01*
X379174Y-312762D01*
X378859Y-312657D01*
X378518Y-312578D01*
X378151Y-312499D01*
X377757Y-312447D01*
X377311Y-312394D01*
X376839Y-312342D01*
D02*
G37*
G36*
X406747Y-326695D02*
X406721D01*
X406642D01*
X406537D01*
X406406Y-326721D01*
X406222D01*
X406012Y-326748D01*
X405540Y-326800D01*
X405015Y-326931D01*
X404464Y-327089D01*
X403939Y-327325D01*
X403467Y-327640D01*
X403441D01*
X403415Y-327692D01*
X403283Y-327797D01*
X403100Y-328007D01*
X402864Y-328270D01*
X402654Y-328584D01*
X402470Y-328978D01*
X402339Y-329424D01*
X402286Y-329660D01*
Y-329949D01*
X402313Y-330106D01*
X402339Y-330343D01*
X402444Y-330657D01*
X402575Y-330998D01*
X402785Y-331392D01*
X403074Y-331786D01*
X403257Y-331969D01*
X403467Y-332153D01*
X403520Y-332206D01*
X403677Y-332311D01*
X403939Y-332468D01*
X404281Y-332625D01*
X404727Y-332809D01*
X405278Y-332966D01*
X405881Y-333071D01*
X406590Y-333124D01*
X406616D01*
X406695D01*
X406800D01*
X406957Y-333098D01*
X407141D01*
X407351Y-333071D01*
X407849Y-332993D01*
X408400Y-332888D01*
X408978Y-332704D01*
X409555Y-332468D01*
X410080Y-332127D01*
X410106D01*
X410132Y-332074D01*
X410289Y-331943D01*
X410473Y-331733D01*
X410709Y-331445D01*
X410946Y-331103D01*
X411155Y-330710D01*
X411313Y-330238D01*
X411339Y-330001D01*
X411365Y-329765D01*
Y-329713D01*
X411339Y-329555D01*
X411287Y-329345D01*
X411208Y-329057D01*
X411051Y-328716D01*
X410841Y-328348D01*
X410526Y-327981D01*
X410342Y-327823D01*
X410132Y-327640D01*
X410106D01*
X410080Y-327587D01*
X410001Y-327561D01*
X409896Y-327482D01*
X409791Y-327430D01*
X409633Y-327351D01*
X409240Y-327168D01*
X408768Y-326984D01*
X408190Y-326853D01*
X407508Y-326748D01*
X406747Y-326695D01*
D02*
G37*
%LPD*%
D10*
X-204724Y-506693D02*
G03*
X-236221Y-506693I-15748J0D01*
G01*
X385827D02*
G03*
X354331Y-506693I-15748J0D01*
G01*
X-236221Y568110D02*
G03*
X-204724Y568110I15748J0D01*
G01*
X354331D02*
G03*
X385827Y568110I15748J0D01*
G01*
X420866Y-520472D02*
X448819Y-492520D01*
X74803Y-520472D02*
X354331D01*
X-204724D02*
X74803D01*
X-204724D02*
Y-506693D01*
X-236221Y-520472D02*
Y-506693D01*
X385827Y-520472D02*
Y-506693D01*
X354331Y-520472D02*
Y-506693D01*
X-299213Y-492520D02*
X-271260Y-520472D01*
X385827D02*
X420866D01*
X-271260D02*
X-236221D01*
X385827Y581890D02*
X420866D01*
X-271260D02*
X-236221D01*
X420866D02*
X448819Y553937D01*
X-204724Y568110D02*
Y581890D01*
X-236221Y568110D02*
Y581890D01*
X385827Y568110D02*
Y581890D01*
X354331Y568110D02*
Y581890D01*
X74803D02*
X354331D01*
X-204724D02*
X74803D01*
X-299213Y553937D02*
X-271260Y581890D01*
X-299213Y-492520D02*
Y553937D01*
X448819Y-492520D02*
Y553937D01*
D11*
X53933Y49378D02*
D03*
Y46228D02*
D03*
Y43079D02*
D03*
X62988Y49378D02*
D03*
Y46228D02*
D03*
Y43079D02*
D03*
D12*
X140157Y22047D02*
D03*
D13*
Y25197D02*
D03*
X134646Y22047D02*
D03*
Y25197D02*
D03*
D14*
X72913Y23209D02*
D03*
X82756D02*
D03*
X77835D02*
D03*
X87677D02*
D03*
X92598D02*
D03*
D15*
X67992D02*
D03*
D16*
X60512Y14173D02*
D03*
X100079D02*
D03*
D17*
X54232Y18110D02*
D03*
X50492D02*
D03*
X49473Y38544D02*
D03*
X53213D02*
D03*
X36713Y20472D02*
D03*
X40453D02*
D03*
Y16535D02*
D03*
X36713D02*
D03*
D18*
X6299Y23228D02*
D03*
X8858D02*
D03*
X11417D02*
D03*
X13976D02*
D03*
X16535D02*
D03*
X19094D02*
D03*
X21654D02*
D03*
X24213D02*
D03*
X26772D02*
D03*
X29331D02*
D03*
X6299Y46457D02*
D03*
X8858D02*
D03*
X11417D02*
D03*
X13976D02*
D03*
X16535D02*
D03*
X19094D02*
D03*
X21654D02*
D03*
X24213D02*
D03*
X26772D02*
D03*
X29331D02*
D03*
D19*
X33858Y45984D02*
D03*
Y42205D02*
D03*
X49213Y45748D02*
D03*
Y49528D02*
D03*
X130709Y21732D02*
D03*
Y25512D02*
D03*
X21654Y12520D02*
D03*
Y8740D02*
D03*
X30315Y12047D02*
D03*
Y8268D02*
D03*
X37008Y12126D02*
D03*
Y8347D02*
D03*
D20*
X11756Y8032D02*
D03*
Y10000D02*
D03*
Y11969D02*
D03*
X6244D02*
D03*
Y8032D02*
D03*
D21*
X9370Y17717D02*
D03*
X5590D02*
D03*
X22215Y52080D02*
D03*
X18436D02*
D03*
X63307Y38583D02*
D03*
X59527D02*
D03*
D22*
X16929Y13484D02*
D03*
Y7776D02*
D03*
D23*
X26378Y8287D02*
D03*
Y12028D02*
D03*
X40945Y8366D02*
D03*
Y12106D02*
D03*
D24*
X50000Y13780D02*
D03*
X48031D02*
D03*
X46063D02*
D03*
Y8268D02*
D03*
X50000D02*
D03*
M02*
