G04*
G04 #@! TF.GenerationSoftware,Altium Limited,Altium Designer,21.5.1 (32)*
G04*
G04 Layer_Physical_Order=1*
G04 Layer_Color=255*
%FSLAX25Y25*%
%MOIN*%
G70*
G04*
G04 #@! TF.SameCoordinates,39876A4E-BCA0-42A6-88EB-BCD9F64C9596*
G04*
G04*
G04 #@! TF.FilePolarity,Positive*
G04*
G01*
G75*
%ADD10C,0.01000*%
%ADD29C,0.03347*%
%ADD30C,0.00787*%
G04:AMPARAMS|DCode=31|XSize=15.75mil|YSize=21.65mil|CornerRadius=0mil|HoleSize=0mil|Usage=FLASHONLY|Rotation=270.000|XOffset=0mil|YOffset=0mil|HoleType=Round|Shape=RoundedRectangle|*
%AMROUNDEDRECTD31*
21,1,0.01575,0.02165,0,0,270.0*
21,1,0.01575,0.02165,0,0,270.0*
1,1,0.00000,-0.01083,-0.00787*
1,1,0.00000,-0.01083,0.00787*
1,1,0.00000,0.01083,0.00787*
1,1,0.00000,0.01083,-0.00787*
%
%ADD31ROUNDEDRECTD31*%
%ADD32R,0.00394X0.00394*%
G04:AMPARAMS|DCode=33|XSize=11.81mil|YSize=19.68mil|CornerRadius=1.18mil|HoleSize=0mil|Usage=FLASHONLY|Rotation=270.000|XOffset=0mil|YOffset=0mil|HoleType=Round|Shape=RoundedRectangle|*
%AMROUNDEDRECTD33*
21,1,0.01181,0.01732,0,0,270.0*
21,1,0.00945,0.01968,0,0,270.0*
1,1,0.00236,-0.00866,-0.00472*
1,1,0.00236,-0.00866,0.00472*
1,1,0.00236,0.00866,0.00472*
1,1,0.00236,0.00866,-0.00472*
%
%ADD33ROUNDEDRECTD33*%
%ADD34R,0.01968X0.01181*%
G04:AMPARAMS|DCode=35|XSize=31.5mil|YSize=47.24mil|CornerRadius=3.15mil|HoleSize=0mil|Usage=FLASHONLY|Rotation=0.000|XOffset=0mil|YOffset=0mil|HoleType=Round|Shape=RoundedRectangle|*
%AMROUNDEDRECTD35*
21,1,0.03150,0.04095,0,0,0.0*
21,1,0.02520,0.04724,0,0,0.0*
1,1,0.00630,0.01260,-0.02047*
1,1,0.00630,-0.01260,-0.02047*
1,1,0.00630,-0.01260,0.02047*
1,1,0.00630,0.01260,0.02047*
%
%ADD35ROUNDEDRECTD35*%
%ADD36R,0.03150X0.04724*%
G04:AMPARAMS|DCode=37|XSize=51.18mil|YSize=84.65mil|CornerRadius=5.12mil|HoleSize=0mil|Usage=FLASHONLY|Rotation=0.000|XOffset=0mil|YOffset=0mil|HoleType=Round|Shape=RoundedRectangle|*
%AMROUNDEDRECTD37*
21,1,0.05118,0.07441,0,0,0.0*
21,1,0.04095,0.08465,0,0,0.0*
1,1,0.01024,0.02047,-0.03720*
1,1,0.01024,-0.02047,-0.03720*
1,1,0.01024,-0.02047,0.03720*
1,1,0.01024,0.02047,0.03720*
%
%ADD37ROUNDEDRECTD37*%
G04:AMPARAMS|DCode=38|XSize=21.65mil|YSize=19.68mil|CornerRadius=1.97mil|HoleSize=0mil|Usage=FLASHONLY|Rotation=90.000|XOffset=0mil|YOffset=0mil|HoleType=Round|Shape=RoundedRectangle|*
%AMROUNDEDRECTD38*
21,1,0.02165,0.01575,0,0,90.0*
21,1,0.01772,0.01968,0,0,90.0*
1,1,0.00394,0.00787,0.00886*
1,1,0.00394,0.00787,-0.00886*
1,1,0.00394,-0.00787,-0.00886*
1,1,0.00394,-0.00787,0.00886*
%
%ADD38ROUNDEDRECTD38*%
%ADD39C,0.03100*%
G04:AMPARAMS|DCode=40|XSize=17.72mil|YSize=55.12mil|CornerRadius=2.66mil|HoleSize=0mil|Usage=FLASHONLY|Rotation=0.000|XOffset=0mil|YOffset=0mil|HoleType=Round|Shape=RoundedRectangle|*
%AMROUNDEDRECTD40*
21,1,0.01772,0.04980,0,0,0.0*
21,1,0.01240,0.05512,0,0,0.0*
1,1,0.00532,0.00620,-0.02490*
1,1,0.00532,-0.00620,-0.02490*
1,1,0.00532,-0.00620,0.02490*
1,1,0.00532,0.00620,0.02490*
%
%ADD40ROUNDEDRECTD40*%
G04:AMPARAMS|DCode=41|XSize=25.2mil|YSize=23.62mil|CornerRadius=2.36mil|HoleSize=0mil|Usage=FLASHONLY|Rotation=180.000|XOffset=0mil|YOffset=0mil|HoleType=Round|Shape=RoundedRectangle|*
%AMROUNDEDRECTD41*
21,1,0.02520,0.01890,0,0,180.0*
21,1,0.02047,0.02362,0,0,180.0*
1,1,0.00472,-0.01024,0.00945*
1,1,0.00472,0.01024,0.00945*
1,1,0.00472,0.01024,-0.00945*
1,1,0.00472,-0.01024,-0.00945*
%
%ADD41ROUNDEDRECTD41*%
%ADD42R,0.02165X0.00984*%
G04:AMPARAMS|DCode=43|XSize=25.2mil|YSize=23.62mil|CornerRadius=2.36mil|HoleSize=0mil|Usage=FLASHONLY|Rotation=270.000|XOffset=0mil|YOffset=0mil|HoleType=Round|Shape=RoundedRectangle|*
%AMROUNDEDRECTD43*
21,1,0.02520,0.01890,0,0,270.0*
21,1,0.02047,0.02362,0,0,270.0*
1,1,0.00472,-0.00945,-0.01024*
1,1,0.00472,-0.00945,0.01024*
1,1,0.00472,0.00945,0.01024*
1,1,0.00472,0.00945,-0.01024*
%
%ADD43ROUNDEDRECTD43*%
G04:AMPARAMS|DCode=44|XSize=37.4mil|YSize=39.37mil|CornerRadius=3.74mil|HoleSize=0mil|Usage=FLASHONLY|Rotation=0.000|XOffset=0mil|YOffset=0mil|HoleType=Round|Shape=RoundedRectangle|*
%AMROUNDEDRECTD44*
21,1,0.03740,0.03189,0,0,0.0*
21,1,0.02992,0.03937,0,0,0.0*
1,1,0.00748,0.01496,-0.01595*
1,1,0.00748,-0.01496,-0.01595*
1,1,0.00748,-0.01496,0.01595*
1,1,0.00748,0.01496,0.01595*
%
%ADD44ROUNDEDRECTD44*%
G04:AMPARAMS|DCode=45|XSize=21.65mil|YSize=19.68mil|CornerRadius=1.97mil|HoleSize=0mil|Usage=FLASHONLY|Rotation=180.000|XOffset=0mil|YOffset=0mil|HoleType=Round|Shape=RoundedRectangle|*
%AMROUNDEDRECTD45*
21,1,0.02165,0.01575,0,0,180.0*
21,1,0.01772,0.01968,0,0,180.0*
1,1,0.00394,-0.00886,0.00787*
1,1,0.00394,0.00886,0.00787*
1,1,0.00394,0.00886,-0.00787*
1,1,0.00394,-0.00886,-0.00787*
%
%ADD45ROUNDEDRECTD45*%
%ADD46R,0.00984X0.02165*%
%ADD47C,0.00591*%
%ADD48C,0.02362*%
G36*
X70866Y52976D02*
X69488D01*
X69027Y52884D01*
X68637Y52623D01*
X68637Y52623D01*
X67183Y51169D01*
X66929Y51220D01*
X66161Y51067D01*
X65510Y50632D01*
X65358Y50405D01*
X65003Y50513D01*
X64858Y50953D01*
D01*
X64803Y51453D01*
X64961Y51635D01*
X65729Y51787D01*
X66380Y52223D01*
X66815Y52874D01*
X66968Y53642D01*
X66815Y54410D01*
X66380Y55061D01*
X65729Y55496D01*
X64961Y55649D01*
X64193Y55496D01*
X63541Y55061D01*
X63106Y54410D01*
X62954Y53642D01*
X63004Y53388D01*
X62534Y52918D01*
X62273Y52528D01*
X62182Y52067D01*
X62182Y52067D01*
Y50953D01*
X61118D01*
Y50394D01*
X55803Y50394D01*
Y50953D01*
X54636D01*
X54558Y51346D01*
X54297Y51737D01*
X54297Y51737D01*
X53214Y52820D01*
X52823Y53081D01*
X52362Y53173D01*
X52362Y53173D01*
X37520D01*
X37520Y53173D01*
X37520Y53173D01*
X30709D01*
X30709Y53173D01*
X30248Y53081D01*
X29857Y52820D01*
X28479Y51442D01*
X28218Y51051D01*
X28126Y50591D01*
X28126Y50590D01*
Y50000D01*
X27495D01*
X27392Y50021D01*
X27065D01*
X26914Y50521D01*
X27249Y50744D01*
X27684Y51396D01*
X27837Y52164D01*
X27684Y52932D01*
X27249Y53583D01*
X26598Y54018D01*
X25829Y54171D01*
X25061Y54018D01*
X24560Y53683D01*
X24364Y53602D01*
X23940Y53779D01*
X23898Y53842D01*
X23560Y54068D01*
X23160Y54147D01*
X21270D01*
X20871Y54068D01*
X20826Y54037D01*
X20260Y53983D01*
X19857Y54253D01*
X19380Y54348D01*
X18829D01*
Y52080D01*
X18436D01*
Y51686D01*
X16246D01*
Y51056D01*
X16341Y50580D01*
X16381Y50521D01*
X16114Y50021D01*
X15915D01*
X15812Y50000D01*
X14700D01*
X14596Y50021D01*
X13356D01*
X13253Y50000D01*
X12141D01*
X12037Y50021D01*
X10797D01*
X10694Y50000D01*
X9582D01*
X9478Y50021D01*
X8238D01*
X8134Y50000D01*
X7690D01*
X7431Y50412D01*
X7438Y50500D01*
X7586Y51245D01*
X7434Y52014D01*
X6999Y52665D01*
X6347Y53100D01*
X5579Y53253D01*
X4811Y53100D01*
X4160Y52665D01*
X3725Y52014D01*
X3572Y51245D01*
X3623Y50992D01*
X3086Y50455D01*
X2824Y50064D01*
X2733Y49603D01*
X2733Y49603D01*
Y31496D01*
X2733Y31496D01*
X2824Y31035D01*
X3086Y30645D01*
X5095Y28635D01*
Y26595D01*
X4920Y26478D01*
X4687Y26129D01*
X4605Y25719D01*
Y20738D01*
X4656Y20484D01*
X4655Y20438D01*
X4450Y20042D01*
X4354Y19926D01*
X4169Y19890D01*
X3766Y19620D01*
X3496Y19216D01*
X3401Y18740D01*
Y18110D01*
X5590D01*
Y17323D01*
X3401D01*
Y16693D01*
X3496Y16217D01*
X3766Y15813D01*
X3706Y15252D01*
X3086Y14631D01*
X2824Y14240D01*
X2733Y13780D01*
X2733Y13780D01*
Y12598D01*
X2733Y12598D01*
X2824Y12138D01*
X3086Y11747D01*
X3479Y11353D01*
X3479Y11353D01*
X3715Y11117D01*
X4106Y10856D01*
X4374Y10803D01*
Y10689D01*
X7851D01*
Y9311D01*
X4374D01*
Y6752D01*
X8114D01*
Y7192D01*
X8614Y7399D01*
X8833Y7180D01*
X9224Y6919D01*
X9685Y6827D01*
X9886D01*
Y6752D01*
X13626D01*
X14048Y6564D01*
Y6181D01*
X14154Y5651D01*
X14454Y5202D01*
X14903Y4902D01*
X15433Y4796D01*
X16535D01*
Y7776D01*
X17323D01*
Y4796D01*
X18425D01*
X18955Y4902D01*
X19404Y5202D01*
X19705Y5651D01*
X19810Y6181D01*
Y6320D01*
X20310Y6615D01*
X20630Y6551D01*
X21260D01*
Y8740D01*
X21654D01*
Y9134D01*
X23922D01*
Y9685D01*
X23827Y10161D01*
X23557Y10565D01*
X23611Y11130D01*
X23641Y11175D01*
X23721Y11575D01*
Y13465D01*
X23641Y13864D01*
X23415Y14202D01*
X23077Y14429D01*
X22677Y14508D01*
X20630D01*
X20231Y14429D01*
X20109Y14348D01*
X19609Y14611D01*
Y15079D01*
X19519Y15532D01*
X19263Y15916D01*
X18878Y16173D01*
X18768Y16195D01*
X18538Y16750D01*
X18752Y17071D01*
X18848Y17554D01*
X19391Y17718D01*
X21082Y16027D01*
X21082Y16027D01*
X21473Y15766D01*
X21934Y15675D01*
X23140D01*
X24828Y13986D01*
X24782Y13525D01*
X24565Y13199D01*
X24489Y12815D01*
Y11240D01*
X24565Y10856D01*
X24782Y10531D01*
X24924Y10436D01*
Y9879D01*
X24782Y9784D01*
X24565Y9459D01*
X24489Y9075D01*
Y7500D01*
X24565Y7116D01*
X24782Y6790D01*
X25108Y6573D01*
X25253Y6544D01*
X25615Y6255D01*
X25707Y5794D01*
X25968Y5403D01*
X26429Y4942D01*
X26429Y4942D01*
X26820Y4681D01*
X27281Y4589D01*
X27281Y4589D01*
X52644D01*
X52644Y4589D01*
X53105Y4681D01*
X53495Y4942D01*
X54436Y5882D01*
X70866D01*
Y2007D01*
X36887D01*
X36272Y2808D01*
X35450Y3439D01*
X34492Y3836D01*
X33530Y3962D01*
X33463Y3976D01*
X14277Y3977D01*
X13778Y3977D01*
X13778Y3977D01*
X13778Y3977D01*
X13777Y3977D01*
Y3977D01*
X13709Y3963D01*
X12751Y3837D01*
X11793Y3440D01*
X10970Y2809D01*
X10355Y2007D01*
X2007D01*
Y57048D01*
X10357D01*
X10972Y56247D01*
X11794Y55616D01*
X12752Y55220D01*
X13714Y55093D01*
X13781Y55080D01*
X32967Y55078D01*
X33466Y55078D01*
X33466Y55078D01*
X33466Y55078D01*
X33467Y55078D01*
Y55078D01*
X33535Y55092D01*
X34493Y55218D01*
X35451Y55615D01*
X36274Y56246D01*
X36889Y57048D01*
X70866D01*
Y52976D01*
D02*
G37*
G36*
X37520Y50764D02*
X46705D01*
X46945Y50472D01*
Y49921D01*
X49213D01*
Y49134D01*
X46945D01*
Y48583D01*
X47039Y48107D01*
X47266Y47767D01*
X47192Y47498D01*
X47061Y47267D01*
X39417D01*
X39167Y47641D01*
X38516Y48076D01*
X37748Y48229D01*
X36980Y48076D01*
X36430Y47709D01*
X36095Y47690D01*
X35801Y47751D01*
X35762Y47809D01*
X35358Y48079D01*
X34882Y48173D01*
X34252D01*
Y45984D01*
X33858D01*
Y45590D01*
X31590D01*
Y45039D01*
X31685Y44563D01*
X31955Y44159D01*
X31901Y43594D01*
X31870Y43549D01*
X31843Y43409D01*
X31025D01*
Y50000D01*
X31025D01*
X30965Y50365D01*
X31323Y50764D01*
X37520D01*
X37520Y50764D01*
D02*
G37*
G36*
X12772Y41535D02*
X12772Y41535D01*
X12864Y41075D01*
X13125Y40684D01*
X14897Y38912D01*
X15287Y38651D01*
X15748Y38559D01*
X38871D01*
X43280Y34151D01*
X43251Y34006D01*
X43378Y33369D01*
X43148Y32987D01*
X43040Y32882D01*
X42785Y32874D01*
X42758Y32915D01*
X42107Y33350D01*
X41339Y33503D01*
X40571Y33350D01*
X39919Y32915D01*
X39484Y32264D01*
X39331Y31496D01*
X39476Y30770D01*
X39461Y30648D01*
X39260Y30270D01*
X25810D01*
X25350Y30179D01*
X24959Y29918D01*
X24959Y29918D01*
X23361Y28320D01*
X23100Y27929D01*
X23008Y27468D01*
X23008Y27468D01*
Y26772D01*
X22377D01*
X22274Y26792D01*
X21034D01*
X20930Y26772D01*
X19818D01*
X19715Y26792D01*
X18474D01*
X18371Y26772D01*
X17740D01*
Y29127D01*
X21267Y32654D01*
X32689D01*
X32833Y32439D01*
X33484Y32004D01*
X34252Y31851D01*
X35020Y32004D01*
X35671Y32439D01*
X36106Y33090D01*
X36259Y33858D01*
X36106Y34626D01*
X35671Y35278D01*
X35020Y35713D01*
X34252Y35865D01*
X33484Y35713D01*
X32833Y35278D01*
X32689Y35063D01*
X20768D01*
X20768Y35063D01*
X20307Y34971D01*
X19916Y34710D01*
X19916Y34710D01*
X15684Y30477D01*
X15423Y30087D01*
X15331Y29626D01*
X15331Y29626D01*
Y27318D01*
X15301Y27266D01*
X14831Y26946D01*
X14596Y26993D01*
X13356D01*
X12869Y26896D01*
X12697Y26781D01*
X12525Y26896D01*
X12037Y26993D01*
X10797D01*
X10563Y26946D01*
X10093Y27266D01*
X10063Y27318D01*
Y28427D01*
X10063Y28427D01*
X9971Y28888D01*
X9710Y29278D01*
X9710Y29278D01*
X9249Y29739D01*
X8858Y30000D01*
X8397Y30092D01*
X8397Y30092D01*
X7044D01*
X5141Y31995D01*
Y42728D01*
X5641Y42900D01*
X5679Y42893D01*
X6919D01*
X7023Y42913D01*
X8134D01*
X8238Y42893D01*
X9478D01*
X9582Y42913D01*
X10694D01*
X10797Y42893D01*
X12037D01*
X12141Y42913D01*
X12772D01*
Y41535D01*
D02*
G37*
G36*
X60921Y44181D02*
X59622Y42882D01*
X56000D01*
X56000Y49575D01*
X60921D01*
X60921Y44181D01*
D02*
G37*
G36*
X61118Y42520D02*
Y41504D01*
X62178D01*
Y40613D01*
X61963Y40571D01*
X61918Y40540D01*
X61352Y40486D01*
X60949Y40756D01*
X60472Y40851D01*
X59921D01*
Y38583D01*
X59527D01*
Y38189D01*
X57338D01*
Y37559D01*
X57433Y37083D01*
X57512Y36965D01*
X57244Y36465D01*
X54818D01*
X54721Y36965D01*
X54928Y37274D01*
X55004Y37658D01*
Y39430D01*
X54928Y39814D01*
X54710Y40140D01*
X54385Y40357D01*
X54001Y40433D01*
X52426D01*
X52042Y40357D01*
X51716Y40140D01*
X51622Y39998D01*
X51064D01*
X50970Y40140D01*
X50644Y40357D01*
X50260Y40433D01*
X48686D01*
X48302Y40357D01*
X47976Y40140D01*
X47715Y40114D01*
X47445Y40421D01*
X47543Y40938D01*
X48058Y41283D01*
X48202Y41498D01*
X50576D01*
X50576Y41498D01*
X51037Y41589D01*
X51428Y41850D01*
X51452Y41875D01*
X52063D01*
Y41504D01*
X55803D01*
Y42520D01*
X61118Y42520D01*
D02*
G37*
G36*
X66161Y47358D02*
X66929Y47205D01*
X67198Y47259D01*
X67692Y46847D01*
Y33860D01*
X67784Y33399D01*
X68029Y32806D01*
X67605Y32523D01*
X66010Y34118D01*
X65620Y34379D01*
X65159Y34471D01*
X65159Y34471D01*
X64447D01*
X64344Y34613D01*
X64226Y34971D01*
X64420Y35261D01*
X64511Y35722D01*
X64511Y35722D01*
Y36567D01*
X64651Y36595D01*
X64990Y36821D01*
X65216Y37160D01*
X65296Y37559D01*
Y39606D01*
X65216Y40006D01*
X64990Y40344D01*
X64651Y40571D01*
X64586Y40584D01*
Y41504D01*
X64858D01*
Y44457D01*
X65055D01*
Y45835D01*
X62988D01*
Y46622D01*
X65055D01*
Y47574D01*
X65339Y47711D01*
X65555Y47763D01*
X66161Y47358D01*
D02*
G37*
G36*
X62928Y25920D02*
X62928Y25920D01*
X63319Y25659D01*
X63779Y25567D01*
X65630D01*
Y20059D01*
X66788D01*
Y19498D01*
X66551Y19340D01*
X66116Y18689D01*
X65963Y17921D01*
X66116Y17152D01*
X66551Y16501D01*
X67202Y16066D01*
X67970Y15913D01*
X68738Y16066D01*
X69389Y16501D01*
X69824Y17152D01*
X69977Y17921D01*
X69824Y18689D01*
X69389Y19340D01*
X69196Y19469D01*
Y20059D01*
X70354D01*
X70354Y20059D01*
X70366Y20061D01*
X70866Y19629D01*
Y9866D01*
X64477D01*
X64067Y10366D01*
X64084Y10453D01*
Y13780D01*
X56939D01*
Y10453D01*
X56956Y10366D01*
X56546Y9866D01*
X54042D01*
X52331Y11576D01*
X52650Y11965D01*
X52663Y11956D01*
X53431Y11803D01*
X54199Y11956D01*
X54850Y12391D01*
X55286Y13042D01*
X55438Y13810D01*
X55286Y14579D01*
X54850Y15230D01*
X54227Y15646D01*
X54228Y15724D01*
X54233Y15791D01*
X54324Y16137D01*
X54693Y16210D01*
X54709Y16221D01*
X55020D01*
X55404Y16297D01*
X55729Y16515D01*
X55947Y16840D01*
X56023Y17224D01*
Y18996D01*
X55947Y19380D01*
X55729Y19706D01*
X55460Y19885D01*
Y20986D01*
X55675Y21130D01*
X56110Y21781D01*
X56263Y22549D01*
X56110Y23317D01*
X55675Y23968D01*
X55024Y24403D01*
X54256Y24556D01*
X53488Y24403D01*
X52837Y23968D01*
X52402Y23317D01*
X52249Y22549D01*
X52402Y21781D01*
X52837Y21130D01*
X53052Y20986D01*
Y19917D01*
X52735Y19706D01*
X52641Y19565D01*
X52083D01*
X51989Y19706D01*
X51664Y19923D01*
X51279Y20000D01*
X49705D01*
X49321Y19923D01*
X48995Y19706D01*
X48778Y19380D01*
X48701Y18996D01*
Y17224D01*
X48778Y16840D01*
X48982Y16535D01*
X48887Y16393D01*
X48796Y15933D01*
X48425Y15867D01*
Y13780D01*
X47638D01*
Y15846D01*
X47267D01*
Y23517D01*
X49318Y25567D01*
X56422D01*
X56611Y25285D01*
X57262Y24850D01*
X58030Y24697D01*
X58798Y24850D01*
X59449Y25285D01*
X59884Y25936D01*
X60037Y26704D01*
X59906Y27362D01*
X60179Y27862D01*
X60986D01*
X62928Y25920D01*
D02*
G37*
G36*
X47706Y27362D02*
X45211Y24867D01*
X44950Y24477D01*
X44859Y24016D01*
X44859Y24016D01*
Y17740D01*
X42180D01*
X42167Y17805D01*
X41992Y18067D01*
X41959Y18206D01*
X42019Y18686D01*
X42092Y18735D01*
X42353Y19126D01*
X42444Y19587D01*
Y20079D01*
X40453D01*
Y20472D01*
X40059D01*
Y22562D01*
X39665D01*
X39204Y22471D01*
X38814Y22210D01*
X38329Y22313D01*
X38094Y22500D01*
Y24914D01*
X38309Y25058D01*
X38744Y25709D01*
X38897Y26477D01*
X38744Y27245D01*
X38626Y27421D01*
X38862Y27862D01*
X47499D01*
X47706Y27362D01*
D02*
G37*
G36*
X12869Y19561D02*
X13356Y19464D01*
X14596D01*
X15084Y19561D01*
X15429Y19189D01*
X15430Y19185D01*
X15044Y18607D01*
X14891Y17839D01*
X15044Y17071D01*
X15265Y16739D01*
X15035Y16184D01*
X14980Y16173D01*
X14596Y15916D01*
X14339Y15532D01*
X14249Y15079D01*
Y13173D01*
X13626D01*
Y13248D01*
X9886D01*
Y13248D01*
X9431Y13138D01*
X9145Y13081D01*
X8763Y12825D01*
X8722Y12833D01*
X8256Y13021D01*
X8215Y13349D01*
X8468Y13601D01*
X8521Y13612D01*
X8912Y13873D01*
X9828Y14789D01*
X10089Y15180D01*
X10181Y15641D01*
X10294Y15648D01*
X10315Y15649D01*
X10714Y15729D01*
X11053Y15955D01*
X11279Y16294D01*
X11359Y16693D01*
Y18740D01*
X11314Y18964D01*
X11618Y19464D01*
X12037D01*
X12525Y19561D01*
X12697Y19676D01*
X12869Y19561D01*
D02*
G37*
G36*
X142758Y8445D02*
X142835Y8439D01*
X142923Y8421D01*
X143023Y8403D01*
X143130Y8374D01*
X143236Y8338D01*
X143141Y7748D01*
X143135D01*
X143112Y7754D01*
X143082Y7766D01*
X143041Y7778D01*
X142994Y7784D01*
X142935Y7796D01*
X142823Y7801D01*
X142799D01*
X142776Y7796D01*
X142740Y7790D01*
X142705Y7778D01*
X142669Y7766D01*
X142640Y7743D01*
X142610Y7713D01*
Y7707D01*
X142599Y7695D01*
X142593Y7672D01*
X142581Y7636D01*
X142569Y7595D01*
X142557Y7536D01*
X142551Y7465D01*
X142545Y7377D01*
Y7147D01*
X143065D01*
Y6480D01*
X142545D01*
Y3937D01*
X141849D01*
Y6480D01*
X141460D01*
Y7038D01*
X141247Y6321D01*
X141242Y6327D01*
X141218Y6344D01*
X141183Y6368D01*
X141141Y6391D01*
X141088Y6415D01*
X141035Y6439D01*
X140976Y6456D01*
X140917Y6462D01*
X140893D01*
X140864Y6456D01*
X140829Y6450D01*
X140787Y6433D01*
X140746Y6415D01*
X140699Y6385D01*
X140657Y6350D01*
X140652Y6344D01*
X140640Y6327D01*
X140622Y6303D01*
X140598Y6262D01*
X140575Y6208D01*
X140545Y6144D01*
X140522Y6061D01*
X140504Y5961D01*
Y5955D01*
Y5949D01*
X140498Y5931D01*
Y5908D01*
X140492Y5872D01*
Y5831D01*
X140486Y5784D01*
X140480Y5731D01*
X140475Y5660D01*
Y5589D01*
X140469Y5500D01*
X140463Y5406D01*
Y5306D01*
X140457Y5188D01*
Y5064D01*
Y4928D01*
Y3937D01*
X139761D01*
Y7147D01*
X140410D01*
Y6692D01*
X140416Y6698D01*
X140427Y6716D01*
X140439Y6740D01*
X140469Y6793D01*
X140510Y6858D01*
X140557Y6928D01*
X140604Y6999D01*
X140657Y7064D01*
X140705Y7111D01*
X140711Y7117D01*
X140728Y7129D01*
X140758Y7147D01*
X140793Y7170D01*
X140834Y7188D01*
X140888Y7206D01*
X140947Y7217D01*
X141006Y7223D01*
X141047D01*
X141094Y7217D01*
X141153Y7206D01*
X141224Y7182D01*
X141301Y7153D01*
X141383Y7111D01*
X141460Y7062D01*
Y7147D01*
X141849D01*
Y7389D01*
Y7394D01*
Y7406D01*
Y7430D01*
Y7459D01*
Y7495D01*
X141855Y7536D01*
X141861Y7630D01*
X141867Y7737D01*
X141885Y7837D01*
X141902Y7937D01*
X141932Y8020D01*
X141938Y8032D01*
X141950Y8055D01*
X141967Y8091D01*
X141997Y8132D01*
X142032Y8185D01*
X142079Y8238D01*
X142132Y8285D01*
X142197Y8332D01*
X142203Y8338D01*
X142233Y8350D01*
X142268Y8368D01*
X142321Y8392D01*
X142386Y8415D01*
X142469Y8433D01*
X142557Y8445D01*
X142652Y8450D01*
X142705D01*
X142758Y8445D01*
D02*
G37*
G36*
X139076Y7583D02*
X138380D01*
Y8368D01*
X139076D01*
Y7583D01*
D02*
G37*
G36*
X150705Y3937D02*
X150044D01*
X149584Y5996D01*
X149136Y3937D01*
X148463D01*
X147631Y7147D01*
X148304D01*
X148800Y5040D01*
X149254Y7147D01*
X149920D01*
X150363Y5040D01*
X150870Y7147D01*
X151561D01*
X150705Y3937D01*
D02*
G37*
G36*
X144156D02*
X143460D01*
Y8374D01*
X144156D01*
Y3937D01*
D02*
G37*
G36*
X139076D02*
X138380D01*
Y7147D01*
X139076D01*
Y3937D01*
D02*
G37*
G36*
X137997D02*
X137200D01*
X136881Y4946D01*
X135430D01*
X135129Y3937D01*
X134350D01*
X135760Y8374D01*
X136545D01*
X137997Y3937D01*
D02*
G37*
G36*
X146115Y7217D02*
X146162D01*
X146215Y7206D01*
X146274Y7200D01*
X146345Y7182D01*
X146416Y7158D01*
X146499Y7135D01*
X146575Y7099D01*
X146658Y7058D01*
X146740Y7011D01*
X146823Y6952D01*
X146906Y6887D01*
X146982Y6810D01*
X147053Y6722D01*
X147059Y6716D01*
X147071Y6698D01*
X147089Y6675D01*
X147112Y6633D01*
X147136Y6586D01*
X147171Y6527D01*
X147201Y6462D01*
X147236Y6391D01*
X147271Y6309D01*
X147301Y6220D01*
X147336Y6126D01*
X147360Y6020D01*
X147383Y5914D01*
X147401Y5801D01*
X147413Y5683D01*
X147419Y5559D01*
Y5554D01*
Y5536D01*
Y5512D01*
Y5477D01*
X147413Y5430D01*
X147407Y5382D01*
X147401Y5324D01*
X147395Y5259D01*
X147372Y5117D01*
X147336Y4970D01*
X147289Y4810D01*
X147224Y4657D01*
Y4651D01*
X147218Y4639D01*
X147206Y4621D01*
X147189Y4592D01*
X147148Y4521D01*
X147094Y4433D01*
X147018Y4338D01*
X146935Y4238D01*
X146841Y4143D01*
X146729Y4061D01*
X146723D01*
X146717Y4055D01*
X146699Y4043D01*
X146676Y4031D01*
X146611Y3996D01*
X146528Y3961D01*
X146428Y3925D01*
X146316Y3890D01*
X146192Y3866D01*
X146056Y3860D01*
X146032D01*
X145997Y3866D01*
X145962D01*
X145908Y3872D01*
X145850Y3884D01*
X145785Y3896D01*
X145714Y3919D01*
X145643Y3943D01*
X145560Y3972D01*
X145484Y4008D01*
X145401Y4049D01*
X145318Y4102D01*
X145236Y4161D01*
X145159Y4232D01*
X145082Y4309D01*
X145077Y4315D01*
X145065Y4332D01*
X145047Y4356D01*
X145024Y4391D01*
X144994Y4439D01*
X144959Y4492D01*
X144929Y4562D01*
X144894Y4639D01*
X144852Y4722D01*
X144823Y4816D01*
X144788Y4922D01*
X144758Y5034D01*
X144734Y5158D01*
X144717Y5294D01*
X144705Y5436D01*
X144699Y5583D01*
Y5589D01*
Y5607D01*
Y5630D01*
X144705Y5666D01*
Y5707D01*
X144711Y5754D01*
X144717Y5807D01*
X144723Y5866D01*
X144746Y6002D01*
X144776Y6144D01*
X144823Y6297D01*
X144882Y6444D01*
Y6450D01*
X144894Y6462D01*
X144900Y6480D01*
X144917Y6509D01*
X144959Y6580D01*
X145012Y6663D01*
X145082Y6757D01*
X145171Y6858D01*
X145265Y6946D01*
X145372Y7029D01*
X145378D01*
X145383Y7034D01*
X145401Y7046D01*
X145425Y7058D01*
X145490Y7088D01*
X145572Y7129D01*
X145673Y7164D01*
X145791Y7194D01*
X145920Y7217D01*
X146056Y7223D01*
X146086D01*
X146115Y7217D01*
D02*
G37*
%LPC*%
G36*
X18042Y54348D02*
X17491D01*
X17015Y54253D01*
X16611Y53983D01*
X16341Y53580D01*
X16246Y53104D01*
Y52474D01*
X18042D01*
Y54348D01*
D02*
G37*
G36*
X23922Y8347D02*
X22047D01*
Y6551D01*
X22677D01*
X23153Y6646D01*
X23557Y6915D01*
X23827Y7319D01*
X23922Y7795D01*
Y8347D01*
D02*
G37*
G36*
X33465Y48173D02*
X32835D01*
X32358Y48079D01*
X31955Y47809D01*
X31685Y47405D01*
X31590Y46929D01*
Y46378D01*
X33465D01*
Y48173D01*
D02*
G37*
G36*
X59134Y40851D02*
X58583D01*
X58106Y40756D01*
X57703Y40486D01*
X57433Y40082D01*
X57338Y39606D01*
Y38976D01*
X59134D01*
Y40851D01*
D02*
G37*
G36*
X62559Y19419D02*
X60905D01*
Y14567D01*
X64084D01*
Y17894D01*
X63968Y18477D01*
X63638Y18972D01*
X63143Y19303D01*
X62559Y19419D01*
D02*
G37*
G36*
X60118D02*
X58465D01*
X57881Y19303D01*
X57386Y18972D01*
X57055Y18477D01*
X56939Y17894D01*
Y14567D01*
X60118D01*
Y19419D01*
D02*
G37*
G36*
X41240Y22562D02*
X40846D01*
Y20866D01*
X42444D01*
Y21358D01*
X42353Y21819D01*
X42092Y22210D01*
X41701Y22471D01*
X41240Y22562D01*
D02*
G37*
G36*
X136144Y7335D02*
X135654Y5695D01*
X136645D01*
X136144Y7335D01*
D02*
G37*
G36*
X146097Y6533D02*
X146038D01*
X146009Y6527D01*
X145956Y6521D01*
X145897Y6504D01*
X145826Y6474D01*
X145749Y6427D01*
X145673Y6362D01*
X145637Y6327D01*
X145602Y6279D01*
X145596Y6267D01*
X145572Y6232D01*
X145543Y6173D01*
X145507Y6090D01*
X145472Y5990D01*
X145442Y5860D01*
X145419Y5713D01*
X145413Y5542D01*
Y5536D01*
Y5518D01*
Y5495D01*
X145419Y5459D01*
Y5418D01*
X145425Y5377D01*
X145437Y5265D01*
X145460Y5147D01*
X145495Y5023D01*
X145537Y4905D01*
X145602Y4798D01*
X145608Y4787D01*
X145637Y4757D01*
X145678Y4722D01*
X145731Y4674D01*
X145796Y4627D01*
X145873Y4592D01*
X145962Y4562D01*
X146062Y4551D01*
X146074D01*
X146109Y4557D01*
X146156Y4562D01*
X146221Y4580D01*
X146292Y4610D01*
X146369Y4657D01*
X146445Y4716D01*
X146516Y4798D01*
Y4804D01*
X146522Y4810D01*
X146534Y4828D01*
X146546Y4846D01*
X146575Y4905D01*
X146611Y4987D01*
X146646Y5093D01*
X146676Y5223D01*
X146699Y5371D01*
X146705Y5548D01*
Y5554D01*
Y5571D01*
Y5595D01*
Y5624D01*
X146699Y5666D01*
X146693Y5713D01*
X146681Y5819D01*
X146658Y5937D01*
X146622Y6061D01*
X146575Y6173D01*
X146510Y6279D01*
Y6285D01*
X146504Y6291D01*
X146475Y6321D01*
X146434Y6362D01*
X146380Y6409D01*
X146316Y6450D01*
X146239Y6492D01*
X146150Y6521D01*
X146097Y6533D01*
D02*
G37*
%LPD*%
D10*
X122638Y6102D02*
X132874D01*
X122638D02*
X126575Y4134D01*
X122638Y6102D02*
X126575Y8071D01*
X122638Y6102D02*
X126575Y4134D01*
D29*
X80945Y44551D02*
D03*
Y36551D02*
D03*
X100945Y40551D02*
D03*
D30*
X147832Y26369D02*
G03*
X149606Y28144I0J1775D01*
G01*
X148194Y21226D02*
G03*
X151181Y24213I0J2987D01*
G01*
X149606Y40945D02*
G03*
X143338Y47213I-6268J0D01*
G01*
X121684Y47244D02*
G03*
X119353Y44913I0J-2331D01*
G01*
X114204Y6693D02*
G03*
X119353Y11842I0J5149D01*
G01*
X108329Y11811D02*
G03*
X113478Y6662I5149J0D01*
G01*
X108299Y48425D02*
G03*
X104952Y51772I-3347J0D01*
G01*
X151181Y42126D02*
G03*
X144517Y48790I-6664J0D01*
G01*
X120897Y48850D02*
G03*
X117747Y45700I0J-3150D01*
G01*
X114204Y8299D02*
G03*
X117747Y11842I0J3543D01*
G01*
X109935Y11811D02*
G03*
X113478Y8268I3543J0D01*
G01*
X109904Y48425D02*
G03*
X104786Y53543I-5118J0D01*
G01*
X63386Y52067D02*
X64961Y53642D01*
X66800Y56232D02*
X69488Y53543D01*
X59860Y56232D02*
X66800D01*
X69488Y53543D02*
X104724D01*
X6339Y29094D02*
X6545Y28888D01*
X8976Y15641D02*
Y17717D01*
X8858Y23228D02*
Y28427D01*
X8397Y28888D02*
X8858Y28427D01*
X8976Y17717D02*
Y23346D01*
X6545Y28888D02*
X8397D01*
X3937Y31496D02*
X6339Y29094D01*
X6299Y23228D02*
Y29055D01*
X6339Y29094D01*
X130709Y28248D02*
X131890Y29429D01*
X137402D01*
X130709Y19339D02*
X132134Y17913D01*
X140376D02*
X143689Y21226D01*
X132134Y17913D02*
X137402D01*
X140376D01*
X141745Y22060D02*
X143504Y23819D01*
X145276D01*
X143689Y21226D02*
X148194D01*
X149606Y28144D02*
Y40945D01*
X151181Y24213D02*
Y42126D01*
X144688Y26369D02*
X147832D01*
X144679Y26378D02*
X144688Y26369D01*
X142722Y26378D02*
X144679D01*
X141684Y25340D02*
X142722Y26378D01*
X121684Y47244D02*
X143338D01*
X119353Y11842D02*
Y44913D01*
X108329Y11811D02*
Y48425D01*
X113478Y6662D02*
Y6693D01*
X114204D01*
X69488Y51772D02*
X104952D01*
X140157Y25197D02*
X140301Y25340D01*
X141684D01*
X85945Y43051D02*
Y47217D01*
X58508Y56184D02*
X59813D01*
X58461Y46228D02*
Y56232D01*
X117747Y11842D02*
Y45700D01*
X114173Y8268D02*
X114204Y8299D01*
X113478Y8268D02*
X114173D01*
X72913Y17724D02*
Y23209D01*
X109935Y11811D02*
Y48425D01*
X55933Y11417D02*
X61417D01*
X18287Y52087D02*
X19094Y51279D01*
X33661Y8268D02*
X37402D01*
X3740Y3740D02*
X9808D01*
X140157Y22047D02*
X140171Y22060D01*
X141745D01*
X95945Y43051D02*
Y47217D01*
X22347Y51948D02*
X22562Y52164D01*
X130709Y25512D02*
Y28248D01*
X63382Y46228D02*
X66370D01*
X58461D02*
X63382D01*
X2362Y5118D02*
X3740Y3740D01*
X36768Y56232D02*
X57837D01*
X58413Y56184D02*
X58461Y56232D01*
X57884Y56184D02*
X58413D01*
X57837Y56232D02*
X57884Y56184D01*
X9808Y3740D02*
X10400Y4332D01*
X16468D01*
X130709Y19339D02*
Y21732D01*
X131024Y22047D02*
X134646D01*
X130709Y21732D02*
X131024Y22047D01*
X130709Y25512D02*
X131024Y25197D01*
X4882Y14724D02*
X8060D01*
X8976Y15641D01*
X3937Y13780D02*
X4882Y14724D01*
X5197Y18110D02*
Y18189D01*
X3935Y54723D02*
X35260D01*
X29721Y22838D02*
X33532D01*
X41951Y49528D02*
X49213D01*
X41706Y49282D02*
X41951Y49528D01*
X35281Y49282D02*
X41706D01*
X34957Y49606D02*
X35281Y49282D01*
X37748Y46222D02*
X37907Y46063D01*
X48898D01*
X49213Y45748D01*
X39370Y39764D02*
X45128Y34006D01*
X15748Y39764D02*
X39370D01*
X13976Y41535D02*
X15748Y39764D01*
X11417Y19685D02*
Y23228D01*
Y19685D02*
X12992Y18110D01*
X13976Y17913D02*
Y23228D01*
X13780Y17717D02*
X13976Y17913D01*
X3937Y31496D02*
Y49603D01*
X5579Y51245D01*
X22562Y52164D02*
X25829D01*
X22215Y52080D02*
X22347Y51948D01*
X63732Y4331D02*
X66831D01*
X68012Y5512D01*
X83858D01*
X43307Y42667D02*
Y42913D01*
X47430Y38544D02*
X49473D01*
X43307Y42667D02*
X47430Y38544D01*
X46639Y42702D02*
X50576D01*
X50953Y43079D01*
X66142Y28346D02*
X84449D01*
X90945Y34843D02*
Y38051D01*
X84449Y28346D02*
X90945Y34843D01*
X63779Y26772D02*
X87992D01*
X95945Y34724D02*
Y38051D01*
X87992Y26772D02*
X95945Y34724D01*
X70332Y17921D02*
X72891D01*
X21654Y19912D02*
Y23228D01*
X22956Y18609D02*
X24485D01*
X21654Y19912D02*
X22956Y18609D01*
X29331Y16535D02*
X36713D01*
X26772Y19094D02*
Y23228D01*
Y19094D02*
X29331Y16535D01*
X28626Y14469D02*
X31988D01*
X24485Y18609D02*
X28626Y14469D01*
X21934Y16879D02*
X23639D01*
X26378Y11713D02*
Y14140D01*
X23639Y16879D02*
X26378Y14140D01*
X31988Y14469D02*
X34409Y12047D01*
X37306D02*
X37562Y11791D01*
X34409Y12047D02*
X37306D01*
X30315Y8268D02*
X33661D01*
X83858Y5512D02*
X92520Y14173D01*
X42837Y8366D02*
X45495Y11024D01*
X40945Y8366D02*
X42837D01*
X45495Y11024D02*
X49989D01*
X63729Y4328D02*
X63732Y4331D01*
X63311Y4747D02*
X63729Y4328D01*
X49989Y7885D02*
Y11024D01*
X51181D01*
X53543Y8661D01*
X41339Y31496D02*
X62975D01*
X62984Y31487D01*
X45128Y34006D02*
X45258D01*
X36713Y20472D02*
X36889Y20649D01*
Y26477D01*
X62984Y31487D02*
X62992Y31496D01*
X66142Y28346D01*
X43307Y42913D02*
X43397Y43003D01*
X87677Y23209D02*
X88189Y22697D01*
Y13780D02*
Y22697D01*
X92520Y14173D02*
X100079D01*
X90945Y43051D02*
Y47043D01*
X88381Y49606D02*
X90945Y47043D01*
X75590Y31496D02*
Y47244D01*
X77953Y49606D02*
X88381D01*
X75590Y47244D02*
X77953Y49606D01*
X46063Y5793D02*
X52644D01*
X78740Y7087D02*
X82756Y11102D01*
X53937Y7087D02*
X78740D01*
X52644Y5793D02*
X53937Y7087D01*
X75984Y8661D02*
X77835Y10512D01*
X53543Y8661D02*
X75984D01*
X48031Y20511D02*
X49803Y22282D01*
X50035D01*
X54256Y17415D02*
Y22549D01*
Y17415D02*
X54290Y17381D01*
X54232Y17323D02*
X54290Y17381D01*
X46063Y24016D02*
X48819Y26772D01*
X57962D02*
X58030Y26704D01*
X48819Y26772D02*
X57962D01*
X92598Y23209D02*
Y23969D01*
Y18484D02*
Y23209D01*
X67992Y17724D02*
Y23209D01*
X16898Y13454D02*
Y17839D01*
X16929Y4793D02*
Y7776D01*
X16468Y4332D02*
X16929Y4793D01*
X17894Y8740D02*
X21654D01*
X16929Y7776D02*
X17894Y8740D01*
X16150Y12707D02*
X16898Y13454D01*
X46063Y16535D02*
Y24016D01*
Y13780D02*
Y16535D01*
X40453D02*
X46063D01*
X24213Y23228D02*
Y27468D01*
X25810Y29066D01*
X61485D01*
X50000Y13780D02*
X53400D01*
X53431Y13810D01*
X50489Y16422D02*
Y18110D01*
X50000Y15933D02*
X50489Y16422D01*
X50000Y13780D02*
Y15933D01*
X87677Y23209D02*
Y23694D01*
X48031Y13780D02*
Y20511D01*
X77835Y10512D02*
Y23209D01*
X82756Y11102D02*
Y23209D01*
X27281Y5793D02*
X46063D01*
Y7874D01*
X49989Y7885D02*
X50000Y7874D01*
X40453Y20472D02*
Y23797D01*
X40390Y23860D02*
X40453Y23797D01*
X36713Y16535D02*
Y20472D01*
X87216Y24155D02*
X87677Y23694D01*
X61485Y29066D02*
X63779Y26772D01*
X74016Y29921D02*
X75590Y31496D01*
X68504Y29921D02*
X74016D01*
X66535Y35433D02*
Y46063D01*
X66370Y46228D02*
X66534Y46064D01*
X92620Y23772D02*
Y23947D01*
X92598Y23969D02*
X92620Y23947D01*
X49411Y33266D02*
X65159D01*
X47244Y35433D02*
X49411Y33266D01*
X47244Y35433D02*
X47244D01*
X19212Y19600D02*
X21934Y16879D01*
X19212Y19600D02*
Y23111D01*
X19094Y23228D02*
X19212Y23111D01*
X21654Y23228D02*
X21654Y23228D01*
X37562Y11791D02*
X41260D01*
X59813Y56184D02*
X59860Y56232D01*
X65159Y33266D02*
X68504Y29921D01*
X45628Y37049D02*
X47244Y35433D01*
X53445Y35722D02*
X53906Y35261D01*
X53445Y35722D02*
Y38583D01*
X62846Y35261D02*
X63307Y35722D01*
Y38583D01*
X53906Y35261D02*
X62846D01*
X40472Y42205D02*
X45628Y37049D01*
X45628D01*
X33858Y42205D02*
X40472D01*
X16997D02*
X33858D01*
Y48507D02*
X34957Y49606D01*
X33858Y45984D02*
Y48507D01*
X16535Y42666D02*
X16997Y42205D01*
X16535Y42666D02*
Y46457D01*
X29331Y50591D02*
X30709Y51968D01*
X37520Y51968D02*
X52362D01*
X37520Y51968D02*
X37520Y51968D01*
X30709Y51968D02*
X37520D01*
X30315Y11732D02*
Y12047D01*
X29331Y23228D02*
X29721Y22838D01*
X20768Y33858D02*
X34252D01*
X16535Y29626D02*
X20768Y33858D01*
X26544Y7972D02*
X26819Y7697D01*
Y6255D02*
X27281Y5793D01*
X26819Y6255D02*
Y7697D01*
X2362Y5118D02*
Y53150D01*
X35260Y54723D02*
X36768Y56232D01*
X2362Y53150D02*
X3935Y54723D01*
X49693Y46228D02*
X53539D01*
X49213Y45748D02*
X49693Y46228D01*
X56310Y38583D02*
X59527D01*
X56309Y38584D02*
X56310Y38583D01*
X43397Y43003D02*
Y45748D01*
X63382Y38658D02*
Y43079D01*
X63307Y38583D02*
X63382Y38658D01*
X66929Y49213D02*
X69488Y51772D01*
X63382Y49378D02*
X63386Y49382D01*
Y52067D01*
X50953Y43079D02*
X53539D01*
X26378Y11713D02*
X30295D01*
X30315Y11732D01*
X13976Y41535D02*
Y46457D01*
X53446Y49472D02*
X53539Y49378D01*
X53446Y49472D02*
Y50885D01*
X52362Y51968D02*
X53446Y50885D01*
X29331Y46457D02*
Y50591D01*
X16142Y12126D02*
X20945D01*
X20965Y12106D01*
X21260D01*
X9685Y8032D02*
X11756D01*
X9055Y8661D02*
X9685Y8032D01*
X9055Y8661D02*
Y11417D01*
X9606Y11969D02*
X11756D01*
X9055Y11417D02*
X9606Y11969D01*
X11854Y9902D02*
X13327D01*
X11756Y10000D02*
X11854Y9902D01*
X13327D02*
X14313Y8916D01*
X15573D01*
X11756Y11969D02*
X15984D01*
X16142Y12126D01*
X11417Y29134D02*
X12992D01*
X11417Y23228D02*
X11417Y23228D01*
Y29134D01*
X13976Y23228D02*
Y28150D01*
X12992Y29134D02*
X13976Y28150D01*
X3937Y12598D02*
Y13780D01*
X4331Y12205D02*
X4567Y11969D01*
X4331Y12205D02*
Y12205D01*
X3937Y12598D02*
X4331Y12205D01*
X4567Y11969D02*
X6244D01*
X16535Y23228D02*
Y29626D01*
X19094Y46457D02*
Y51279D01*
X18287Y52087D02*
Y52165D01*
X21654Y46457D02*
Y51752D01*
X22067Y52165D01*
X120897Y48819D02*
X144517D01*
D31*
X53933Y49378D02*
D03*
Y46228D02*
D03*
Y43079D02*
D03*
X62988Y49378D02*
D03*
Y46228D02*
D03*
Y43079D02*
D03*
D32*
X58461Y46228D02*
D03*
D33*
X140157Y22047D02*
D03*
D34*
Y25197D02*
D03*
X134646Y22047D02*
D03*
Y25197D02*
D03*
D35*
X72913Y23209D02*
D03*
X82756D02*
D03*
X77835D02*
D03*
X87677D02*
D03*
X92598D02*
D03*
D36*
X67992D02*
D03*
D37*
X60512Y14173D02*
D03*
X100079D02*
D03*
D38*
X54232Y18110D02*
D03*
X50492D02*
D03*
X49473Y38544D02*
D03*
X53213D02*
D03*
X36713Y20472D02*
D03*
X40453D02*
D03*
Y16535D02*
D03*
X36713D02*
D03*
D39*
X85945Y38051D02*
D03*
X95945Y43051D02*
D03*
Y38051D02*
D03*
X90945Y43051D02*
D03*
X85945D02*
D03*
X90945Y38051D02*
D03*
D40*
X6299Y23228D02*
D03*
X8858D02*
D03*
X11417D02*
D03*
X13976D02*
D03*
X16535D02*
D03*
X19094D02*
D03*
X21654D02*
D03*
X24213D02*
D03*
X26772D02*
D03*
X29331D02*
D03*
X6299Y46457D02*
D03*
X8858D02*
D03*
X11417D02*
D03*
X13976D02*
D03*
X16535D02*
D03*
X19094D02*
D03*
X21654D02*
D03*
X24213D02*
D03*
X26772D02*
D03*
X29331D02*
D03*
D41*
X33858Y45984D02*
D03*
Y42205D02*
D03*
X49213Y45748D02*
D03*
Y49528D02*
D03*
X130709Y21732D02*
D03*
Y25512D02*
D03*
X21654Y12520D02*
D03*
Y8740D02*
D03*
X30315Y12047D02*
D03*
Y8268D02*
D03*
X37008Y12126D02*
D03*
Y8347D02*
D03*
D42*
X11756Y8032D02*
D03*
Y10000D02*
D03*
Y11969D02*
D03*
X6244D02*
D03*
Y8032D02*
D03*
D43*
X9370Y17717D02*
D03*
X5590D02*
D03*
X22215Y52080D02*
D03*
X18436D02*
D03*
X63307Y38583D02*
D03*
X59527D02*
D03*
D44*
X16929Y13484D02*
D03*
Y7776D02*
D03*
D45*
X26378Y8287D02*
D03*
Y12028D02*
D03*
X40945Y8366D02*
D03*
Y12106D02*
D03*
D46*
X50000Y13780D02*
D03*
X48031D02*
D03*
X46063D02*
D03*
Y8268D02*
D03*
X50000D02*
D03*
D47*
X131024Y25197D02*
X134646D01*
D48*
X137402Y29429D02*
D03*
Y17913D02*
D03*
X145276Y23819D02*
D03*
X64961Y53642D02*
D03*
X41706Y49282D02*
D03*
X37748Y46222D02*
D03*
X5579Y51245D02*
D03*
X25829Y52164D02*
D03*
X54823Y4626D02*
D03*
X33661Y8268D02*
D03*
X55158Y11112D02*
D03*
X67829Y11221D02*
D03*
X41339Y31496D02*
D03*
X45258Y34006D02*
D03*
X36889Y26477D02*
D03*
X46639Y42702D02*
D03*
X43307Y42913D02*
D03*
X88189Y13780D02*
D03*
X50035Y22282D02*
D03*
X54256Y22549D02*
D03*
X58611Y55883D02*
D03*
X16898Y17839D02*
D03*
X53431Y13810D02*
D03*
X67970Y17921D02*
D03*
X72891D02*
D03*
X92598Y18484D02*
D03*
X40390Y23860D02*
D03*
X95967Y47020D02*
D03*
X85967D02*
D03*
X58030Y26704D02*
D03*
X33532Y22838D02*
D03*
X6247Y5263D02*
D03*
X66535Y35433D02*
D03*
Y46063D02*
D03*
X37402Y37402D02*
D03*
X34252Y33858D02*
D03*
X56309Y38584D02*
D03*
X66929Y49213D02*
D03*
X12598Y15354D02*
D03*
M02*
