M48
;Layer_Color=9474304
;FILE_FORMAT=2:5
INCH,LZ
;TYPE=PLATED
T1F00S00C0.01181
;TYPE=NON_PLATED
T2F00S00C0.03900
%
T01
X0006247Y0005263
X0012598Y0015354
X0016898Y0017839
X0033532Y0022838
X0036889Y0026477
X004039Y002386
X0041339Y0031496
X0045258Y0034006
X0046639Y0042702
X0043307Y0042913
X0041706Y0049282
X0037748Y0046222
X0037402Y0037402
X0034252Y0033858
X0033661Y0008268
X0055158Y0011112
X0053431Y001381
X0054256Y0022549
X0050035Y0022282
X005803Y0026704
X0056309Y0038584
X0066535Y0035433
Y0046063
X0066929Y0049213
X0064961Y0053642
X0058611Y0055883
X0085967Y004702
X0095967
X0092598Y0018484
X0088189Y001378
X0072891Y0017921
X006797
X0067829Y0011221
X0054823Y0004626
X0025829Y0052164
X0005579Y0051245
X0137402Y0029429
Y0017913
X0145276Y0023819
T02
X0080945Y0036551
Y0044551
X0100945Y0040551
M30
