G04*
G04 #@! TF.GenerationSoftware,Altium Limited,Altium Designer,21.3.2 (30)*
G04*
G04 Layer_Color=128*
%FSLAX25Y25*%
%MOIN*%
G70*
G04*
G04 #@! TF.SameCoordinates,7ABE349C-8111-4F2D-99A8-EBCD4980564F*
G04*
G04*
G04 #@! TF.FilePolarity,Positive*
G04*
G01*
G75*
%ADD10C,0.00394*%
G36*
X124549Y27274D02*
X124797D01*
Y27087D01*
X124549D01*
Y26672D01*
X124343D01*
X123561Y27110D01*
Y27274D01*
X124341D01*
Y27399D01*
X124549D01*
Y27274D01*
D02*
G37*
G36*
X124797Y26356D02*
X123826D01*
X124797Y26156D01*
Y25959D01*
X123826Y25760D01*
X124797D01*
Y25570D01*
X123564D01*
Y25875D01*
X124407Y26057D01*
X123564Y26238D01*
Y26546D01*
X124797D01*
Y26356D01*
D02*
G37*
G36*
X124631Y25382D02*
X124641Y25372D01*
X124656Y25357D01*
X124674Y25336D01*
X124695Y25310D01*
X124718Y25277D01*
X124741Y25239D01*
X124763Y25195D01*
Y25193D01*
X124764Y25190D01*
X124767Y25183D01*
X124771Y25173D01*
X124776Y25163D01*
X124781Y25150D01*
X124786Y25136D01*
X124791Y25119D01*
X124800Y25082D01*
X124810Y25041D01*
X124817Y24998D01*
X124818Y24952D01*
Y24937D01*
X124817Y24927D01*
Y24914D01*
X124815Y24898D01*
X124812Y24881D01*
X124809Y24862D01*
X124800Y24821D01*
X124787Y24777D01*
X124769Y24731D01*
X124759Y24708D01*
X124746Y24686D01*
X124745Y24685D01*
X124743Y24681D01*
X124738Y24675D01*
X124733Y24668D01*
X124725Y24658D01*
X124715Y24647D01*
X124704Y24635D01*
X124690Y24621D01*
X124676Y24608D01*
X124659Y24593D01*
X124641Y24578D01*
X124622Y24563D01*
X124600Y24547D01*
X124577Y24534D01*
X124553Y24519D01*
X124526Y24506D01*
X124525D01*
X124520Y24503D01*
X124512Y24499D01*
X124500Y24496D01*
X124485Y24491D01*
X124469Y24485D01*
X124449Y24480D01*
X124428Y24473D01*
X124403Y24466D01*
X124377Y24462D01*
X124348Y24455D01*
X124318Y24450D01*
X124285Y24447D01*
X124251Y24444D01*
X124179Y24440D01*
X124177D01*
X124169D01*
X124159D01*
X124144Y24442D01*
X124128D01*
X124107Y24444D01*
X124084Y24445D01*
X124059Y24449D01*
X124033Y24452D01*
X124005Y24457D01*
X123946Y24468D01*
X123887Y24485D01*
X123831Y24508D01*
X123829Y24509D01*
X123825Y24511D01*
X123818Y24514D01*
X123808Y24519D01*
X123795Y24527D01*
X123782Y24534D01*
X123749Y24555D01*
X123715Y24580D01*
X123679Y24609D01*
X123644Y24644D01*
X123629Y24663D01*
X123615Y24683D01*
X123613Y24685D01*
X123611Y24688D01*
X123608Y24694D01*
X123603Y24703D01*
X123598Y24712D01*
X123592Y24726D01*
X123585Y24740D01*
X123579Y24757D01*
X123572Y24775D01*
X123565Y24794D01*
X123554Y24839D01*
X123546Y24888D01*
X123542Y24914D01*
Y24960D01*
X123544Y24972D01*
X123546Y24988D01*
X123547Y25004D01*
X123551Y25024D01*
X123554Y25045D01*
X123565Y25091D01*
X123572Y25116D01*
X123582Y25141D01*
X123593Y25163D01*
X123605Y25188D01*
X123619Y25209D01*
X123636Y25231D01*
X123638Y25232D01*
X123641Y25236D01*
X123646Y25241D01*
X123652Y25249D01*
X123662Y25257D01*
X123674Y25267D01*
X123688Y25278D01*
X123703Y25290D01*
X123721Y25301D01*
X123742Y25313D01*
X123764Y25326D01*
X123788Y25337D01*
X123815Y25347D01*
X123843Y25357D01*
X123872Y25365D01*
X123905Y25372D01*
X123951Y25170D01*
X123949D01*
X123946Y25168D01*
X123943Y25167D01*
X123936Y25165D01*
X123918Y25160D01*
X123898Y25150D01*
X123874Y25139D01*
X123851Y25126D01*
X123828Y25108D01*
X123807Y25086D01*
X123805Y25083D01*
X123798Y25075D01*
X123790Y25063D01*
X123780Y25045D01*
X123772Y25024D01*
X123764Y24999D01*
X123757Y24972D01*
X123756Y24940D01*
Y24927D01*
X123757Y24919D01*
X123759Y24908D01*
X123761Y24895D01*
X123769Y24865D01*
X123780Y24832D01*
X123788Y24814D01*
X123798Y24798D01*
X123810Y24780D01*
X123825Y24763D01*
X123839Y24747D01*
X123857Y24731D01*
X123859Y24729D01*
X123862Y24727D01*
X123869Y24724D01*
X123877Y24717D01*
X123887Y24712D01*
X123900Y24706D01*
X123916Y24698D01*
X123934Y24691D01*
X123954Y24683D01*
X123977Y24676D01*
X124003Y24668D01*
X124031Y24663D01*
X124061Y24658D01*
X124093Y24654D01*
X124130Y24652D01*
X124167Y24650D01*
X124171D01*
X124177D01*
X124189D01*
X124203Y24652D01*
X124223Y24654D01*
X124244Y24655D01*
X124267Y24657D01*
X124294Y24662D01*
X124348Y24671D01*
X124403Y24686D01*
X124431Y24696D01*
X124458Y24709D01*
X124482Y24722D01*
X124505Y24737D01*
X124507Y24739D01*
X124510Y24740D01*
X124515Y24745D01*
X124520Y24750D01*
X124536Y24767D01*
X124554Y24790D01*
X124574Y24819D01*
X124589Y24854D01*
X124595Y24873D01*
X124600Y24893D01*
X124603Y24916D01*
X124605Y24939D01*
Y24949D01*
X124603Y24960D01*
X124602Y24977D01*
X124599Y24995D01*
X124594Y25016D01*
X124587Y25039D01*
X124577Y25062D01*
X124576Y25065D01*
X124572Y25073D01*
X124566Y25085D01*
X124558Y25101D01*
X124546Y25119D01*
X124533Y25139D01*
X124518Y25159D01*
X124502Y25178D01*
X124344D01*
Y24945D01*
X124136D01*
Y25385D01*
X124628D01*
X124630D01*
X124631Y25382D01*
D02*
G37*
G36*
X124751Y23888D02*
X124769D01*
X124791Y23886D01*
X124812Y23884D01*
X124856Y23881D01*
X124902Y23875D01*
X124945Y23865D01*
X124964Y23860D01*
X124982Y23853D01*
X124984D01*
X124986Y23852D01*
X124991Y23850D01*
X124997Y23847D01*
X125012Y23838D01*
X125032Y23825D01*
X125053Y23810D01*
X125074Y23791D01*
X125095Y23769D01*
X125114Y23743D01*
X125115Y23740D01*
X125117Y23735D01*
X125120Y23730D01*
X125128Y23714D01*
X125135Y23691D01*
X125143Y23661D01*
X125151Y23627D01*
X125156Y23586D01*
X125158Y23540D01*
Y23520D01*
X125156Y23510D01*
Y23499D01*
X125153Y23471D01*
X125150Y23440D01*
X125145Y23407D01*
X125136Y23376D01*
X125125Y23346D01*
X125123Y23343D01*
X125119Y23335D01*
X125112Y23322D01*
X125102Y23305D01*
X125087Y23287D01*
X125071Y23269D01*
X125053Y23253D01*
X125030Y23236D01*
X125027Y23235D01*
X125018Y23230D01*
X125005Y23225D01*
X124987Y23219D01*
X124966Y23210D01*
X124941Y23205D01*
X124912Y23200D01*
X124882Y23199D01*
X124854D01*
X124887Y23420D01*
X124889D01*
X124895Y23422D01*
X124904Y23424D01*
X124914Y23425D01*
X124936Y23435D01*
X124946Y23441D01*
X124956Y23450D01*
X124958Y23451D01*
X124959Y23455D01*
X124963Y23461D01*
X124966Y23469D01*
X124971Y23481D01*
X124974Y23496D01*
X124976Y23512D01*
X124977Y23532D01*
Y23543D01*
X124976Y23555D01*
X124974Y23569D01*
X124972Y23586D01*
X124968Y23604D01*
X124963Y23620D01*
X124956Y23637D01*
X124954Y23638D01*
X124953Y23642D01*
X124950Y23647D01*
X124943Y23653D01*
X124936Y23660D01*
X124927Y23666D01*
X124917Y23673D01*
X124904Y23679D01*
X124902D01*
X124897Y23683D01*
X124889Y23684D01*
X124876Y23687D01*
X124859Y23691D01*
X124838Y23692D01*
X124812Y23696D01*
X124782D01*
X124653D01*
X124656Y23694D01*
X124664Y23687D01*
X124677Y23679D01*
X124694Y23666D01*
X124710Y23651D01*
X124728Y23635D01*
X124746Y23615D01*
X124761Y23596D01*
X124763Y23594D01*
X124766Y23586D01*
X124772Y23574D01*
X124779Y23560D01*
X124786Y23542D01*
X124792Y23522D01*
X124795Y23499D01*
X124797Y23474D01*
Y23463D01*
X124795Y23455D01*
X124794Y23443D01*
X124791Y23432D01*
X124784Y23404D01*
X124771Y23371D01*
X124761Y23355D01*
X124751Y23337D01*
X124738Y23320D01*
X124723Y23302D01*
X124707Y23286D01*
X124687Y23269D01*
X124686Y23268D01*
X124681Y23266D01*
X124674Y23261D01*
X124664Y23255D01*
X124651Y23248D01*
X124636Y23240D01*
X124618Y23230D01*
X124597Y23222D01*
X124574Y23214D01*
X124548Y23204D01*
X124520Y23196D01*
X124490Y23189D01*
X124458Y23182D01*
X124423Y23179D01*
X124385Y23176D01*
X124346Y23174D01*
X124343D01*
X124336D01*
X124325D01*
X124308Y23176D01*
X124290Y23178D01*
X124267Y23179D01*
X124243Y23182D01*
X124218Y23186D01*
X124162Y23196D01*
X124105Y23212D01*
X124077Y23223D01*
X124049Y23235D01*
X124025Y23248D01*
X124002Y23264D01*
X124000Y23266D01*
X123997Y23269D01*
X123990Y23274D01*
X123984Y23281D01*
X123974Y23289D01*
X123964Y23301D01*
X123954Y23312D01*
X123943Y23325D01*
X123921Y23358D01*
X123902Y23394D01*
X123895Y23415D01*
X123889Y23437D01*
X123885Y23460D01*
X123884Y23483D01*
Y23494D01*
X123885Y23507D01*
X123889Y23524D01*
X123893Y23543D01*
X123900Y23564D01*
X123908Y23586D01*
X123921Y23607D01*
X123923Y23610D01*
X123928Y23617D01*
X123936Y23627D01*
X123949Y23640D01*
X123964Y23656D01*
X123984Y23673D01*
X124005Y23691D01*
X124031Y23707D01*
X123905D01*
Y23889D01*
X124705D01*
X124707D01*
X124713D01*
X124723D01*
X124736D01*
X124751Y23888D01*
D02*
G37*
G36*
X124797Y22827D02*
X124341D01*
X124339D01*
X124335D01*
X124328D01*
X124320D01*
X124308D01*
X124295D01*
X124267Y22825D01*
X124236Y22823D01*
X124207Y22822D01*
X124180Y22818D01*
X124169Y22817D01*
X124159Y22815D01*
X124157D01*
X124151Y22813D01*
X124143Y22810D01*
X124133Y22805D01*
X124110Y22794D01*
X124098Y22784D01*
X124089Y22774D01*
X124087Y22772D01*
X124085Y22769D01*
X124080Y22763D01*
X124075Y22754D01*
X124072Y22745D01*
X124067Y22733D01*
X124066Y22720D01*
X124064Y22705D01*
Y22697D01*
X124066Y22687D01*
X124067Y22676D01*
X124072Y22662D01*
X124077Y22648D01*
X124085Y22631D01*
X124097Y22617D01*
X124098Y22615D01*
X124102Y22610D01*
X124110Y22603D01*
X124120Y22595D01*
X124131Y22585D01*
X124146Y22577D01*
X124164Y22567D01*
X124184Y22561D01*
X124187D01*
X124195Y22559D01*
X124202Y22558D01*
X124210Y22556D01*
X124220Y22554D01*
X124231D01*
X124244Y22553D01*
X124259Y22551D01*
X124277Y22549D01*
X124295Y22548D01*
X124317D01*
X124339Y22546D01*
X124366D01*
X124394D01*
X124797D01*
Y22353D01*
X123905D01*
Y22531D01*
X124034D01*
X124033Y22533D01*
X124023Y22539D01*
X124010Y22549D01*
X123993Y22562D01*
X123975Y22579D01*
X123956Y22597D01*
X123939Y22617D01*
X123923Y22638D01*
X123921Y22641D01*
X123916Y22649D01*
X123910Y22661D01*
X123903Y22677D01*
X123897Y22697D01*
X123890Y22720D01*
X123885Y22746D01*
X123884Y22772D01*
Y22787D01*
X123885Y22802D01*
X123889Y22822D01*
X123895Y22845D01*
X123902Y22869D01*
X123913Y22892D01*
X123928Y22915D01*
X123930Y22918D01*
X123936Y22925D01*
X123946Y22935D01*
X123959Y22948D01*
X123975Y22961D01*
X123995Y22974D01*
X124018Y22987D01*
X124043Y22997D01*
X124046Y22999D01*
X124056Y23000D01*
X124071Y23004D01*
X124093Y23009D01*
X124121Y23013D01*
X124156Y23017D01*
X124197Y23018D01*
X124243Y23020D01*
X124797D01*
Y22827D01*
D02*
G37*
G36*
Y21964D02*
X123905D01*
Y22157D01*
X124797D01*
Y21964D01*
D02*
G37*
G36*
X123784D02*
X123565D01*
Y22157D01*
X123784D01*
Y21964D01*
D02*
G37*
G36*
X124797Y21572D02*
X123564D01*
Y21765D01*
X124797D01*
Y21572D01*
D02*
G37*
G36*
Y21180D02*
X123564D01*
Y21373D01*
X124797D01*
Y21180D01*
D02*
G37*
G36*
Y20788D02*
X123905D01*
Y20981D01*
X124797D01*
Y20788D01*
D02*
G37*
G36*
X123784D02*
X123565D01*
Y20981D01*
X123784D01*
Y20788D01*
D02*
G37*
G36*
X124797Y20404D02*
X124287D01*
X124285D01*
X124280D01*
X124274D01*
X124266D01*
X124254D01*
X124243Y20403D01*
X124215Y20401D01*
X124184Y20398D01*
X124154Y20394D01*
X124128Y20388D01*
X124118Y20385D01*
X124108Y20380D01*
X124107Y20378D01*
X124102Y20375D01*
X124093Y20368D01*
X124085Y20360D01*
X124079Y20348D01*
X124071Y20335D01*
X124066Y20319D01*
X124064Y20299D01*
Y20296D01*
X124066Y20288D01*
X124067Y20276D01*
X124072Y20262D01*
X124079Y20245D01*
X124090Y20227D01*
X124105Y20211D01*
X124126Y20194D01*
X124130Y20193D01*
X124133Y20191D01*
X124139Y20188D01*
X124146Y20185D01*
X124156Y20181D01*
X124167Y20178D01*
X124180Y20175D01*
X124195Y20171D01*
X124213Y20168D01*
X124233Y20165D01*
X124254Y20162D01*
X124279Y20158D01*
X124307Y20157D01*
X124336Y20155D01*
X124369D01*
X124797D01*
Y19961D01*
X124308D01*
X124307D01*
X124302D01*
X124295D01*
X124285D01*
X124274D01*
X124259D01*
X124230Y19960D01*
X124198Y19958D01*
X124167Y19955D01*
X124153Y19953D01*
X124139Y19950D01*
X124130Y19948D01*
X124120Y19945D01*
X124118Y19943D01*
X124111Y19940D01*
X124102Y19935D01*
X124092Y19927D01*
X124082Y19916D01*
X124072Y19901D01*
X124066Y19881D01*
X124064Y19860D01*
Y19852D01*
X124066Y19843D01*
X124067Y19834D01*
X124071Y19820D01*
X124077Y19807D01*
X124084Y19793D01*
X124093Y19779D01*
X124095Y19778D01*
X124098Y19773D01*
X124105Y19768D01*
X124115Y19760D01*
X124126Y19751D01*
X124141Y19742D01*
X124157Y19734D01*
X124177Y19727D01*
X124180D01*
X124189Y19725D01*
X124202Y19722D01*
X124221Y19720D01*
X124248Y19717D01*
X124262Y19715D01*
X124279Y19714D01*
X124299D01*
X124318Y19712D01*
X124341D01*
X124364D01*
X124797D01*
Y19519D01*
X123905D01*
Y19699D01*
X124026D01*
X124025Y19701D01*
X124016Y19707D01*
X124003Y19717D01*
X123987Y19730D01*
X123970Y19745D01*
X123952Y19763D01*
X123934Y19783D01*
X123920Y19802D01*
X123918Y19806D01*
X123915Y19812D01*
X123908Y19824D01*
X123902Y19840D01*
X123895Y19858D01*
X123889Y19879D01*
X123885Y19902D01*
X123884Y19927D01*
Y19939D01*
X123885Y19952D01*
X123889Y19968D01*
X123892Y19988D01*
X123898Y20007D01*
X123908Y20029D01*
X123920Y20048D01*
X123921Y20050D01*
X123926Y20057D01*
X123934Y20066D01*
X123946Y20079D01*
X123962Y20093D01*
X123980Y20106D01*
X124002Y20121D01*
X124026Y20134D01*
X124025D01*
X124023Y20135D01*
X124015Y20142D01*
X124002Y20152D01*
X123987Y20165D01*
X123969Y20181D01*
X123951Y20199D01*
X123934Y20219D01*
X123920Y20239D01*
X123918Y20242D01*
X123915Y20248D01*
X123908Y20260D01*
X123902Y20275D01*
X123895Y20293D01*
X123889Y20312D01*
X123885Y20334D01*
X123884Y20357D01*
Y20370D01*
X123885Y20383D01*
X123889Y20401D01*
X123892Y20422D01*
X123898Y20444D01*
X123908Y20465D01*
X123920Y20486D01*
X123921Y20488D01*
X123926Y20494D01*
X123934Y20504D01*
X123946Y20517D01*
X123961Y20530D01*
X123979Y20544D01*
X123998Y20557D01*
X124023Y20568D01*
X124026Y20570D01*
X124036Y20573D01*
X124051Y20578D01*
X124072Y20583D01*
X124102Y20588D01*
X124118Y20591D01*
X124136Y20593D01*
X124156Y20595D01*
X124179Y20596D01*
X124202Y20598D01*
X124226D01*
X124797D01*
Y20404D01*
D02*
G37*
G36*
X114069Y35643D02*
X114465D01*
Y35344D01*
X114069D01*
Y34681D01*
X113739D01*
X112489Y35381D01*
Y35643D01*
X113736D01*
Y35842D01*
X114069D01*
Y35643D01*
D02*
G37*
G36*
X114465Y34176D02*
X112914D01*
X114465Y33856D01*
Y33542D01*
X112914Y33225D01*
X114465D01*
Y32921D01*
X112494D01*
Y33408D01*
X113841Y33699D01*
X112494Y33987D01*
Y34480D01*
X114465D01*
Y34176D01*
D02*
G37*
G36*
X114200Y32620D02*
X114216Y32604D01*
X114239Y32580D01*
X114268Y32546D01*
X114302Y32504D01*
X114339Y32452D01*
X114376Y32392D01*
X114410Y32321D01*
Y32318D01*
X114412Y32313D01*
X114418Y32302D01*
X114423Y32287D01*
X114431Y32271D01*
X114438Y32250D01*
X114446Y32226D01*
X114454Y32200D01*
X114470Y32140D01*
X114486Y32074D01*
X114496Y32006D01*
X114499Y31933D01*
Y31909D01*
X114496Y31894D01*
Y31873D01*
X114494Y31847D01*
X114488Y31820D01*
X114483Y31789D01*
X114470Y31723D01*
X114449Y31653D01*
X114420Y31579D01*
X114404Y31543D01*
X114383Y31509D01*
X114381Y31506D01*
X114378Y31501D01*
X114370Y31490D01*
X114363Y31480D01*
X114349Y31464D01*
X114334Y31446D01*
X114315Y31427D01*
X114294Y31404D01*
X114271Y31383D01*
X114245Y31359D01*
X114216Y31336D01*
X114184Y31312D01*
X114150Y31286D01*
X114114Y31265D01*
X114074Y31241D01*
X114032Y31220D01*
X114030D01*
X114022Y31215D01*
X114009Y31210D01*
X113990Y31205D01*
X113967Y31197D01*
X113941Y31186D01*
X113909Y31179D01*
X113875Y31168D01*
X113836Y31157D01*
X113794Y31150D01*
X113747Y31139D01*
X113700Y31131D01*
X113647Y31126D01*
X113592Y31121D01*
X113477Y31116D01*
X113474D01*
X113461D01*
X113445D01*
X113422Y31118D01*
X113396D01*
X113362Y31121D01*
X113325Y31123D01*
X113286Y31129D01*
X113244Y31134D01*
X113199Y31142D01*
X113105Y31160D01*
X113011Y31186D01*
X112922Y31223D01*
X112919Y31226D01*
X112911Y31228D01*
X112900Y31234D01*
X112885Y31241D01*
X112864Y31254D01*
X112843Y31265D01*
X112791Y31299D01*
X112735Y31338D01*
X112678Y31385D01*
X112623Y31440D01*
X112599Y31472D01*
X112576Y31503D01*
X112573Y31506D01*
X112570Y31511D01*
X112565Y31522D01*
X112557Y31535D01*
X112549Y31550D01*
X112539Y31571D01*
X112529Y31595D01*
X112518Y31621D01*
X112507Y31650D01*
X112497Y31681D01*
X112479Y31752D01*
X112466Y31831D01*
X112460Y31873D01*
Y31946D01*
X112463Y31964D01*
X112466Y31991D01*
X112468Y32017D01*
X112473Y32048D01*
X112479Y32082D01*
X112497Y32156D01*
X112507Y32195D01*
X112523Y32234D01*
X112542Y32271D01*
X112560Y32310D01*
X112583Y32344D01*
X112610Y32378D01*
X112612Y32381D01*
X112618Y32386D01*
X112625Y32394D01*
X112636Y32407D01*
X112652Y32420D01*
X112670Y32436D01*
X112694Y32454D01*
X112717Y32473D01*
X112746Y32491D01*
X112780Y32509D01*
X112814Y32530D01*
X112853Y32549D01*
X112895Y32564D01*
X112940Y32580D01*
X112987Y32593D01*
X113039Y32604D01*
X113113Y32282D01*
X113110D01*
X113105Y32279D01*
X113100Y32276D01*
X113089Y32274D01*
X113060Y32266D01*
X113029Y32250D01*
X112990Y32232D01*
X112953Y32211D01*
X112916Y32182D01*
X112882Y32148D01*
X112880Y32143D01*
X112869Y32129D01*
X112856Y32111D01*
X112840Y32082D01*
X112827Y32048D01*
X112814Y32009D01*
X112804Y31964D01*
X112801Y31915D01*
Y31894D01*
X112804Y31881D01*
X112806Y31862D01*
X112809Y31841D01*
X112822Y31794D01*
X112840Y31742D01*
X112853Y31713D01*
X112869Y31687D01*
X112887Y31658D01*
X112911Y31632D01*
X112935Y31605D01*
X112963Y31579D01*
X112966Y31577D01*
X112971Y31574D01*
X112982Y31569D01*
X112995Y31558D01*
X113011Y31550D01*
X113031Y31540D01*
X113058Y31527D01*
X113086Y31516D01*
X113118Y31503D01*
X113155Y31493D01*
X113197Y31480D01*
X113241Y31472D01*
X113288Y31464D01*
X113341Y31456D01*
X113398Y31454D01*
X113459Y31451D01*
X113464D01*
X113474D01*
X113493D01*
X113516Y31454D01*
X113548Y31456D01*
X113582Y31459D01*
X113618Y31461D01*
X113660Y31469D01*
X113747Y31485D01*
X113836Y31509D01*
X113880Y31524D01*
X113922Y31545D01*
X113962Y31566D01*
X113998Y31590D01*
X114001Y31592D01*
X114006Y31595D01*
X114014Y31603D01*
X114022Y31611D01*
X114048Y31637D01*
X114077Y31674D01*
X114108Y31721D01*
X114132Y31776D01*
X114142Y31807D01*
X114150Y31839D01*
X114155Y31875D01*
X114158Y31912D01*
Y31928D01*
X114155Y31946D01*
X114153Y31972D01*
X114148Y32001D01*
X114140Y32035D01*
X114129Y32072D01*
X114114Y32109D01*
X114111Y32114D01*
X114106Y32127D01*
X114095Y32145D01*
X114082Y32171D01*
X114064Y32200D01*
X114043Y32232D01*
X114019Y32263D01*
X113993Y32295D01*
X113742D01*
Y31923D01*
X113409D01*
Y32625D01*
X114195D01*
X114197D01*
X114200Y32620D01*
D02*
G37*
G36*
X114391Y30233D02*
X114420D01*
X114454Y30230D01*
X114488Y30227D01*
X114559Y30222D01*
X114632Y30212D01*
X114700Y30196D01*
X114732Y30188D01*
X114761Y30178D01*
X114763D01*
X114766Y30175D01*
X114774Y30172D01*
X114784Y30167D01*
X114808Y30154D01*
X114839Y30133D01*
X114873Y30110D01*
X114907Y30078D01*
X114942Y30044D01*
X114970Y30002D01*
X114973Y29997D01*
X114976Y29989D01*
X114981Y29981D01*
X114994Y29955D01*
X115004Y29918D01*
X115017Y29871D01*
X115031Y29816D01*
X115038Y29751D01*
X115041Y29677D01*
Y29646D01*
X115038Y29630D01*
Y29612D01*
X115033Y29567D01*
X115028Y29517D01*
X115020Y29465D01*
X115007Y29415D01*
X114989Y29368D01*
X114986Y29363D01*
X114978Y29350D01*
X114968Y29329D01*
X114952Y29302D01*
X114928Y29274D01*
X114902Y29245D01*
X114873Y29219D01*
X114837Y29193D01*
X114831Y29190D01*
X114818Y29182D01*
X114797Y29174D01*
X114769Y29164D01*
X114734Y29151D01*
X114695Y29143D01*
X114648Y29135D01*
X114601Y29132D01*
X114556D01*
X114609Y29486D01*
X114611D01*
X114622Y29489D01*
X114635Y29491D01*
X114651Y29494D01*
X114687Y29509D01*
X114703Y29520D01*
X114719Y29533D01*
X114721Y29536D01*
X114724Y29541D01*
X114729Y29551D01*
X114734Y29564D01*
X114742Y29583D01*
X114748Y29607D01*
X114750Y29633D01*
X114753Y29664D01*
Y29682D01*
X114750Y29701D01*
X114748Y29724D01*
X114745Y29751D01*
X114737Y29779D01*
X114729Y29806D01*
X114719Y29832D01*
X114716Y29834D01*
X114714Y29840D01*
X114708Y29847D01*
X114698Y29858D01*
X114687Y29869D01*
X114672Y29879D01*
X114656Y29889D01*
X114635Y29900D01*
X114632D01*
X114625Y29905D01*
X114611Y29908D01*
X114590Y29913D01*
X114564Y29918D01*
X114530Y29921D01*
X114488Y29926D01*
X114441D01*
X114234D01*
X114239Y29923D01*
X114252Y29913D01*
X114273Y29900D01*
X114300Y29879D01*
X114326Y29855D01*
X114355Y29829D01*
X114383Y29798D01*
X114407Y29766D01*
X114410Y29764D01*
X114415Y29751D01*
X114425Y29732D01*
X114436Y29709D01*
X114446Y29680D01*
X114457Y29648D01*
X114462Y29612D01*
X114465Y29572D01*
Y29554D01*
X114462Y29541D01*
X114459Y29523D01*
X114454Y29504D01*
X114444Y29460D01*
X114423Y29407D01*
X114407Y29381D01*
X114391Y29352D01*
X114370Y29326D01*
X114347Y29297D01*
X114321Y29271D01*
X114289Y29245D01*
X114286Y29242D01*
X114279Y29240D01*
X114268Y29232D01*
X114252Y29221D01*
X114232Y29211D01*
X114208Y29198D01*
X114179Y29182D01*
X114145Y29169D01*
X114108Y29156D01*
X114066Y29140D01*
X114022Y29127D01*
X113975Y29116D01*
X113922Y29106D01*
X113867Y29101D01*
X113807Y29096D01*
X113744Y29093D01*
X113739D01*
X113728D01*
X113710D01*
X113684Y29096D01*
X113655Y29098D01*
X113618Y29101D01*
X113579Y29106D01*
X113540Y29111D01*
X113451Y29127D01*
X113359Y29153D01*
X113314Y29171D01*
X113270Y29190D01*
X113231Y29211D01*
X113194Y29237D01*
X113191Y29240D01*
X113186Y29245D01*
X113176Y29253D01*
X113165Y29263D01*
X113149Y29276D01*
X113134Y29295D01*
X113118Y29313D01*
X113100Y29334D01*
X113066Y29386D01*
X113034Y29444D01*
X113024Y29478D01*
X113013Y29512D01*
X113008Y29549D01*
X113005Y29585D01*
Y29604D01*
X113008Y29625D01*
X113013Y29651D01*
X113021Y29682D01*
X113031Y29717D01*
X113045Y29751D01*
X113066Y29785D01*
X113068Y29790D01*
X113076Y29800D01*
X113089Y29816D01*
X113110Y29837D01*
X113134Y29863D01*
X113165Y29889D01*
X113199Y29918D01*
X113241Y29944D01*
X113039D01*
Y30235D01*
X114318D01*
X114321D01*
X114331D01*
X114347D01*
X114368D01*
X114391Y30233D01*
D02*
G37*
G36*
X114465Y28537D02*
X113736D01*
X113734D01*
X113726D01*
X113715D01*
X113702D01*
X113684D01*
X113663D01*
X113618Y28535D01*
X113569Y28532D01*
X113521Y28530D01*
X113479Y28524D01*
X113461Y28522D01*
X113445Y28519D01*
X113443D01*
X113432Y28517D01*
X113419Y28511D01*
X113403Y28503D01*
X113367Y28485D01*
X113348Y28469D01*
X113333Y28454D01*
X113330Y28451D01*
X113328Y28446D01*
X113320Y28435D01*
X113312Y28422D01*
X113307Y28407D01*
X113299Y28388D01*
X113296Y28367D01*
X113294Y28344D01*
Y28330D01*
X113296Y28315D01*
X113299Y28297D01*
X113307Y28275D01*
X113314Y28252D01*
X113328Y28226D01*
X113346Y28202D01*
X113348Y28199D01*
X113354Y28192D01*
X113367Y28181D01*
X113383Y28168D01*
X113401Y28152D01*
X113425Y28139D01*
X113453Y28124D01*
X113485Y28113D01*
X113490D01*
X113503Y28110D01*
X113514Y28108D01*
X113527Y28105D01*
X113542Y28103D01*
X113561D01*
X113582Y28100D01*
X113605Y28097D01*
X113634Y28095D01*
X113663Y28092D01*
X113697D01*
X113734Y28089D01*
X113776D01*
X113820D01*
X114465D01*
Y27780D01*
X113039D01*
Y28066D01*
X113246D01*
X113244Y28069D01*
X113228Y28079D01*
X113207Y28095D01*
X113181Y28116D01*
X113152Y28142D01*
X113121Y28171D01*
X113094Y28202D01*
X113068Y28236D01*
X113066Y28241D01*
X113058Y28255D01*
X113047Y28273D01*
X113037Y28299D01*
X113026Y28330D01*
X113016Y28367D01*
X113008Y28409D01*
X113005Y28451D01*
Y28475D01*
X113008Y28498D01*
X113013Y28530D01*
X113024Y28566D01*
X113034Y28606D01*
X113052Y28642D01*
X113076Y28679D01*
X113079Y28684D01*
X113089Y28695D01*
X113105Y28710D01*
X113126Y28731D01*
X113152Y28752D01*
X113183Y28773D01*
X113220Y28794D01*
X113259Y28810D01*
X113265Y28813D01*
X113280Y28815D01*
X113304Y28820D01*
X113341Y28828D01*
X113385Y28836D01*
X113440Y28841D01*
X113506Y28844D01*
X113579Y28847D01*
X114465D01*
Y28537D01*
D02*
G37*
G36*
Y27159D02*
X113039D01*
Y27468D01*
X114465D01*
Y27159D01*
D02*
G37*
G36*
X112846D02*
X112497D01*
Y27468D01*
X112846D01*
Y27159D01*
D02*
G37*
G36*
X114465Y26533D02*
X112494D01*
Y26842D01*
X114465D01*
Y26533D01*
D02*
G37*
G36*
Y25907D02*
X112494D01*
Y26216D01*
X114465D01*
Y25907D01*
D02*
G37*
G36*
Y25281D02*
X113039D01*
Y25590D01*
X114465D01*
Y25281D01*
D02*
G37*
G36*
X112846D02*
X112497D01*
Y25590D01*
X112846D01*
Y25281D01*
D02*
G37*
G36*
X114465Y24668D02*
X113650D01*
X113647D01*
X113639D01*
X113629D01*
X113616D01*
X113597D01*
X113579Y24665D01*
X113534Y24663D01*
X113485Y24657D01*
X113438Y24652D01*
X113396Y24642D01*
X113380Y24636D01*
X113364Y24629D01*
X113362Y24626D01*
X113354Y24621D01*
X113341Y24610D01*
X113328Y24597D01*
X113317Y24579D01*
X113304Y24558D01*
X113296Y24532D01*
X113294Y24500D01*
Y24495D01*
X113296Y24482D01*
X113299Y24463D01*
X113307Y24440D01*
X113317Y24414D01*
X113335Y24385D01*
X113359Y24359D01*
X113393Y24332D01*
X113398Y24330D01*
X113403Y24327D01*
X113414Y24322D01*
X113425Y24317D01*
X113440Y24311D01*
X113459Y24306D01*
X113479Y24301D01*
X113503Y24296D01*
X113532Y24291D01*
X113563Y24285D01*
X113597Y24280D01*
X113637Y24275D01*
X113681Y24272D01*
X113728Y24270D01*
X113781D01*
X114465D01*
Y23960D01*
X113684D01*
X113681D01*
X113673D01*
X113663D01*
X113647D01*
X113629D01*
X113605D01*
X113558Y23958D01*
X113508Y23955D01*
X113459Y23950D01*
X113435Y23947D01*
X113414Y23942D01*
X113398Y23939D01*
X113383Y23934D01*
X113380Y23932D01*
X113370Y23926D01*
X113354Y23918D01*
X113338Y23905D01*
X113322Y23887D01*
X113307Y23863D01*
X113296Y23832D01*
X113294Y23798D01*
Y23785D01*
X113296Y23772D01*
X113299Y23756D01*
X113304Y23735D01*
X113314Y23714D01*
X113325Y23690D01*
X113341Y23670D01*
X113343Y23667D01*
X113348Y23659D01*
X113359Y23651D01*
X113375Y23638D01*
X113393Y23625D01*
X113417Y23609D01*
X113443Y23596D01*
X113474Y23586D01*
X113479D01*
X113493Y23583D01*
X113514Y23578D01*
X113545Y23575D01*
X113587Y23570D01*
X113610Y23567D01*
X113637Y23565D01*
X113668D01*
X113700Y23562D01*
X113736D01*
X113773D01*
X114465D01*
Y23253D01*
X113039D01*
Y23541D01*
X113233D01*
X113231Y23544D01*
X113217Y23554D01*
X113197Y23570D01*
X113170Y23591D01*
X113144Y23615D01*
X113115Y23643D01*
X113086Y23675D01*
X113063Y23706D01*
X113060Y23711D01*
X113055Y23722D01*
X113045Y23740D01*
X113034Y23766D01*
X113024Y23795D01*
X113013Y23829D01*
X113008Y23866D01*
X113005Y23905D01*
Y23924D01*
X113008Y23945D01*
X113013Y23971D01*
X113018Y24002D01*
X113029Y24034D01*
X113045Y24068D01*
X113063Y24099D01*
X113066Y24102D01*
X113073Y24112D01*
X113086Y24128D01*
X113105Y24149D01*
X113131Y24170D01*
X113160Y24191D01*
X113194Y24215D01*
X113233Y24236D01*
X113231D01*
X113228Y24238D01*
X113215Y24249D01*
X113194Y24264D01*
X113170Y24285D01*
X113142Y24311D01*
X113113Y24340D01*
X113086Y24372D01*
X113063Y24403D01*
X113060Y24408D01*
X113055Y24419D01*
X113045Y24437D01*
X113034Y24461D01*
X113024Y24490D01*
X113013Y24521D01*
X113008Y24555D01*
X113005Y24592D01*
Y24613D01*
X113008Y24634D01*
X113013Y24663D01*
X113018Y24697D01*
X113029Y24731D01*
X113045Y24765D01*
X113063Y24799D01*
X113066Y24801D01*
X113073Y24812D01*
X113086Y24828D01*
X113105Y24848D01*
X113128Y24870D01*
X113157Y24891D01*
X113189Y24911D01*
X113228Y24930D01*
X113233Y24932D01*
X113249Y24938D01*
X113273Y24946D01*
X113307Y24953D01*
X113354Y24961D01*
X113380Y24966D01*
X113409Y24969D01*
X113440Y24972D01*
X113477Y24974D01*
X113514Y24977D01*
X113553D01*
X114465D01*
Y24668D01*
D02*
G37*
G36*
X71226Y46642D02*
X71621D01*
Y46344D01*
X71226D01*
Y45681D01*
X70895D01*
X69646Y46380D01*
Y46642D01*
X70893D01*
Y46841D01*
X71226D01*
Y46642D01*
D02*
G37*
G36*
X71621Y45175D02*
X70070D01*
X71621Y44855D01*
Y44541D01*
X70070Y44224D01*
X71621D01*
Y43920D01*
X69651D01*
Y44407D01*
X70998Y44698D01*
X69651Y44987D01*
Y45479D01*
X71621D01*
Y45175D01*
D02*
G37*
G36*
X71357Y43619D02*
X71372Y43603D01*
X71396Y43580D01*
X71425Y43545D01*
X71459Y43504D01*
X71495Y43451D01*
X71532Y43391D01*
X71566Y43320D01*
Y43318D01*
X71569Y43312D01*
X71574Y43302D01*
X71579Y43286D01*
X71587Y43270D01*
X71595Y43249D01*
X71603Y43226D01*
X71611Y43200D01*
X71626Y43139D01*
X71642Y43074D01*
X71653Y43006D01*
X71655Y42933D01*
Y42909D01*
X71653Y42893D01*
Y42872D01*
X71650Y42846D01*
X71645Y42820D01*
X71640Y42788D01*
X71626Y42723D01*
X71605Y42652D01*
X71577Y42579D01*
X71561Y42542D01*
X71540Y42508D01*
X71537Y42505D01*
X71535Y42500D01*
X71527Y42490D01*
X71519Y42479D01*
X71506Y42463D01*
X71490Y42445D01*
X71472Y42427D01*
X71451Y42403D01*
X71427Y42382D01*
X71401Y42359D01*
X71372Y42335D01*
X71341Y42311D01*
X71307Y42285D01*
X71270Y42264D01*
X71231Y42241D01*
X71189Y42220D01*
X71186D01*
X71178Y42215D01*
X71165Y42209D01*
X71147Y42204D01*
X71123Y42196D01*
X71097Y42186D01*
X71066Y42178D01*
X71032Y42167D01*
X70992Y42157D01*
X70951Y42149D01*
X70903Y42139D01*
X70856Y42131D01*
X70804Y42125D01*
X70749Y42120D01*
X70634Y42115D01*
X70631D01*
X70618D01*
X70602D01*
X70578Y42118D01*
X70552D01*
X70518Y42120D01*
X70481Y42123D01*
X70442Y42128D01*
X70400Y42133D01*
X70356Y42141D01*
X70261Y42160D01*
X70167Y42186D01*
X70078Y42222D01*
X70075Y42225D01*
X70068Y42228D01*
X70057Y42233D01*
X70041Y42241D01*
X70020Y42254D01*
X69999Y42264D01*
X69947Y42298D01*
X69892Y42338D01*
X69834Y42385D01*
X69779Y42440D01*
X69756Y42471D01*
X69732Y42503D01*
X69730Y42505D01*
X69727Y42511D01*
X69722Y42521D01*
X69714Y42534D01*
X69706Y42550D01*
X69696Y42571D01*
X69685Y42595D01*
X69674Y42621D01*
X69664Y42649D01*
X69654Y42681D01*
X69635Y42752D01*
X69622Y42830D01*
X69617Y42872D01*
Y42946D01*
X69620Y42964D01*
X69622Y42990D01*
X69625Y43016D01*
X69630Y43048D01*
X69635Y43082D01*
X69654Y43155D01*
X69664Y43194D01*
X69680Y43234D01*
X69698Y43270D01*
X69717Y43310D01*
X69740Y43344D01*
X69766Y43378D01*
X69769Y43380D01*
X69774Y43386D01*
X69782Y43394D01*
X69792Y43407D01*
X69808Y43420D01*
X69827Y43435D01*
X69850Y43454D01*
X69874Y43472D01*
X69902Y43490D01*
X69937Y43509D01*
X69971Y43530D01*
X70010Y43548D01*
X70052Y43564D01*
X70096Y43580D01*
X70144Y43593D01*
X70196Y43603D01*
X70269Y43281D01*
X70267D01*
X70261Y43278D01*
X70256Y43276D01*
X70246Y43273D01*
X70217Y43265D01*
X70185Y43249D01*
X70146Y43231D01*
X70109Y43210D01*
X70073Y43181D01*
X70039Y43147D01*
X70036Y43142D01*
X70026Y43129D01*
X70012Y43111D01*
X69997Y43082D01*
X69984Y43048D01*
X69971Y43008D01*
X69960Y42964D01*
X69958Y42914D01*
Y42893D01*
X69960Y42880D01*
X69963Y42862D01*
X69965Y42841D01*
X69978Y42794D01*
X69997Y42741D01*
X70010Y42712D01*
X70026Y42686D01*
X70044Y42657D01*
X70068Y42631D01*
X70091Y42605D01*
X70120Y42579D01*
X70123Y42576D01*
X70128Y42573D01*
X70138Y42568D01*
X70151Y42558D01*
X70167Y42550D01*
X70188Y42540D01*
X70214Y42526D01*
X70243Y42516D01*
X70275Y42503D01*
X70311Y42492D01*
X70353Y42479D01*
X70398Y42471D01*
X70445Y42463D01*
X70497Y42456D01*
X70555Y42453D01*
X70615Y42450D01*
X70620D01*
X70631D01*
X70649D01*
X70673Y42453D01*
X70704Y42456D01*
X70738Y42458D01*
X70775Y42461D01*
X70817Y42469D01*
X70903Y42484D01*
X70992Y42508D01*
X71037Y42524D01*
X71079Y42545D01*
X71118Y42566D01*
X71155Y42589D01*
X71157Y42592D01*
X71163Y42595D01*
X71171Y42602D01*
X71178Y42610D01*
X71205Y42636D01*
X71233Y42673D01*
X71265Y42720D01*
X71289Y42775D01*
X71299Y42807D01*
X71307Y42838D01*
X71312Y42875D01*
X71315Y42911D01*
Y42927D01*
X71312Y42946D01*
X71309Y42972D01*
X71304Y43001D01*
X71296Y43035D01*
X71286Y43071D01*
X71270Y43108D01*
X71267Y43113D01*
X71262Y43126D01*
X71252Y43145D01*
X71239Y43171D01*
X71220Y43200D01*
X71199Y43231D01*
X71176Y43263D01*
X71150Y43294D01*
X70898D01*
Y42922D01*
X70565D01*
Y43624D01*
X71351D01*
X71354D01*
X71357Y43619D01*
D02*
G37*
G36*
X71548Y41232D02*
X71577D01*
X71611Y41230D01*
X71645Y41227D01*
X71715Y41222D01*
X71789Y41211D01*
X71857Y41195D01*
X71888Y41188D01*
X71917Y41177D01*
X71920D01*
X71922Y41174D01*
X71930Y41172D01*
X71941Y41167D01*
X71964Y41153D01*
X71996Y41133D01*
X72030Y41109D01*
X72064Y41078D01*
X72098Y41043D01*
X72127Y41001D01*
X72129Y40996D01*
X72132Y40988D01*
X72137Y40981D01*
X72150Y40954D01*
X72161Y40918D01*
X72174Y40870D01*
X72187Y40815D01*
X72195Y40750D01*
X72198Y40677D01*
Y40645D01*
X72195Y40630D01*
Y40611D01*
X72190Y40567D01*
X72184Y40517D01*
X72177Y40464D01*
X72163Y40415D01*
X72145Y40367D01*
X72143Y40362D01*
X72135Y40349D01*
X72124Y40328D01*
X72109Y40302D01*
X72085Y40273D01*
X72059Y40244D01*
X72030Y40218D01*
X71993Y40192D01*
X71988Y40189D01*
X71975Y40181D01*
X71954Y40174D01*
X71925Y40163D01*
X71891Y40150D01*
X71852Y40142D01*
X71805Y40134D01*
X71757Y40132D01*
X71713D01*
X71765Y40485D01*
X71768D01*
X71778Y40488D01*
X71791Y40491D01*
X71807Y40493D01*
X71844Y40509D01*
X71860Y40519D01*
X71875Y40532D01*
X71878Y40535D01*
X71881Y40540D01*
X71886Y40551D01*
X71891Y40564D01*
X71899Y40582D01*
X71904Y40606D01*
X71907Y40632D01*
X71909Y40663D01*
Y40682D01*
X71907Y40700D01*
X71904Y40724D01*
X71902Y40750D01*
X71894Y40779D01*
X71886Y40805D01*
X71875Y40831D01*
X71873Y40834D01*
X71870Y40839D01*
X71865Y40847D01*
X71854Y40857D01*
X71844Y40868D01*
X71828Y40878D01*
X71812Y40889D01*
X71791Y40899D01*
X71789D01*
X71781Y40905D01*
X71768Y40907D01*
X71747Y40912D01*
X71721Y40918D01*
X71687Y40920D01*
X71645Y40925D01*
X71598D01*
X71391D01*
X71396Y40923D01*
X71409Y40912D01*
X71430Y40899D01*
X71456Y40878D01*
X71482Y40855D01*
X71511Y40829D01*
X71540Y40797D01*
X71564Y40766D01*
X71566Y40763D01*
X71571Y40750D01*
X71582Y40732D01*
X71592Y40708D01*
X71603Y40679D01*
X71613Y40648D01*
X71619Y40611D01*
X71621Y40572D01*
Y40554D01*
X71619Y40540D01*
X71616Y40522D01*
X71611Y40504D01*
X71600Y40459D01*
X71579Y40407D01*
X71564Y40381D01*
X71548Y40352D01*
X71527Y40326D01*
X71503Y40297D01*
X71477Y40271D01*
X71446Y40244D01*
X71443Y40242D01*
X71435Y40239D01*
X71425Y40231D01*
X71409Y40221D01*
X71388Y40210D01*
X71364Y40197D01*
X71336Y40181D01*
X71302Y40168D01*
X71265Y40155D01*
X71223Y40139D01*
X71178Y40126D01*
X71131Y40116D01*
X71079Y40106D01*
X71024Y40100D01*
X70964Y40095D01*
X70901Y40092D01*
X70895D01*
X70885D01*
X70867D01*
X70840Y40095D01*
X70812Y40098D01*
X70775Y40100D01*
X70736Y40106D01*
X70696Y40111D01*
X70607Y40126D01*
X70516Y40153D01*
X70471Y40171D01*
X70426Y40189D01*
X70387Y40210D01*
X70350Y40236D01*
X70348Y40239D01*
X70343Y40244D01*
X70332Y40252D01*
X70322Y40263D01*
X70306Y40276D01*
X70290Y40294D01*
X70275Y40312D01*
X70256Y40333D01*
X70222Y40386D01*
X70191Y40444D01*
X70180Y40477D01*
X70170Y40512D01*
X70165Y40548D01*
X70162Y40585D01*
Y40603D01*
X70165Y40624D01*
X70170Y40650D01*
X70178Y40682D01*
X70188Y40716D01*
X70201Y40750D01*
X70222Y40784D01*
X70225Y40789D01*
X70233Y40800D01*
X70246Y40815D01*
X70267Y40837D01*
X70290Y40863D01*
X70322Y40889D01*
X70356Y40918D01*
X70398Y40944D01*
X70196D01*
Y41235D01*
X71474D01*
X71477D01*
X71488D01*
X71503D01*
X71524D01*
X71548Y41232D01*
D02*
G37*
G36*
X71621Y39537D02*
X70893D01*
X70890D01*
X70882D01*
X70872D01*
X70859D01*
X70840D01*
X70819D01*
X70775Y39534D01*
X70725Y39532D01*
X70678Y39529D01*
X70636Y39524D01*
X70618Y39521D01*
X70602Y39519D01*
X70599D01*
X70589Y39516D01*
X70576Y39511D01*
X70560Y39503D01*
X70523Y39485D01*
X70505Y39469D01*
X70489Y39453D01*
X70487Y39450D01*
X70484Y39445D01*
X70476Y39435D01*
X70468Y39422D01*
X70463Y39406D01*
X70455Y39388D01*
X70453Y39367D01*
X70450Y39343D01*
Y39330D01*
X70453Y39314D01*
X70455Y39296D01*
X70463Y39275D01*
X70471Y39251D01*
X70484Y39225D01*
X70503Y39202D01*
X70505Y39199D01*
X70510Y39191D01*
X70523Y39181D01*
X70539Y39167D01*
X70557Y39152D01*
X70581Y39139D01*
X70610Y39123D01*
X70641Y39112D01*
X70647D01*
X70660Y39110D01*
X70670Y39107D01*
X70683Y39105D01*
X70699Y39102D01*
X70717D01*
X70738Y39099D01*
X70762Y39097D01*
X70791Y39094D01*
X70819Y39092D01*
X70854D01*
X70890Y39089D01*
X70932D01*
X70977D01*
X71621D01*
Y38780D01*
X70196D01*
Y39065D01*
X70403D01*
X70400Y39068D01*
X70385Y39078D01*
X70364Y39094D01*
X70337Y39115D01*
X70309Y39141D01*
X70277Y39170D01*
X70251Y39202D01*
X70225Y39236D01*
X70222Y39241D01*
X70214Y39254D01*
X70204Y39272D01*
X70193Y39298D01*
X70183Y39330D01*
X70172Y39367D01*
X70165Y39409D01*
X70162Y39450D01*
Y39474D01*
X70165Y39498D01*
X70170Y39529D01*
X70180Y39566D01*
X70191Y39605D01*
X70209Y39642D01*
X70233Y39678D01*
X70235Y39684D01*
X70246Y39694D01*
X70261Y39710D01*
X70282Y39731D01*
X70309Y39752D01*
X70340Y39773D01*
X70377Y39794D01*
X70416Y39809D01*
X70421Y39812D01*
X70437Y39815D01*
X70460Y39820D01*
X70497Y39828D01*
X70542Y39836D01*
X70597Y39841D01*
X70662Y39843D01*
X70736Y39846D01*
X71621D01*
Y39537D01*
D02*
G37*
G36*
Y38159D02*
X70196D01*
Y38468D01*
X71621D01*
Y38159D01*
D02*
G37*
G36*
X70002D02*
X69654D01*
Y38468D01*
X70002D01*
Y38159D01*
D02*
G37*
G36*
X71621Y37533D02*
X69651D01*
Y37842D01*
X71621D01*
Y37533D01*
D02*
G37*
G36*
Y36906D02*
X69651D01*
Y37216D01*
X71621D01*
Y36906D01*
D02*
G37*
G36*
Y36280D02*
X70196D01*
Y36589D01*
X71621D01*
Y36280D01*
D02*
G37*
G36*
X70002D02*
X69654D01*
Y36589D01*
X70002D01*
Y36280D01*
D02*
G37*
G36*
X71621Y35667D02*
X70806D01*
X70804D01*
X70796D01*
X70785D01*
X70772D01*
X70754D01*
X70736Y35665D01*
X70691Y35662D01*
X70641Y35657D01*
X70594Y35651D01*
X70552Y35641D01*
X70537Y35636D01*
X70521Y35628D01*
X70518Y35625D01*
X70510Y35620D01*
X70497Y35610D01*
X70484Y35596D01*
X70474Y35578D01*
X70460Y35557D01*
X70453Y35531D01*
X70450Y35500D01*
Y35494D01*
X70453Y35481D01*
X70455Y35463D01*
X70463Y35439D01*
X70474Y35413D01*
X70492Y35384D01*
X70516Y35358D01*
X70550Y35332D01*
X70555Y35329D01*
X70560Y35327D01*
X70571Y35321D01*
X70581Y35316D01*
X70597Y35311D01*
X70615Y35306D01*
X70636Y35300D01*
X70660Y35295D01*
X70688Y35290D01*
X70720Y35285D01*
X70754Y35279D01*
X70793Y35274D01*
X70838Y35272D01*
X70885Y35269D01*
X70937D01*
X71621D01*
Y34960D01*
X70840D01*
X70838D01*
X70830D01*
X70819D01*
X70804D01*
X70785D01*
X70762D01*
X70715Y34957D01*
X70665Y34955D01*
X70615Y34949D01*
X70591Y34947D01*
X70571Y34942D01*
X70555Y34939D01*
X70539Y34934D01*
X70537Y34931D01*
X70526Y34926D01*
X70510Y34918D01*
X70495Y34905D01*
X70479Y34886D01*
X70463Y34863D01*
X70453Y34831D01*
X70450Y34797D01*
Y34784D01*
X70453Y34771D01*
X70455Y34755D01*
X70460Y34734D01*
X70471Y34714D01*
X70481Y34690D01*
X70497Y34669D01*
X70500Y34666D01*
X70505Y34659D01*
X70516Y34651D01*
X70531Y34637D01*
X70550Y34624D01*
X70573Y34609D01*
X70599Y34596D01*
X70631Y34585D01*
X70636D01*
X70649Y34582D01*
X70670Y34577D01*
X70702Y34575D01*
X70744Y34569D01*
X70767Y34567D01*
X70793Y34564D01*
X70825D01*
X70856Y34562D01*
X70893D01*
X70929D01*
X71621D01*
Y34252D01*
X70196D01*
Y34541D01*
X70390D01*
X70387Y34543D01*
X70374Y34554D01*
X70353Y34569D01*
X70327Y34590D01*
X70301Y34614D01*
X70272Y34643D01*
X70243Y34674D01*
X70219Y34706D01*
X70217Y34711D01*
X70212Y34721D01*
X70201Y34740D01*
X70191Y34766D01*
X70180Y34795D01*
X70170Y34829D01*
X70165Y34865D01*
X70162Y34905D01*
Y34923D01*
X70165Y34944D01*
X70170Y34970D01*
X70175Y35002D01*
X70185Y35033D01*
X70201Y35067D01*
X70219Y35099D01*
X70222Y35101D01*
X70230Y35112D01*
X70243Y35127D01*
X70261Y35148D01*
X70288Y35169D01*
X70316Y35190D01*
X70350Y35214D01*
X70390Y35235D01*
X70387D01*
X70385Y35238D01*
X70372Y35248D01*
X70350Y35264D01*
X70327Y35285D01*
X70298Y35311D01*
X70269Y35340D01*
X70243Y35371D01*
X70219Y35403D01*
X70217Y35408D01*
X70212Y35418D01*
X70201Y35437D01*
X70191Y35460D01*
X70180Y35489D01*
X70170Y35520D01*
X70165Y35555D01*
X70162Y35591D01*
Y35612D01*
X70165Y35633D01*
X70170Y35662D01*
X70175Y35696D01*
X70185Y35730D01*
X70201Y35764D01*
X70219Y35798D01*
X70222Y35801D01*
X70230Y35811D01*
X70243Y35827D01*
X70261Y35848D01*
X70285Y35869D01*
X70314Y35890D01*
X70345Y35911D01*
X70385Y35929D01*
X70390Y35932D01*
X70406Y35937D01*
X70429Y35945D01*
X70463Y35953D01*
X70510Y35961D01*
X70537Y35966D01*
X70565Y35969D01*
X70597Y35971D01*
X70634Y35974D01*
X70670Y35976D01*
X70709D01*
X71621D01*
Y35667D01*
D02*
G37*
%LPC*%
G36*
X124341Y27087D02*
X123921D01*
X124341Y26854D01*
Y27087D01*
D02*
G37*
G36*
X124362Y23697D02*
X124338D01*
X124336D01*
X124331D01*
X124325D01*
X124315D01*
X124303Y23696D01*
X124290D01*
X124259Y23691D01*
X124226Y23686D01*
X124192Y23678D01*
X124159Y23666D01*
X124144Y23658D01*
X124131Y23650D01*
X124128Y23648D01*
X124121Y23642D01*
X124110Y23632D01*
X124097Y23617D01*
X124085Y23601D01*
X124074Y23581D01*
X124067Y23558D01*
X124064Y23533D01*
Y23530D01*
X124066Y23522D01*
X124067Y23509D01*
X124072Y23494D01*
X124080Y23474D01*
X124092Y23456D01*
X124108Y23437D01*
X124130Y23419D01*
X124133Y23417D01*
X124143Y23412D01*
X124157Y23404D01*
X124179Y23396D01*
X124208Y23387D01*
X124243Y23379D01*
X124284Y23374D01*
X124307Y23373D01*
X124331D01*
X124333D01*
X124338D01*
X124344D01*
X124354D01*
X124367Y23374D01*
X124381Y23376D01*
X124412Y23379D01*
X124446Y23384D01*
X124480Y23392D01*
X124513Y23404D01*
X124528Y23410D01*
X124541Y23419D01*
X124545Y23420D01*
X124551Y23427D01*
X124561Y23437D01*
X124572Y23450D01*
X124585Y23466D01*
X124595Y23484D01*
X124602Y23505D01*
X124605Y23528D01*
Y23532D01*
X124603Y23540D01*
X124602Y23553D01*
X124597Y23569D01*
X124589Y23589D01*
X124577Y23609D01*
X124561Y23629D01*
X124540Y23648D01*
X124536Y23650D01*
X124526Y23656D01*
X124512Y23665D01*
X124490Y23673D01*
X124461Y23683D01*
X124426Y23689D01*
X124385Y23696D01*
X124362Y23697D01*
D02*
G37*
G36*
X113736Y35344D02*
X113066D01*
X113736Y34972D01*
Y35344D01*
D02*
G37*
G36*
X113770Y29929D02*
X113731D01*
X113728D01*
X113721D01*
X113710D01*
X113694D01*
X113676Y29926D01*
X113655D01*
X113605Y29918D01*
X113553Y29910D01*
X113498Y29897D01*
X113445Y29879D01*
X113422Y29866D01*
X113401Y29853D01*
X113396Y29850D01*
X113385Y29840D01*
X113367Y29824D01*
X113346Y29800D01*
X113328Y29774D01*
X113309Y29743D01*
X113299Y29706D01*
X113294Y29667D01*
Y29662D01*
X113296Y29648D01*
X113299Y29627D01*
X113307Y29604D01*
X113320Y29572D01*
X113338Y29544D01*
X113364Y29512D01*
X113398Y29483D01*
X113403Y29481D01*
X113419Y29473D01*
X113443Y29460D01*
X113477Y29447D01*
X113524Y29434D01*
X113579Y29420D01*
X113645Y29413D01*
X113681Y29410D01*
X113721D01*
X113723D01*
X113731D01*
X113742D01*
X113757D01*
X113778Y29413D01*
X113799Y29415D01*
X113849Y29420D01*
X113904Y29428D01*
X113959Y29441D01*
X114011Y29460D01*
X114035Y29470D01*
X114056Y29483D01*
X114061Y29486D01*
X114072Y29496D01*
X114087Y29512D01*
X114106Y29533D01*
X114127Y29559D01*
X114142Y29588D01*
X114153Y29622D01*
X114158Y29659D01*
Y29664D01*
X114155Y29677D01*
X114153Y29698D01*
X114145Y29724D01*
X114132Y29756D01*
X114114Y29787D01*
X114087Y29819D01*
X114053Y29850D01*
X114048Y29853D01*
X114032Y29863D01*
X114009Y29876D01*
X113975Y29889D01*
X113927Y29905D01*
X113873Y29916D01*
X113807Y29926D01*
X113770Y29929D01*
D02*
G37*
G36*
X70893Y46344D02*
X70222D01*
X70893Y45972D01*
Y46344D01*
D02*
G37*
G36*
X70927Y40928D02*
X70888D01*
X70885D01*
X70877D01*
X70867D01*
X70851D01*
X70833Y40925D01*
X70812D01*
X70762Y40918D01*
X70709Y40910D01*
X70654Y40897D01*
X70602Y40878D01*
X70578Y40865D01*
X70557Y40852D01*
X70552Y40850D01*
X70542Y40839D01*
X70523Y40823D01*
X70503Y40800D01*
X70484Y40774D01*
X70466Y40742D01*
X70455Y40705D01*
X70450Y40666D01*
Y40661D01*
X70453Y40648D01*
X70455Y40627D01*
X70463Y40603D01*
X70476Y40572D01*
X70495Y40543D01*
X70521Y40512D01*
X70555Y40483D01*
X70560Y40480D01*
X70576Y40472D01*
X70599Y40459D01*
X70634Y40446D01*
X70681Y40433D01*
X70736Y40420D01*
X70801Y40412D01*
X70838Y40409D01*
X70877D01*
X70880D01*
X70888D01*
X70898D01*
X70914D01*
X70935Y40412D01*
X70956Y40415D01*
X71005Y40420D01*
X71061Y40428D01*
X71115Y40441D01*
X71168Y40459D01*
X71192Y40470D01*
X71213Y40483D01*
X71218Y40485D01*
X71228Y40496D01*
X71244Y40512D01*
X71262Y40532D01*
X71283Y40559D01*
X71299Y40588D01*
X71309Y40622D01*
X71315Y40658D01*
Y40663D01*
X71312Y40677D01*
X71309Y40698D01*
X71302Y40724D01*
X71289Y40755D01*
X71270Y40787D01*
X71244Y40818D01*
X71210Y40850D01*
X71205Y40852D01*
X71189Y40863D01*
X71165Y40876D01*
X71131Y40889D01*
X71084Y40905D01*
X71029Y40915D01*
X70964Y40925D01*
X70927Y40928D01*
D02*
G37*
%LPD*%
D10*
X33466Y57085D02*
G03*
X35435Y59055I-1J1969D01*
G01*
X11811D02*
G03*
X13781Y57087I1969J1D01*
G01*
X35433Y0D02*
G03*
X33463Y1969I-1969J-1D01*
G01*
X13778Y1970D02*
G03*
X11810Y0I1J-1969D01*
G01*
X73227Y59055D02*
G03*
X75195Y57085I1969J-1D01*
G01*
X86221D02*
G03*
X88191Y59054I1J1969D01*
G01*
Y1D02*
G03*
X86221Y1970I-1969J-1D01*
G01*
X75195D02*
G03*
X73227Y0I1J-1969D01*
G01*
X13781Y57087D02*
X33466Y57085D01*
X0Y59055D02*
X11810D01*
X153543Y0D02*
Y59055D01*
X35433D02*
X73228D01*
X88189D02*
X153543D01*
X0Y0D02*
Y59055D01*
Y0D02*
X11810D01*
X13778Y1970D02*
X33463Y1969D01*
X75195Y57085D02*
X86221D01*
X75195Y1970D02*
X86221D01*
X35433Y0D02*
X73228D01*
X88189D02*
X153543D01*
X114171Y49213D02*
X114895Y48913D01*
X115450Y48359D01*
X115750Y47634D01*
Y47243D02*
Y47634D01*
Y11810D02*
Y47243D01*
X115750Y11810D02*
X115750Y11810D01*
X115710Y11457D02*
X115750Y11810D01*
X115367Y10836D02*
X115710Y11457D01*
X114813Y10394D02*
X115367Y10836D01*
X114132Y10197D02*
X114813Y10394D01*
X113779Y10236D02*
X114132Y10197D01*
X113779Y10236D02*
Y10236D01*
X113427Y10197D02*
X113779Y10236D01*
X112746Y10394D02*
X113427Y10197D01*
X112192Y10836D02*
X112746Y10394D01*
X111849Y11457D02*
X112192Y10836D01*
X111810Y11810D02*
X111849Y11457D01*
X111810Y11810D02*
X111810Y47243D01*
Y47634D01*
X112109Y48359D01*
X112664Y48913D01*
X113388Y49213D01*
X114171D01*
X135398Y37484D02*
X137647Y37402D01*
X139854Y36959D01*
X141960Y36164D01*
X143909Y35039D01*
X145652Y33614D01*
X147140Y31926D01*
X147739Y30973D01*
Y30973D01*
X147812Y30856D01*
X147925Y30603D01*
X148001Y30338D01*
X148040Y30064D01*
Y29926D02*
Y30064D01*
Y29605D02*
Y29926D01*
X147836Y28997D02*
X148040Y29605D01*
X147451Y28485D02*
X147836Y28997D01*
X146923Y28121D02*
X147451Y28485D01*
X146307Y27944D02*
X146923Y28121D01*
X145666Y27971D02*
X146307Y27944D01*
X145067Y28200D02*
X145666Y27971D01*
X144571Y28607D02*
X145067Y28200D01*
X144401Y28879D02*
X144571Y28607D01*
X143878Y29632D02*
X144401Y28879D01*
X142634Y30978D02*
X143878Y29632D01*
X141163Y32072D02*
X142634Y30978D01*
X139516Y32875D02*
X141163Y32072D01*
X137748Y33361D02*
X139516Y32875D01*
X135922Y33512D02*
X137748Y33361D01*
X134098Y33323D02*
X135922Y33512D01*
X132342Y32801D02*
X134098Y33323D01*
X130711Y31964D02*
X132342Y32801D01*
X129263Y30841D02*
X130711Y31964D01*
X128047Y29469D02*
X129263Y30841D01*
X127105Y27897D02*
X128047Y29469D01*
X126469Y26177D02*
X127105Y27897D01*
X126162Y24371D02*
X126469Y26177D01*
X126162Y24371D02*
X126193Y22538D01*
X126562Y20743D01*
X127256Y19046D01*
X128251Y17507D01*
X129513Y16178D01*
X130998Y15104D01*
X132656Y14323D01*
X134430Y13861D01*
X136258Y13735D01*
X138079Y13948D01*
X139829Y14493D01*
X141448Y15352D01*
X142881Y16495D01*
X144078Y17883D01*
X144575Y18654D01*
X144738Y18935D01*
X145228Y19362D01*
X145829Y19610D01*
X146477Y19651D01*
X147105Y19482D01*
X147645Y19120D01*
X148040Y18605D01*
X148249Y17989D01*
Y17664D02*
Y17989D01*
Y17535D02*
Y17664D01*
X148215Y17277D02*
X148249Y17535D01*
X148147Y17027D02*
X148215Y17277D01*
X148047Y16787D02*
X148147Y17027D01*
X147982Y16675D02*
X148047Y16787D01*
X147417Y15702D02*
X147982Y16675D01*
X145986Y13964D02*
X147417Y15702D01*
X144294Y12480D02*
X145986Y13964D01*
X142384Y11290D02*
X144294Y12480D01*
X140306Y10424D02*
X142384Y11290D01*
X138116Y9905D02*
X140306Y10424D01*
X135870Y9747D02*
X138116Y9905D01*
X133629Y9954D02*
X135870Y9747D01*
X131451Y10521D02*
X133629Y9954D01*
X129393Y11433D02*
X131451Y10521D01*
X127509Y12665D02*
X129393Y11433D01*
X125850Y14186D02*
X127509Y12665D01*
X124458Y15955D02*
X125850Y14186D01*
X123371Y17926D02*
X124458Y15955D01*
X122616Y20046D02*
X123371Y17926D01*
X122215Y22261D02*
X122616Y20046D01*
X122176Y24512D02*
X122215Y22261D01*
X122176Y24512D02*
X122502Y26739D01*
X123184Y28884D01*
X124204Y30891D01*
X125535Y32706D01*
X127141Y34282D01*
X128982Y35578D01*
X131007Y36559D01*
X133165Y37200D01*
X135398Y37484D01*
X71258Y49214D02*
X71982Y48914D01*
X72536Y48360D01*
X72836Y47636D01*
Y47244D02*
Y47636D01*
Y34252D02*
Y47244D01*
Y33860D02*
Y34252D01*
X72536Y33136D02*
X72836Y33860D01*
X71982Y32582D02*
X72536Y33136D01*
X71258Y32282D02*
X71982Y32582D01*
X70474Y32282D02*
X71258D01*
X69750Y32582D02*
X70474Y32282D01*
X69196Y33136D02*
X69750Y32582D01*
X68896Y33860D02*
X69196Y33136D01*
X68896Y33860D02*
Y34252D01*
Y47244D01*
Y47636D01*
X69196Y48360D01*
X69750Y48914D01*
X70474Y49214D01*
X71258D01*
M02*
