G04*
G04 #@! TF.GenerationSoftware,Altium Limited,Altium Designer,21.5.1 (32)*
G04*
G04 Layer_Color=8388736*
%FSLAX25Y25*%
%MOIN*%
G70*
G04*
G04 #@! TF.SameCoordinates,39876A4E-BCA0-42A6-88EB-BCD9F64C9596*
G04*
G04*
G04 #@! TF.FilePolarity,Negative*
G04*
G01*
G75*
%ADD10C,0.01000*%
%ADD11R,0.45388X0.00787*%
%ADD12R,0.00787X0.51181*%
%ADD13R,0.46063X0.00787*%
G04:AMPARAMS|DCode=14|XSize=19.68mil|YSize=25.59mil|CornerRadius=0mil|HoleSize=0mil|Usage=FLASHONLY|Rotation=270.000|XOffset=0mil|YOffset=0mil|HoleType=Round|Shape=RoundedRectangle|*
%AMROUNDEDRECTD14*
21,1,0.01968,0.02559,0,0,270.0*
21,1,0.01968,0.02559,0,0,270.0*
1,1,0.00000,-0.01280,-0.00984*
1,1,0.00000,-0.01280,0.00984*
1,1,0.00000,0.01280,0.00984*
1,1,0.00000,0.01280,-0.00984*
%
%ADD14ROUNDEDRECTD14*%
G04:AMPARAMS|DCode=15|XSize=15.75mil|YSize=23.62mil|CornerRadius=3.15mil|HoleSize=0mil|Usage=FLASHONLY|Rotation=270.000|XOffset=0mil|YOffset=0mil|HoleType=Round|Shape=RoundedRectangle|*
%AMROUNDEDRECTD15*
21,1,0.01575,0.01732,0,0,270.0*
21,1,0.00945,0.02362,0,0,270.0*
1,1,0.00630,-0.00866,-0.00472*
1,1,0.00630,-0.00866,0.00472*
1,1,0.00630,0.00866,0.00472*
1,1,0.00630,0.00866,-0.00472*
%
%ADD15ROUNDEDRECTD15*%
%ADD16R,0.02362X0.01575*%
G04:AMPARAMS|DCode=17|XSize=39.37mil|YSize=55.12mil|CornerRadius=7.09mil|HoleSize=0mil|Usage=FLASHONLY|Rotation=0.000|XOffset=0mil|YOffset=0mil|HoleType=Round|Shape=RoundedRectangle|*
%AMROUNDEDRECTD17*
21,1,0.03937,0.04095,0,0,0.0*
21,1,0.02520,0.05512,0,0,0.0*
1,1,0.01417,0.01260,-0.02047*
1,1,0.01417,-0.01260,-0.02047*
1,1,0.01417,-0.01260,0.02047*
1,1,0.01417,0.01260,0.02047*
%
%ADD17ROUNDEDRECTD17*%
%ADD18R,0.03937X0.05512*%
G04:AMPARAMS|DCode=19|XSize=59.06mil|YSize=92.52mil|CornerRadius=9.06mil|HoleSize=0mil|Usage=FLASHONLY|Rotation=0.000|XOffset=0mil|YOffset=0mil|HoleType=Round|Shape=RoundedRectangle|*
%AMROUNDEDRECTD19*
21,1,0.05906,0.07441,0,0,0.0*
21,1,0.04095,0.09252,0,0,0.0*
1,1,0.01811,0.02047,-0.03720*
1,1,0.01811,-0.02047,-0.03720*
1,1,0.01811,-0.02047,0.03720*
1,1,0.01811,0.02047,0.03720*
%
%ADD19ROUNDEDRECTD19*%
G04:AMPARAMS|DCode=20|XSize=29.53mil|YSize=27.56mil|CornerRadius=5.91mil|HoleSize=0mil|Usage=FLASHONLY|Rotation=90.000|XOffset=0mil|YOffset=0mil|HoleType=Round|Shape=RoundedRectangle|*
%AMROUNDEDRECTD20*
21,1,0.02953,0.01575,0,0,90.0*
21,1,0.01772,0.02756,0,0,90.0*
1,1,0.01181,0.00787,0.00886*
1,1,0.01181,0.00787,-0.00886*
1,1,0.01181,-0.00787,-0.00886*
1,1,0.01181,-0.00787,0.00886*
%
%ADD20ROUNDEDRECTD20*%
%ADD21C,0.03887*%
G04:AMPARAMS|DCode=22|XSize=21.65mil|YSize=59.06mil|CornerRadius=4.63mil|HoleSize=0mil|Usage=FLASHONLY|Rotation=0.000|XOffset=0mil|YOffset=0mil|HoleType=Round|Shape=RoundedRectangle|*
%AMROUNDEDRECTD22*
21,1,0.02165,0.04980,0,0,0.0*
21,1,0.01240,0.05906,0,0,0.0*
1,1,0.00925,0.00620,-0.02490*
1,1,0.00925,-0.00620,-0.02490*
1,1,0.00925,-0.00620,0.02490*
1,1,0.00925,0.00620,0.02490*
%
%ADD22ROUNDEDRECTD22*%
G04:AMPARAMS|DCode=23|XSize=33.07mil|YSize=31.5mil|CornerRadius=6.3mil|HoleSize=0mil|Usage=FLASHONLY|Rotation=180.000|XOffset=0mil|YOffset=0mil|HoleType=Round|Shape=RoundedRectangle|*
%AMROUNDEDRECTD23*
21,1,0.03307,0.01890,0,0,180.0*
21,1,0.02047,0.03150,0,0,180.0*
1,1,0.01260,-0.01024,0.00945*
1,1,0.01260,0.01024,0.00945*
1,1,0.01260,0.01024,-0.00945*
1,1,0.01260,-0.01024,-0.00945*
%
%ADD23ROUNDEDRECTD23*%
%ADD24R,0.02559X0.01378*%
G04:AMPARAMS|DCode=25|XSize=33.07mil|YSize=31.5mil|CornerRadius=6.3mil|HoleSize=0mil|Usage=FLASHONLY|Rotation=270.000|XOffset=0mil|YOffset=0mil|HoleType=Round|Shape=RoundedRectangle|*
%AMROUNDEDRECTD25*
21,1,0.03307,0.01890,0,0,270.0*
21,1,0.02047,0.03150,0,0,270.0*
1,1,0.01260,-0.00945,-0.01024*
1,1,0.01260,-0.00945,0.01024*
1,1,0.01260,0.00945,0.01024*
1,1,0.01260,0.00945,-0.01024*
%
%ADD25ROUNDEDRECTD25*%
G04:AMPARAMS|DCode=26|XSize=45.28mil|YSize=47.24mil|CornerRadius=7.68mil|HoleSize=0mil|Usage=FLASHONLY|Rotation=0.000|XOffset=0mil|YOffset=0mil|HoleType=Round|Shape=RoundedRectangle|*
%AMROUNDEDRECTD26*
21,1,0.04528,0.03189,0,0,0.0*
21,1,0.02992,0.04724,0,0,0.0*
1,1,0.01535,0.01496,-0.01595*
1,1,0.01535,-0.01496,-0.01595*
1,1,0.01535,-0.01496,0.01595*
1,1,0.01535,0.01496,0.01595*
%
%ADD26ROUNDEDRECTD26*%
G04:AMPARAMS|DCode=27|XSize=29.53mil|YSize=27.56mil|CornerRadius=5.91mil|HoleSize=0mil|Usage=FLASHONLY|Rotation=180.000|XOffset=0mil|YOffset=0mil|HoleType=Round|Shape=RoundedRectangle|*
%AMROUNDEDRECTD27*
21,1,0.02953,0.01575,0,0,180.0*
21,1,0.01772,0.02756,0,0,180.0*
1,1,0.01181,-0.00886,0.00787*
1,1,0.01181,0.00886,0.00787*
1,1,0.01181,0.00886,-0.00787*
1,1,0.01181,-0.00886,-0.00787*
%
%ADD27ROUNDEDRECTD27*%
%ADD28R,0.01378X0.02559*%
%ADD29C,0.03347*%
G36*
X60960Y49769D02*
X60997Y49758D01*
X61031Y49739D01*
X61061Y49715D01*
X61086Y49685D01*
X61104Y49650D01*
X61115Y49613D01*
X61119Y49575D01*
X61119Y44181D01*
X61115Y44142D01*
X61107Y44114D01*
X61104Y44105D01*
X61086Y44071D01*
X61061Y44041D01*
X61061Y44041D01*
X59762Y42742D01*
X59762Y42742D01*
X59732Y42717D01*
X59698Y42699D01*
X59689Y42696D01*
X59661Y42688D01*
X59641Y42686D01*
X59622Y42684D01*
X59622Y42684D01*
X56000D01*
X55961Y42688D01*
X55924Y42699D01*
X55890Y42717D01*
X55860Y42742D01*
X55835Y42772D01*
X55817Y42806D01*
X55806Y42843D01*
X55802Y42882D01*
X55802Y49575D01*
X55806Y49613D01*
X55817Y49650D01*
X55836Y49685D01*
X55860Y49715D01*
X55890Y49739D01*
X55924Y49758D01*
X55961Y49769D01*
X56000Y49773D01*
X60921D01*
X60960Y49769D01*
D02*
G37*
G36*
X142758Y8445D02*
X142835Y8439D01*
X142923Y8421D01*
X143023Y8403D01*
X143130Y8374D01*
X143236Y8338D01*
X143141Y7748D01*
X143135D01*
X143112Y7754D01*
X143082Y7766D01*
X143041Y7778D01*
X142994Y7784D01*
X142935Y7796D01*
X142823Y7801D01*
X142799D01*
X142776Y7796D01*
X142740Y7790D01*
X142705Y7778D01*
X142669Y7766D01*
X142640Y7743D01*
X142610Y7713D01*
Y7707D01*
X142599Y7695D01*
X142593Y7672D01*
X142581Y7636D01*
X142569Y7595D01*
X142557Y7536D01*
X142551Y7465D01*
X142545Y7377D01*
Y7147D01*
X143065D01*
Y6480D01*
X142545D01*
Y3937D01*
X141849D01*
Y6480D01*
X141460D01*
Y7038D01*
X141247Y6321D01*
X141242Y6327D01*
X141218Y6344D01*
X141183Y6368D01*
X141141Y6391D01*
X141088Y6415D01*
X141035Y6439D01*
X140976Y6456D01*
X140917Y6462D01*
X140893D01*
X140864Y6456D01*
X140829Y6450D01*
X140787Y6433D01*
X140746Y6415D01*
X140699Y6385D01*
X140657Y6350D01*
X140652Y6344D01*
X140640Y6327D01*
X140622Y6303D01*
X140598Y6262D01*
X140575Y6208D01*
X140545Y6144D01*
X140522Y6061D01*
X140504Y5961D01*
Y5955D01*
Y5949D01*
X140498Y5931D01*
Y5908D01*
X140492Y5872D01*
Y5831D01*
X140486Y5784D01*
X140480Y5731D01*
X140475Y5660D01*
Y5589D01*
X140469Y5500D01*
X140463Y5406D01*
Y5306D01*
X140457Y5188D01*
Y5064D01*
Y4928D01*
Y3937D01*
X139761D01*
Y7147D01*
X140410D01*
Y6692D01*
X140416Y6698D01*
X140427Y6716D01*
X140439Y6740D01*
X140469Y6793D01*
X140510Y6858D01*
X140557Y6928D01*
X140604Y6999D01*
X140657Y7064D01*
X140705Y7111D01*
X140711Y7117D01*
X140728Y7129D01*
X140758Y7147D01*
X140793Y7170D01*
X140834Y7188D01*
X140888Y7206D01*
X140947Y7217D01*
X141006Y7223D01*
X141047D01*
X141094Y7217D01*
X141153Y7206D01*
X141224Y7182D01*
X141301Y7153D01*
X141383Y7111D01*
X141460Y7062D01*
Y7147D01*
X141849D01*
Y7389D01*
Y7394D01*
Y7406D01*
Y7430D01*
Y7459D01*
Y7495D01*
X141855Y7536D01*
X141861Y7630D01*
X141867Y7737D01*
X141885Y7837D01*
X141902Y7937D01*
X141932Y8020D01*
X141938Y8032D01*
X141950Y8055D01*
X141967Y8091D01*
X141997Y8132D01*
X142032Y8185D01*
X142079Y8238D01*
X142132Y8285D01*
X142197Y8332D01*
X142203Y8338D01*
X142233Y8350D01*
X142268Y8368D01*
X142321Y8392D01*
X142386Y8415D01*
X142469Y8433D01*
X142557Y8445D01*
X142652Y8450D01*
X142705D01*
X142758Y8445D01*
D02*
G37*
G36*
X139076Y7583D02*
X138380D01*
Y8368D01*
X139076D01*
Y7583D01*
D02*
G37*
G36*
X150705Y3937D02*
X150044D01*
X149584Y5996D01*
X149136Y3937D01*
X148463D01*
X147631Y7147D01*
X148304D01*
X148800Y5040D01*
X149254Y7147D01*
X149920D01*
X150363Y5040D01*
X150870Y7147D01*
X151561D01*
X150705Y3937D01*
D02*
G37*
G36*
X144156D02*
X143460D01*
Y8374D01*
X144156D01*
Y3937D01*
D02*
G37*
G36*
X139076D02*
X138380D01*
Y7147D01*
X139076D01*
Y3937D01*
D02*
G37*
G36*
X137997D02*
X137200D01*
X136881Y4946D01*
X135430D01*
X135129Y3937D01*
X134350D01*
X135760Y8374D01*
X136545D01*
X137997Y3937D01*
D02*
G37*
G36*
X146115Y7217D02*
X146162D01*
X146215Y7206D01*
X146274Y7200D01*
X146345Y7182D01*
X146416Y7158D01*
X146499Y7135D01*
X146575Y7099D01*
X146658Y7058D01*
X146740Y7011D01*
X146823Y6952D01*
X146906Y6887D01*
X146982Y6810D01*
X147053Y6722D01*
X147059Y6716D01*
X147071Y6698D01*
X147089Y6675D01*
X147112Y6633D01*
X147136Y6586D01*
X147171Y6527D01*
X147201Y6462D01*
X147236Y6391D01*
X147271Y6309D01*
X147301Y6220D01*
X147336Y6126D01*
X147360Y6020D01*
X147383Y5914D01*
X147401Y5801D01*
X147413Y5683D01*
X147419Y5559D01*
Y5554D01*
Y5536D01*
Y5512D01*
Y5477D01*
X147413Y5430D01*
X147407Y5382D01*
X147401Y5324D01*
X147395Y5259D01*
X147372Y5117D01*
X147336Y4970D01*
X147289Y4810D01*
X147224Y4657D01*
Y4651D01*
X147218Y4639D01*
X147206Y4621D01*
X147189Y4592D01*
X147148Y4521D01*
X147094Y4433D01*
X147018Y4338D01*
X146935Y4238D01*
X146841Y4143D01*
X146729Y4061D01*
X146723D01*
X146717Y4055D01*
X146699Y4043D01*
X146676Y4031D01*
X146611Y3996D01*
X146528Y3961D01*
X146428Y3925D01*
X146316Y3890D01*
X146192Y3866D01*
X146056Y3860D01*
X146032D01*
X145997Y3866D01*
X145962D01*
X145908Y3872D01*
X145850Y3884D01*
X145785Y3896D01*
X145714Y3919D01*
X145643Y3943D01*
X145560Y3972D01*
X145484Y4008D01*
X145401Y4049D01*
X145318Y4102D01*
X145236Y4161D01*
X145159Y4232D01*
X145082Y4309D01*
X145077Y4315D01*
X145065Y4332D01*
X145047Y4356D01*
X145024Y4391D01*
X144994Y4439D01*
X144959Y4492D01*
X144929Y4562D01*
X144894Y4639D01*
X144852Y4722D01*
X144823Y4816D01*
X144788Y4922D01*
X144758Y5034D01*
X144734Y5158D01*
X144717Y5294D01*
X144705Y5436D01*
X144699Y5583D01*
Y5589D01*
Y5607D01*
Y5630D01*
X144705Y5666D01*
Y5707D01*
X144711Y5754D01*
X144717Y5807D01*
X144723Y5866D01*
X144746Y6002D01*
X144776Y6144D01*
X144823Y6297D01*
X144882Y6444D01*
Y6450D01*
X144894Y6462D01*
X144900Y6480D01*
X144917Y6509D01*
X144959Y6580D01*
X145012Y6663D01*
X145082Y6757D01*
X145171Y6858D01*
X145265Y6946D01*
X145372Y7029D01*
X145378D01*
X145383Y7034D01*
X145401Y7046D01*
X145425Y7058D01*
X145490Y7088D01*
X145572Y7129D01*
X145673Y7164D01*
X145791Y7194D01*
X145920Y7217D01*
X146056Y7223D01*
X146086D01*
X146115Y7217D01*
D02*
G37*
%LPC*%
G36*
X136144Y7335D02*
X135654Y5695D01*
X136645D01*
X136144Y7335D01*
D02*
G37*
G36*
X146097Y6533D02*
X146038D01*
X146009Y6527D01*
X145956Y6521D01*
X145897Y6504D01*
X145826Y6474D01*
X145749Y6427D01*
X145673Y6362D01*
X145637Y6327D01*
X145602Y6279D01*
X145596Y6267D01*
X145572Y6232D01*
X145543Y6173D01*
X145507Y6090D01*
X145472Y5990D01*
X145442Y5860D01*
X145419Y5713D01*
X145413Y5542D01*
Y5536D01*
Y5518D01*
Y5495D01*
X145419Y5459D01*
Y5418D01*
X145425Y5377D01*
X145437Y5265D01*
X145460Y5147D01*
X145495Y5023D01*
X145537Y4905D01*
X145602Y4798D01*
X145608Y4787D01*
X145637Y4757D01*
X145678Y4722D01*
X145731Y4674D01*
X145796Y4627D01*
X145873Y4592D01*
X145962Y4562D01*
X146062Y4551D01*
X146074D01*
X146109Y4557D01*
X146156Y4562D01*
X146221Y4580D01*
X146292Y4610D01*
X146369Y4657D01*
X146445Y4716D01*
X146516Y4798D01*
Y4804D01*
X146522Y4810D01*
X146534Y4828D01*
X146546Y4846D01*
X146575Y4905D01*
X146611Y4987D01*
X146646Y5093D01*
X146676Y5223D01*
X146699Y5371D01*
X146705Y5548D01*
Y5554D01*
Y5571D01*
Y5595D01*
Y5624D01*
X146699Y5666D01*
X146693Y5713D01*
X146681Y5819D01*
X146658Y5937D01*
X146622Y6061D01*
X146575Y6173D01*
X146510Y6279D01*
Y6285D01*
X146504Y6291D01*
X146475Y6321D01*
X146434Y6362D01*
X146380Y6409D01*
X146316Y6450D01*
X146239Y6492D01*
X146150Y6521D01*
X146097Y6533D01*
D02*
G37*
%LPD*%
D10*
X122638Y6102D02*
X126575Y4134D01*
X122638Y6102D02*
X126575Y4134D01*
X122638Y6102D02*
X126575Y8071D01*
X122638Y6102D02*
X132874D01*
D11*
X24687Y54903D02*
D03*
D12*
X2362Y29528D02*
D03*
D13*
X25000Y4331D02*
D03*
D14*
X53933Y49378D02*
D03*
Y46228D02*
D03*
Y43079D02*
D03*
X62988Y49378D02*
D03*
Y46228D02*
D03*
Y43079D02*
D03*
D15*
X140157Y22047D02*
D03*
D16*
Y25197D02*
D03*
X134646Y22047D02*
D03*
Y25197D02*
D03*
D17*
X72913Y23209D02*
D03*
X82756D02*
D03*
X77835D02*
D03*
X87677D02*
D03*
X92598D02*
D03*
D18*
X67992D02*
D03*
D19*
X60512Y14173D02*
D03*
X100079D02*
D03*
D20*
X54232Y18110D02*
D03*
X50492D02*
D03*
X49473Y38544D02*
D03*
X53213D02*
D03*
X36713Y20472D02*
D03*
X40453D02*
D03*
Y16535D02*
D03*
X36713D02*
D03*
D21*
X85945Y38051D02*
D03*
X95945Y43051D02*
D03*
Y38051D02*
D03*
X90945Y43051D02*
D03*
X85945D02*
D03*
X90945Y38051D02*
D03*
D22*
X6299Y23228D02*
D03*
X8858D02*
D03*
X11417D02*
D03*
X13976D02*
D03*
X16535D02*
D03*
X19094D02*
D03*
X21654D02*
D03*
X24213D02*
D03*
X26772D02*
D03*
X29331D02*
D03*
X6299Y46457D02*
D03*
X8858D02*
D03*
X11417D02*
D03*
X13976D02*
D03*
X16535D02*
D03*
X19094D02*
D03*
X21654D02*
D03*
X24213D02*
D03*
X26772D02*
D03*
X29331D02*
D03*
D23*
X33858Y45984D02*
D03*
Y42205D02*
D03*
X49213Y45748D02*
D03*
Y49528D02*
D03*
X130709Y21732D02*
D03*
Y25512D02*
D03*
X21654Y12520D02*
D03*
Y8740D02*
D03*
X30315Y12047D02*
D03*
Y8268D02*
D03*
X37008Y12126D02*
D03*
Y8347D02*
D03*
D24*
X11756Y8032D02*
D03*
Y10000D02*
D03*
Y11969D02*
D03*
X6244D02*
D03*
Y8032D02*
D03*
D25*
X9370Y17717D02*
D03*
X5590D02*
D03*
X22215Y52080D02*
D03*
X18436D02*
D03*
X63307Y38583D02*
D03*
X59527D02*
D03*
D26*
X16929Y13484D02*
D03*
Y7776D02*
D03*
D27*
X26378Y8287D02*
D03*
Y12028D02*
D03*
X40945Y8366D02*
D03*
Y12106D02*
D03*
D28*
X50000Y13780D02*
D03*
X48031D02*
D03*
X46063D02*
D03*
Y8268D02*
D03*
X50000D02*
D03*
D29*
X80945Y44551D02*
D03*
Y36551D02*
D03*
X100945Y40551D02*
D03*
M02*
